<svg width="60" height="60" viewBox="0 0 60 60" fill="none" xmlns="http://www.w3.org/2000/svg">
<g id="Frame 1203">
<g id="Group 1184">
<circle id="Ellipse 14" cx="30" cy="30" r="30" fill="black"/>
<g id="Group 1181">
<g id="Ellipse 14_2" filter="url(#filter0_i_306_97)">
<circle cx="30.1429" cy="30.1428" r="25" fill="#BF940D"/>
</g>
<path id="Vector" d="M38.5611 29.4353L25.4702 19.441C25.0339 19.1554 24.452 19.0126 23.8702 19.2982C23.4339 19.5838 23.1429 20.0121 23.1429 20.5832V40.5719C23.1429 41.143 23.4339 41.5714 24.0157 41.8569C24.1611 41.9997 24.452 41.9997 24.5975 41.9997C24.8884 41.9997 25.1793 41.8569 25.4702 41.7141L38.5611 31.7198C38.852 31.4342 39.1429 31.0059 39.1429 30.5776C39.1429 30.1492 38.9975 29.7209 38.5611 29.4353Z" fill="white"/>
</g>
</g>
</g>
<defs>
<filter id="filter0_i_306_97" x="4.14288" y="3.14279" width="51" height="52" filterUnits="userSpaceOnUse" color-interpolation-filters="sRGB">
<feFlood flood-opacity="0" result="BackgroundImageFix"/>
<feBlend mode="normal" in="SourceGraphic" in2="BackgroundImageFix" result="shape"/>
<feColorMatrix in="SourceAlpha" type="matrix" values="0 0 0 0 0 0 0 0 0 0 0 0 0 0 0 0 0 0 127 0" result="hardAlpha"/>
<feOffset dx="-1" dy="-2"/>
<feGaussianBlur stdDeviation="2"/>
<feComposite in2="hardAlpha" operator="arithmetic" k2="-1" k3="1"/>
<feColorMatrix type="matrix" values="0 0 0 0 0 0 0 0 0 0 0 0 0 0 0 0 0 0 0.25 0"/>
<feBlend mode="normal" in2="shape" result="effect1_innerShadow_306_97"/>
</filter>
</defs>
</svg>
