<svg xmlns="http://www.w3.org/2000/svg" viewBox="0 0 327.38 370.32"><defs><style>.cls-1{fill:#525794;}</style></defs><title>PDF</title><g id="Layer_2" data-name="Layer 2"><g id="Capa_1" data-name="Capa 1"><path class="cls-1" d="M190.48,253.35V268h7.72c9.36,0,9.36-5.6,9.36-7.44s0-7.17-9.36-7.17h-7.72Z"/><path class="cls-1" d="M304.41,225.75H280V73.7a14.81,14.81,0,0,0-4.34-10.48L216.78,4.34A14.84,14.84,0,0,0,206.3,0H29.11A29.14,29.14,0,0,0,0,29.11v312.1a29.14,29.14,0,0,0,29.11,29.11H250.89A29.14,29.14,0,0,0,280,341.21v-30h24.41a23,23,0,0,0,23-23V248.72A23,23,0,0,0,304.41,225.75Zm-56,112.15H31.61V32.41H185.7V76a19.1,19.1,0,0,0,19.1,19.11h43.58V225.75H174.21a23,23,0,0,0-23,23v39.46a23,23,0,0,0,23,23h74.18v26.75ZM217,260.52c0,10.44-7.22,16.93-18.85,16.93h-7.72v9a4.2,4.2,0,0,1-4.2,4.2h-1.1a4.2,4.2,0,0,1-4.2-4.2V248.06a4.2,4.2,0,0,1,4.2-4.2h13C209.82,243.86,217,250.25,217,260.52Zm23.79,30.1H225.74a4.2,4.2,0,0,1-4.2-4.2V248.06a4.2,4.2,0,0,1,4.2-4.2h15.09a23.66,23.66,0,0,1,23.85,23.41C264.68,280.15,254,290.63,240.84,290.63ZM301,249.16a4.19,4.19,0,0,1-4.2,4.2h-17v10.05h14.52a4.19,4.19,0,0,1,4.2,4.2v1.1a4.2,4.2,0,0,1-4.2,4.2H279.74v13.53a4.2,4.2,0,0,1-4.2,4.2h-1.1a4.2,4.2,0,0,1-4.2-4.2V248.06a4.2,4.2,0,0,1,4.2-4.2h22.34a4.2,4.2,0,0,1,4.2,4.2v1.1Z"/><path class="cls-1" d="M240.84,253.35H231v27.78h9.8a13.9,13.9,0,1,0,0-27.78Z"/><path class="cls-1" d="M94.67,86.39c1,11.08,1.49,32.13-6.47,48.69-.65,1.34-1.29,2.63-1.93,3.88-13.84,4.49-28.46,13-30.9,22.36a10.85,10.85,0,0,0,2.41,10.15,12.44,12.44,0,0,0,9.33,4.37c8.52,0,17.38-8.6,27.06-26.26,3.51-.92,23.74-3.52,28-3.47,11.67,12.61,21.11,18.74,28.82,18.74a12.78,12.78,0,0,0,11.44-7.11,10.59,10.59,0,0,0,0-10c-4.84-9.24-23.69-13-35-13.87-1-1.12-2-2.29-3-3.5-11.58-14-16.31-34.53-18.06-45.27-.22-2.46-.47-4.5-.68-6-.75-5.68-4.12-6.54-6.07-6.54a5.77,5.77,0,0,0-4.43,2.12,7.41,7.41,0,0,0-1.36,6.08C94.06,82.29,94.32,84.33,94.67,86.39Zm-27.05,76.9a12.77,12.77,0,0,1,2-3.63,14.57,14.57,0,0,1,9.58-5,53.27,53.27,0,0,1-11.6,8.65Zm82.75-10.93a24.12,24.12,0,0,1-11.7-5.78,26.43,26.43,0,0,1,11.7,5.78Zm-45.42-31a84.58,84.58,0,0,0,7.22,12.68c-1.29.13-10.41,1.38-11.22,1.49A83.79,83.79,0,0,0,104.95,121.39Z"/></g></g></svg>