<svg id="aLibraryLogoFull" data-name="Layer 1" xmlns="http://www.w3.org/2000/svg" viewBox="0 0 500 500"><defs><style>.aLibraryLogoFull-1{fill:#f26a67;}.cls-2{fill:#231917;}</style></defs><title>Infinity aLibrary Logo2-01</title><path class="aLibraryLogoFull-1" d="M361.55,116q0,59.88,0,119.76c0,11.49-3.9,21.28-12.22,29.27a26.53,26.53,0,0,1-6.42,4.69l-70.13,35.49a14.92,14.92,0,0,1-1.55.49l-.72-23.08,3.35-1.65c28.21-14.07,49.1-24.79,56.94-28.79a17.23,17.23,0,0,0,7.05-6.12,17,17,0,0,0,2.43-9.1c.15-29,0-58,.11-87.06,0-2.56-.46-3.13-2.92-1.87-16.23,8.3-32.86,15.88-48.68,24.88-9.28,5.28-16.37,12.08-21.11,20.3-6.16,10.67-6.75,21-7,27.37-1.56,35.82-.53,73.57-.16,85.54l.14,5.4-10.34,5-2.24-.72c-45.24-22.17-78.62-39.4-91.06-46.28a33.36,33.36,0,0,1-18.35-30.48c-.43-42.06-.16-84.14-.16-126.16.89-.6,1.52,0,2.16.33,27,13.66,54,27.27,80.94,41,8.35,4.27,15.12,10.57,21.2,17.64.81,1,1.77,1.85.69,3.3-4.59,6.17-6.69,13.53-9.83,20.94-5-8.93-11.14-16.36-19.6-21.59-3.76-2.33-7.74-4.3-11.68-6.31-13.2-6.72-26.44-13.34-39.62-20.1-2.4-1.23-3.19-1.15-3.18,1.87.08,28.89,0,57.79.11,86.68,0,6.93,3,12.25,9.6,15.53,22.1,11,44.08,22.23,66.11,33.36,1.1.56,2.24,1.06,3.79,1.78.08-1.67.19-3,.19-4.31,0-21.29-.5-42.6.13-63.87.84-28.39,13.79-50.68,38.47-64.43,26.74-14.9,54.51-27.92,81.85-41.75a8.86,8.86,0,0,1,1.33-.46C361.9,113.78,361.55,114.94,361.55,116Z"/><rect class="aLibraryLogoFull-1" x="255.29" y="75.82" width="10.65" height="10.65"/><rect class="aLibraryLogoFull-1" x="291.79" y="107.75" width="15.97" height="15.97"/><rect class="aLibraryLogoFull-1" x="230.96" y="123.72" width="17.49" height="17.49"/><rect class="aLibraryLogoFull-1" x="260.61" y="107.75" width="8.36" height="8.36"/><rect class="aLibraryLogoFull-1" x="314.6" y="83.42" width="9.89" height="9.89"/><rect class="aLibraryLogoFull-1" x="268.98" y="54.52" width="6.84" height="6.84"/><rect class="aLibraryLogoFull-1" x="282.66" y="81.14" width="6.84" height="6.84"/><rect class="aLibraryLogoFull-1" x="221.83" y="87.98" width="13.69" height="13.69"/><rect class="aLibraryLogoFull-1" x="191.42" y="107.75" width="8.36" height="8.36"/><rect class="aLibraryLogoFull-1" x="160.24" y="87.98" width="13.69" height="13.69"/><path class="cls-2" d="M31.57,340.78h9.1l20.15,48.48H50.23L45.3,377.17H26.8l-4.85,12.09H11.35Zm11.87,29.77L36.12,351.5l-7.61,19.05Z"/><path class="cls-2" d="M82.24,389.26V340.78h10.3V381h27v8.26Z"/><path class="cls-2" d="M141.72,389.26V340.78H152v48.48Z"/><path class="cls-2" d="M223.66,376.76a10.57,10.57,0,0,1-1.34,5.39,11.69,11.69,0,0,1-3.69,3.89,18,18,0,0,1-5.45,2.39,25.75,25.75,0,0,1-6.6.82H181V340.78h28.36a11.26,11.26,0,0,1,5,1.09,12.33,12.33,0,0,1,3.81,2.83,12.74,12.74,0,0,1,2.43,4,12.27,12.27,0,0,1-1.08,11.13,11.53,11.53,0,0,1-5.67,4.61,13.74,13.74,0,0,1,7.2,4.4A12,12,0,0,1,223.66,376.76Zm-32.39-27.93v12.22H205a6.42,6.42,0,0,0,4.44-1.64,5.74,5.74,0,0,0,1.83-4.51,5.92,5.92,0,0,0-1.68-4.44,5.7,5.7,0,0,0-4.14-1.64Zm22,26.15a6.58,6.58,0,0,0-.48-2.49,6.84,6.84,0,0,0-1.31-2.08,6,6,0,0,0-1.94-1.4,5.84,5.84,0,0,0-2.46-.51H191.27v12.77h15.3a7.25,7.25,0,0,0,2.65-.48,6.29,6.29,0,0,0,3.54-3.35A5.93,5.93,0,0,0,213.29,375Z"/><path class="cls-2" d="M249.63,389.26V340.78h23.43a16.22,16.22,0,0,1,6.75,1.4,17.25,17.25,0,0,1,8.84,8.88,14.47,14.47,0,0,1,1.27,5.84,15.1,15.1,0,0,1-2.57,8.57,14.46,14.46,0,0,1-7,5.56l12.09,18.23H280.89L270.07,373H259.93v16.25Zm10.3-24.51h12.91a5.85,5.85,0,0,0,2.65-.62,6.65,6.65,0,0,0,2.13-1.67A8.13,8.13,0,0,0,279,360a8.92,8.92,0,0,0,.52-3.07,8.05,8.05,0,0,0-2.2-5.63,7.25,7.25,0,0,0-2.31-1.64,6.49,6.49,0,0,0-2.65-.58H259.93Z"/><path class="cls-2" d="M329.92,340.78H339l20.15,48.48h-10.6l-4.92-12.09H325.15l-4.85,12.09H309.7Zm11.87,29.77-7.31-19.05-7.61,19.05Z"/><path class="cls-2" d="M380.6,389.26V340.78H404a16.22,16.22,0,0,1,6.75,1.4,17.25,17.25,0,0,1,8.84,8.88,14.47,14.47,0,0,1,1.27,5.84,15.1,15.1,0,0,1-2.57,8.57,14.46,14.46,0,0,1-7,5.56l12.09,18.23H411.86L401,373H390.89v16.25Zm10.3-24.51H403.8a5.85,5.85,0,0,0,2.65-.62,6.65,6.65,0,0,0,2.13-1.67A8.13,8.13,0,0,0,410,360a8.92,8.92,0,0,0,.52-3.07,8.05,8.05,0,0,0-2.2-5.63,7.25,7.25,0,0,0-2.31-1.64,6.49,6.49,0,0,0-2.65-.58H390.89Z"/><path class="cls-2" d="M451.56,340.78l13.06,23.35,13.28-23.35H489l-19.25,31.55v16.93H459.55V372.19l-19.18-31.41Z"/><path class="aLibraryLogoFull-1" d="M122.43,440.21V424h4.09v16.2Z"/><path class="aLibraryLogoFull-1" d="M145.62,430.94v9.26h-4.09V424h3.19l8.25,9.51V424h4.09v16.2h-3.29Z"/><path class="aLibraryLogoFull-1" d="M176.16,430.94v9.26h-4.09V424h3.19l8.25,9.51V424h4.09v16.2h-3.29Z"/><path class="aLibraryLogoFull-1" d="M210.36,440.34a8.86,8.86,0,0,1-6.36-2.57,8.37,8.37,0,0,1-1.78-2.63,7.68,7.68,0,0,1-.64-3.06,7.48,7.48,0,0,1,.66-3.08,8.17,8.17,0,0,1,1.84-2.61,9,9,0,0,1,2.8-1.8,9.15,9.15,0,0,1,3.54-.67,8.88,8.88,0,0,1,3.59.71,8.77,8.77,0,0,1,2.77,1.87,8.36,8.36,0,0,1,1.77,2.65,7.71,7.71,0,0,1,.62,3,7.49,7.49,0,0,1-.66,3.08,8.27,8.27,0,0,1-1.83,2.61,9.06,9.06,0,0,1-6.33,2.5Zm-4.61-8.21a5.59,5.59,0,0,0,.3,1.81,4.71,4.71,0,0,0,.89,1.56,4.29,4.29,0,0,0,1.46,1.09,4.62,4.62,0,0,0,2,.41,4.54,4.54,0,0,0,2-.43,4.36,4.36,0,0,0,1.45-1.13,4.8,4.8,0,0,0,.86-1.57,5.74,5.74,0,0,0,.29-1.79,5.6,5.6,0,0,0-.3-1.81,4.49,4.49,0,0,0-.9-1.55,4.42,4.42,0,0,0-1.46-1.07,4.67,4.67,0,0,0-2-.4,4.57,4.57,0,0,0-2,.42,4.48,4.48,0,0,0-1.45,1.11,4.54,4.54,0,0,0-.87,1.56A5.73,5.73,0,0,0,205.75,432.13Z"/><path class="aLibraryLogoFull-1" d="M234.89,424l4.16,11.5,4.11-11.5h4.31l-6.71,16.2h-3.44L230.55,424Z"/><path class="aLibraryLogoFull-1" d="M263.94,424h3.69l6.46,16.2h-4.19l-1.37-3.63H263l-1.35,3.63h-4.19Zm3.91,10-2.07-5.73L263.66,434Z"/><path class="aLibraryLogoFull-1" d="M299.46,427.29h-5.38v12.91H290V427.29h-5.41V424h14.88Z"/><path class="aLibraryLogoFull-1" d="M312.38,440.21V424h4.09v16.2Z"/><path class="aLibraryLogoFull-1" d="M339.23,440.34a8.86,8.86,0,0,1-6.36-2.57,8.39,8.39,0,0,1-1.78-2.63,7.68,7.68,0,0,1-.63-3.06,7.5,7.5,0,0,1,.66-3.08,8.17,8.17,0,0,1,1.85-2.61,9,9,0,0,1,2.8-1.8,9.14,9.14,0,0,1,3.54-.67,8.87,8.87,0,0,1,3.59.71,8.73,8.73,0,0,1,2.77,1.87,8.34,8.34,0,0,1,1.77,2.65,7.73,7.73,0,0,1,.62,3,7.51,7.51,0,0,1-.66,3.08,8.29,8.29,0,0,1-1.83,2.61,9.06,9.06,0,0,1-6.33,2.5Zm-4.61-8.21a5.59,5.59,0,0,0,.3,1.81,4.7,4.7,0,0,0,.88,1.56,4.3,4.3,0,0,0,1.46,1.09,4.62,4.62,0,0,0,2,.41,4.54,4.54,0,0,0,2-.43,4.37,4.37,0,0,0,1.45-1.13,4.78,4.78,0,0,0,.86-1.57,5.73,5.73,0,0,0,.29-1.79,5.6,5.6,0,0,0-.3-1.81,4.41,4.41,0,0,0-2.36-2.62,4.67,4.67,0,0,0-2-.4,4.56,4.56,0,0,0-2,.42,4.48,4.48,0,0,0-1.45,1.11,4.55,4.55,0,0,0-.87,1.56A5.73,5.73,0,0,0,334.62,432.13Z"/><path class="aLibraryLogoFull-1" d="M366.13,430.94v9.26H362V424h3.19l8.25,9.51V424h4.09v16.2h-3.29Z"/></svg>