<svg xmlns="http://www.w3.org/2000/svg" viewBox="0 0 463.25 463.77"><defs><style>.cls-1{fill:#43464b;}.cls-2{fill:#fefefe;}</style></defs><title>Edit</title><g id="Layer_2" data-name="Layer 2"><g id="Layer_1-2" data-name="Layer 1"><path class="cls-1" d="M160.35,256.59c0-2.09,0-2.12,2.16-2.12q15.59,0,31.17,0h30.2c.56,0,1.12,0,1.68,0,1,0,1.51.3,1.5,1.36,0,4.56,0,9.11,0,13.67,0,.9-.44,1.3-1.32,1.29-.48,0-1,0-1.44,0H163.16c-.32,0-.64,0-1,0-1.79-.07-1.84-.08-1.85-2C160.32,264.74,160.33,260.67,160.35,256.59Z"/><path class="cls-1" d="M164.05,237.18c-3.51,0-3.17.29-3.24-3.23-.09-3.9.32-7.82-.25-11.72a1,1,0,0,1,1-1.31,17.1,17.1,0,0,1,2.15-.06H291.34c3.06,0,2.93-.16,2.92,2.83v10.79c0,2.69,0,2.69-2.81,2.7Z"/><path class="cls-1" d="M294.26,190.59c0,3.83,0,7.67,0,11.51,0,1.88-.06,1.89-1.85,2H163.81c-3.19,0-3.43-.21-3.46-3.36q0-5,0-10.07c0-2.59.33-2.89,2.91-2.89h128.1C294.42,187.74,294.26,187.59,294.26,190.59Z"/><path class="cls-1" d="M294.25,168.5c0,1.88-.06,1.89-1.85,2-.48,0-1,0-1.44,0H164.07c-3.51,0-3.25.31-3.25-3.21,0-3.75,0-7.51,0-11.27,0-1.73.09-1.76,1.73-1.83.56,0,1.12,0,1.68,0H291.37c3,0,2.89-.15,2.89,2.85C294.26,160.82,294.28,164.66,294.25,168.5Z"/><path class="cls-1" d="M235.7,358.06c0,3.84,0,7.68,0,11.52,0,1.95,0,1.95-2,2-.56,0-1.12,0-1.68,0-29.12,0-58.24-.05-87.36.05a39.81,39.81,0,0,1-13.93-2.9,28.26,28.26,0,0,1-12.17-8.56,38.26,38.26,0,0,1-8-16.66,9.32,9.32,0,0,1-.06-1.91q0-103.68.05-207.35a27.81,27.81,0,0,1,4.62-14.67c5.53-8.81,13.78-13.73,23.85-15.78a10.09,10.09,0,0,1,1.91-.06H313.64c3.76,0,7.16,1.44,10.56,2.76a29.79,29.79,0,0,1,10.59,7.19c3.27,3.37,6.06,7,7.59,11.44a29.87,29.87,0,0,1,1.83,8.6c1,27.09.13,54.2.48,81.29a8,8,0,0,1-2.63,6.35c-4.12,3.91-8.06,8-12.09,12a4.46,4.46,0,0,1-2.11,1.6v-2.83q0-46.44,0-92.88c0-4.26-.78-8.44-3.35-12-3-4.19-7.35-6.22-12.44-6.72a11.77,11.77,0,0,0-1.19,0H144.29a19.17,19.17,0,0,0-10.43,3c-2.93,1.85-4.64,4.75-5.74,8a27.19,27.19,0,0,0-1.34,8.69q-.07,97.43,0,194.87a27.87,27.87,0,0,0,1.13,8c1.91,6.23,6.3,9.74,12.52,11.16a26.27,26.27,0,0,0,5.94.53q43.07,0,86.15,0C236,354.78,235.69,354.54,235.7,358.06Z"/><path class="cls-1" d="M377.56,262.4c-1.65-2.92-2.74-6.25-5.13-8.62-4.52-4.48-8.6-9.44-13.89-13.16a16.86,16.86,0,0,0-8.68-2.93c-4.93-.38-9,1.64-12.42,5.05q-30.55,30.51-61.06,61.07c-5.85,5.88-12.12,11.36-16.88,18.25-1.68,2.42-3.44,4.78-4.87,7.35-2.18,3.89-2.84,8.29-3.92,12.51-2.12,8.3-3.85,16.72-5.73,25.09a33,33,0,0,0-.61,3.27c-.1.86.22,1.39,1.26,1.12,3.62-.91,7.25-1.82,10.88-2.67s7.41-1.79,11.16-2.48c4.21-.78,8.46-1.37,12.46-3.12,2.73-1.19,5.15-2.86,7.77-4.19a63.45,63.45,0,0,0,13.18-9.41c4.94-4.41,9.54-9.19,14.3-13.81,10.78-10.47,21.36-21.15,31.92-31.85,8.75-8.88,17.93-17.33,26.22-26.66,2.73-3.08,4.68-6.46,4.27-10.79C377.65,265.08,378.22,263.57,377.56,262.4Zm-29.27,28.51c-.42.38-.79.79-1.19,1.19q-24.44,24.44-48.89,48.85a90.72,90.72,0,0,1-10.31,8.33,3.22,3.22,0,0,1-1.42-1.09q-9.6-9.57-19.18-19.17c-1.53-1.54-1.61-1.62-.21-3.3a34.41,34.41,0,0,1,3.71-4.37c.37-.31.68-.68,1-1,13.76-13.6,26.87-27.85,40.85-41.23,4.32-4.13,8.58-8.33,12.86-12.42.88.24,1.26.89,1.76,1.38q10.11,10.08,20.2,20.19c.28.28.55.58.85.85C349,289.73,349,290.31,348.29,290.91Z"/><path class="cls-1" d="M463.22,230.26c-.28-4.7.2-9.39-.4-14.11-.65-5.19-.85-10.44-1.47-15.65-.54-4.49-1.29-9-2.14-13.39a191.65,191.65,0,0,0-5.4-21.51,224.64,224.64,0,0,0-14-35.32,211.18,211.18,0,0,0-11.43-20.47c-2-3.05-4-6.09-6-9.17-2.32-3.62-4.87-7.08-7.51-10.46s-5.26-6.39-7.93-9.55c-3.08-3.66-6.37-7.11-9.48-10.74s-6.78-6.3-10.09-9.53c-1.35-1.32-2.79-2.62-4.26-3.83-3.2-2.63-6.46-5.17-9.64-7.81a151.68,151.68,0,0,0-13.53-9.77q-8.67-5.74-17.83-10.72a234.27,234.27,0,0,0-22.64-10.9,213.66,213.66,0,0,0-25-8.67c-5.14-1.42-10.29-2.73-15.5-3.85-4.35-.93-8.76-1.52-13.13-2.27-3-.5-6-.55-9-1.1-2.15-.4-4.33-.11-6.41-.52-3.79-.74-7.63-.14-11.42-.78-2.32-.4-4.76.2-7.13.32-6.45.3-12.92-.08-19.38.5-2.29.21-4.63.35-6.87.7-4.08.64-8.2.91-12.25,1.71-4.83.95-9.71,1.65-14.49,2.81a230.38,230.38,0,0,0-27.69,8.24c-5.74,2.18-11.42,4.49-17,7.14A254.65,254.65,0,0,0,111,34.09a163.84,163.84,0,0,0-13.67,9.18c-3.48,2.65-7.08,5.14-10.43,8-2.31,2-4.74,3.76-6.92,5.87-1.31,1.27-2.86,2.28-4.22,3.5-3,2.73-6.24,5.29-8.87,8.35s-5.41,5.63-8,8.61c-2.36,2.78-4.82,5.52-7.13,8.35-5.22,6.41-10,13.17-14.59,20a256.88,256.88,0,0,0-13.4,23.19c-1.15,2.18-2.09,4.48-3.15,6.72-2.69,5.69-5,11.54-7.17,17.47a224.38,224.38,0,0,0-8.43,30.1q-1.21,5.72-2.15,11.47c-.55,3.36-1,6.74-1.35,10.14-.21,2.21-.82,4.39-.6,6.65a5.75,5.75,0,0,1-.08,1.9,35.33,35.33,0,0,0-.77,8.29c-.2,11.87-.36,23.74,1.23,35.58.69,5.1,1.12,10.25,2,15.33a208.61,208.61,0,0,0,6.71,27.07,239.12,239.12,0,0,0,15.26,37.4c1.4,2.69,2.78,5.4,4.28,8,2,3.46,3.84,7,6.14,10.25,5.3,7.46,10.12,15.25,16.12,22.22,4.94,5.74,9.93,11.42,15.15,16.89,2.1,2.2,4.49,4.1,6.59,6.26a154.66,154.66,0,0,0,12.11,10.8c4.4,3.65,9,7,13.75,10.28a247.39,247.39,0,0,0,23.65,14.45c4.79,2.55,9.66,5,14.63,7.17,6.35,2.82,12.83,5.27,19.36,7.6a188.78,188.78,0,0,0,19.48,5.7c4.33,1,8.65,2.13,13,2.85,4.22.69,8.5,1.14,12.74,1.72,4.63.62,9.28,1.27,13.93,1.69s9.07.11,13.61.49c5.33.45,10.66-.76,16-.42a4.38,4.38,0,0,0,.72-.06c3.7-.46,7.39-1.11,11.1-1.31,4.38-.24,8.67-1.07,13-1.65a156.85,156.85,0,0,0,16.53-3.53,207.3,207.3,0,0,0,21.93-6.64q11.58-4.24,22.72-9.49c4.92-2.31,9.66-4.95,14.39-7.62a239.43,239.43,0,0,0,24.29-16.06c3.78-2.78,7.38-5.79,10.91-8.89,4.31-3.78,8.76-7.41,12.82-11.47,2.09-2.08,4-4.3,6.07-6.43,3.85-4.05,7.58-8.17,11.06-12.54,5.36-6.73,10.42-13.66,15.13-20.87,3.57-5.48,6.86-11.12,10-16.85a197.2,197.2,0,0,0,8.61-18.18,218.24,218.24,0,0,0,10.73-32.16c1.13-4.63,2.27-9.26,3.15-14,.64-3.43,1.21-6.88,1.65-10.33.39-3.14.94-6.27,1.17-9.46.15-2.21.12-4.46.43-6.65a87.43,87.43,0,0,0,.91-13.8C463.19,233.62,463.22,231.94,463.22,230.26ZM444,241.87a159.9,159.9,0,0,1-1.31,16.62c-.47,2.89-.53,5.84-1,8.75q-1.37,8-3.22,15.86c-1.35,5.75-3,11.39-4.94,17-1.82,5.36-3.94,10.61-6.22,15.79-2.19,5-4.57,9.87-7.17,14.63a194.37,194.37,0,0,1-15.68,24.84c-3.48,4.55-7.12,9-10.7,13.44-1.44,1.8-3.08,3.44-4.61,5.17-2.77,3.1-5.54,6.19-8.57,9-5.46,5.12-10.81,10.35-16.73,15-3.19,2.5-6.42,5-9.67,7.38-4.85,3.6-10.06,6.73-15.23,9.88-4,2.45-8.1,4.81-12.32,6.87a208.84,208.84,0,0,1-24.47,10.23c-7,2.39-14.09,4.52-21.29,6.2A139.63,139.63,0,0,1,264,441.7c-4.26.44-8.5,1.05-12.76,1.51s-8.39.78-12.61.93c-2.21.07-4.42.46-6.66.4-5.17-.12-10.33-.38-15.48-.91-2-.22-4.11-.09-6.18-.48-3.19-.62-6.42-1.05-9.65-1.38s-6.6-.91-9.89-1.47c-4.71-.79-9.33-2-13.94-3.17-5.63-1.46-11.23-3.07-16.69-5.07-5.77-2.11-11.43-4.47-17.06-6.92a151,151,0,0,1-14.32-7.21,177.8,177.8,0,0,1-22-14.29c-3.38-2.64-6.84-5.19-10.18-7.88-1.36-1.1-2.71-2.24-4-3.44-3.58-3.42-7.33-6.65-10.78-10.21-4.72-4.87-9.24-9.9-13.63-15.07A220.94,220.94,0,0,1,52.08,345.7c-2.72-4.13-5.09-8.47-7.56-12.75-2.16-3.74-4.11-7.59-5.93-11.5a201.09,201.09,0,0,1-10.4-27.22A192.39,192.39,0,0,1,22.8,272c-.92-5.31-2.15-10.6-2.15-16,0-1.43-.4-2.82-.53-4.25a190,190,0,0,1-.9-20.52c0-1.68,0-3.36,0-5,0-4.3.5-8.56.86-12.84.19-2.3.42-4.59.61-6.89a71,71,0,0,1,1-7.55c1-4.9,1.64-9.86,2.72-14.75q1.48-6.77,3.43-13.4A196.52,196.52,0,0,1,35,150.18c2.27-5.46,5-10.72,7.63-16a169.16,169.16,0,0,1,17.21-27.52c4.19-5.4,8.51-10.71,13.12-15.79,2.56-2.83,5.19-5.63,7.81-8.39a81.58,81.58,0,0,1,8-7.52,6.33,6.33,0,0,0,.77-.56c2.7-3.08,6.08-5.39,9.12-8.08a89.57,89.57,0,0,1,7.13-5.6c4.14-3,8.29-5.92,12.57-8.69A212.14,212.14,0,0,1,146,37.19a192.15,192.15,0,0,1,21.21-8.11c7-2.26,14.25-3.93,21.48-5.49a120,120,0,0,1,14.81-2.31c4.9-.43,9.77-1.23,14.74-1.17a77.16,77.16,0,0,0,7.81-.67,46.84,46.84,0,0,1,11.71.13,21,21,0,0,0,2.62.17c3.26.08,6.53-.23,9.78.47,3.43.73,7,.47,10.43,1,3.06.47,6.11,1,9.16,1.5,6.19,1.08,12.3,2.51,18.36,4.18,5.83,1.6,11.58,3.49,17.25,5.61a226.88,226.88,0,0,1,26.14,11.88c4.45,2.33,8.76,4.89,13,7.56A212.3,212.3,0,0,1,363,65c3.43,2.7,6.84,5.46,10.13,8.35,3.73,3.28,7.19,6.81,10.67,10.33,3.92,4,7.54,8.2,11.16,12.44a191,191,0,0,1,14.69,20,206,206,0,0,1,10.55,18.21,210,210,0,0,1,12.49,29.47,189.29,189.29,0,0,1,6.88,27c.65,3.59,1.34,7.18,1.9,10.78.48,3.14.68,6.32,1.08,9.46a68.52,68.52,0,0,0,.85,6.85,4.71,4.71,0,0,1,.09,1.19C443.38,226.72,444.43,234.28,444,241.87Z"/><path class="cls-2" d="M225.56,254.46c1,0,1.51.3,1.5,1.36,0,4.56,0,9.11,0,13.67,0,.9-.44,1.3-1.32,1.29-.48,0-1,0-1.44,0H163.16c-.32,0-.64,0-1,0-1.79-.07-1.84-.08-1.85-2,0-4.08,0-8.15,0-12.23,0-2.09,0-2.12,2.16-2.12q15.59,0,31.17,0h30.2C224.44,254.46,225,254.48,225.56,254.46Z"/><path class="cls-2" d="M164.05,237.18c-3.51,0-3.17.29-3.24-3.23-.09-3.9.32-7.82-.25-11.72a1,1,0,0,1,1-1.31,17.1,17.1,0,0,1,2.15-.06H291.34c3.06,0,2.93-.16,2.92,2.83v10.79c0,2.69,0,2.69-2.81,2.7Z"/><path class="cls-2" d="M294.25,202.1c0,1.88-.06,1.89-1.85,2H163.81c-3.19,0-3.43-.21-3.46-3.36q0-5,0-10.07c0-2.59.33-2.89,2.91-2.89h128.1c3.06,0,2.9-.15,2.9,2.85C294.26,194.42,294.28,198.26,294.25,202.1Z"/><path class="cls-2" d="M294.25,168.5c0,1.88-.06,1.89-1.85,2-.48,0-1,0-1.44,0H164.07c-3.51,0-3.25.31-3.25-3.21,0-3.75,0-7.51,0-11.27,0-1.73.09-1.76,1.73-1.83.56,0,1.12,0,1.68,0H291.37c3,0,2.89-.15,2.89,2.85C294.26,160.82,294.28,164.66,294.25,168.5Z"/><path class="cls-2" d="M235.7,358.06c0,3.84,0,7.68,0,11.52,0,1.95,0,1.95-2,2-.56,0-1.12,0-1.68,0-29.12,0-58.24-.05-87.36.05a39.81,39.81,0,0,1-13.93-2.9,28.26,28.26,0,0,1-12.17-8.56,38.26,38.26,0,0,1-8-16.66,9.32,9.32,0,0,1-.06-1.91q0-103.68.05-207.35a27.81,27.81,0,0,1,4.62-14.67c5.53-8.81,13.78-13.73,23.85-15.78a10.09,10.09,0,0,1,1.91-.06H313.64c3.76,0,7.16,1.44,10.56,2.76a29.79,29.79,0,0,1,10.59,7.19c3.27,3.37,6.06,7,7.59,11.44a29.87,29.87,0,0,1,1.83,8.6c1,27.09.13,54.2.48,81.29a8,8,0,0,1-2.63,6.35c-4.12,3.91-8.06,8-12.09,12a4.46,4.46,0,0,1-2.11,1.6v-2.83q0-46.44,0-92.88c0-4.26-.78-8.44-3.35-12-3-4.19-7.35-6.22-12.44-6.72a11.77,11.77,0,0,0-1.19,0H144.29a19.17,19.17,0,0,0-10.43,3c-2.93,1.85-4.64,4.75-5.74,8a27.19,27.19,0,0,0-1.34,8.69q-.07,97.43,0,194.87a27.87,27.87,0,0,0,1.13,8c1.91,6.23,6.3,9.74,12.52,11.16a26.27,26.27,0,0,0,5.94.53q43.07,0,86.15,0C236,354.78,235.69,354.54,235.7,358.06Z"/><path class="cls-2" d="M377.56,262.4c-1.65-2.92-2.74-6.25-5.13-8.62-4.52-4.48-8.6-9.44-13.89-13.16a16.86,16.86,0,0,0-8.68-2.93c-4.93-.38-9,1.64-12.42,5.05q-30.55,30.51-61.06,61.07c-5.85,5.88-12.12,11.36-16.88,18.25-1.68,2.42-3.44,4.78-4.87,7.35-2.18,3.89-2.84,8.29-3.92,12.51-2.12,8.3-3.85,16.72-5.73,25.09a33,33,0,0,0-.61,3.27c-.1.86.22,1.39,1.26,1.12,3.62-.91,7.25-1.82,10.88-2.67s7.41-1.79,11.16-2.48c4.21-.78,8.46-1.37,12.46-3.12,2.73-1.19,5.15-2.86,7.77-4.19a63.45,63.45,0,0,0,13.18-9.41c4.94-4.41,9.54-9.19,14.3-13.81,10.78-10.47,21.36-21.15,31.92-31.85,8.75-8.88,17.93-17.33,26.22-26.66,2.73-3.08,4.68-6.46,4.27-10.79C377.65,265.08,378.22,263.57,377.56,262.4Zm-29.27,28.51c-.42.38-.79.79-1.19,1.19q-24.44,24.44-48.89,48.85a90.72,90.72,0,0,1-10.31,8.33,3.22,3.22,0,0,1-1.42-1.09q-9.6-9.57-19.18-19.17c-1.53-1.54-1.61-1.62-.21-3.3a34.41,34.41,0,0,1,3.71-4.37c.37-.31.68-.68,1-1,13.76-13.6,26.87-27.85,40.85-41.23,4.32-4.13,8.58-8.33,12.86-12.42.88.24,1.26.89,1.76,1.38q10.11,10.08,20.2,20.19c.28.28.55.58.85.85C349,289.73,349,290.31,348.29,290.91Z"/><path class="cls-1" d="M344.69,215a8,8,0,0,1-2.63,6.35c-4.12,3.91-8.06,8-12.09,12a4.46,4.46,0,0,1-2.11,1.6v-2.83q0-46.44,0-92.88c0-4.26-.78-8.44-3.35-12-3-4.19-7.35-6.22-12.44-6.72a11.77,11.77,0,0,0-1.19,0H144.29a19.17,19.17,0,0,0-10.43,3c-2.93,1.85-4.64,4.75-5.74,8a27.19,27.19,0,0,0-1.34,8.69q-.07,97.43,0,194.87a27.87,27.87,0,0,0,1.13,8c1.91,6.23,6.3,9.74,12.52,11.16a26.27,26.27,0,0,0,5.94.53q43.07,0,86.15,0c3.52,0,3.18-.24,3.19,3.28,0,3.84,0,7.68,0,11.52,0,1.95,0,1.95-2,2-.56,0-1.12,0-1.68,0-29.12,0-58.24-.05-87.36.05a39.81,39.81,0,0,1-13.93-2.9,28.26,28.26,0,0,1-12.17-8.56,38.26,38.26,0,0,1-8-16.66,9.32,9.32,0,0,1-.06-1.91q0-103.68.05-207.35a27.81,27.81,0,0,1,4.62-14.67c5.53-8.81,13.78-13.73,23.85-15.78a10.09,10.09,0,0,1,1.91-.06H313.64c3.76,0,7.16,1.44,10.56,2.76a29.79,29.79,0,0,1,10.59,7.19c3.27,3.37,6.06,7,7.59,11.44a29.87,29.87,0,0,1,1.83,8.6C345.25,160.82,344.34,187.93,344.69,215Z"/><path class="cls-1" d="M377.56,262.4c-1.65-2.92-2.74-6.25-5.13-8.62-4.52-4.48-8.6-9.44-13.89-13.16a16.86,16.86,0,0,0-8.68-2.93c-4.93-.38-9,1.64-12.42,5.05q-30.55,30.51-61.06,61.07c-5.85,5.88-12.12,11.36-16.88,18.25-1.68,2.42-3.44,4.78-4.87,7.35-2.18,3.89-2.84,8.29-3.92,12.51-2.12,8.3-3.85,16.72-5.73,25.09a33,33,0,0,0-.61,3.27c-.1.86.22,1.39,1.26,1.12,3.62-.91,7.25-1.82,10.88-2.67s7.41-1.79,11.16-2.48c4.21-.78,8.46-1.37,12.46-3.12,2.73-1.19,5.15-2.86,7.77-4.19a63.45,63.45,0,0,0,13.18-9.41c4.94-4.41,9.54-9.19,14.3-13.81,10.78-10.47,21.36-21.15,31.92-31.85,8.75-8.88,17.93-17.33,26.22-26.66,2.73-3.08,4.68-6.46,4.27-10.79C377.65,265.08,378.22,263.57,377.56,262.4Zm-29.27,28.51c-.42.38-.79.79-1.19,1.19q-24.44,24.44-48.89,48.85a90.72,90.72,0,0,1-10.31,8.33,3.22,3.22,0,0,1-1.42-1.09q-9.6-9.57-19.18-19.17c-1.53-1.54-1.61-1.62-.21-3.3a34.41,34.41,0,0,1,3.71-4.37c.37-.31.68-.68,1-1,13.76-13.6,26.87-27.85,40.85-41.23,4.32-4.13,8.58-8.33,12.86-12.42.88.24,1.26.89,1.76,1.38q10.11,10.08,20.2,20.19c.28.28.55.58.85.85C349,289.73,349,290.31,348.29,290.91Z"/><path class="cls-1" d="M294.25,202.1c0,1.88-.06,1.89-1.85,2H163.81c-3.19,0-3.43-.21-3.46-3.36q0-5,0-10.07c0-2.59.33-2.89,2.91-2.89h128.1c3.06,0,2.9-.15,2.9,2.85C294.26,194.42,294.28,198.26,294.25,202.1Z"/><path class="cls-1" d="M294.26,223.69v10.79c0,2.69,0,2.69-2.81,2.7H164.05c-3.51,0-3.17.29-3.24-3.23-.09-3.9.32-7.82-.25-11.72a1,1,0,0,1,1-1.31,17.1,17.1,0,0,1,2.15-.06H291.34C294.4,220.86,294.27,220.7,294.26,223.69Z"/><path class="cls-1" d="M294.25,168.5c0,1.88-.06,1.89-1.85,2-.48,0-1,0-1.44,0H164.07c-3.51,0-3.25.31-3.25-3.21,0-3.75,0-7.51,0-11.27,0-1.73.09-1.76,1.73-1.83.56,0,1.12,0,1.68,0H291.37c3,0,2.89-.15,2.89,2.85C294.26,160.82,294.28,164.66,294.25,168.5Z"/><path class="cls-1" d="M227.06,255.82c0,4.56,0,9.11,0,13.67,0,.9-.44,1.3-1.32,1.29-.48,0-1,0-1.44,0H163.16c-.32,0-.64,0-1,0-1.79-.07-1.84-.08-1.85-2,0-4.08,0-8.15,0-12.23,0-2.09,0-2.12,2.16-2.12q15.59,0,31.17,0h30.2c.56,0,1.12,0,1.68,0C226.52,254.42,227.07,254.76,227.06,255.82Z"/></g></g></svg>