<?xml version="1.0" encoding="UTF-8"?>
<svg xmlns="http://www.w3.org/2000/svg" version="1.1" width="300" height="300" viewBox="0 0 300 300"><rect x="0" y="0" width="300" height="300" fill="#ffffff"/><g transform="scale(6.122)"><g transform="translate(0,0)"><path fill-rule="evenodd" d="M8 0L8 3L9 3L9 1L10 1L10 0ZM12 0L12 1L14 1L14 0ZM18 0L18 1L17 1L17 3L16 3L16 2L13 2L13 3L12 3L12 2L11 2L11 3L10 3L10 4L13 4L13 5L10 5L10 7L9 7L9 5L8 5L8 9L7 9L7 8L6 8L6 9L7 9L7 10L5 10L5 8L2 8L2 9L1 9L1 10L2 10L2 11L0 11L0 15L1 15L1 13L2 13L2 15L3 15L3 17L2 17L2 16L0 16L0 17L1 17L1 19L0 19L0 28L1 28L1 29L2 29L2 28L3 28L3 27L4 27L4 28L5 28L5 30L4 30L4 31L7 31L7 30L8 30L8 32L6 32L6 33L7 33L7 34L6 34L6 35L5 35L5 34L3 34L3 33L4 33L4 32L3 32L3 31L2 31L2 30L0 30L0 31L2 31L2 33L0 33L0 34L3 34L3 35L4 35L4 36L5 36L5 37L4 37L4 38L5 38L5 39L8 39L8 36L6 36L6 35L7 35L7 34L8 34L8 35L9 35L9 36L10 36L10 35L11 35L11 37L9 37L9 39L10 39L10 38L12 38L12 39L11 39L11 40L10 40L10 42L9 42L9 41L8 41L8 42L9 42L9 44L8 44L8 47L9 47L9 48L10 48L10 49L11 49L11 48L12 48L12 49L13 49L13 47L15 47L15 49L16 49L16 48L18 48L18 45L17 45L17 46L16 46L16 47L15 47L15 45L16 45L16 43L15 43L15 42L14 42L14 44L15 44L15 45L14 45L14 46L13 46L13 47L11 47L11 46L12 46L12 45L11 45L11 44L13 44L13 41L14 41L14 40L15 40L15 41L16 41L16 42L17 42L17 41L16 41L16 40L15 40L15 39L18 39L18 38L19 38L19 37L18 37L18 38L16 38L16 36L18 36L18 34L19 34L19 36L20 36L20 37L21 37L21 35L22 35L22 36L24 36L24 37L23 37L23 38L25 38L25 39L23 39L23 40L22 40L22 39L21 39L21 38L20 38L20 41L19 41L19 42L21 42L21 40L22 40L22 45L23 45L23 46L22 46L22 47L21 47L21 49L22 49L22 47L23 47L23 46L24 46L24 45L25 45L25 46L27 46L27 47L25 47L25 49L26 49L26 48L27 48L27 47L29 47L29 46L28 46L28 44L29 44L29 45L30 45L30 46L32 46L32 48L31 48L31 49L32 49L32 48L33 48L33 49L34 49L34 48L33 48L33 47L37 47L37 48L35 48L35 49L40 49L40 48L39 48L39 47L40 47L40 46L38 46L38 45L41 45L41 46L42 46L42 45L44 45L44 46L43 46L43 47L42 47L42 48L43 48L43 49L49 49L49 45L48 45L48 44L46 44L46 47L48 47L48 48L45 48L45 47L44 47L44 46L45 46L45 43L46 43L46 42L45 42L45 41L46 41L46 40L47 40L47 41L48 41L48 39L49 39L49 38L48 38L48 36L49 36L49 34L48 34L48 33L49 33L49 30L47 30L47 29L48 29L48 28L46 28L46 27L45 27L45 25L48 25L48 26L47 26L47 27L48 27L48 26L49 26L49 22L47 22L47 21L49 21L49 20L48 20L48 19L49 19L49 18L47 18L47 17L44 17L44 16L46 16L46 15L44 15L44 16L43 16L43 18L42 18L42 17L40 17L40 16L42 16L42 15L41 15L41 14L44 14L44 12L45 12L45 11L44 11L44 10L43 10L43 9L44 9L44 8L40 8L40 7L41 7L41 6L40 6L40 7L39 7L39 5L38 5L38 4L37 4L37 3L35 3L35 4L36 4L36 5L33 5L33 4L34 4L34 3L31 3L31 5L29 5L29 4L28 4L28 3L30 3L30 2L32 2L32 1L31 1L31 0L29 0L29 1L28 1L28 2L27 2L27 4L26 4L26 3L25 3L25 4L23 4L23 3L22 3L22 1L24 1L24 2L26 2L26 1L27 1L27 0L26 0L26 1L25 1L25 0L22 0L22 1L21 1L21 2L19 2L19 1L20 1L20 0ZM35 0L35 1L34 1L34 2L36 2L36 0ZM37 0L37 2L39 2L39 4L40 4L40 3L41 3L41 0L40 0L40 1L38 1L38 0ZM29 1L29 2L30 2L30 1ZM18 2L18 4L20 4L20 5L19 5L19 7L20 7L20 5L21 5L21 3L19 3L19 2ZM14 3L14 4L15 4L15 5L13 5L13 7L12 7L12 6L11 6L11 7L10 7L10 8L9 8L9 9L10 9L10 8L11 8L11 9L12 9L12 11L11 11L11 10L10 10L10 11L2 11L2 12L8 12L8 13L5 13L5 14L4 14L4 13L3 13L3 15L5 15L5 16L4 16L4 17L3 17L3 19L4 19L4 20L3 20L3 21L4 21L4 22L1 22L1 24L2 24L2 25L3 25L3 26L4 26L4 25L3 25L3 24L4 24L4 22L9 22L9 25L10 25L10 22L12 22L12 23L11 23L11 24L12 24L12 25L13 25L13 24L14 24L14 25L16 25L16 24L17 24L17 25L19 25L19 24L18 24L18 23L14 23L14 22L16 22L16 21L18 21L18 22L19 22L19 23L20 23L20 24L21 24L21 25L20 25L20 26L21 26L21 27L19 27L19 28L17 28L17 27L15 27L15 26L14 26L14 27L12 27L12 26L10 26L10 27L8 27L8 30L10 30L10 31L11 31L11 29L13 29L13 30L14 30L14 31L12 31L12 32L11 32L11 33L9 33L9 32L8 32L8 33L9 33L9 34L11 34L11 35L12 35L12 36L13 36L13 37L15 37L15 36L16 36L16 35L17 35L17 33L20 33L20 35L21 35L21 33L22 33L22 32L21 32L21 33L20 33L20 32L19 32L19 31L20 31L20 30L21 30L21 29L22 29L22 30L23 30L23 31L24 31L24 30L25 30L25 34L24 34L24 35L25 35L25 36L26 36L26 37L25 37L25 38L27 38L27 37L28 37L28 38L29 38L29 39L28 39L28 40L29 40L29 39L31 39L31 40L32 40L32 42L34 42L34 43L35 43L35 44L32 44L32 43L31 43L31 41L28 41L28 42L27 42L27 44L28 44L28 43L29 43L29 42L30 42L30 44L32 44L32 46L33 46L33 45L34 45L34 46L36 46L36 45L35 45L35 44L37 44L37 43L40 43L40 41L39 41L39 42L37 42L37 41L38 41L38 40L37 40L37 39L38 39L38 38L39 38L39 36L41 36L41 34L42 34L42 32L43 32L43 33L44 33L44 34L43 34L43 35L42 35L42 37L44 37L44 39L39 39L39 40L44 40L44 39L45 39L45 40L46 40L46 39L45 39L45 38L46 38L46 36L48 36L48 35L47 35L47 33L44 33L44 32L47 32L47 31L46 31L46 29L45 29L45 27L44 27L44 29L43 29L43 27L42 27L42 29L38 29L38 30L37 30L37 31L38 31L38 30L42 30L42 29L43 29L43 30L44 30L44 31L41 31L41 32L40 32L40 31L39 31L39 32L38 32L38 33L37 33L37 35L36 35L36 34L35 34L35 33L36 33L36 32L33 32L33 31L32 31L32 30L35 30L35 31L36 31L36 29L35 29L35 28L37 28L37 27L38 27L38 26L40 26L40 23L38 23L38 22L41 22L41 21L42 21L42 18L41 18L41 21L37 21L37 23L34 23L34 22L35 22L35 19L36 19L36 20L37 20L37 19L36 19L36 17L35 17L35 15L36 15L36 16L38 16L38 17L37 17L37 18L38 18L38 19L39 19L39 20L40 20L40 19L39 19L39 18L40 18L40 17L39 17L39 15L38 15L38 14L39 14L39 12L40 12L40 11L38 11L38 10L42 10L42 11L43 11L43 10L42 10L42 9L38 9L38 10L37 10L37 8L36 8L36 6L37 6L37 7L38 7L38 5L36 5L36 6L35 6L35 7L34 7L34 6L33 6L33 7L32 7L32 5L31 5L31 7L30 7L30 6L29 6L29 7L28 7L28 4L27 4L27 7L28 7L28 8L31 8L31 7L32 7L32 9L31 9L31 11L33 11L33 10L36 10L36 12L38 12L38 14L37 14L37 13L33 13L33 12L32 12L32 13L31 13L31 12L29 12L29 11L30 11L30 10L29 10L29 11L28 11L28 9L27 9L27 12L26 12L26 11L25 11L25 10L26 10L26 9L23 9L23 10L22 10L22 11L23 11L23 12L24 12L24 14L25 14L25 16L23 16L23 13L20 13L20 12L21 12L21 10L20 10L20 11L19 11L19 10L16 10L16 6L17 6L17 8L18 8L18 9L20 9L20 8L18 8L18 6L17 6L17 4L15 4L15 3ZM15 5L15 6L14 6L14 8L13 8L13 10L14 10L14 11L12 11L12 13L13 13L13 14L12 14L12 15L13 15L13 14L14 14L14 16L9 16L9 15L7 15L7 14L6 14L6 15L7 15L7 16L5 16L5 17L7 17L7 18L6 18L6 19L7 19L7 20L4 20L4 21L8 21L8 18L9 18L9 19L11 19L11 20L12 20L12 21L13 21L13 22L14 22L14 21L16 21L16 20L15 20L15 17L16 17L16 19L17 19L17 18L18 18L18 21L19 21L19 18L18 18L18 17L19 17L19 16L20 16L20 18L21 18L21 16L22 16L22 17L23 17L23 19L21 19L21 20L20 20L20 22L21 22L21 21L22 21L22 20L23 20L23 21L26 21L26 20L27 20L27 21L28 21L28 22L22 22L22 27L23 27L23 28L22 28L22 29L23 29L23 28L24 28L24 27L25 27L25 30L27 30L27 31L28 31L28 32L29 32L29 33L27 33L27 32L26 32L26 33L27 33L27 34L25 34L25 35L28 35L28 34L29 34L29 35L30 35L30 36L29 36L29 37L30 37L30 36L31 36L31 37L32 37L32 38L33 38L33 37L32 37L32 36L34 36L34 35L35 35L35 34L33 34L33 35L30 35L30 34L29 34L29 33L31 33L31 34L32 34L32 33L31 33L31 32L32 32L32 31L31 31L31 30L32 30L32 29L31 29L31 30L30 30L30 29L29 29L29 30L27 30L27 29L26 29L26 28L29 28L29 26L28 26L28 27L27 27L27 25L32 25L32 26L31 26L31 27L30 27L30 28L31 28L31 27L33 27L33 28L34 28L34 27L36 27L36 26L38 26L38 25L39 25L39 24L36 24L36 25L35 25L35 24L34 24L34 23L33 23L33 20L34 20L34 19L33 19L33 18L34 18L34 17L32 17L32 16L34 16L34 15L35 15L35 14L32 14L32 16L31 16L31 14L30 14L30 13L28 13L28 12L27 12L27 15L26 15L26 16L25 16L25 17L26 17L26 16L27 16L27 17L28 17L28 19L30 19L30 21L31 21L31 20L32 20L32 22L30 22L30 23L29 23L29 20L27 20L27 18L24 18L24 17L23 17L23 16L22 16L22 14L20 14L20 15L19 15L19 16L15 16L15 14L14 14L14 13L15 13L15 11L16 11L16 12L17 12L17 11L16 11L16 10L15 10L15 6L16 6L16 5ZM23 5L23 8L26 8L26 5ZM21 6L21 9L22 9L22 6ZM24 6L24 7L25 7L25 6ZM33 7L33 9L32 9L32 10L33 10L33 9L36 9L36 8L34 8L34 7ZM46 8L46 9L45 9L45 10L48 10L48 11L47 11L47 12L46 12L46 13L45 13L45 14L46 14L46 13L47 13L47 12L48 12L48 13L49 13L49 12L48 12L48 11L49 11L49 10L48 10L48 9L49 9L49 8ZM3 9L3 10L4 10L4 9ZM18 11L18 14L17 14L17 13L16 13L16 14L17 14L17 15L18 15L18 14L19 14L19 11ZM34 11L34 12L35 12L35 11ZM9 12L9 13L10 13L10 15L11 15L11 13L10 13L10 12ZM25 12L25 13L26 13L26 12ZM40 13L40 14L41 14L41 13ZM29 14L29 15L27 15L27 16L29 16L29 15L30 15L30 14ZM36 14L36 15L37 15L37 14ZM47 14L47 15L49 15L49 14ZM7 16L7 17L8 17L8 16ZM14 16L14 17L11 17L11 19L13 19L13 18L14 18L14 17L15 17L15 16ZM48 16L48 17L49 17L49 16ZM29 17L29 18L30 18L30 19L31 19L31 17ZM4 18L4 19L5 19L5 18ZM44 18L44 19L45 19L45 20L44 20L44 21L43 21L43 22L45 22L45 24L47 24L47 23L46 23L46 20L47 20L47 18L46 18L46 19L45 19L45 18ZM24 19L24 20L25 20L25 19ZM32 19L32 20L33 20L33 19ZM1 20L1 21L2 21L2 20ZM13 20L13 21L14 21L14 20ZM9 21L9 22L10 22L10 21ZM5 23L5 26L8 26L8 23ZM12 23L12 24L13 24L13 23ZM23 23L23 26L26 26L26 23ZM27 23L27 24L29 24L29 23ZM30 23L30 24L33 24L33 27L34 27L34 26L35 26L35 25L34 25L34 24L33 24L33 23ZM41 23L41 26L44 26L44 23ZM6 24L6 25L7 25L7 24ZM24 24L24 25L25 25L25 24ZM42 24L42 25L43 25L43 24ZM6 27L6 28L7 28L7 27ZM10 27L10 28L12 28L12 27ZM39 27L39 28L40 28L40 27ZM13 28L13 29L14 29L14 28ZM15 28L15 29L16 29L16 28ZM20 28L20 29L18 29L18 30L17 30L17 32L15 32L15 33L14 33L14 34L13 34L13 32L12 32L12 33L11 33L11 34L12 34L12 35L13 35L13 36L14 36L14 35L16 35L16 33L17 33L17 32L18 32L18 31L19 31L19 30L20 30L20 29L21 29L21 28ZM6 29L6 30L7 30L7 29ZM29 30L29 31L30 31L30 30ZM39 32L39 34L38 34L38 35L37 35L37 36L35 36L35 38L34 38L34 40L33 40L33 39L32 39L32 40L33 40L33 41L34 41L34 42L35 42L35 43L36 43L36 42L35 42L35 41L37 41L37 40L36 40L36 39L35 39L35 38L38 38L38 37L37 37L37 36L39 36L39 35L40 35L40 32ZM44 34L44 37L45 37L45 35L46 35L46 34ZM0 35L0 36L1 36L1 40L0 40L0 41L3 41L3 40L4 40L4 39L2 39L2 38L3 38L3 37L2 37L2 36L1 36L1 35ZM5 37L5 38L7 38L7 37ZM13 38L13 39L12 39L12 41L13 41L13 40L14 40L14 39L15 39L15 38ZM26 39L26 40L27 40L27 39ZM6 40L6 41L7 41L7 40ZM23 41L23 44L26 44L26 41ZM41 41L41 44L44 44L44 41ZM11 42L11 43L10 43L10 44L11 44L11 43L12 43L12 42ZM24 42L24 43L25 43L25 42ZM42 42L42 43L43 43L43 42ZM47 42L47 43L49 43L49 42ZM17 43L17 44L19 44L19 43ZM20 44L20 46L19 46L19 47L20 47L20 46L21 46L21 44ZM10 45L10 46L9 46L9 47L10 47L10 48L11 48L11 47L10 47L10 46L11 46L11 45ZM47 45L47 46L48 46L48 45ZM19 48L19 49L20 49L20 48ZM23 48L23 49L24 49L24 48ZM0 0L0 7L7 7L7 0ZM1 1L1 6L6 6L6 1ZM2 2L2 5L5 5L5 2ZM42 0L42 7L49 7L49 0ZM43 1L43 6L48 6L48 1ZM44 2L44 5L47 5L47 2ZM0 42L0 49L7 49L7 42ZM1 43L1 48L6 48L6 43ZM2 44L2 47L5 47L5 44Z" fill="#000000"/></g></g></svg>
