<svg xmlns="http://www.w3.org/2000/svg" viewBox="0 0 1688 1756.38"><defs><style>.cls-1{fill:#1a1a1a;}.cls-2{fill:#1a1a1a;}</style></defs><title>QR</title><g id="Layer_2" data-name="Layer 2"><g id="Layer_1-2" data-name="Layer 1"><polygon class="cls-1" points="352.11 0 352.11 46.76 46.76 46.76 46.76 356.31 0 356.31 0 0 352.11 0"/><polygon class="cls-1" points="1688 0 1688 356.31 1641.24 356.31 1641.24 46.76 1332.81 46.76 1332.81 0 1688 0"/><polygon class="cls-1" points="352.11 1709.62 352.11 1756.38 0 1756.38 0 1392.38 46.76 1392.38 46.76 1709.62 352.11 1709.62"/><polygon class="cls-1" points="1688 1392.38 1688 1756.38 1332.81 1756.38 1332.81 1709.62 1641.24 1709.62 1641.24 1392.38 1688 1392.38"/><rect class="cls-2" x="147.05" y="732.99" width="58.08" height="58.08"/><rect class="cls-2" x="147.05" y="791.07" width="58.08" height="58.08"/><rect class="cls-2" x="147.05" y="849.15" width="58.08" height="58.08"/><rect class="cls-2" x="147.05" y="907.23" width="58.08" height="58.08"/><rect class="cls-2" x="147.05" y="965.31" width="58.08" height="58.08"/><rect class="cls-2" x="205.13" y="732.99" width="58.08" height="58.08"/><rect class="cls-2" x="205.13" y="965.31" width="58.08" height="58.08"/><rect class="cls-2" x="205.13" y="1023.39" width="58.08" height="58.08"/><rect class="cls-2" x="263.21" y="616.83" width="58.08" height="58.08"/><rect class="cls-2" x="263.21" y="674.91" width="58.08" height="58.08"/><rect class="cls-2" x="263.21" y="849.15" width="58.08" height="58.08"/><rect class="cls-2" x="263.21" y="1023.39" width="58.08" height="58.08"/><rect class="cls-2" x="263.21" y="1081.47" width="58.08" height="58.08"/><rect class="cls-2" x="321.28" y="616.83" width="58.08" height="58.08"/><rect class="cls-2" x="321.28" y="674.91" width="58.08" height="58.08"/><rect class="cls-2" x="321.28" y="732.99" width="58.08" height="58.08"/><rect class="cls-2" x="321.28" y="791.07" width="58.08" height="58.08"/><rect class="cls-2" x="321.28" y="965.31" width="58.08" height="58.08"/><rect class="cls-2" x="379.36" y="732.99" width="58.08" height="58.08"/><rect class="cls-2" x="379.36" y="791.07" width="58.08" height="58.08"/><rect class="cls-2" x="379.36" y="849.15" width="58.08" height="58.08"/><rect class="cls-2" x="379.36" y="965.31" width="58.08" height="58.08"/><rect class="cls-2" x="437.44" y="616.83" width="58.08" height="58.08"/><rect class="cls-2" x="437.44" y="674.91" width="58.08" height="58.08"/><rect class="cls-2" x="437.44" y="791.07" width="58.08" height="58.08"/><rect class="cls-2" x="437.44" y="849.15" width="58.08" height="58.08"/><rect class="cls-2" x="437.44" y="1081.47" width="58.08" height="58.08"/><rect class="cls-2" x="495.52" y="616.83" width="58.08" height="58.08"/><rect class="cls-2" x="495.52" y="732.99" width="58.08" height="58.08"/><rect class="cls-2" x="495.52" y="907.23" width="58.08" height="58.08"/><rect class="cls-2" x="495.52" y="965.31" width="58.08" height="58.08"/><rect class="cls-2" x="495.52" y="1023.39" width="58.08" height="58.08"/><rect class="cls-2" x="553.6" y="674.91" width="58.08" height="58.08"/><rect class="cls-2" x="553.6" y="849.15" width="58.08" height="58.08"/><rect class="cls-2" x="553.6" y="965.31" width="58.08" height="58.08"/><rect class="cls-2" x="553.6" y="1023.39" width="58.08" height="58.08"/><rect class="cls-2" x="611.68" y="152.2" width="58.08" height="58.08"/><rect class="cls-2" x="611.68" y="210.28" width="58.08" height="58.08"/><rect class="cls-2" x="611.68" y="326.43" width="58.08" height="58.08"/><rect class="cls-2" x="611.68" y="558.75" width="58.08" height="58.08"/><rect class="cls-2" x="611.68" y="616.83" width="58.08" height="58.08"/><rect class="cls-2" x="611.68" y="732.99" width="58.08" height="58.08"/><rect class="cls-2" x="611.68" y="791.07" width="58.08" height="58.08"/><rect class="cls-2" x="611.68" y="849.15" width="58.08" height="58.08"/><rect class="cls-2" x="611.68" y="1081.47" width="58.08" height="58.08"/><rect class="cls-2" x="611.68" y="1255.71" width="58.08" height="58.08"/><rect class="cls-2" x="611.68" y="1371.87" width="58.08" height="58.08"/><rect class="cls-2" x="611.68" y="1429.95" width="58.08" height="58.08"/><rect class="cls-2" x="611.68" y="1488.02" width="58.08" height="58.08"/><rect class="cls-2" x="611.68" y="1546.1" width="58.08" height="58.08"/><rect class="cls-2" x="669.76" y="210.28" width="58.08" height="58.08"/><rect class="cls-2" x="669.76" y="268.36" width="58.08" height="58.08"/><rect class="cls-2" x="669.76" y="326.43" width="58.08" height="58.08"/><rect class="cls-2" x="669.76" y="384.51" width="58.08" height="58.08"/><rect class="cls-2" x="669.76" y="500.67" width="58.08" height="58.08"/><rect class="cls-2" x="669.76" y="674.91" width="58.08" height="58.08"/><rect class="cls-2" x="669.76" y="732.99" width="58.08" height="58.08"/><rect class="cls-2" x="669.76" y="849.15" width="58.08" height="58.08"/><rect class="cls-2" x="669.76" y="907.23" width="58.08" height="58.08"/><rect class="cls-2" x="669.76" y="965.31" width="58.08" height="58.08"/><rect class="cls-2" x="669.76" y="1023.39" width="58.08" height="58.08"/><rect class="cls-2" x="669.76" y="1081.47" width="58.08" height="58.08"/><rect class="cls-2" x="669.76" y="1371.87" width="58.08" height="58.08"/><rect class="cls-2" x="669.76" y="1429.95" width="58.08" height="58.08"/><rect class="cls-2" x="669.76" y="1488.02" width="58.08" height="58.08"/><rect class="cls-2" x="727.84" y="152.2" width="58.08" height="58.08"/><rect class="cls-2" x="727.84" y="210.28" width="58.08" height="58.08"/><rect class="cls-2" x="727.84" y="384.51" width="58.08" height="58.08"/><rect class="cls-2" x="727.84" y="442.59" width="58.08" height="58.08"/><rect class="cls-2" x="727.84" y="791.07" width="58.08" height="58.08"/><rect class="cls-2" x="727.84" y="907.23" width="58.08" height="58.08"/><rect class="cls-2" x="727.84" y="965.31" width="58.08" height="58.08"/><rect class="cls-2" x="727.84" y="1023.39" width="58.08" height="58.08"/><rect class="cls-2" x="727.84" y="1081.47" width="58.08" height="58.08"/><rect class="cls-2" x="727.84" y="1255.71" width="58.08" height="58.08"/><rect class="cls-2" x="727.84" y="1429.95" width="58.08" height="58.08"/><rect class="cls-2" x="785.92" y="210.28" width="58.08" height="58.08"/><rect class="cls-2" x="785.92" y="500.67" width="58.08" height="58.08"/><rect class="cls-2" x="785.92" y="558.75" width="58.08" height="58.08"/><rect class="cls-2" x="785.92" y="616.83" width="58.08" height="58.08"/><rect class="cls-2" x="785.92" y="674.91" width="58.08" height="58.08"/><rect class="cls-2" x="785.92" y="849.15" width="58.08" height="58.08"/><rect class="cls-2" x="785.92" y="907.23" width="58.08" height="58.08"/><rect class="cls-2" x="785.92" y="965.31" width="58.08" height="58.08"/><rect class="cls-2" x="785.92" y="1023.39" width="58.08" height="58.08"/><rect class="cls-2" x="785.92" y="1081.47" width="58.08" height="58.08"/><rect class="cls-2" x="785.92" y="1139.55" width="58.08" height="58.08"/><rect class="cls-2" x="785.92" y="1197.63" width="58.08" height="58.08"/><rect class="cls-2" x="785.92" y="1371.87" width="58.08" height="58.08"/><rect class="cls-2" x="785.92" y="1429.95" width="58.08" height="58.08"/><rect class="cls-2" x="785.92" y="1488.02" width="58.08" height="58.08"/><rect class="cls-2" x="785.92" y="1546.1" width="58.08" height="58.08"/><rect class="cls-2" x="844" y="152.2" width="58.08" height="58.08"/><rect class="cls-2" x="844" y="210.28" width="58.08" height="58.08"/><rect class="cls-2" x="844" y="268.36" width="58.08" height="58.08"/><rect class="cls-2" x="844" y="500.67" width="58.08" height="58.08"/><rect class="cls-2" x="844" y="558.75" width="58.08" height="58.08"/><rect class="cls-2" x="844" y="674.91" width="58.08" height="58.08"/><rect class="cls-2" x="844" y="907.23" width="58.08" height="58.08"/><rect class="cls-2" x="844" y="965.31" width="58.08" height="58.08"/><rect class="cls-2" x="844" y="1197.63" width="58.08" height="58.08"/><rect class="cls-2" x="844" y="1255.71" width="58.08" height="58.08"/><rect class="cls-2" x="844" y="1371.87" width="58.08" height="58.08"/><rect class="cls-2" x="844" y="1546.1" width="58.08" height="58.08"/><rect class="cls-2" x="902.08" y="152.2" width="58.08" height="58.08"/><rect class="cls-2" x="902.08" y="384.51" width="58.08" height="58.08"/><rect class="cls-2" x="902.08" y="442.59" width="58.08" height="58.08"/><rect class="cls-2" x="902.08" y="500.67" width="58.08" height="58.08"/><rect class="cls-2" x="902.08" y="558.75" width="58.08" height="58.08"/><rect class="cls-2" x="902.08" y="616.83" width="58.08" height="58.08"/><rect class="cls-2" x="902.08" y="674.91" width="58.08" height="58.08"/><rect class="cls-2" x="902.08" y="791.07" width="58.08" height="58.08"/><rect class="cls-2" x="902.08" y="849.15" width="58.08" height="58.08"/><rect class="cls-2" x="902.08" y="1139.55" width="58.08" height="58.08"/><rect class="cls-2" x="902.08" y="1255.71" width="58.08" height="58.08"/><rect class="cls-2" x="902.08" y="1488.02" width="58.08" height="58.08"/><rect class="cls-2" x="960.16" y="326.43" width="58.08" height="58.08"/><rect class="cls-2" x="960.16" y="384.51" width="58.08" height="58.08"/><rect class="cls-2" x="960.16" y="500.67" width="58.08" height="58.08"/><rect class="cls-2" x="960.16" y="616.83" width="58.08" height="58.08"/><rect class="cls-2" x="960.16" y="674.91" width="58.08" height="58.08"/><rect class="cls-2" x="960.16" y="732.99" width="58.08" height="58.08"/><rect class="cls-2" x="960.16" y="791.07" width="58.08" height="58.08"/><rect class="cls-2" x="960.16" y="907.23" width="58.08" height="58.08"/><rect class="cls-2" x="960.16" y="965.31" width="58.08" height="58.08"/><rect class="cls-2" x="960.16" y="1139.55" width="58.08" height="58.08"/><rect class="cls-2" x="960.16" y="1371.87" width="58.08" height="58.08"/><rect class="cls-2" x="960.16" y="1488.02" width="58.08" height="58.08"/><rect class="cls-2" x="960.16" y="1546.1" width="58.08" height="58.08"/><rect class="cls-2" x="1018.24" y="152.2" width="58.08" height="58.08"/><rect class="cls-2" x="1018.24" y="384.51" width="58.08" height="58.08"/><rect class="cls-2" x="1018.24" y="500.67" width="58.08" height="58.08"/><rect class="cls-2" x="1018.24" y="558.75" width="58.08" height="58.08"/><rect class="cls-2" x="1018.24" y="616.83" width="58.08" height="58.08"/><rect class="cls-2" x="1018.24" y="674.91" width="58.08" height="58.08"/><rect class="cls-2" x="1018.24" y="791.07" width="58.08" height="58.08"/><rect class="cls-2" x="1018.24" y="1313.79" width="58.08" height="58.08"/><rect class="cls-2" x="1018.24" y="1371.87" width="58.08" height="58.08"/><rect class="cls-2" x="1076.32" y="732.99" width="58.08" height="58.08"/><rect class="cls-2" x="1076.32" y="965.31" width="58.08" height="58.08"/><rect class="cls-2" x="1076.32" y="1023.39" width="58.08" height="58.08"/><rect class="cls-2" x="1076.32" y="1139.55" width="58.08" height="58.08"/><rect class="cls-2" x="1076.32" y="1313.79" width="58.08" height="58.08"/><rect class="cls-2" x="1076.32" y="1371.87" width="58.08" height="58.08"/><rect class="cls-2" x="1076.32" y="1429.95" width="58.08" height="58.08"/><rect class="cls-2" x="1134.4" y="732.99" width="58.08" height="58.08"/><rect class="cls-2" x="1134.4" y="849.15" width="58.08" height="58.08"/><rect class="cls-2" x="1134.4" y="965.31" width="58.08" height="58.08"/><rect class="cls-2" x="1134.4" y="1023.39" width="58.08" height="58.08"/><rect class="cls-2" x="1134.4" y="1255.71" width="58.08" height="58.08"/><rect class="cls-2" x="1134.4" y="1313.79" width="58.08" height="58.08"/><rect class="cls-2" x="1134.4" y="1429.95" width="58.08" height="58.08"/><rect class="cls-2" x="1192.48" y="616.83" width="58.08" height="58.08"/><rect class="cls-2" x="1192.48" y="674.91" width="58.08" height="58.08"/><rect class="cls-2" x="1192.48" y="732.99" width="58.08" height="58.08"/><rect class="cls-2" x="1192.48" y="791.07" width="58.08" height="58.08"/><rect class="cls-2" x="1192.48" y="965.31" width="58.08" height="58.08"/><rect class="cls-2" x="1192.48" y="1139.55" width="58.08" height="58.08"/><rect class="cls-2" x="1192.48" y="1546.1" width="58.08" height="58.08"/><rect class="cls-2" x="1250.56" y="732.99" width="58.08" height="58.08"/><rect class="cls-2" x="1250.56" y="791.07" width="58.08" height="58.08"/><rect class="cls-2" x="1250.56" y="965.31" width="58.08" height="58.08"/><rect class="cls-2" x="1250.56" y="1023.39" width="58.08" height="58.08"/><rect class="cls-2" x="1250.56" y="1081.47" width="58.08" height="58.08"/><rect class="cls-2" x="1250.56" y="1197.63" width="58.08" height="58.08"/><rect class="cls-2" x="1250.56" y="1255.71" width="58.08" height="58.08"/><rect class="cls-2" x="1250.56" y="1313.79" width="58.08" height="58.08"/><rect class="cls-2" x="1250.56" y="1371.87" width="58.08" height="58.08"/><rect class="cls-2" x="1250.56" y="1429.95" width="58.08" height="58.08"/><rect class="cls-2" x="1250.56" y="1546.1" width="58.08" height="58.08"/><rect class="cls-2" x="1308.64" y="732.99" width="58.08" height="58.08"/><rect class="cls-2" x="1308.64" y="907.23" width="58.08" height="58.08"/><rect class="cls-2" x="1308.64" y="965.31" width="58.08" height="58.08"/><rect class="cls-2" x="1308.64" y="1081.47" width="58.08" height="58.08"/><rect class="cls-2" x="1308.64" y="1139.55" width="58.08" height="58.08"/><rect class="cls-2" x="1308.64" y="1255.71" width="58.08" height="58.08"/><rect class="cls-2" x="1308.64" y="1546.1" width="58.08" height="58.08"/><rect class="cls-2" x="1366.72" y="732.99" width="58.08" height="58.08"/><rect class="cls-2" x="1366.72" y="849.15" width="58.08" height="58.08"/><rect class="cls-2" x="1366.72" y="965.31" width="58.08" height="58.08"/><rect class="cls-2" x="1366.72" y="1023.39" width="58.08" height="58.08"/><rect class="cls-2" x="1366.72" y="1081.47" width="58.08" height="58.08"/><rect class="cls-2" x="1366.72" y="1255.71" width="58.08" height="58.08"/><rect class="cls-2" x="1366.72" y="1371.87" width="58.08" height="58.08"/><rect class="cls-2" x="1366.72" y="1488.02" width="58.08" height="58.08"/><rect class="cls-2" x="1366.72" y="1546.1" width="58.08" height="58.08"/><rect class="cls-2" x="1424.79" y="674.91" width="58.08" height="58.08"/><rect class="cls-2" x="1424.79" y="732.99" width="58.08" height="58.08"/><rect class="cls-2" x="1424.79" y="791.07" width="58.08" height="58.08"/><rect class="cls-2" x="1424.79" y="965.31" width="58.08" height="58.08"/><rect class="cls-2" x="1424.79" y="1023.39" width="58.08" height="58.08"/><rect class="cls-2" x="1424.79" y="1139.55" width="58.08" height="58.08"/><rect class="cls-2" x="1424.79" y="1197.63" width="58.08" height="58.08"/><rect class="cls-2" x="1424.79" y="1313.79" width="58.08" height="58.08"/><rect class="cls-2" x="1424.79" y="1429.95" width="58.08" height="58.08"/><rect class="cls-2" x="1424.79" y="1546.1" width="58.08" height="58.08"/><rect class="cls-2" x="1482.87" y="791.07" width="58.08" height="58.08"/><rect class="cls-2" x="1482.87" y="849.15" width="58.08" height="58.08"/><rect class="cls-2" x="1482.87" y="965.31" width="58.08" height="58.08"/><rect class="cls-2" x="1482.87" y="1023.39" width="58.08" height="58.08"/><rect class="cls-2" x="1482.87" y="1081.47" width="58.08" height="58.08"/><rect class="cls-2" x="1482.87" y="1197.63" width="58.08" height="58.08"/><rect class="cls-2" x="1482.87" y="1371.87" width="58.08" height="58.08"/><rect class="cls-2" x="1482.87" y="1488.02" width="58.08" height="58.08"/><path class="cls-2" d="M147,152.2V558.75H553.6V152.2ZM524.56,529.71H176.09V181.24H524.56Z"/><path class="cls-2" d="M176.09,181.24V529.71H524.56V181.24ZM499.67,504.82H201V206.13H499.67Z"/><rect class="cls-2" x="263.21" y="268.36" width="174.24" height="174.24"/><path class="cls-2" d="M147,1197.63v406.56H553.6V1197.63Zm377.52,377.52H176.09V1226.67H524.56Z"/><path class="cls-2" d="M176.09,1226.67v348.48H524.56V1226.67Zm323.59,323.59H201V1251.56H499.67Z"/><rect class="cls-2" x="263.21" y="1313.79" width="174.24" height="174.24"/><path class="cls-2" d="M1134.4,152.2V558.75H1541V152.2Zm377.52,377.52H1163.44V181.24h348.48Z"/><path class="cls-2" d="M1163.44,181.24V529.71h348.48V181.24ZM1487,504.82H1188.33V206.13H1487Z"/><rect class="cls-2" x="1250.56" y="268.36" width="174.24" height="174.24"/></g></g></svg>