<?xml version="1.0" standalone="no"?>
<!DOCTYPE svg PUBLIC "-//W3C//DTD SVG 20010904//EN"
 "http://www.w3.org/TR/2001/REC-SVG-20010904/DTD/svg10.dtd">
<svg version="1.0" xmlns="http://www.w3.org/2000/svg"
 width="2084.000000pt" height="2084.000000pt" viewBox="0 0 2084.000000 2084.000000"
 preserveAspectRatio="xMidYMid meet">

<g transform="translate(0.000000,2084.000000) scale(0.100000,-0.100000)"
fill="#43464b" stroke="none">
<path d="M9915 20090 c-1235 -68 -2396 -349 -3488 -844 -1525 -692 -2855
-1778 -3839 -3137 -616 -850 -1097 -1810 -1405 -2804 -377 -1218 -510 -2520
-387 -3815 179 -1903 927 -3714 2149 -5205 360 -440 843 -926 1281 -1291 1454
-1211 3197 -1959 5069 -2174 607 -70 1369 -79 1975 -25 1809 164 3505 821
4950 1916 374 283 632 509 996 873 364 364 590 622 873 996 1103 1455 1765
3169 1926 4990 54 614 45 1345 -25 1965 -276 2435 -1469 4673 -3347 6272 -946
806 -2060 1431 -3242 1817 -759 248 -1518 395 -2356 456 -198 15 -927 21
-1130 10z m890 -780 c1803 -89 3477 -690 4910 -1765 358 -269 602 -482 946
-825 339 -339 606 -646 864 -995 923 -1247 1505 -2712 1685 -4241 70 -599 79
-1286 24 -1884 -172 -1866 -925 -3610 -2179 -5050 -157 -180 -644 -665 -826
-823 -1858 -1608 -4208 -2370 -6639 -2151 -1622 145 -3186 748 -4495 1731
-374 281 -617 494 -965 842 -342 342 -574 610 -849 981 -1420 1909 -2010 4304
-1645 6670 237 1541 890 3010 1878 4229 270 333 669 754 971 1022 1045 931
2256 1592 3576 1954 651 178 1269 273 2004 308 153 8 559 6 740 -3z"/>
<path d="M12657 15562 c-15 -15 -38 -61 -53 -102 l-25 -75 1 -747 1 -748 -63
0 c-35 0 -787 -2 -1673 -4 -1765 -4 -1873 -7 -2285 -67 -806 -117 -1543 -432
-2160 -925 -176 -141 -516 -481 -654 -654 -610 -769 -936 -1694 -936 -2655 0
-856 259 -1685 763 -2440 726 -1089 1768 -1711 3097 -1849 277 -29 585 -38
1215 -34 607 3 621 4 685 26 130 43 222 136 263 266 22 70 22 80 22 576 0 502
0 505 -23 570 -48 134 -132 218 -263 263 -63 21 -78 21 -894 28 -456 4 -841 9
-855 12 -14 4 -70 13 -125 22 -403 64 -807 241 -1145 503 -117 91 -326 297
-423 417 -124 154 -231 323 -323 510 -172 352 -250 664 -261 1045 -13 456 93
878 325 1295 363 654 908 1075 1622 1255 250 63 442 87 785 101 282 11 3074
14 3216 3 l86 -6 -5 -737 c-3 -543 -2 -750 7 -791 45 -211 162 -227 393 -52
256 193 2864 2215 2956 2291 24 20 56 56 73 80 50 76 36 141 -49 223 -39 38
-1136 897 -2507 1963 -597 464 -597 464 -701 465 -53 0 -63 -3 -87 -28z"/>
</g>
</svg>
