<svg xmlns="http://www.w3.org/2000/svg" viewBox="0 0 463.97 463.39"><defs><style>.cls-1{fill:#43464b;}.cls-2{fill:#43464b;}</style></defs><title>Save</title><g id="Layer_2" data-name="Layer 2"><g id="Layer_1-2" data-name="Layer 1"><path class="cls-1" d="M354.77,179.75c1.85,1.94,1.86,2.16,0,4-11.2,11.2-22.6,22.21-33.54,33.65S298.57,240,287.52,251.55c-21.8,22.74-44.48,44.61-66.6,67-.34.34-.66.7-1,1-1.06.88-1.71.91-2.73,0a30.67,30.67,0,0,1-3.55-3.57c-2.86-3.67-6.42-6.66-9.6-10-17-18-35-35.11-52.29-52.83-4.73-4.84-9.13-10-13.92-14.82a2.1,2.1,0,0,1-.84-2,2.44,2.44,0,0,1,.91-2.2c6.68-6.66,13.33-13.35,20-20,1.85-1.83,2.4-1.76,4.32.16l52.59,52.59c2.76,2.76,2.76,2.76,5.46.06L327.66,159.51c2.85-2.85,3.28-3.54,6.92.06,6.58,6.53,13.12,13.11,19.68,19.67Z"/><path class="cls-1" d="M463.8,222.38a57,57,0,0,0-.61-7.84c-.64-3.85-.77-7.74-1.28-11.59-.27-2-.27-4.13-.62-6.16-.84-4.77-1.84-9.51-2.73-14.26a176.88,176.88,0,0,0-7.57-27.1c-2.14-6-4.48-11.93-7.11-17.75-3.66-8.09-7.8-15.91-12.23-23.59-3.75-6.49-8-12.66-12.36-18.76-2.4-3.37-4.83-6.71-7.52-9.87-1.39-1.64-3-3.09-4.31-4.79a100.39,100.39,0,0,0-9.09-10.45c-3.47-3.41-6.84-6.93-10.56-10.09-3-2.58-5.86-5.41-9-7.88-3.87-3.06-7.76-6.09-11.72-9a203.73,203.73,0,0,0-24.69-15.47c-4.35-2.35-8.74-4.62-13.22-6.73-6.58-3.11-13.32-5.78-20.14-8.25a216.07,216.07,0,0,0-28.69-8.14,182.53,182.53,0,0,0-19.73-3.18c-1.91-.18-3.82-.21-5.7-.47a90.39,90.39,0,0,0-14-.91c-3,0-5.92,0-8.88,0-1.92,0-3.84,0-5.76,0a88.94,88.94,0,0,0-15.05.58c-5.57.82-11.16,1.46-16.74,2.23a170.73,170.73,0,0,0-17.3,3.28A213.75,213.75,0,0,0,151.6,14a257.61,257.61,0,0,0-27,12.13A219.41,219.41,0,0,0,104.67,38,194.12,194.12,0,0,0,88,50.09c-2.2,1.83-4.34,3.74-6.58,5.53-3,2.44-6,5-8.85,7.64A226.78,226.78,0,0,0,56.16,80.63c-1.86,2.18-3.78,4.32-5.48,6.62C47.79,91.15,44.85,95,42,99a224.38,224.38,0,0,0-16,26,219.15,219.15,0,0,0-9.72,21.34,196.93,196.93,0,0,0-7.44,22c-2,7.53-3.74,15.11-5,22.81-.87,5.33-1.48,10.69-2.34,16-.32,2,.2,3.92-.4,5.83a18.14,18.14,0,0,0-.49,5.69q0,6.12,0,12.24A7.6,7.6,0,0,1,.47,233,12.88,12.88,0,0,0,.24,239a63.18,63.18,0,0,1,.38,8.12c0,.47,0,1,.06,1.43C1.12,252,1.77,255.43,2,258.9A136.42,136.42,0,0,0,4,274a201.05,201.05,0,0,0,6.13,24.52,263.56,263.56,0,0,0,9.39,25.33c1.73,4,3.51,8.05,5.5,11.95,2.18,4.26,4.64,8.37,6.94,12.57A175.82,175.82,0,0,0,45.09,368.3a141.23,141.23,0,0,0,10.33,12.82c4,4.3,7.84,8.8,11.82,13.15,1.77,1.94,3.83,3.6,5.76,5.39,3.68,3.41,7.19,7,11.12,10.16,5.15,4.14,10.35,8.2,15.81,11.93a242.62,242.62,0,0,0,37,20.93c6.76,3.06,13.68,5.71,20.66,8.18a197.32,197.32,0,0,0,22.51,6.33c7.07,1.61,14.19,2.7,21.34,3.65,4.33.58,8.65,1.19,13,1.64,3.88.39,7.78.41,11.65.68a123.51,123.51,0,0,0,19.13-.34,22,22,0,0,0,5-.47,27.83,27.83,0,0,1,6.83-.89c5.57-.35,11-1.34,16.53-2.15,4.78-.7,9.5-1.91,14.2-3.07A207.9,207.9,0,0,0,311,449c6.36-2.38,12.66-4.87,18.77-7.8a234.53,234.53,0,0,0,21.35-11.36c5.29-3.25,10.57-6.52,15.53-10.28,4.57-3.46,9.19-6.83,13.53-10.59,3.54-3.08,7.3-5.92,10.6-9.27,5.33-5.41,10.9-10.58,15.85-16.34,2.17-2.54,4.32-5.1,6.39-7.71,3.26-4.13,6.25-8.45,9.33-12.7a210.42,210.42,0,0,0,14.76-24,196.36,196.36,0,0,0,8.37-18,212.65,212.65,0,0,0,8.94-25.21c1.55-5.68,3.18-11.34,4.25-17.13.8-4.37,1.68-8.72,2.29-13.13.68-4.89,1.56-9.74,1.38-14.7a3,3,0,0,1,.06-.95c1.45-5.3.69-10.77,1.29-16.15A83.11,83.11,0,0,0,463.8,222.38Zm-19.23,16.23c-.32,3.24-.17,6.52-.83,9.73a12.11,12.11,0,0,0-.08,1.91c-.12,4.3-.79,8.53-1.31,12.78-.7,5.69-1.86,11.28-3,16.88-.74,3.68-1.76,7.27-2.79,10.86a163,163,0,0,1-6.32,18.53,224.29,224.29,0,0,1-11,22.85c-3.1,5.49-6.31,10.91-9.84,16.12s-7.33,10-11.19,14.87a235,235,0,0,1-21.24,23c-4.29,4.14-8.84,8-13.52,11.73-6.55,5.21-13.38,10-20.37,14.61-2.66,1.75-5.46,3.28-8.24,4.85-4.17,2.36-8.42,4.59-12.76,6.61a185.57,185.57,0,0,1-26.8,10.17c-4.36,1.27-8.72,2.54-13.11,3.65-6.16,1.56-12.4,2.81-18.67,3.8-3.6.57-7.28.6-10.9,1.1-2.36.33-4.77.19-7.09.81a2.82,2.82,0,0,1-.71.09c-5.82.07-11.64,1-17.45.45-4.68-.42-9.38-.4-14-.95a262.55,262.55,0,0,1-28.21-4.39c-5.18-1.19-10.33-2.56-15.45-4.07-6.13-1.81-12.1-4-18-6.38-3.18-1.27-6.28-2.74-9.44-4.08-7.37-3.11-14.19-7.27-21.05-11.32A146.1,146.1,0,0,1,105.7,402c-4.52-3.52-9-7.09-13.49-10.63l-.18-.16c-3.57-3.88-7.86-7-11.41-10.94-4.07-4.48-8.15-8.95-12.08-13.55s-7.65-9.56-11.24-14.52a209.16,209.16,0,0,1-18.72-32A164,164,0,0,1,28.41,293c-1.32-4.76-2.57-9.53-3.82-14.3-1.13-4.31-1.64-8.73-2.37-13.11s-1-8.84-1.86-13.19c-.06-.31,0-.64-.06-1-.63-7.09-.46-14.19-.48-21.29,0-2.8,0-5.6,0-8.4a84.93,84.93,0,0,1,.88-11.16c.34-3,.65-6,1-9,.41-3.48.93-6.93,1.58-10.36.92-4.92,1.95-9.81,3.23-14.65a183.41,183.41,0,0,1,10.18-29.8,247.91,247.91,0,0,1,15.08-28.28,188.15,188.15,0,0,1,12.15-16.83c4-5.08,8.22-9.93,12.63-14.65,2.12-2.27,4.14-4.65,6.43-6.75,4.29-3.93,8.49-7.93,13-11.65A243.5,243.5,0,0,1,117.3,52.54,183.91,183.91,0,0,1,141,39.12a195.81,195.81,0,0,1,26.24-10.33,232.32,232.32,0,0,1,22.84-6c4-.78,8.15-1.25,12.25-1.75,4.26-.53,8.54-.75,12.79-1.25a138.21,138.21,0,0,1,17.81-.54c4.84,0,8.12,0,11.4,0a40.89,40.89,0,0,1,7.57.82,8.56,8.56,0,0,0,1.43.15,108,108,0,0,1,16.53,2c5.56,1,11,2.25,16.51,3.69a193.33,193.33,0,0,1,26.89,9.2c3.29,1.41,6.6,2.82,9.85,4.32,3.76,1.74,7.43,3.71,11,5.75a231.3,231.3,0,0,1,20.06,12.56c4.54,3.21,8.86,6.72,13.23,10.17,7.07,5.57,13.25,12,19.54,18.34a152.34,152.34,0,0,1,10.77,12.45c3.27,4.11,6.28,8.42,9.44,12.61,2.14,2.86,3.81,6.07,5.68,9.13a203.3,203.3,0,0,1,11.45,21,187.91,187.91,0,0,1,11.22,30.47c1.73,6.62,3.33,13.26,4.56,20,.65,3.51,1.2,7,1.69,10.58.6,4.4.79,8.85,1.77,13.2a4.57,4.57,0,0,1,.07,1.43c-.34,4.64.47,9.24.6,13.86C444.32,233.52,444.81,236.09,444.57,238.61Z"/><path class="cls-2" d="M354.75,183.79c-11.2,11.2-22.6,22.21-33.54,33.65S298.57,240,287.52,251.55c-21.8,22.74-44.48,44.61-66.6,67-.34.34-.66.7-1,1-1.06.88-1.71.91-2.73,0a30.67,30.67,0,0,1-3.55-3.57c-2.86-3.67-6.42-6.66-9.6-10-17-18-35-35.11-52.29-52.83-4.73-4.84-9.13-10-13.92-14.82a2.1,2.1,0,0,1-.84-2,2.44,2.44,0,0,1,.91-2.2c6.68-6.66,13.33-13.35,20-20,1.85-1.83,2.4-1.76,4.32.16l52.59,52.59c2.76,2.76,2.76,2.76,5.46.06L327.66,159.51c2.85-2.85,3.28-3.54,6.92.06,6.58,6.53,13.12,13.11,19.68,19.67l.51.51C356.62,181.69,356.63,181.91,354.75,183.79Z"/><path class="cls-1" d="M354.75,183.79c-11.2,11.2-22.6,22.21-33.54,33.65S298.57,240,287.52,251.55c-21.8,22.74-44.48,44.61-66.6,67-.34.34-.66.7-1,1-1.06.88-1.71.91-2.73,0a30.67,30.67,0,0,1-3.55-3.57c-2.86-3.67-6.42-6.66-9.6-10-17-18-35-35.11-52.29-52.83-4.73-4.84-9.13-10-13.92-14.82a2.1,2.1,0,0,1-.84-2,2.44,2.44,0,0,1,.91-2.2c6.68-6.66,13.33-13.35,20-20,1.85-1.83,2.4-1.76,4.32.16l52.59,52.59c2.76,2.76,2.76,2.76,5.46.06L327.66,159.51c2.85-2.85,3.28-3.54,6.92.06,6.58,6.53,13.12,13.11,19.68,19.67l.51.51C356.62,181.69,356.63,181.91,354.75,183.79Z"/></g></g></svg>