<svg xmlns="http://www.w3.org/2000/svg" viewBox="0 0 463.32 462.79"><defs><style>.cls-1{fill:#43464b;}.cls-2{fill:#fefefe;}</style></defs><title>Setting</title><g id="Layer_2" data-name="Layer 2"><g id="Layer_1-2" data-name="Layer 1"><path class="cls-1" d="M462.42,209.94c-.44-4.83-1-9.64-1.69-14.42a176.6,176.6,0,0,0-3.68-18.45,221.18,221.18,0,0,0-8.52-27.1q-3.09-7.91-6.58-15.65c-2.45-5.39-5.29-10.55-8.12-15.73-2.33-4.27-5-8.37-7.53-12.47-2-3.24-4.13-6.45-6.41-9.51-2.7-3.64-5.32-7.34-8.19-10.86-3.28-4-6.57-8-10.14-11.74a256.89,256.89,0,0,0-19.32-18.58c-4.45-3.75-9-7.33-13.65-10.81a163.08,163.08,0,0,0-14.21-9.68c-5-3-10-6-15.14-8.69q-5.82-3.07-11.8-5.82c-3.12-1.42-6.27-2.77-9.43-4.1-7.21-3-14.65-5.42-22.12-7.72a146,146,0,0,0-14.32-3.69A210.64,210.64,0,0,0,255,.89c-5.24-.37-10.45-1-15.72-.88-2.16,0-4.32,0-6.47,0H220.07a8.17,8.17,0,0,0-1.92.08c-3,.7-6,.59-9,.79-3.66.24-7.27.85-10.89,1.25-3.29.36-6.58,1-9.86,1.63a226,226,0,0,0-25.69,6.31,214.4,214.4,0,0,0-37.35,15.38c-1.62.86-3.2,1.79-4.83,2.65A171.57,171.57,0,0,0,105,37.48c-3.17,2.12-6.1,4.61-9.34,6.61a87.15,87.15,0,0,0-8.17,6.19c-3.72,3-7.4,6-10.91,9.27S69.4,66.09,66,69.59c-3.75,3.91-7.48,7.85-11,12-2.81,3.36-5.66,6.68-8.22,10.23-1.91,2.65-3.78,5.31-5.66,8A199.87,199.87,0,0,0,28.44,120c-2.66,4.92-5.26,9.85-7.56,15-2.85,6.34-5.47,12.75-7.79,19.28A207.28,207.28,0,0,0,5.94,179c-1,4.35-1.86,8.7-2.55,13.09-.57,3.61-1,7.23-1.54,10.84S.91,210.34.66,214a154.36,154.36,0,0,0-.61,16.25c.15,4.07,0,8.16,0,12.23a82.49,82.49,0,0,0,.61,9c.52,4.88.94,9.79,1.75,14.65s1.66,9.86,2.76,14.73a221,221,0,0,0,8.07,27.73c2.8,7.64,5.87,15.17,9.38,22.51,2.58,5.4,5.39,10.69,8.37,15.89a206.47,206.47,0,0,0,11.74,18.28c3.39,4.7,6.81,9.39,10.64,13.79s7.42,8.53,11.33,12.61A226.2,226.2,0,0,0,83,408.67c3.79,3.16,7.69,6.17,11.58,9.19s8.24,5.7,12.38,8.52c4.68,3.19,9.72,5.8,14.64,8.59a200.44,200.44,0,0,0,24.24,11.41,196.58,196.58,0,0,0,18.91,6.72c8,2.32,16.11,4.34,24.32,5.92a216.85,216.85,0,0,0,23.34,3.14,105.2,105.2,0,0,0,11,.62c6.31-.15,12.64-.05,19,0,3.11,0,6.21-.35,9.28-.61q7-.6,13.93-1.7c6.68-1,13.31-2.23,19.87-3.8a219.93,219.93,0,0,0,25.35-7.76,228.74,228.74,0,0,0,27.75-12.28,198.8,198.8,0,0,0,20.75-12.32c4.32-3,8.66-5.91,12.85-9.1A183.17,183.17,0,0,0,386.77,403c4.22-4,8.72-7.68,12.5-12.17,3.12-3.7,6.6-7.13,9.76-10.83,2.48-2.91,4.89-5.87,7.18-8.92,4.48-6,8.6-12.24,12.67-18.52,3.82-5.9,7-12.16,10.31-18.35,1.68-3.16,3-6.53,4.46-9.8Q447,317,449.7,309.32a234.58,234.58,0,0,0,7.62-26.13,228.44,228.44,0,0,0,4-23.22c.17-1.5.56-3,.59-4.49a75.89,75.89,0,0,1,.54-7.85c.55-4.6.56-9.21.76-13.81A176.47,176.47,0,0,0,462.42,209.94ZM444,244.27c-.42,5-.63,10-1.24,15a208.81,208.81,0,0,1-4.42,24.12,191.36,191.36,0,0,1-9.1,27.67c-2.78,6.72-6,13.23-9.41,19.66A190.71,190.71,0,0,1,407.94,350c-4,5.83-8.49,11.32-12.85,16.88-1.61,2-3.47,4-5.22,5.91-3.8,4.23-7.71,8.33-11.86,12.2-4.35,4.07-8.74,8.11-13.45,11.81-3.31,2.61-6.67,5.16-10,7.76a119.4,119.4,0,0,1-10.67,7.21c-4.14,2.55-8.32,5-12.61,7.34-5.41,2.9-11,5.53-16.58,8s-11.57,4.56-17.48,6.49a198.66,198.66,0,0,1-23.08,6c-4.58.9-9.21,1.67-13.88,2.13s-9.13,1.17-13.73,1.49c-2.87.2-5.73.3-8.59.35-1.91,0-3.76.56-5.7.53-5.42-.09-10.81-.44-16.2-1-2.05-.19-4.11-.14-6.18-.47-3.36-.53-6.76-.9-10.14-1.36-4.09-.56-8.17-1.2-12.2-2.07-5.05-1.08-10.08-2.25-15.06-3.7-6-1.74-11.86-3.67-17.68-5.87-4.41-1.67-8.72-3.55-13-5.51a211,211,0,0,1-27.87-15.82,201.76,201.76,0,0,1-16.65-12.39,239.35,239.35,0,0,1-22.32-21.35,181.77,181.77,0,0,1-13.14-15.75c-3.17-4.2-6.38-8.35-9.25-12.76A230.26,230.26,0,0,1,36.95,317.5a173.86,173.86,0,0,1-8.05-21A202.65,202.65,0,0,1,22.65,271c-.66-3.67-1.45-7.33-1.8-11-.22-2.29-.42-4.61-.7-6.88-.41-3.32,0-6.69-.8-10a7.21,7.21,0,0,1-.07-1.68v-9.12c0-2.64-.19-5.29,0-7.91.38-4.2.33-8.41.81-12.61.25-2.28.38-4.6.62-6.89.35-3.23.86-6.44,1.41-9.65a204.45,204.45,0,0,1,4.23-20c1.89-6.84,4-13.61,6.53-20.23a192.49,192.49,0,0,1,9.15-20.54,185.6,185.6,0,0,1,15.88-25.86c3.4-4.49,6.83-9,10.56-13.24,3-3.42,6.22-6.64,9.13-10.12,3.46-4.13,7.68-7.42,11.46-11.18,2.57-2.56,5.47-4.85,8.29-7.19,3.43-2.84,7-5.52,10.48-8.28,2.43-1.92,5.16-3.46,7.7-5.24a174.2,174.2,0,0,1,17-10.27,186.25,186.25,0,0,1,17.52-8.22c5.15-2.16,10.36-4.15,15.68-5.84a195.49,195.49,0,0,1,25.66-6.48c4.7-.81,9.41-1.43,14.14-2A168.88,168.88,0,0,1,226,19.18c2.38,0,4.75-.7,7.14-.42,4.45.53,8.93.19,13.38.53,7,.53,14.08,1.16,21,2.39a203,203,0,0,1,43.74,12.57q7,3,13.91,6.35A227.47,227.47,0,0,1,351.62,56c5.7,3.8,11.11,8,16.41,12.3A183.48,183.48,0,0,1,387,86.25a217,217,0,0,1,17.28,21.31,226.11,226.11,0,0,1,13.31,21.23,194.18,194.18,0,0,1,12.37,26.43,198.07,198.07,0,0,1,8.95,31.19c1,4.9,2,9.81,2.65,14.75.48,3.37.8,6.79,1.21,10.17.38,3.08,0,6.23.82,9.25a1.91,1.91,0,0,1,0,.48C443.6,228.8,444.63,236.55,444,244.27ZM332.22,265.7c-3.73-2.14-7.47-4.27-11.24-6.35a30.73,30.73,0,0,1-8.66-7.46c-4.66-5.57-6-12.32-6.48-19.34a35,35,0,0,1,1.5-12A29.16,29.16,0,0,1,313,210.07c2.9-3.51,6.79-5.75,10.65-8s7.58-4.09,11-6.71c4.78-3.65,5.73-7.12,4.28-13.08-1.72-7-5.53-13-10.19-18.43a13,13,0,0,0-5.28-4,12.78,12.78,0,0,0-10.38.7,132.9,132.9,0,0,0-12.59,7.35c-6.45,4-13.42,4.87-20.69,3.43a38,38,0,0,1-15.76-7.16,32.07,32.07,0,0,1-6.09-6.39,27.08,27.08,0,0,1-5.87-16.1c-.1-5.6.16-11.21-.08-16.8-.19-4.36-1.91-8-6.26-9.95a34.18,34.18,0,0,0-11.83-2.55,43.23,43.23,0,0,0-8.34.37,25.52,25.52,0,0,0-7.62,1.83c-3,1.42-5.52,3.58-6.44,7a18.28,18.28,0,0,0-.76,5.18c.08,4.32,0,8.64,0,13a38.49,38.49,0,0,1-.64,6.64c-1.15,7.09-5.06,12.68-10.55,17.13a37.22,37.22,0,0,1-17.15,8,26,26,0,0,1-13.65-.94,71.7,71.7,0,0,1-11.71-6c-3.71-2.17-7.35-4.52-11.66-5.43a9,9,0,0,0-7.69,1.67,33.39,33.39,0,0,0-5.77,5.75,42.4,42.4,0,0,0-8.35,17.52,10.06,10.06,0,0,0,4,10.79,108.88,108.88,0,0,0,13.27,8.06c3.43,1.9,6.67,3.94,9.09,7.18,4.33,5.79,7.09,12.07,7.05,19.39a53.35,53.35,0,0,1-.16,7.9,35.59,35.59,0,0,1-5.15,13.06,21.64,21.64,0,0,1-5.38,6,69.43,69.43,0,0,1-10.07,6,37,37,0,0,0-10.9,8,7,7,0,0,0-1.46,2.44c-1,3-.35,5.81.37,8.69,1.32,5.29,4.14,9.8,7.2,14.2a27.09,27.09,0,0,0,4.67,5.12,11,11,0,0,0,7.34,3c3.35,0,6.16-1.35,9-2.89,4.12-2.26,8-4.88,12.23-7,6.92-3.56,14-3.88,21.32-1.75a36.05,36.05,0,0,1,19.39,13.26A27.19,27.19,0,0,1,210.8,321c.23,6.22-.48,12.46.46,18.66a10.31,10.31,0,0,0,7.31,8.88,37.94,37.94,0,0,0,9.35,1.76,41.44,41.44,0,0,0,15.62-1.41c2.76-.85,5.44-2,6.84-4.83a13.18,13.18,0,0,0,1.71-6.15c0-2.88,0-5.76,0-8.64s0-5.6,0-8.4a22.55,22.55,0,0,1,1.8-8.59,32.56,32.56,0,0,1,13.39-15.73c5-3,10.23-5.25,16.08-5.66a29.59,29.59,0,0,1,14.21,2.54c3.09,1.36,5.65,3.61,8.62,5.16,3.24,1.69,6.21,4,9.85,4.83,4,1,7.74.52,10.83-2.62a53.06,53.06,0,0,0,6.23-7.52,40.75,40.75,0,0,0,6.06-13.16c.87-3.59.77-7.33-1.95-10.41A19.51,19.51,0,0,0,332.22,265.7Zm-53.28-33.75a49.74,49.74,0,0,1-9.53,28,47,47,0,0,1-15.28,13.48,42.51,42.51,0,0,1-15.61,5,75.65,75.65,0,0,1-7.75.45c-10.32,0-20.43-3.67-29.42-10.67a47.32,47.32,0,0,1-11-13,42.69,42.69,0,0,1-5.72-16.83,42.1,42.1,0,0,1-.35-10.19,53.3,53.3,0,0,1,3.05-13.69,47.51,47.51,0,0,1,9.78-15.75,46.69,46.69,0,0,1,14.86-10.68,39,39,0,0,1,14.94-3.74c1.21,0,2.3-.57,3.53-.52,11,.47,21.23,3.07,30,10a48.45,48.45,0,0,1,13.36,15.75A45.11,45.11,0,0,1,278.57,225,44.39,44.39,0,0,1,278.94,231.95Z"/><path class="cls-2" d="M337.21,269.76a19.51,19.51,0,0,0-5-4.06c-3.73-2.14-7.47-4.27-11.24-6.35a30.73,30.73,0,0,1-8.66-7.46c-4.66-5.57-6-12.32-6.48-19.34a35,35,0,0,1,1.5-12A29.16,29.16,0,0,1,313,210.07c2.9-3.51,6.79-5.75,10.65-8s7.58-4.09,11-6.71c4.78-3.65,5.73-7.12,4.28-13.08-1.72-7-5.53-13-10.19-18.43a13,13,0,0,0-5.28-4,12.78,12.78,0,0,0-10.38.7,132.9,132.9,0,0,0-12.59,7.35c-6.45,4-13.42,4.87-20.69,3.43a38,38,0,0,1-15.76-7.16,32.07,32.07,0,0,1-6.09-6.39,27.08,27.08,0,0,1-5.87-16.1c-.1-5.6.16-11.21-.08-16.8-.19-4.36-1.91-8-6.26-9.95a34.18,34.18,0,0,0-11.83-2.55,43.23,43.23,0,0,0-8.34.37,25.52,25.52,0,0,0-7.62,1.83c-3,1.42-5.52,3.58-6.44,7a18.28,18.28,0,0,0-.76,5.18c.08,4.32,0,8.64,0,13a38.49,38.49,0,0,1-.64,6.64c-1.15,7.09-5.06,12.68-10.55,17.13a37.22,37.22,0,0,1-17.15,8,26,26,0,0,1-13.65-.94,71.7,71.7,0,0,1-11.71-6c-3.71-2.17-7.35-4.52-11.66-5.43a9,9,0,0,0-7.69,1.67,33.39,33.39,0,0,0-5.77,5.75,42.4,42.4,0,0,0-8.35,17.52,10.06,10.06,0,0,0,4,10.79,108.88,108.88,0,0,0,13.27,8.06c3.43,1.9,6.67,3.94,9.09,7.18,4.33,5.79,7.09,12.07,7.05,19.39a53.35,53.35,0,0,1-.16,7.9,35.59,35.59,0,0,1-5.15,13.06,21.64,21.64,0,0,1-5.38,6,69.43,69.43,0,0,1-10.07,6,37,37,0,0,0-10.9,8,7,7,0,0,0-1.46,2.44c-1,3-.35,5.81.37,8.69,1.32,5.29,4.14,9.8,7.2,14.2a27.09,27.09,0,0,0,4.67,5.12,11,11,0,0,0,7.34,3c3.35,0,6.16-1.35,9-2.89,4.12-2.26,8-4.88,12.23-7,6.92-3.56,14-3.88,21.32-1.75a36.05,36.05,0,0,1,19.39,13.26A27.19,27.19,0,0,1,210.8,321c.23,6.22-.48,12.46.46,18.66a10.31,10.31,0,0,0,7.31,8.88,37.94,37.94,0,0,0,9.35,1.76,41.44,41.44,0,0,0,15.62-1.41c2.76-.85,5.44-2,6.84-4.83a13.18,13.18,0,0,0,1.71-6.15c0-2.88,0-5.76,0-8.64s0-5.6,0-8.4a22.55,22.55,0,0,1,1.8-8.59,32.56,32.56,0,0,1,13.39-15.73c5-3,10.23-5.25,16.08-5.66a29.59,29.59,0,0,1,14.21,2.54c3.09,1.36,5.65,3.61,8.62,5.16,3.24,1.69,6.21,4,9.85,4.83,4,1,7.74.52,10.83-2.62a53.06,53.06,0,0,0,6.23-7.52,40.75,40.75,0,0,0,6.06-13.16C340,276.58,339.93,272.84,337.21,269.76Zm-58.27-37.81a49.74,49.74,0,0,1-9.53,28,47,47,0,0,1-15.28,13.48,42.51,42.51,0,0,1-15.61,5,75.65,75.65,0,0,1-7.75.45c-10.32,0-20.43-3.67-29.42-10.67a47.32,47.32,0,0,1-11-13,42.69,42.69,0,0,1-5.72-16.83,42.1,42.1,0,0,1-.35-10.19,53.3,53.3,0,0,1,3.05-13.69,47.51,47.51,0,0,1,9.78-15.75,46.69,46.69,0,0,1,14.86-10.68,39,39,0,0,1,14.94-3.74c1.21,0,2.3-.57,3.53-.52,11,.47,21.23,3.07,30,10a48.45,48.45,0,0,1,13.36,15.75A45.11,45.11,0,0,1,278.57,225,44.39,44.39,0,0,1,278.94,231.95Z"/><path class="cls-1" d="M337.21,269.76a19.51,19.51,0,0,0-5-4.06c-3.73-2.14-7.47-4.27-11.24-6.35a30.73,30.73,0,0,1-8.66-7.46c-4.66-5.57-6-12.32-6.48-19.34a35,35,0,0,1,1.5-12A29.16,29.16,0,0,1,313,210.07c2.9-3.51,6.79-5.75,10.65-8s7.58-4.09,11-6.71c4.78-3.65,5.73-7.12,4.28-13.08-1.72-7-5.53-13-10.19-18.43a13,13,0,0,0-5.28-4,12.78,12.78,0,0,0-10.38.7,132.9,132.9,0,0,0-12.59,7.35c-6.45,4-13.42,4.87-20.69,3.43a38,38,0,0,1-15.76-7.16,32.07,32.07,0,0,1-6.09-6.39,27.08,27.08,0,0,1-5.87-16.1c-.1-5.6.16-11.21-.08-16.8-.19-4.36-1.91-8-6.26-9.95a34.18,34.18,0,0,0-11.83-2.55,43.23,43.23,0,0,0-8.34.37,25.52,25.52,0,0,0-7.62,1.83c-3,1.42-5.52,3.58-6.44,7a18.28,18.28,0,0,0-.76,5.18c.08,4.32,0,8.64,0,13a38.49,38.49,0,0,1-.64,6.64c-1.15,7.09-5.06,12.68-10.55,17.13a37.22,37.22,0,0,1-17.15,8,26,26,0,0,1-13.65-.94,71.7,71.7,0,0,1-11.71-6c-3.71-2.17-7.35-4.52-11.66-5.43a9,9,0,0,0-7.69,1.67,33.39,33.39,0,0,0-5.77,5.75,42.4,42.4,0,0,0-8.35,17.52,10.06,10.06,0,0,0,4,10.79,108.88,108.88,0,0,0,13.27,8.06c3.43,1.9,6.67,3.94,9.09,7.18,4.33,5.79,7.09,12.07,7.05,19.39a53.35,53.35,0,0,1-.16,7.9,35.59,35.59,0,0,1-5.15,13.06,21.64,21.64,0,0,1-5.38,6,69.43,69.43,0,0,1-10.07,6,37,37,0,0,0-10.9,8,7,7,0,0,0-1.46,2.44c-1,3-.35,5.81.37,8.69,1.32,5.29,4.14,9.8,7.2,14.2a27.09,27.09,0,0,0,4.67,5.12,11,11,0,0,0,7.34,3c3.35,0,6.16-1.35,9-2.89,4.12-2.26,8-4.88,12.23-7,6.92-3.56,14-3.88,21.32-1.75a36.05,36.05,0,0,1,19.39,13.26A27.19,27.19,0,0,1,210.8,321c.23,6.22-.48,12.46.46,18.66a10.31,10.31,0,0,0,7.31,8.88,37.94,37.94,0,0,0,9.35,1.76,41.44,41.44,0,0,0,15.62-1.41c2.76-.85,5.44-2,6.84-4.83a13.18,13.18,0,0,0,1.71-6.15c0-2.88,0-5.76,0-8.64s0-5.6,0-8.4a22.55,22.55,0,0,1,1.8-8.59,32.56,32.56,0,0,1,13.39-15.73c5-3,10.23-5.25,16.08-5.66a29.59,29.59,0,0,1,14.21,2.54c3.09,1.36,5.65,3.61,8.62,5.16,3.24,1.69,6.21,4,9.85,4.83,4,1,7.74.52,10.83-2.62a53.06,53.06,0,0,0,6.23-7.52,40.75,40.75,0,0,0,6.06-13.16C340,276.58,339.93,272.84,337.21,269.76Zm-58.27-37.81a49.74,49.74,0,0,1-9.53,28,47,47,0,0,1-15.28,13.48,42.51,42.51,0,0,1-15.61,5,75.65,75.65,0,0,1-7.75.45c-10.32,0-20.43-3.67-29.42-10.67a47.32,47.32,0,0,1-11-13,42.69,42.69,0,0,1-5.72-16.83,42.1,42.1,0,0,1-.35-10.19,53.3,53.3,0,0,1,3.05-13.69,47.51,47.51,0,0,1,9.78-15.75,46.69,46.69,0,0,1,14.86-10.68,39,39,0,0,1,14.94-3.74c1.21,0,2.3-.57,3.53-.52,11,.47,21.23,3.07,30,10a48.45,48.45,0,0,1,13.36,15.75A45.11,45.11,0,0,1,278.57,225,44.39,44.39,0,0,1,278.94,231.95Z"/></g></g></svg>