<svg width="12" height="13" viewBox="0 0 12 13" fill="none" xmlns="http://www.w3.org/2000/svg">
<g id="information-button 1" clip-path="url(#clip0_306_112)">
<g id="Group">
<path id="Vector" d="M5.99975 0.487366C2.68648 0.487366 0 3.1795 0 6.49974C0 9.81999 2.68648 12.5126 5.99975 12.5126C9.31302 12.5126 12 9.81999 12 6.49974C12 3.1795 9.31302 0.487366 5.99975 0.487366ZM7.24876 9.80574C6.93994 9.9279 6.6941 10.0205 6.50971 10.0847C6.32584 10.1488 6.112 10.1809 5.8687 10.1809C5.49486 10.1809 5.20381 10.0893 4.99657 9.90652C4.78933 9.72379 4.68622 9.49219 4.68622 9.21071C4.68622 9.10127 4.69384 8.98929 4.70908 8.87527C4.72483 8.76126 4.74971 8.63299 4.78375 8.48894L5.17029 7.12073C5.20432 6.98941 5.23378 6.8647 5.25714 6.74865C5.28051 6.63158 5.29168 6.52418 5.29168 6.42645C5.29168 6.25237 5.25562 6.1302 5.184 6.06149C5.11137 5.99277 4.97473 5.95918 4.77105 5.95918C4.67149 5.95918 4.56889 5.97394 4.46375 6.00499C4.35962 6.03706 4.26921 6.06607 4.19505 6.09457L4.29714 5.67312C4.5501 5.56979 4.79238 5.48122 5.02349 5.40793C5.2546 5.33361 5.47302 5.29696 5.67873 5.29696C6.05003 5.29696 6.33651 5.38757 6.53816 5.56674C6.73879 5.74641 6.83987 5.98005 6.83987 6.26713C6.83987 6.32668 6.83276 6.43154 6.81905 6.58118C6.80533 6.73134 6.77943 6.86826 6.74184 6.99399L6.35733 8.35812C6.32584 8.46756 6.2979 8.59277 6.27251 8.73275C6.24762 8.87273 6.23543 8.97962 6.23543 9.05139C6.23543 9.2326 6.27556 9.35628 6.35683 9.42194C6.43708 9.48761 6.57778 9.52069 6.77689 9.52069C6.87086 9.52069 6.976 9.50389 7.09486 9.47132C7.2127 9.43874 7.29803 9.40973 7.35187 9.38479L7.24876 9.80574ZM7.1807 4.26877C7.0014 4.43572 6.78552 4.5192 6.53308 4.5192C6.28114 4.5192 6.06375 4.43572 5.88292 4.26877C5.70311 4.10182 5.61219 3.89872 5.61219 3.66153C5.61219 3.42484 5.70362 3.22124 5.88292 3.05276C6.06375 2.88377 6.28114 2.79978 6.53308 2.79978C6.78552 2.79978 7.00191 2.88377 7.1807 3.05276C7.36 3.22124 7.4499 3.42484 7.4499 3.66153C7.4499 3.89923 7.36 4.10182 7.1807 4.26877Z" fill="#43454D"/>
</g>
</g>
<defs>
<clipPath id="clip0_306_112">
<rect width="12" height="12.0253" fill="white" transform="translate(0 0.487366)"/>
</clipPath>
</defs>
</svg>
