<svg xmlns="http://www.w3.org/2000/svg" viewBox="0 0 102 92.27"><defs><style>.cls-1{fill:#4f5a8d;}.cls-2{fill:#fad570;}.cls-3{fill:#faaf3b;}</style></defs><title>School Total Stack New Student Website</title><g id="Layer_2" data-name="Layer 2"><g id="Layer_1-2" data-name="Layer 1"><path class="cls-1" d="M92,10.28a2,2,0,1,0-4,0c0,.66,0,1.33,0,2s0,1.33,0,2a2,2,0,1,0,4,0Q92.08,12.27,92,10.28Zm0,0a2,2,0,1,0-4,0c0,.66,0,1.33,0,2s0,1.33,0,2a2,2,0,1,0,4,0Q92.08,12.27,92,10.28ZM88.25,24.49a24.12,24.12,0,0,0,3.47-.1c4.7-.62,9.81-4.64,10.28-10.34V10.67a12,12,0,0,0-.84-3.55C98.8,2.56,95.08,0,89.93,0,69.08,0,48.23,0,27.38,0c-.3,0-.6,0-.9,0a2.32,2.32,0,0,0-2.43,2.26,2.31,2.31,0,0,0,2.4,2.29c.79.05,1.59,0,2.39,0S30,4.83,30,5.67q0,6.62,0,13.25c0,.72-.27,1-1,1a21.74,21.74,0,0,0-3.48.09,12.25,12.25,0,0,0-8.56,19c.14.22.36.4.3.74a2.51,2.51,0,0,1-1.06.09c-4.55,0-9.09,0-13.65,0-1.59,0-2.08.36-2.54,1.69v9.16a2.08,2.08,0,0,0,2.33,1.7c.33,0,.66,0,1,0H13.47c1.3,0,1.35.06,1.35,1.34q0,6.27,0,12.53c0,1.41,0,1.44-1.46,1.44-3.61,0-7.23,0-10.84,0-1.58,0-2.06.36-2.53,1.7v1.2a2.07,2.07,0,0,0,2.33,1.69q1.14,0,2.29,0c.76,0,1.07.29,1.06,1.06,0,1.62,0,3.25,0,4.87,0,2.75,0,5.5,0,8.26,0,1-.1,1.12-1.14,1.15-.73,0-1.46,0-2.19,0A2.07,2.07,0,0,0,0,89.36v1.2a2.08,2.08,0,0,0,2.33,1.71c.33,0,.66,0,1,0H58c.4,0,.8,0,1.2,0A2.32,2.32,0,0,0,61.62,90v0a2.33,2.33,0,0,0-2.67-2.29c-3.29,0-6.57,0-9.86,0-4.68,0-9.36,0-14,0-1.15,0-1.25-.11-1.26-1.25,0-1.56,0-3.12,0-4.68,0-1.34.06-1.4,1.4-1.41H45.74a6.32,6.32,0,0,0,1.48-.1,2.25,2.25,0,0,0-.05-4.43,8.33,8.33,0,0,0-1.69-.08H11.73c-1.41,0-1.45-.06-1.46-1.45,0-1.9,0-1.91,1.91-1.91H89.25c.36,0,.73,0,1.09,0a7.62,7.62,0,0,1,6.41,11.23,7.37,7.37,0,0,1-6.82,4.06c-4,.06-8.1,0-12.15,0-1.68,0-2.39.6-2.74,2.15,0,.05,0,.1,0,.15a2.3,2.3,0,0,0,2.66,2.26c4.31,0,8.61,0,12.92,0a8.31,8.31,0,0,0,1.09-.11c4.77-.62,9.82-4.72,10.27-10.33V78.4a14.31,14.31,0,0,0-.66-3.08,12.51,12.51,0,0,0-5.7-6.17,11.39,11.39,0,0,0-2.7-1c-.5-.12-.59-.36-.28-.77.1-.13.19-.27.28-.41A12,12,0,0,0,93,53.27c-.16-.26-.48-.46-.37-.89.93,0,1.86,0,2.78,0,3.55,0,5.58-1.49,6.58-4.84V44.93A5.46,5.46,0,0,0,100.72,42a6.43,6.43,0,0,0-4.87-2.11q-3.83,0-7.66,0c-.76,0-1.06-.27-1.05-1q0-6.61,0-13.23C87.13,24.78,87.44,24.48,88.25,24.49ZM21.43,87.26c0,.56-.14.73-.71.72-1.66,0-3.31,0-5,0s-3.38,0-5.07,0c-.56,0-.73-.14-.72-.71q0-3.28,0-6.57c0-.55.13-.73.7-.72q5,0,10.05,0c.55,0,.74.13.73.71Q21.38,84,21.43,87.26Zm62.15-67c-.55,0-.73-.13-.72-.7,0-1.66,0-3.32,0-5a2,2,0,0,0-2.25-2.29H66a2,2,0,0,0-2.23,2,2,2,0,0,0,2.28,2c1.43,0,2.86,0,4.28,0,.47,0,.64.11.62.61,0,1.09.36,2.48-.17,3.18s-2,.19-3,.19c-10.82,0-21.65,0-32.47,0-.83,0-1-.2-1-1,.07-2,.06-4.05,0-6.07,0-.77.2-.91.93-.91,7.11,0,14.21,0,21.32,0a2.48,2.48,0,0,0,1.69-.43,1.89,1.89,0,0,0,.72-2,1.94,1.94,0,0,0-1.67-1.5,5.59,5.59,0,0,0-.9,0c-7,0-14.08,0-21.11,0-.76,0-1.05-.16-1-1a13.42,13.42,0,0,0,0-2.29c0-.62.14-.78.76-.77,2.92,0,5.84,0,8.76,0h19q13.55,0,27.09,0a8,8,0,0,1,.46,15.91C88.1,20.27,85.84,20.21,83.58,20.24Zm6.51-4a2,2,0,0,0,1.94-2q.06-2,0-4a2,2,0,1,0-4,0c0,.66,0,1.33,0,2s0,1.33,0,2A2,2,0,0,0,90.09,16.24Z"/><path class="cls-1" d="M80.46,84H56c-1.46,0-2.36-.75-2.39-1.95s.91-2,2.41-2H80.48c1.45,0,2.36.75,2.39,1.95S82,84,80.46,84Z"/><path class="cls-1" d="M92,79.91c0,.69,0,1.39,0,2.09a2,2,0,1,1-4,0q-.05-2,0-4A2,2,0,0,1,90,76a2,2,0,0,1,2,2C92.06,78.65,92,79.28,92,79.91Z"/><path class="cls-2" d="M51.7,52.11q15.53,0,31.07,0A8,8,0,0,1,83.34,68c-.36,0-.73,0-1.09,0q-31,0-62,0c-.94,0-1.11-.27-1.1-1.14q.06-6.92,0-13.84c0-.86.24-1,1-1Q35.92,52.13,51.7,52.11Z"/><path class="cls-2" d="M54.38,24.21c9.16,0,18.32,0,27.48,0,.79,0,1.07.13,1,1-.08,2-.07,4,0,6,0,.8-.14,1-1,1-6.14,0-12.28,0-18.42,0a2.07,2.07,0,0,0-2.15,1.27,2,2,0,0,0,1.93,2.72c2.39,0,4.78,0,7.17,0,3.88,0,7.77,0,11.65,0,.64,0,.86.15.82.81-.07,1,.35,2.4-.16,3s-2,.2-3,.2q-26.18,0-52.37,0a8,8,0,1,1-.12-15.93Q40.79,24.19,54.38,24.21Z"/><path class="cls-3" d="M50.3,44.14H95.21a9.22,9.22,0,0,1,1,0,2,2,0,0,1,0,4,7.88,7.88,0,0,1-.9,0q-45.11,0-90.21,0C4.21,48.14,3.87,48,4,47s-.3-2.16.17-2.69,1.81-.19,2.75-.19Q28.59,44.13,50.3,44.14Z"/><path class="cls-3" d="M29.39,84.07c0,1.1,0,2.19,0,3.28,0,.48-.15.64-.63.62-.93,0-1.86,0-2.79,0-.52,0-.6-.21-.6-.65,0-2.22,0-4.45,0-6.67,0-.52.15-.69.68-.67.89,0,1.79,0,2.69,0,.56,0,.66.21.65.7C29.37,81.81,29.39,82.94,29.39,84.07Z"/><path class="cls-3" d="M76.81,20.23c-1.9,0-1.9,0-1.9-1.88,0-2.1,0-2.1,2.08-2.1,1.9,0,1.9,0,1.9,1.88C78.89,20.23,78.89,20.23,76.81,20.23Z"/><path class="cls-1" d="M70.25,90c-.3,1.33-1,2-2.07,2s-1.68-.68-2-2c.28-1.31.94-2,2-2S70,88.64,70.25,90Z"/><path class="cls-1" d="M35.93,60.07H25.48c-1.45,0-2.36-.77-2.37-2s.9-2,2.33-2h21c1.45,0,2.36.77,2.37,2s-.9,2-2.33,2Z"/><path class="cls-1" d="M64.74,60.07H73.3c1.49,0,2.43.8,2.4,2s-.94,1.95-2.39,1.95H56c-1.5,0-2.43-.8-2.4-2s.93-1.94,2.39-1.94Z"/><path class="cls-1" d="M80.88,60c0-.66,0-1.33,0-2a2,2,0,0,1,4,0c0,1.36,0,2.71,0,4.07a2,2,0,0,1-2,1.93,2,2,0,0,1-2-2C80.86,61.4,80.88,60.7,80.88,60Z"/><path class="cls-1" d="M45.32,28.2H54c1.49,0,2.43.81,2.4,2s-.94,1.94-2.4,1.94H36.67c-1.49,0-2.43-.8-2.4-2s.94-1.94,2.4-1.94Z"/><path class="cls-1" d="M29.08,32.22c0,.66,0,1.33,0,2a2,2,0,0,1-2,2,2,2,0,0,1-2-1.93c0-1.36,0-2.71,0-4.07a2,2,0,0,1,4,0C29.11,30.83,29.08,31.52,29.08,32.22Z"/></g></g></svg>