<svg xmlns="http://www.w3.org/2000/svg" viewBox="0 0 837.62 278.31"><defs><style>.cls-1{fill:#48486a;}.cls-2{fill:#f9ffff;}</style></defs><title>Asset 202</title><g id="Layer_2" data-name="Layer 2"><g id="Layer_1-2" data-name="Layer 1"><rect class="cls-1" y="276.12" width="837.62" height="2"/><path class="cls-2" d="M109,259.28l0,1.55c0,2.18.32,4.36,3,4.92a4.83,4.83,0,0,0,3.92-.63,5.16,5.16,0,0,0,1.9-3.78l0-.32c.4-3.67.81-7.47,1.05-11.22s.44-7.78.64-11.57c.15-2.88.3-5.85.47-8.78.1-1.72.47-3.74,2.46-4.1,1.62-.3,3,.71,3.88,2.85.13.32.28.64.42,1,.24.53.48,1.08.68,1.64,1,2.86,2,5.68,2.92,8.4,2.14,6.25,4.17,12.15,6.71,18.43.83,2,2.93,3.69,5.33,2.85h0a4.39,4.39,0,0,0,2.78-2.19c.86-1.84-.08-4.19-.58-5.45-.12-.3-.21-.53-.26-.7-1.39-4.77-2.82-9.61-4.21-14.29q-1.18-4-2.35-7.94c-1-3.56-1.91-7.22-2.75-10.77a124.51,124.51,0,0,0-5-17.28l-.08-.2a3,3,0,0,1,.37-3.52l.17-.2.09.25c.4,1.12.82,2.26,1.23,3.35.92,2.48,1.88,5,2.64,7.61.85,2.88,1.59,5.85,2.31,8.72.48,1.92,1,3.9,1.5,5.84a4.54,4.54,0,0,1,.11.66,1.79,1.79,0,0,0,.43,1.24,1.14,1.14,0,0,0,.89.13,2.5,2.5,0,0,0,2.39-2.28,14.37,14.37,0,0,0-.43-4.3c-.73-2.78-1.41-5.61-2.06-8.35-.94-3.93-1.91-8-3.06-12a37.82,37.82,0,0,0-2.93-6.35c-2.58-4.54-12.32-9-12.42-9.06-1.57-.74-5.1-.31-8.23.06a41.15,41.15,0,0,1-4.21.38c-2.66.17-4.09,0-5.28-.72a14.64,14.64,0,0,0-3.42-1.22,38.79,38.79,0,0,1-3.76-1.17c-2.84-1.06-5.58-2.51-6.42-5.9a48.56,48.56,0,0,0-3-8.77c-1-2.05-2.09-3-3.61-3a5.27,5.27,0,0,0-1.86.39c-2.87,1.09-2.5,4-2.21,5.19.71,2.93,1.53,5.89,2.31,8.75.49,1.79,1,3.64,1.48,5.47a4.14,4.14,0,0,0,2.36,2.92c2.24,1.1,4.49,2.27,6.67,3.4s4.47,2.32,6.73,3.43c4.5,2.22,6.64,5,7.14,9.2q.23,1.94.46,3.89c1.31,10.94,2.67,22.26,2.43,33.54C108.68,245.92,108.84,252.71,109,259.28Z"/><path class="cls-2" d="M116.27,181.56c3.49-.64,6-2,7.45-4.14s1.78-4.64,1.19-7.83a10.49,10.49,0,0,0-12.69-8.77c-6.64,1.19-9.81,5.52-8.71,11.88.59,3.39,2,5.89,4.21,7.43A11.15,11.15,0,0,0,116.27,181.56Z"/><path class="cls-1" d="M141.87,235.77l-1.58-5.25c0-.15-.1-.31-.15-.47-.35-1-.66-1.93.73-2.5,3.15-1.3,4.21-3.82,3.22-7.72-.49-1.95-1-3.93-1.45-5.85-1.34-5.46-2.72-11.1-4.4-16.57A21.72,21.72,0,0,0,128,184.83c-1-.54-2-1-2.93-1.46s-2-.94-3-1.51A10.92,10.92,0,0,0,127.4,174a14,14,0,0,0-3.57-11.24c-4.76-5.22-13.36-5.48-19.16-.57-2.23,1.89-3.51,5.21-3.41,8.87A14.08,14.08,0,0,0,106,181.43c-1.34-.43-2.66-.82-3.94-1.19-1.61-.48-3.14-.92-4.55-1.41-2.21-.76-4.87-2-5.84-4.87-.29-.87-.58-1.76-.85-2.61a60.84,60.84,0,0,0-2.33-6.46c-1.64-3.66-3.9-4.7-7.55-3.46-3.43,1.16-4.5,3.14-3.81,7.06a93.36,93.36,0,0,0,2.5,9.94c.67,2.3,1.36,4.68,1.91,7.06.27,1.15,1.13,1.58,2,2l.21.1c4.38,2.18,8.8,4.45,13.08,6.64l2.55,1.31a7.74,7.74,0,0,1,4.46,5.63c1,5.13,2.81,26.7,2.95,32.34.16,6.36.14,12.82.12,19.06,0,2.87,0,5.83,0,8.75,0,4.31,1.8,6.54,5.32,6.62h.22c4,0,7-2.65,7.31-6.37.23-3,.5-6.1.77-9.07.63-7,1.29-14.34,1.33-21.55,0-.12,0-.24,0-.37,0-1.22,0-2.75,1.32-2.92,1.1-.15,2.31,2.89,2.85,4.7,2.1,7.1,4.32,13.34,6.67,19.94.7,2,1.42,4,2.15,6.07,1.11,3.16,4.49,5.67,8.26,4.41,4.31-2,5.89-3.41,4-9.48C145.38,247.48,143.6,241.53,141.87,235.77ZM106.4,205.71q-.23-1.94-.46-3.89c-.5-4.23-2.63-7-7.14-9.2-2.26-1.11-4.53-2.29-6.73-3.43s-4.43-2.3-6.67-3.4A4.14,4.14,0,0,1,83,182.88c-.48-1.83-1-3.68-1.48-5.47-.79-2.86-1.6-5.82-2.31-8.75-.29-1.2-.66-4.1,2.21-5.19a5.27,5.27,0,0,1,1.86-.39c1.53,0,2.66,1,3.61,3a48.56,48.56,0,0,1,3,8.77c.85,3.39,3.59,4.84,6.42,5.9a38.79,38.79,0,0,0,3.76,1.17,14.64,14.64,0,0,1,3.42,1.22c1.19.69,2.62.88,5.28.72a41.15,41.15,0,0,0,4.21-.38c3.12-.37,6.66-.8,8.23-.06.1,0,9.84,4.52,12.42,9.06a37.82,37.82,0,0,1,2.93,6.35c1.15,4,2.12,8,3.06,12,.65,2.74,1.33,5.57,2.06,8.35a14.37,14.37,0,0,1,.43,4.3,2.5,2.5,0,0,1-2.39,2.28,1.14,1.14,0,0,1-.89-.13,1.79,1.79,0,0,1-.43-1.24,4.54,4.54,0,0,0-.11-.66c-.52-1.94-1-3.92-1.5-5.84-.72-2.87-1.46-5.84-2.31-8.72-.76-2.57-1.71-5.13-2.64-7.61-.41-1.1-.83-2.23-1.23-3.35l-.09-.25-.17.2a3,3,0,0,0-.37,3.52l.08.2a124.51,124.51,0,0,1,5,17.28c.84,3.55,1.7,7.22,2.75,10.77q1.17,4,2.35,7.94c1.39,4.68,2.82,9.52,4.21,14.29.05.17.14.41.26.7.5,1.26,1.43,3.61.58,5.45a4.39,4.39,0,0,1-2.78,2.19h0c-2.4.84-4.5-.8-5.33-2.85-2.55-6.28-4.57-12.19-6.71-18.43-.93-2.72-1.9-5.54-2.92-8.4-.2-.56-.44-1.11-.68-1.64-.14-.32-.29-.64-.42-1-.88-2.13-2.26-3.14-3.88-2.85-2,.37-2.36,2.39-2.46,4.1-.17,2.92-.32,5.9-.47,8.78-.19,3.79-.39,7.72-.64,11.57s-.65,7.54-1.05,11.22l0,.32a5.16,5.16,0,0,1-1.9,3.78,4.83,4.83,0,0,1-3.92.63c-2.7-.57-3-2.74-3-4.92l0-1.55c-.15-6.57-.31-13.36-.16-20C109.07,228,107.71,216.65,106.4,205.71Zm-2.89-33c-1.11-6.37,2.07-10.7,8.71-11.88a10.49,10.49,0,0,1,12.69,8.77c.6,3.18.2,5.81-1.19,7.83s-4,3.5-7.45,4.14a11.15,11.15,0,0,1-8.55-1.43C105.52,178.59,104.1,176.09,103.51,172.7Z"/><path class="cls-1" d="M78.62,157.76l.28-.09-.24-.17a3.66,3.66,0,0,0-3.15-.1c-1.56.5-3.47,1.74-4,3.27-1,3-1.51,5,1.07,7.71l.4.42-.14-.56C71.43,162.66,73.16,159.53,78.62,157.76Z"/><path d="M149.11,220.95l-.23-.54-.06.58c-.06.62-.11,1.16-.15,1.66-.31,3.47-.37,4.1-3,6.05a1.65,1.65,0,0,0-.77,1,1.06,1.06,0,0,0,1,1,2.23,2.23,0,0,0,1.14-.5l0,0C149.88,228.33,150.7,224.68,149.11,220.95Z"/><path d="M156.5,258.82a1.55,1.55,0,0,0-1.19-.13l-.41,0c-.81,0-1.63.1-2.43.18l-1,.09h0a2.46,2.46,0,0,1-.72.12,1.53,1.53,0,0,0-1.17.39,1.16,1.16,0,0,0-.13,1c.14.73.67.89,1.23.89a6,6,0,0,0,.71-.06l.36,0,.71-.06c.89-.07,1.8-.14,2.69-.3.44-.08,1.79-.32,1.73-1.38A.93.93,0,0,0,156.5,258.82Z"/><path class="cls-2" d="M515.9,138.83c-6.45-1.45-12.6-3.13-19.26-.81-1.69.59-3.12,1-3.23,3-.11,4.54-.17,8.72-.2,12.68v0q0,.71,0,1.4v0q0,.7,0,1.4v0c0,.48,0,.93,0,1.39v0c0,9.63.15,18.17.19,27.74.06,14.13.09,28.58.09,43q0,10,0,19.87,0,3.83,0,7.63h0q0,2.83,0,5.64c0,.16,0,.32,0,.48q0,2.93,0,5.84h0c0,3.29,1.11,4.06,4.15,4.61a58.12,58.12,0,0,0,16.59.36c2.66,0,3.18-1,3.19-4q0-.14,0-.29c0-2.32,0-5.52,0-9.4,0-3,0-6.38,0-10.09,0-2,0-4.09,0-6.26v-1.43q0-.55,0-1.1v-1.72q0-.54,0-1.08v-.56c0-.16,0-.31,0-.47s0-.49,0-.73c0-2.69,0-5.46,0-8.29.06-16.88.14-35.86.21-52q0-2.62,0-5.14h0q0-2.25,0-4.41c0-.36,0-.71,0-1.06v-1q0-.65,0-1.28v-1.11c0-.4,0-.81,0-1.2v-.06q0-1.3,0-2.55v-.2q0-.63,0-1.25v0c0-5.3,0-9.75,0-13q0-.27,0-.53c0-.38,0-.79,0-1.21C517.74,140.47,517.53,139.19,515.9,138.83Z"/><path class="cls-2" d="M376.27,126.94h0l-1.05-.14-.26,0-1-.14a33.72,33.72,0,0,0-9.94-.49c-4.8.71-5,1.27-5,6.17q-.07,6.77-.16,13.55v.08q-.06,4.78-.12,9.57,0,1.74,0,3.48-.06,4.92-.11,9.84,0,.8,0,1.59c0,1,0,2,0,3-.2,25.3-.58,50.6-.73,75.9v0c0,3.51,0,7,0,10.51v0q0,1,0,2,0,.34,0,.68v.21q0,.64,0,1.29t0,1.18c0,.35,0,.7,0,1.06q0,1.14,0,2.28c0,2.19.81,3.27,3,3.57a70.91,70.91,0,0,0,14.15.72c2.1-.13,3.47-.64,3.49-3.32q.06-14.94.09-29.89v-.49c0-18.28.08-36.57.22-54.85q.05-7.45.14-14.9,0-3.45.08-6.89,0-3.24.08-6.48.06-5,.12-9.91.12-9.44.21-18.88A12.08,12.08,0,0,1,376.27,126.94Z"/><path class="cls-2" d="M498.61,98.79a18.92,18.92,0,0,0,.48-3.44c0-1.67-.85-2.51-3.57-3.36l-.15,0h0l-.15,0h0l-.51-.15h0l-.29-.08h0l-.75-.21h0l-.39-.11h0C487.16,89.67,473,86,466.66,85.8c-1.72.2-3.84.39-5.94.71-2.34.35-3.68,1.27-4,4.07-.54,4.2-2.09,8.29-2.7,12.43-.68,4.61-1.48,9.19-2.33,13.77q-.38,2.06-.78,4.13l0,.15q-.39,2-.79,4.08c-1.49,7.6-3,15.19-4.39,22.81q-.35,2-.71,4-.48,2.69-1,5.37c-3.65,20.29-7.51,40.58-11.14,60.86-2.32,12.95-4.91,25.92-7.4,38.85l-.9,4.7-.08.43q-.1.52-.18,1a17.9,17.9,0,0,0-.25,2.43c0,1.5.29,2.35,1,2.68,10.83,5.18,26.07,7.58,36.4,6.44,3.79,0,3.88-3.84,4.73-7.71q2.51-12.7,5-25.42Q483,179.74,494.87,117.93C496.1,111.55,497.38,105.17,498.61,98.79Z"/><path class="cls-2" d="M418.68,109.45h-.08l-.14,0c-9.16-1.69-18.26-4-27.73-2.24-2.89.53-7.22-.1-9.21,1.73,0,0-.07,5.76-.21,8.73-1,22.21-.36,44.44-.92,66.66-.24,9.46-.22,18.92-.21,28.38q0,17.91.12,35.83v0q0,6.82.06,13.61,0,3.66,0,7.32c0,1.59.08,3.12,2.12,3.51,3.35.64,6.68,1.74,10,1.88,7.33.32,13.65.79,22.47-.23,2.75.07,4-.34,4-2.73,0-.25,0-.52,0-.81-.08-.82-.16-1.65-.16-2.48,0-4.4,0-10.22.08-16.9,0-6.51.11-13.82.19-21.43.29-29.69.73-63.77.8-71q0-5.09.11-10.17,0-3.13.08-6.26,0-2.7.07-5.4.05-3.81.1-7.62.12-8.5.22-17c0-.26,0-.53,0-.79a6.36,6.36,0,0,0,0-.64A1.94,1.94,0,0,0,418.68,109.45Z"/><path class="cls-2" d="M259.37,91.58,258,91.36c-11.41-1.84-22.84-1.34-34.29-.42-2.58.21-3.79,1.42-3.73,4.38.17,9.21.09,18.43-.08,27.64-.29,16.18-.39,32.36-.58,48.54-.11,9.51-.47,37.5-.76,61.19v.08l0,1.5v.3l0,2.88v3.7l0,1.48v.09c-.07,5.77-.12,11-.17,15.31V261c0,.41,0,.81,0,1.2v2.41q0,.49,0,.95v1.79q0,.11,0,.21c0,2.19.37,4,3.28,4.53a137,137,0,0,0,17.35,2.09c6.9.25,13.65-.73,20.44-1.5,1.57-.18,2.5-.93,2.51-3.05q.09-15.28.23-30.57.1-11.7.22-23.39.15-14.88.3-29.77c.29-29.8.53-59.61.95-89.41C263.52,93.21,262.27,92.1,259.37,91.58Z"/><path class="cls-2" d="M304.49,203.43c-1.68-16.73-3.24-33.47-5-50.2q-1.09-10.5-2.26-21-.8-7.29-1.59-14.58-.76-7.09-1.48-14.18c-.24-2.34-1.22-3.14-3.22-3.27l-1-.06h0c-7.38-.39-14.67-.05-21.77,2.42-2.27.79-3.16,1.88-3.05,4.35.23,5.45,0,10.84.28,16.31q0,.31,0,.62t0,.62q0,.4.06.8c0,.15,0,.31,0,.46q.05.61.11,1.23l0,.4q.05.47.11,1l0,.4c.06.44.12.87.18,1.31q.16,1,.3,2c.07.49.14,1,.2,1.48l.07.53q.13,1,.25,1.93v.07q.13,1,.24,2c1,8.67,1.64,17.44,2.37,26.15l.09,1h0q.38,4.45.77,8.91h0c1.44,16.26,3,32.52,4.63,48.76,1.28,12.92,2.43,25.86,4,38.75h0q.17,1.45.36,2.89l0,.17q.19,1.51.39,3h0c.39,2.95,2.39,3.3,4.44,3.52a70.71,70.71,0,0,0,7.42.06A38,38,0,0,0,306,269.16c3.06-1.06,4.57-2.43,4.61-5.37a11.05,11.05,0,0,0-.07-1.36C308.41,242.77,306.46,223.1,304.49,203.43Z"/><path class="cls-2" d="M353.34,114.37c-.92-.17-1.83-.43-2.76-.55-10.32-1.35-20.63-2.35-30.83.85-1.87.59-3.24,1.7-3.21,3.86,0,2.82-.21,5.66-.46,8.47.21,15.1-.26,50-.56,79.17v4.56q0,2.1,0,4.14v0c-.08,8.48-.13,16.17-.14,22.33,0,2.36,0,4.73,0,7.1s-.11,4.62-.19,6.93c-.08,2.6-.17,5.2-.22,7.79h0q0,1,0,2v.27q0,.87,0,1.73c0,.15,0,.3,0,.46,0,.54,0,1.07,0,1.61,0,.17,0,.34,0,.51q0,1,0,2.07h0c.07,2.59,1.16,3.25,3.43,3.92a73.78,73.78,0,0,0,33.27,1.24c3.85-.07,4.28.15,4.3-8,0-2.82,0-6.68.07-11.32,0-2,0-4.11.06-6.36v-1c.09-8.35.2-18.33.33-29q0-2.54.06-5.12c.44-35.82,1-77.69,1.1-92.75C357.53,116,356,114.87,353.34,114.37Z"/><path class="cls-2" d="M218.63,79.13v-.3s0-.06,0-.09v-.06s0-.07,0-.1v0s0-.09,0-.12v-.62l0-.11v0l0-.11v0l0-.11v0l0-.11v0l0-.11v0l0-.11v0l0-.11h0l-.05-.11h0l-.06-.11h0a2.66,2.66,0,0,0-1.74-1.1h0l-.28-.06c-8.53-1.62-16.15-2.17-24.45-1-6,.86-7.33,1.9-7.25,8,0,.86-.08,16.76-.19,37v2.53c-.18,32-.42,73.35-.45,84,0,16.85-.09,34.06-.18,51q0,3.24,0,6.46v.11c0,1-.08,2.17-.08,3.31,0,2.51.35,4.9,2.58,5.15,7.92,1.52,20,2.62,26.64.87,2.26-.59,3.27-1.65,3.21-4.16q0-.82,0-1.64c0-3.83.27-7.66.32-11.49.37-27.22,1.25-107.92,1.37-121.05q.06-6.12.17-12.23.06-3.78.14-7.55c.23-11.86.53-23.71.7-35.57Z"/><path class="cls-2" d="M701.16,126.56q0-.54,0-1.06c0-4.52-.08-7.83-.22-9.5,0-.26,0-.47-.07-.65s0-.2,0-.28a1.27,1.27,0,0,0-.05-.19l0-.06-.18-.26-.06-.08-.13-.17-.08-.09-.13-.15-.08-.08-.15-.14-.08-.08-.16-.14-.08-.06-.2-.14-.06,0a6.46,6.46,0,0,0-.57-.34h0c0,3.18,0,6.36-.09,9.53.08-3.17.11-6.35.09-9.53-2-1.09-4.82-1.34-6.9-1.85-10.51-2.59-20.72-3.06-31.52-2.38-2.87.18-3.45,1.16-3.49,4-.41,25.79-1,51.82-1.5,77.61h-.28q-.62,33.55-1.24,67.1-.08,4.63-.17,9.26c0,.52,0,1,0,1.42,0,4.12.52,4.13,5.57,4.72,7.39.87,14.82,1.11,22.25,1.32,4.38.13,8.76,0,13.14-.14,2.44-.07,3.81-.84,3.85-3.74q0-.14,0-.29,0-1.46,0-2.93c0-6.83.43-13.66.52-20.49,0-1.86.08-4.76.16-8.46v-.25c.27-12.91.8-35.32,1.25-57.52h0c.41-20.44.75-40.68.75-53.16Q701.16,126.89,701.16,126.56Z"/><path class="cls-2" d="M655.35,103.18c0-.14,0-.27,0-.39v-.09c0-.12,0-.25,0-.36v0c0-.12,0-.23,0-.33v-.07c0-.11,0-.21-.05-.32v0c0-.09,0-.19-.06-.27v-.05c0-.09-.06-.19-.09-.27v0l-.1-.24v0l-.12-.24v0l-.14-.21h0l-.16-.2h0a2.75,2.75,0,0,0-.39-.35h0a3.32,3.32,0,0,0-.47-.29h0a4.52,4.52,0,0,0-.55-.23h0a9.17,9.17,0,0,0-1.68-.38c-4.94-.72-9.91-.54-14.86-.83-3.67-.21-4.67,1.06-4.73,4.5-.3,20.45-.79,40.91-1.16,61.36q-.54,29.86-1,59.73-.11,6.52-.21,13-.26,16.15-.35,32.3c0,.44-.08.94-.08,1.42a1.55,1.55,0,0,0,1.43,1.75c6.05,1.11,12.13,2,18.31,1.41,2-.2,3.13-1,3.07-3.41q0-.71,0-1.42c0-3.31.28-6.62.34-9.93q.21-10.69.41-21.39.14-7.19.27-14.37.34-18.33.68-36.66h.21C654.21,158.56,654.69,130.87,655.35,103.18Z"/><path class="cls-2" d="M629.61,133.56c.12-5.74.23-11.32.35-16.82.19-9,.39-17.73.6-26.47q0-.15,0-.29c0-2.93-.74-4.33-4-4.85h0l-1.7-.26-1.45-.2h0a111.09,111.09,0,0,0-32.08.53c-1.05.17-1.23.5-1.23,1.58,0,11.87-.12,23.74-.18,35.61q0,4.88,0,9.76,0,1.64,0,3.39c0,36.24-.18,104.21.19,127.89v.66q0,.26,0,.5v4.64c.18,1.35.46,2.56,2.27,2.75a245,245,0,0,0,29.37,1.39c4.49-.06,5.2-1.16,5.31-5.57.06-2.48.09-5,.13-7.45.45-27.35.91-54.69,1.2-72.51.12-5.88.23-11.53.34-17v-.25l0-1,0-2,0-1.11.1-4.79C629.24,151.8,629.42,142.49,629.61,133.56Z"/><path class="cls-2" d="M182.6,115.07c0-.09,0-.19,0-.28s0-.12,0-.18,0-.38,0-.56v-.13c0-.09,0-.18,0-.27v-.15c0-.09,0-.17,0-.26v-.13l0-.25v-.1a7.43,7.43,0,0,0-.15-.83h0l-.06-.22,0-.07-.07-.2,0-.07-.08-.19,0,0a2.76,2.76,0,0,0-.48-.72l0,0-.14-.13,0,0-.15-.12,0,0a3.87,3.87,0,0,0-.86-.46l0,0-.23-.08-.06,0-.26-.08h0a13.32,13.32,0,0,0-1.39-.31h0c-.86-.15-1.9-.28-3.14-.42q-1.06-.12-2.12-.17a132.66,132.66,0,0,0-27.15,1.56c-6.7,1-7.78,2.06-7.54,8.94.1,2.86,0,14.72-.13,30.31q0,1.06,0,2.14v.05c-.06,5.12-.12,10.6-.19,16.26-.2,15.58-.45,32.56-.7,47.3-.11,6.24-.21,12.07-.31,17.22-.14,7.15-.27,13-.38,16.8-.08,2.63-.16,5.25-.24,7.88,0,.73,0,1.46-.06,2.19v.4q0,.93,0,1.87c0,.2,0,.41,0,.61q0,.88,0,1.77c0,.21,0,.43,0,.64q0,1.19,0,2.37c0,.46-.07,1-.08,1.53a2,2,0,0,0,1.66,2.28c12.69,5,31.79,3.21,40.52,1.48,2.47-.49,3.24-1.39,3.23-4,0-2,0-4.2,0-6.55,0-8.14,0-18.09.11-28.13,0-5.8.08-11.63.13-17.17.15-17.46.31-32,.31-33.34q.05-7.88.1-15.76,0-8.19.1-16.37.11-16.77.3-33.54c0-.21,0-.41,0-.61s0-.15,0-.22,0-.24,0-.36,0-.18,0-.26,0-.19,0-.29,0-.18,0-.27S182.6,115.15,182.6,115.07Z"/><path class="cls-2" d="M542.86,220.65q0-5,0-9.95s0-39.28.21-58.92c0-.2,0-.39,0-.57v0c0-.19,0-.35,0-.52v-.06c0-.16,0-.31-.07-.45v-.07q0-.21-.09-.41l0-.06q-.06-.2-.12-.38l0,0c0-.12-.1-.24-.16-.36v0a3.64,3.64,0,0,0-.42-.65h0l-.25-.27,0,0-.27-.24,0,0-.3-.21,0,0-.33-.19h0l-.36-.18h0c-.18-.08-.37-.15-.56-.21l-.15,0-.54-.15-.06,0-.59-.14a44,44,0,0,0-12.32-.78c-5.76.44-6.69.38-6.77,7.17-.2,17.25-.1,34.5-.15,51.76q0,8.56-.06,17.12v.06q-.09,23.63-.15,47.27c0,.4-.07.88-.07,1.34,0,.77.18,1.48,1.15,1.67,6.43,1.29,12.8,3.14,19.52,1.6,2.42-.56,3.2-1.48,3.19-4q-.07-11.44-.07-22.88,0-1.08,0-2.15,0-2.21,0-4.43,0-.44,0-.87Q542.85,230,542.86,220.65Z"/><path class="cls-2" d="M588.14,140.73q0-10.5.12-21c0-3.73-1.23-4.39-4.27-4.64-4.93-.41-9.85-1-14.79-1.33a68,68,0,0,0-21.06,2c-1.87.48-2.94,1-3,3.34-.11,14.06-.36,28.34-.44,42.4-.12,20.72,0,41.43,0,62.15,0,11.35-.3,23.14,0,34.68q0,1.08.07,2.16l0,.44q0,.92.07,1.84c0,.35,0,.69,0,1s0,.9.07,1.35q.07,1.24.14,2.48c.25,3.78,2.71,5.7,7.25,6.92a57.87,57.87,0,0,0,14.7,1.52c6,.05,12.08-.39,17.79-2.66,1.75-.7,3.28-1.17,3.26-4-.06-10.58-.08-25.63-.08-39.5,0-19,0-35.77,0-35.77q0-6.8,0-13.61,0-2.41,0-4.82,0-9.37,0-18.75,0-4.83,0-9.66Q588.12,144,588.14,140.73Z"/><path class="cls-1" d="M702.56,156.58c.18-13.14.36-23.49.8-36.62.17-5.16-.23-7.89-5.16-9.29-11.91-3.38-28.31-4.92-40.79-3.4,0,0-.06-1.16-.06-4.91,0-4.54-2.41-5.39-6.92-5.69-5.89-.38-7.73-.55-13.63-.7a8.44,8.44,0,0,0-4.45,1c-.07-2.35.14-12.3-1.29-12.71a48.78,48.78,0,0,0-7.18-1.4,107,107,0,0,0-32.79.38c-2,.33-2.87,1-2.78,3.43.27,8.15.08,16.32.1,24.49,0,1.53-.19,2.33-2.17,2.14-5.88-.56-11.79-.87-17.69-1.2-7.56-.42-15.06-.28-22.37,2.1-2.1.68-3.75,1.89-3.46,3.72.61,9.56,0,16.7.29,24.93,0,1.41,0,2.72-2.1,2.09a39.41,39.41,0,0,0-18.23-.85c-.74.13-2.77.8-2.73-.22.22-5.31-2.08-6.55-3.21-6.86-7.8-2.18-15.65-2.72-23.82,0,.26-1.77.36-2.94.6-4.08,2.58-12.25,4.46-24.64,7.73-36.74.73-2.71.37-3.72-2.79-5-13-5.33-30.37-7.75-35.48-7.34-2.59.21-7.25,1.72-7.79,3.63-.29,1-1.12,6-1.31,7.08-3.23,17.33-6.51,34.66-9.67,52-7,38.42-14.41,76.85-21.42,115.27a13,13,0,0,1-1.59,4.94,74.24,74.24,0,0,1-.32-7.89c0-19.52.32-39.05.48-58.57q.22-25.9.39-51.81c.08-12.16.19-20.54.77-36.47.13-3.55-1.21-4.29-3.83-4.8-12-2.32-24.11-3.11-36.29-1.14-2.07.34-3,.8-3,3.26q0,8-.1,16.08a11.76,11.76,0,0,0-2.81-.48c-3.54-.18-7.1-.3-10.61-.76-2.25-.3-4.08.73-6.44,1.23,0,0-.32-6,.14-8.34s-.56-3.39-2.44-3.89c-11.56-3-23.27-4-35-1.39-7.24,1.64-7.6,2-7.7,9.49-.54,40.85-.64,81.7-1.18,122.55-.06,4.85-.47,13.42-.47,18.28-.35,0-2-17.71-2.79-24.72q-3.85-36.36-7.61-72.73c-2-20.11-4.75-40.18-6-60.37-.32-5.17-2-6.29-7.14-6.36-7-.1-13.49.15-20.16,2.3-3.75,1.21-3.91-.27-3.66-3.24.44-5.18-.72-6.73-5.94-7.56a101.89,101.89,0,0,0-12.65-1.27c-8.26-.28-16.55-.45-24.73,1.15-1.17.23-1.84-.21-1.77-1.48.2-3.41.62-8,.5-11.36-.13-3.69-13.22-4.52-19.69-4.85-5-.26-11.71.76-16.2,3.28a3.35,3.35,0,0,0-2,3.56c.11,9-.08,18-.16,27,0,1.38,0,2.75-2.11,2-4.24-1.44-8.69-1.06-13-1.13-8.62-.14-17.24.29-25.65,2.45-4.92,1.26-5.72,2.42-5.65,7.5,0,2.24-1.15,98.32-1.45,127.3-.09,8.64-1.06,18.43-.55,27.08.13,2.3,7.15,3.79,9.31,4.32,9.19,2.24,23,2.34,32.17.3,6.27-1.39,7.5-.81,13.7,0,9.38,1.79,20.8,1,27.34-1a30.56,30.56,0,0,1,9.38,1c12.28,1.38,22.1.82,32.78-.13,4.1-.37,5-1.7,4.84-5.75-.07-1.65,1-138.76,1-138.1,1.29,13,2.93,32.87,4,45.84,1.4,16.63,3.49,33.19,4.64,49.85.91,13.21,2.77,26.38,4.08,39.57.19,1.88,1.26,6.61,2.75,6.72,10,.75,23.11,1.24,32.4-5.23-1.19,3.74,1.14,4.57,3.6,5.28,12.28,3.53,24.79,3.15,37.2,1.64,3.68-.45,3.92-1.39,7.5-.66,3.77.77,10.79.7,14.57.66,1.27,0,2.43-.51,3.82-.22a93.3,93.3,0,0,0,21.71,2.42c5.44-.14,12.51-.13,18-.75,3-.34,1.39-6.59,2.12-7.68,17.5,8.38,33.93,8.13,40.15,8,3.88-.09,5.2-2,6.32-6.41.78-3.09,1.09-6.3,1.67-9.44q6.26-33.66,12.57-67.3c3-16.13,6.4-32.94,9.49-49.06.6,1.56.37,3.76.37,5.26q0,20.25,0,40.51c0,26.41,0,52.81-.26,79.22,0,3.76,1.44,4,4.48,4.85a94.24,94.24,0,0,0,18,.53c2.33-.19,3.47-.88,5.5-.67,5.79,1.06,17.25,3.64,25.53-.6,0,0,1.93,1.13,2.46,1.37,1.72.76,3.38,1.93,5.18,2.21,10.19,1.58,23.12,1.93,32.95-1.52,5.27-1.85,7.57-1.38,12.87-1.07,8.34.49,16.7,1.13,25.1.59,3-.19,5.91-1.52,9.07-.88,6.13,1.26,12.32,1.89,18.58.81,1.6-.28,3.1-1,4.85-.69a108.69,108.69,0,0,0,15.53,1.41c8.62.3,17.21.6,25.85.34,3.24-.1,3.21-1.13,3.15-3.18C700.49,269.1,702.08,191.51,702.56,156.58Zm-520-40.71c0,.09,0,.17,0,.26s0,.24,0,.36,0,.14,0,.22,0,.4,0,.61q-.2,16.77-.3,33.54-.05,8.19-.1,16.37,0,7.88-.1,15.76c0,1.34-.17,15.88-.31,33.34,0,5.54-.09,11.37-.13,17.17-.07,10-.11,20-.11,28.13,0,2.35,0,4.54,0,6.55,0,2.56-.76,3.46-3.23,4-8.73,1.72-27.83,3.56-40.52-1.48a2,2,0,0,1-1.66-2.28c0-.53.08-1.07.08-1.53q0-1.19,0-2.37c0-.21,0-.43,0-.64q0-.88,0-1.77c0-.2,0-.41,0-.61q0-.93,0-1.87v-.4c0-.73,0-1.46.06-2.19.08-2.63.16-5.25.24-7.88.11-3.8.24-9.65.38-16.8.1-5.16.21-11,.31-17.22.25-14.74.5-31.72.7-47.3.07-5.66.14-11.14.19-16.26v-.05q0-1.08,0-2.14c.16-15.59.23-27.46.13-30.31-.25-6.88.83-7.9,7.54-8.94a132.66,132.66,0,0,1,27.15-1.56q1.06.05,2.12.17c1.24.14,2.28.27,3.14.42h0a13.32,13.32,0,0,1,1.39.31h0l.26.08.06,0,.23.08,0,0a3.87,3.87,0,0,1,.86.46l0,0,.15.12,0,0,.14.13,0,0a2.76,2.76,0,0,1,.48.72l0,0,.08.19,0,.07.07.2,0,.07.06.22h0a7.43,7.43,0,0,1,.15.83v.1l0,.25v.13c0,.08,0,.17,0,.26v.15c0,.09,0,.18,0,.27V114q0,.27,0,.56c0,.06,0,.12,0,.18s0,.18,0,.28,0,.16,0,.24,0,.18,0,.27S182.6,115.78,182.6,115.88Zm35.33-1q-.07,3.78-.14,7.55-.1,6.12-.17,12.23c-.12,13.13-1,93.83-1.37,121.05-.05,3.83-.32,7.66-.32,11.49q0,.82,0,1.64c.06,2.51-.95,3.56-3.21,4.16-6.66,1.75-18.72.65-26.64-.87-2.23-.25-2.58-2.64-2.58-5.15,0-1.14.08-2.31.08-3.31v-.11q0-3.22,0-6.46c.09-16.93.13-34.14.18-51,0-10.68.27-52.07.45-84v-2.53c.11-20.23.2-36.12.19-37-.08-6.09,1.3-7.13,7.25-8,8.3-1.2,15.92-.65,24.45,1l.28.06h0a2.66,2.66,0,0,1,1.74,1.1h0l.06.11h0l.05.11h0l0,.11v0l0,.11v0l0,.11v0l0,.11v0l0,.11v0l0,.11v0l0,.11v.76s0,.07,0,.1v0s0,.08,0,.11v.45C218.46,91.14,218.16,103,217.93,114.85Zm44.6,71q-.15,14.88-.3,29.77-.12,11.7-.22,23.39-.14,15.28-.23,30.57c0,2.12-.94,2.88-2.51,3.05-6.79.77-13.54,1.75-20.44,1.5A137,137,0,0,1,221.47,272c-2.92-.48-3.27-2.33-3.28-4.53q0-.11,0-.21v-1.79q0-.45,0-.95v-2.41c0-.39,0-.79,0-1.2V258c0-4.3.1-9.54.17-15.31v-.09l0-1.48v-3.7l0-2.88v-.3l0-1.5v-.08c.28-23.69.65-51.68.76-61.19.19-16.18.29-32.36.58-48.54.17-9.21.25-18.43.08-27.64-.06-3,1.16-4.17,3.73-4.38,11.45-.91,22.88-1.42,34.29.42l1.38.23c2.91.52,4.16,1.63,4.11,4.86C263.06,126.25,262.82,156,262.53,185.85ZM306,269.16a38,38,0,0,1-14.36,2.22,70.71,70.71,0,0,1-7.42-.06c-2.05-.23-4.06-.57-4.44-3.52h0q-.2-1.51-.39-3l0-.17q-.18-1.45-.36-2.89h0c-1.55-12.89-2.71-25.83-4-38.75-1.61-16.25-3.19-32.5-4.63-48.76h0q-.4-4.46-.77-8.91h0l-.09-1c-.74-8.72-1.36-17.49-2.37-26.15q-.12-1-.24-2V136q-.12-1-.25-1.93l-.07-.53c-.07-.49-.13-1-.2-1.48q-.15-1-.3-2c-.07-.44-.13-.87-.18-1.31l0-.4q-.06-.48-.11-1l0-.4q-.06-.61-.11-1.23c0-.15,0-.31,0-.46s0-.53-.06-.8,0-.41,0-.62,0-.41,0-.62c-.28-5.47-.06-10.86-.28-16.31-.1-2.47.79-3.56,3.05-4.35,7.11-2.48,14.39-2.82,21.77-2.42h0l1,.06c2,.12,3,.92,3.22,3.27q.71,7.09,1.48,14.18.79,7.29,1.59,14.58,1.15,10.49,2.26,21c1.74,16.72,3.29,33.47,5,50.2,2,19.67,3.93,39.34,6.06,59a11.05,11.05,0,0,1,.07,1.36C310.57,266.73,309.06,268.1,306,269.16ZM356.42,212q0,2.58-.06,5.12c-.13,10.68-.25,20.65-.33,29v1c0,2.25,0,4.38-.06,6.36,0,4.64-.07,8.5-.07,11.32,0,8.16-.45,7.94-4.3,8a73.78,73.78,0,0,1-33.27-1.24c-2.28-.67-3.36-1.33-3.43-3.92h0q0-1,0-2.07c0-.17,0-.34,0-.51,0-.54,0-1.07,0-1.61,0-.15,0-.3,0-.46q0-.87,0-1.73V261q0-1,0-2h0c.05-2.6.14-5.2.22-7.8.07-2.31.14-4.62.19-6.93s.06-4.73,0-7.1c0-6.16.06-13.85.14-22.33v0q0-2,0-4.14v-4.56c.3-29.13.77-64.07.56-79.17.25-2.81.49-5.65.46-8.47,0-2.16,1.34-3.27,3.21-3.86,10.19-3.2,20.51-2.2,30.83-.85.93.12,1.84.38,2.76.55,2.71.5,4.2,1.63,4.18,4.88C357.43,134.31,356.86,176.18,356.42,212ZM379,146.07q-.06,5-.12,9.91,0,3.24-.08,6.48,0,3.45-.08,6.89-.08,7.45-.14,14.9c-.13,18.28-.17,36.57-.22,54.85v.49q0,14.94-.09,29.89c0,2.67-1.38,3.19-3.49,3.32a70.91,70.91,0,0,1-14.15-.72c-2.14-.3-3-1.37-3-3.57q0-1.14,0-2.28c0-.35,0-.7,0-1.06s0-.79,0-1.18,0-.86,0-1.29v-.21q0-.34,0-.68,0-1,0-2h0c0-3.5,0-7,0-10.49v-.06c.15-25.3.53-50.6.73-75.9,0-1,0-2,0-3q0-.8,0-1.59,0-4.92.11-9.84,0-1.74,0-3.48.06-4.78.12-9.57v-.08q.09-6.77.16-13.55c.05-4.9.23-5.46,5-6.17a33.72,33.72,0,0,1,9.94.49l1,.14.26,0,1.05.14h0a12.08,12.08,0,0,0,3,.25Q379.15,136.63,379,146.07Zm41.44-33.27q-.1,8.5-.22,17-.05,3.81-.1,7.62,0,2.7-.07,5.4,0,3.13-.08,6.26-.06,5.09-.11,10.17c-.06,7.25-.5,41.32-.8,71-.08,7.61-.14,14.92-.19,21.43,0,6.67-.08,12.5-.08,16.9,0,.83.08,1.66.16,2.48,0,.29,0,.56,0,.81,0,2.4-1.22,2.81-4,2.73-8.83,1-15.15.54-22.47.23-3.37-.15-6.7-1.24-10-1.88-2-.39-2.12-1.93-2.12-3.51q0-3.66,0-7.32,0-6.8-.06-13.6v0q-.08-17.91-.12-35.83c0-9.46,0-18.92.21-28.38.56-22.22-.11-44.45.92-66.66.14-3,.21-8.73.21-8.73,2-1.83,6.31-1.2,9.21-1.73,9.46-1.72,18.56.55,27.73,2.24l.14,0h.08a1.94,1.94,0,0,1,1.77,1.92,6.36,6.36,0,0,1,0,.64C420.48,112.27,420.47,112.54,420.46,112.8Zm50.64,128.75q-2.45,12.71-5,25.42c-.85,3.87-.94,7.67-4.73,7.71-10.33,1.14-25.57-1.26-36.4-6.44-.7-.32-1-1.18-1-2.68a17.9,17.9,0,0,1,.25-2.43q.08-.47.18-1l.08-.43.9-4.7c2.49-12.93,5.08-25.9,7.4-38.85,3.63-20.29,7.48-40.57,11.14-60.86q.48-2.69,1-5.37.35-2,.71-4c1.35-7.63,2.9-15.21,4.39-22.81q.4-2,.79-4.08l0-.15q.4-2.06.78-4.13c.85-4.58,1.65-9.16,2.33-13.77.62-4.14,2.17-8.23,2.7-12.43.36-2.8,1.71-3.72,4-4.07,2.1-.32,4.22-.51,5.94-.71,6.31.25,20.51,3.87,26.43,5.5h0l.39.11h0l.75.21h0l.29.08h0l.51.15h0l.15,0h0l.15,0c2.71.85,3.55,1.68,3.57,3.36a18.92,18.92,0,0,1-.48,3.44c-1.24,6.39-2.51,12.76-3.74,19.15Q483,179.74,471.11,241.55Zm46.61-98.61q0,.26,0,.53c0,3.24,0,7.69,0,13v0q0,.62,0,1.25v.2q0,1.25,0,2.55v0c0,.42,0,.82,0,1.22v1.11q0,.64,0,1.28v1c0,.35,0,.7,0,1.06q0,2.15,0,4.41h0q0,2.51,0,5.14c-.07,16.18-.15,35.16-.21,52,0,2.83,0,5.6,0,8.29q0,.37,0,.73c0,.16,0,.31,0,.47v.56q0,.54,0,1.08v1.72q0,.55,0,1.1v1.43c0,2.17,0,4.26,0,6.26,0,3.7,0,7.1,0,10.09,0,3.88,0,7.08,0,9.4q0,.15,0,.29c0,3-.54,4-3.19,4a58.12,58.12,0,0,1-16.59-.36c-3-.55-4.16-1.31-4.15-4.61h0q0-2.91,0-5.84c0-.16,0-.32,0-.48q0-2.82,0-5.64h0q0-3.81,0-7.63,0-9.9,0-19.87c0-14.43,0-28.88-.09-43,0-9.57-.2-18.11-.19-27.74v0c0-.47,0-.93,0-1.38v-.06q0-.69,0-1.4v0q0-.7,0-1.4v0c0-4,.09-8.16.2-12.7.11-2,1.54-2.38,3.23-3,6.66-2.32,12.81-.64,19.26.81,1.64.37,1.84,1.65,1.84,2.9C517.74,142.14,517.72,142.56,517.72,142.94Zm25.13,101.66q0,1.08,0,2.15,0,11.44.07,22.88c0,2.52-.77,3.45-3.19,4-6.72,1.55-13.09-.31-19.52-1.6-1-.2-1.15-.91-1.15-1.67,0-.46.07-.94.07-1.34q0-23.63.15-47.27v-.06q0-8.56.06-17.12c.05-17.25,0-34.51.15-51.76.08-6.79,1-6.73,6.77-7.17a44,44,0,0,1,12.32.78l.59.14.06,0,.54.15.15,0c.19.07.38.13.56.21h0l.37.18h0l.33.19,0,0,.3.21,0,0,.27.24,0,0,.25.27h0a3.64,3.64,0,0,1,.42.65v0c.06.11.11.23.16.36l0,0q.07.18.12.38l0,.06q.05.2.09.41v.07c0,.14,0,.29.07.45v.06c0,.16,0,.33,0,.5v0c0,.18,0,.37,0,.57-.21,19.64-.17,58.92-.21,58.92q0,5,0,9.95,0,9.32,0,18.64,0,.44,0,.87Q542.85,242.38,542.85,244.59Zm45.27-68.88q0,2.41,0,4.82,0,6.81,0,13.61s0,16.77,0,35.77c0,13.86,0,28.91.08,39.5,0,2.85-1.51,3.33-3.26,4-5.72,2.27-11.75,2.71-17.79,2.66a57.87,57.87,0,0,1-14.7-1.52c-4.54-1.22-7-3.14-7.25-6.92q-.08-1.23-.14-2.48c0-.45,0-.9-.07-1.35s0-.69,0-1q0-.92-.07-1.84l0-.44q0-1.08-.07-2.16c-.31-11.54,0-23.32,0-34.68-.07-20.72-.15-41.43,0-62.15.08-14.05.33-28.34.44-42.4,0-2.37,1.09-2.86,3-3.34a68,68,0,0,1,21.06-2c4.94.3,9.86.91,14.79,1.33,3,.25,4.31.91,4.27,4.64q-.09,10.46-.12,21,0,3.28,0,6.57,0,4.83,0,9.66Q588.11,166.34,588.12,175.71Zm40.8-8.13,0,2,0,1v.25c-.11,5.47-.22,11.13-.34,17-.3,17.81-.75,45.16-1.2,72.51,0,2.48-.07,5-.13,7.45-.11,4.4-.82,5.51-5.31,5.57A245,245,0,0,1,592.5,272c-1.81-.19-2.09-1.4-2.27-2.75v-4.64q0-.25,0-.5v-.66c-.37-23.68-.23-91.65-.19-127.89q0-1.75,0-3.39,0-4.88,0-9.76c.05-11.87.16-23.74.18-35.61,0-1.09.18-1.42,1.23-1.58a111.09,111.09,0,0,1,32.08-.53h0l1.45.2,1.7.26h0c3.23.52,4,1.92,4,4.85q0,.14,0,.29c-.21,8.74-.4,17.48-.6,26.47-.12,5.49-.23,11.08-.35,16.82-.18,8.94-.37,18.24-.57,28.12l-.1,4.79Zm23.86,55.32q-.13,7.19-.27,14.37-.2,10.69-.41,21.39c-.06,3.31-.34,6.63-.34,9.93q0,.71,0,1.42c.06,2.38-1.12,3.21-3.07,3.41-6.18.63-12.26-.31-18.31-1.41a1.55,1.55,0,0,1-1.43-1.75c0-.48.08-1,.08-1.42q.11-16.15.35-32.3.1-6.52.21-13,.48-29.86,1-59.73c.37-20.45.85-40.91,1.16-61.36.05-3.44,1.06-4.71,4.73-4.5,4.95.28,9.92.11,14.86.83a9.17,9.17,0,0,1,1.68.38h0a4.52,4.52,0,0,1,.55.23h0a3.32,3.32,0,0,1,.47.29h0a2.75,2.75,0,0,1,.39.35h0l.16.2h0l.14.21v0l.12.24v0l.1.24v0c0,.09.06.18.09.27v.05c0,.09,0,.18.06.27v0c0,.1,0,.21.05.32V102c0,.1,0,.21,0,.32v0c0,.12,0,.24,0,.36v.09c0,.13,0,.26,0,.39-.66,27.69-1.14,55.38-1.67,83.07h-.21Q653.12,204.58,652.78,222.9Zm47.62-42.49c-.45,22.2-1,44.61-1.25,57.52v.25c-.08,3.7-.13,6.6-.16,8.46-.09,6.83-.49,13.66-.52,20.49q0,1.46,0,2.93,0,.15,0,.29c0,2.91-1.41,3.68-3.85,3.74-4.38.12-8.77.27-13.14.14-7.43-.21-14.85-.45-22.25-1.32-5.06-.59-5.59-.6-5.57-4.72,0-.43,0-.9,0-1.42q.08-4.63.17-9.26.6-33.55,1.24-67.1h.28c.52-25.79,1.09-51.81,1.5-77.61,0-2.83.62-3.81,3.49-4,10.8-.68,21-.22,31.52,2.38,2.08.51,4.88.76,6.9,1.85h0a6.47,6.47,0,0,1,.57.34l.06,0,.2.14.08.06.16.14.08.08.15.14.08.08.13.15.08.09.13.17.06.08.18.26,0,.06a1.27,1.27,0,0,1,.05.19q0,.12,0,.28c0,.18,0,.39.07.65.14,1.67.2,5,.22,9.5q0,.52,0,1.06,0,.33,0,.68c0,12.48-.34,32.73-.75,53.16Z"/><path class="cls-1" d="M456.48,79.29c-6.73-1.52-12.19,5.93-10.39,13.5C446.2,86,449.8,81.66,456.48,79.29Z"/><path class="cls-1" d="M138.95,103.48c-7.5,2.94-11,8.23-8.21,13.26C130.05,109.59,136.18,107.72,138.95,103.48Z"/><path class="cls-1" d="M129.15,269.52c-2.33.35-4.61.76-6.94.11-.84-.24-1.8-.29-2,.77-.14.85.81.92,1.45,1.19,2.54,1.06,5.08.23,7.38,0,1.51.27,3.33.64,3.27-1.07S130.29,269.35,129.15,269.52Z"/><path class="cls-1" d="M714.18,273.58c-2.33-.24-4.67-.42-7.33-.66-.62,0-1.56,0-2.5,0s-2.09.18-2,1.38,1.23.82,2,.83c3.28,0,6.57-.52,9.82.46a1.49,1.49,0,0,0,2.07-1.28C716.15,273.17,714.91,273.66,714.18,273.58Z"/><path class="cls-1" d="M706,110.67a5.29,5.29,0,0,1,1.72,4.44c0,2.17-.18,4.34-.29,6.51l1,.15a27.92,27.92,0,0,0,1.09-5.27c0-2.42.12-5-1.75-7-.55-.59-1.24-1.43-2.06-.85S705.31,110.13,706,110.67Z"/><path class="cls-1" d="M300.65,106.71c2.37-4.08,2-8.37-.75-11.35-.49-.53-1-1.23-1.73-.77s-.47,1.35,0,1.85C301.15,99.35,301,103,300.65,106.71Z"/><path class="cls-1" d="M543.47,111.19c-5.42.52-8.15,4.37-6.25,8.81C538.72,116.46,540,113.06,543.47,111.19Z"/><path class="cls-2" d="M378.78,56.55c.44-.45.9-.92,1.38-1.36a3,3,0,0,0,.51-3.09c-.39-1.38-1.49-3-3-3.3a8.85,8.85,0,0,0-4.81.85c-2.88,1.12-5.83,2.47-8.67,3.78s-5.93,2.72-8.89,3.86a6.08,6.08,0,0,1-3.9.2c-2.55-.63-5.53-1.52-8.69-2.47-4-1.21-8.2-2.46-11.55-3.16-1.34-.39-3.67.45-6.36,1.42a39.85,39.85,0,0,1-7.22,2.11c-.33.05-.67.12-1,.19-1.53.31-3.12.63-4.66-.66l-.24-.2.31-.06a111.74,111.74,0,0,0,21.49-6.4,25.12,25.12,0,0,0,4.07-2.09c2.08-1.33,2.59-3.31,1.43-5.57-1.27-2.48-2.87-3.23-5.17-2.43-8.18,2.85-16.29,5.58-24.11,8.12a4.9,4.9,0,0,0-.77.37c-.6.33-1.28.71-1.84.5a1.28,1.28,0,0,1-.71-.82l0-.11.1-.07c.11-.08,2.5-1.71,3.41-2.22-4-2.06-6.28-1.83-6.71-1.77-.52,1.23-2.28,3-5.08,5.13l0,0c-1.78,1.35-2.64,2.55-2.7,3.77s.7,2.54,2.39,4.09c2.81,2.58,6.26,4.26,9.6,5.88l.79.39c3.45,1.68,7,3.36,10.38,5l2.74,1.3c4.86,2.31,5,6.75,5.19,11q0,.41,0,.81c.24,5.78.22,11.66.2,17.34,0,3.76,0,7.64,0,11.46,0,2.53,2,4.35,4.76,4.41s3.5-1.44,4-4.06c.23-3.37.44-6.53.64-9.56.43-6.47.83-12.59,1.4-19.13.64-7.38,3-9.85,10.19-10.55a59.52,59.52,0,0,0,28.18-10.34A19.7,19.7,0,0,0,378.78,56.55Z"/><path class="cls-2" d="M302.15,37.34c0-6.37-4.06-10.76-10.32-11.2l-.71,0a8.6,8.6,0,0,0-6,2.35,12.84,12.84,0,0,0-3.6,9.38c0,4.73,4.7,9.1,10,9.36a10.33,10.33,0,0,0,10.67-9.86Z"/><path class="cls-2" d="M293.8,49.22c-5.81.34-11-2.94-12.7-6.34l-.24-.49c-.51-1.08-.9-1.91-2-1.91a3.09,3.09,0,0,0-.7.09c-1.46.34-3.15,1-3.27,3a3.85,3.85,0,0,0,2.35,4.11l1.63.69c4.69,2,9.55,4,14.95,4.89A20.54,20.54,0,0,1,293.8,49.22Z"/><path class="cls-1" d="M374,46.95c-2.75,1-5.86,2.41-8.87,3.79-2.55,1.17-5.18,2.37-7.5,3.26l-.56.22c-2,.77-3.84,1.49-6,1-2.59-.58-5.45-1.39-8.47-2.24-3.23-.91-6.56-1.85-9.64-2.52A24.28,24.28,0,0,1,336.17,49a14.27,14.27,0,0,0,3.55-1.8A5.9,5.9,0,0,0,341,39.24a6.56,6.56,0,0,0-7.45-3.13,104,104,0,0,0-13.27,4.56l-1.74.68a41.52,41.52,0,0,1-6,1.77,36.22,36.22,0,0,0-5.87-2A19.1,19.1,0,0,1,303.35,40c.39-1.09,2.8-8.95-5.94-14.26a11.32,11.32,0,0,0-11.56,0,12.67,12.67,0,0,0-6.19,11.54c0,.61-.06.94-.25,1.14a1.65,1.65,0,0,1-1.19.29h-.07c-2.81,0-4.64,1.66-5,4.57s.68,4.88,3.35,5.92c1.06.41,2.13.85,3.17,1.27a66.46,66.46,0,0,0,12.11,4A13.13,13.13,0,0,1,297.92,58c3.22,2.84,7.14,4.6,10.93,6.31,1.37.62,2.79,1.25,4.15,1.93s2.5,1.22,3.52,1.71c7.34,3.51,7.34,3.51,7.86,13.89q0,.86.09,1.81c.08,1.61.12,3.32.14,5.56,0,2,0,4.06,0,6,0,2.71,0,5.5,0,8.26,0,1.06.09,2,.15,2.89s.14,2,.15,3.09c0,2.06,2,4.16,3.76,4.85a10,10,0,0,0,3.08.47,5.86,5.86,0,0,0,3.32-.85c1.25-.88,1.95-2.33,2.19-4.58.84-7.65,1.27-15.45,1.69-23q.18-3.23.36-6.45c.32-5.33,2-7.53,6.1-8.12,1.21-.17,2.42-.28,3.59-.39s2.55-.23,3.85-.43c9.9-1.49,19-5.64,27.68-12.67a6.24,6.24,0,0,0,1.56-8.49A7.31,7.31,0,0,0,374,46.95Zm1.79,12.22a59.52,59.52,0,0,1-28.18,10.34c-7.17.7-9.55,3.17-10.19,10.55-.57,6.55-1,12.66-1.4,19.13-.2,3-.41,6.2-.64,9.56-.5,2.62-1.32,4.13-4,4.06s-4.72-1.88-4.76-4.41c-.06-3.82,0-7.7,0-11.46,0-5.69,0-11.57-.2-17.34q0-.4,0-.81c-.16-4.29-.33-8.72-5.19-11l-2.74-1.3c-3.41-1.62-6.93-3.3-10.38-5l-.79-.39c-3.34-1.62-6.8-3.3-9.6-5.88-1.69-1.55-2.45-2.85-2.39-4.09s.92-2.42,2.7-3.77l0,0c2.81-2.13,4.56-3.9,5.08-5.13.43-.07,2.76-.29,6.71,1.77-.9.52-3.29,2.14-3.41,2.22l-.1.07,0,.11a1.28,1.28,0,0,0,.71.82c.57.21,1.24-.17,1.84-.5a4.9,4.9,0,0,1,.77-.37c7.81-2.54,15.92-5.27,24.11-8.12,2.31-.8,3.9-.05,5.17,2.43,1.16,2.26.65,4.24-1.43,5.57a25.12,25.12,0,0,1-4.07,2.09A111.74,111.74,0,0,1,312,54.65l-.31.06.24.2c1.54,1.29,3.13,1,4.66.66.33-.07.67-.14,1-.19a39.85,39.85,0,0,0,7.22-2.11c2.69-1,5-1.82,6.36-1.42,3.35.7,7.52,2,11.55,3.16,3.15.95,6.13,1.84,8.69,2.47a6.08,6.08,0,0,0,3.9-.2c3-1.14,6-2.52,8.89-3.86s5.79-2.66,8.67-3.78a8.85,8.85,0,0,1,4.81-.85c1.5.3,2.61,1.92,3,3.3a3,3,0,0,1-.51,3.09c-.48.44-.94.91-1.38,1.36A19.7,19.7,0,0,1,375.84,59.16Zm-98.6-11.53a3.85,3.85,0,0,1-2.35-4.11c.12-2,1.81-2.63,3.27-3a3.09,3.09,0,0,1,.7-.09c1.11,0,1.5.83,2,1.91l.24.49c1.69,3.41,6.89,6.68,12.7,6.34a20.54,20.54,0,0,0,0,4c-5.4-.85-10.25-2.9-14.95-4.89Zm14.24-.43c-5.28-.25-9.94-4.63-10-9.36a12.84,12.84,0,0,1,3.6-9.38,8.6,8.6,0,0,1,6-2.35l.71,0c6.26.43,10.31,4.83,10.32,11.2a10.33,10.33,0,0,1-10.67,9.86Z"/><path class="cls-1" d="M346.12,43.26l-.06.33.29-.17c2.08-1.25,1.83-5,.73-7.11-1.51-2.28-2.66-2.47-4-2.69a11.72,11.72,0,0,1-1.22-.25l-.7-.19.57.45C345.37,36.54,346.81,39.68,346.12,43.26Z"/><path class="cls-1" d="M268.07,38.76c-1.68,1.66-2.17,3.27-1.5,4.91a17.16,17.16,0,0,0,1.61,2.85c.26.4.53.81.77,1.22l.34.57-.07-.67a15.81,15.81,0,0,0-.42-2.16c-.47-1.93-.91-3.76.95-5.52a1,1,0,0,0,.3-.73.91.91,0,0,0-.33-.67A1.15,1.15,0,0,0,268.07,38.76Z"/><path class="cls-1" d="M391.7,50.94c-.21-1.71-1.43-3.21-3.51-4.35l-.39-.21.18.4c.17.39.34.77.52,1.14,1.26,2.74,2.35,5.11.65,7.88l-.57.93.8-.74C391.11,54.39,391.91,52.65,391.7,50.94Z"/><path class="cls-2" d="M187.31,32.18h0a12.22,12.22,0,0,0,8.35-3.75,9.55,9.55,0,0,0,3.07-6.52c0-6.42-4.82-11.63-10.67-11.63h0c-5.14,0-10.77,3-11.15,11.12A10.15,10.15,0,0,0,180,28.6,10.67,10.67,0,0,0,187.31,32.18Z"/><path class="cls-2" d="M225.65,74a5.5,5.5,0,0,0-3-4.43A68.49,68.49,0,0,0,209.79,64c-2.68-.94-3.77-2.39-3.76-5s-.2-5.08-.4-7.56c-.11-1.37-.22-2.79-.3-4.18a9.11,9.11,0,0,1,4.14-8.48c.85-.59,1.68-1.24,2.48-1.88s1.36-1.08,2.07-1.59c4.23-3,6.12-6.48,6-10.84-.06-1.64,0-3.31.05-4.93a45.27,45.27,0,0,0-.19-7.8c-.36-2.57-1.46-4-3.27-4.25a3.74,3.74,0,0,0-4.32,3.34c-.48,3.27-.64,5.2-.79,6.9s-.26,3-.6,5c-.78,3.23-1.22,4.14-3.49,5a44.06,44.06,0,0,1-5.19,1.57,35.53,35.53,0,0,0-5.5,1.74c-1.25.55-2.57,1.06-3.85,1.56-4.65,1.79-9.45,3.63-12.56,8.22-.65,1-1.29,1.85-1.91,2.71-2.93,4.1-5.46,7.64-6.8,15.08a3.46,3.46,0,0,0,.52,3A64.89,64.89,0,0,0,180.65,72a5.33,5.33,0,0,0,4.51,1.62,4.93,4.93,0,0,0,3.47-2.78c.76-2.5-1.65-5-5-8.44-.78-.81-1.59-1.64-2.42-2.54a1.56,1.56,0,0,1-.87-.79,1.44,1.44,0,0,1,.25-1.09l0-.06c1.49-3,3-5.86,4.13-8.05.41-.78.91-.75,1.26-.59a1,1,0,0,1,.55,1.28,37,37,0,0,1-4,7.5c.55.66,3.74,4.49,5.35,6.17,2,2.12,4.07,6,2.15,8.05s-3.89,3.65-6.83,3.24c-1.25-.18-1.92-.26-2.16-.28-1.3,3.11-2.46,8.44-2.09,11.73.43,3.9,1.08,8.12,2,13.29.42,2.29.9,4.89,4.23,4.77,2.84-.1,4.47-1.91,4.7-5.23.06-.87-.2-3.85-.47-7-.25-2.88-.51-5.87-.57-7.72-.15-4.44,4.24-11.12,8.77-11.63s9.23.28,13.68,1.05l.37.06c2.74.47,4.29,2.32,4.47,5.33.07,1.18.11,2.39.15,3.56.05,1.7.11,3.46.27,5.18.29,3.07,1,5.93,3.81,6.09s4.47-1.37,5.05-4.66c.84-4.72.5-10.24.21-15.11Z"/><path class="cls-1" d="M223.57,67.57c-1.34-.59-2.69-1.2-4-1.79-2.81-1.27-5.71-2.59-8.64-3.71-1.72-.65-2.67-1.38-2.78-3.37s-.3-4.24-.48-6.31c-.14-1.56-.28-3.18-.39-4.77-.17-2.5.81-4.55,3.27-6.84a42.92,42.92,0,0,1,3.58-2.88c2.31-1.73,4.69-3.51,6.31-6.13A9,9,0,0,0,222.05,27c0-1.54.05-3.11.09-4.62A93.57,93.57,0,0,0,222,10.55c-.29-2.85-1.75-4.65-4.23-5.21a7.42,7.42,0,0,0-5.62,1A3.78,3.78,0,0,0,210.46,9c-.24,2.61-.47,4.31-.69,5.94s-.45,3.37-.67,5.95c-.43,4.51-1.9,5-4.83,5.87l-.12,0c-.62.19-1.26.34-1.94.51a33.51,33.51,0,0,0-3.72,1.06c2.58-4.15,3.09-7.49,1.69-11.09A13.42,13.42,0,0,0,191.74,9c-5.91-2.1-12.9.65-15.26,6a13.9,13.9,0,0,0-.36,11.41A14.36,14.36,0,0,0,184.68,34c-3,1.84-4.91,4.44-6.76,7-.54.74-1.1,1.51-1.68,2.23-3.77,4.74-5.45,10.34-6.5,14.69a5.83,5.83,0,0,0,1.25,5.7c2.07,2.37,4.07,4.76,6.18,7.3L179.79,74A18.65,18.65,0,0,0,178,78.13l-.09.28-.17.57-.07.24q-.09.33-.17.66l0,.15c-.13.56-.25,1.14-.35,1.73l0,.14q-.06.38-.11.77v.12c-.07.62-.12,1.23-.15,1.82a16.77,16.77,0,0,0,.3,4.08c.47,2.22.77,4.08,1.08,6,.41,2.6.84,5.29,1.72,9.06a3.74,3.74,0,0,0,2.38,2.64,7.8,7.8,0,0,0,3.18.67,6.46,6.46,0,0,0,3.5-1,6.62,6.62,0,0,0,3.08-6,57.05,57.05,0,0,0-.49-8.35c-.07-.55-.14-1.12-.22-1.72l-.4-3.25a6.48,6.48,0,0,1,0-.86c0-.2,0-.41,0-.63s.07-.66.14-1,.09-.46.14-.7.18-.71.29-1.07.15-.47.24-.71.17-.47.27-.7.2-.46.3-.68l.16-.33c.17-.33.34-.64.52-.94a10,10,0,0,1,.57-.83,6.67,6.67,0,0,1,.81-.9l.21-.18.21-.16a13.33,13.33,0,0,1,2.35-1.36,8.08,8.08,0,0,1,1.87-.57l.45-.06a9.22,9.22,0,0,1,.94-.06h.5c.34,0,.7,0,1.07.08.56.06,1.17.15,1.91.26l1,.15.29,0,1.62.26c1.15.17,2,.27,2.88.32a5.3,5.3,0,0,1,2.28.6,3.6,3.6,0,0,1,1.19,1.06,4.41,4.41,0,0,1,.42.72,5.88,5.88,0,0,1,.31.85,9.19,9.19,0,0,1,.29,1.5c0,.22,0,.43.07.64l0,.19q0,.23,0,.46v.2q0,.25,0,.5V83c0,.58,0,1.21.06,1.88.09,3.51.19,7.88,2.52,10.24a5.57,5.57,0,0,0,5.57,1.42A6.52,6.52,0,0,0,227.12,92c1.16-4.49.55-18.76.27-19.9A7.14,7.14,0,0,0,223.57,67.57ZM176.87,21.4c.37-8.17,6-11.1,11.15-11.12h0c5.86,0,10.64,5.21,10.67,11.63a9.55,9.55,0,0,1-3.07,6.52,12.22,12.22,0,0,1-8.35,3.75h0A10.67,10.67,0,0,1,180,28.6,10.15,10.15,0,0,1,176.87,21.4ZM225.5,90c-.59,3.29-2.24,4.82-5.05,4.66s-3.51-3-3.81-6.09c-.16-1.72-.22-3.48-.27-5.18,0-1.17-.07-2.37-.15-3.56-.18-3-1.73-4.86-4.47-5.33l-.37-.06c-4.45-.77-9.06-1.57-13.68-1.05s-8.92,7.19-8.77,11.63c.06,1.86.32,4.84.57,7.72.27,3.15.53,6.12.47,7-.23,3.32-1.86,5.13-4.7,5.23-3.33.12-3.81-2.48-4.23-4.77-.94-5.17-1.58-9.39-2-13.29-.37-3.29.79-8.61,2.09-11.73.24,0,.91.11,2.16.28,2.93.42,5-1.31,6.83-3.24S190,66.32,188,64.2c-1.62-1.67-4.81-5.51-5.35-6.17a37,37,0,0,0,4-7.5,1,1,0,0,0-.55-1.28c-.35-.16-.86-.19-1.26.59-1.14,2.19-2.64,5.09-4.13,8.05l0,.06a1.44,1.44,0,0,0-.25,1.09,1.56,1.56,0,0,0,.87.79c.83.9,1.64,1.74,2.42,2.54,3.34,3.45,5.75,5.94,5,8.44a4.93,4.93,0,0,1-3.47,2.78A5.33,5.33,0,0,1,180.65,72a64.89,64.89,0,0,1-8.55-10.32,3.46,3.46,0,0,1-.52-3c1.34-7.44,3.87-11,6.8-15.08.62-.86,1.25-1.75,1.91-2.71,3.11-4.58,7.91-6.43,12.56-8.22,1.28-.49,2.61-1,3.85-1.56a35.53,35.53,0,0,1,5.5-1.74,44.06,44.06,0,0,0,5.19-1.57c2.26-.9,2.71-1.81,3.49-5,.35-2,.47-3.39.6-5s.31-3.63.79-6.9a3.74,3.74,0,0,1,4.32-3.34c1.81.26,2.91,1.69,3.27,4.25a45.27,45.27,0,0,1,.19,7.8c-.05,1.61-.11,3.28-.05,4.93.16,4.35-1.74,7.8-6,10.84-.71.51-1.4,1.06-2.07,1.59s-1.63,1.29-2.48,1.88a9.11,9.11,0,0,0-4.14,8.48c.08,1.4.19,2.81.3,4.18.2,2.48.41,5,.4,7.56s1.09,4,3.76,5a68.49,68.49,0,0,1,12.87,5.61,5.5,5.5,0,0,1,3,4.43l.05.88C226,79.79,226.34,85.31,225.5,90Z"/><path class="cls-1" d="M219.47,2.5a6,6,0,0,1,.62.16A9.76,9.76,0,0,1,226,7.59a8.22,8.22,0,0,1,.61,3.75c0,.68,0,1.39.09,2.14l0,.39.23-.31c1.81-2.42,1.32-4.51.66-6.45a10,10,0,0,0-7.12-6.6A4.62,4.62,0,0,1,220,.34c-.53-.22-1.2-.5-1.69-.24a1.14,1.14,0,0,0-.53.84C217.57,2.08,218.67,2.32,219.47,2.5Z"/><path class="cls-1" d="M167.43,53.74c-.28-.07-.5.31-1.17,1.52-.33.59-.73,1.32-1.22,2.11h0c-1.69,3.47.16,6.37,2.2,9l.25.32,0-.4a6,6,0,0,0-.38-1.75c-.62-2.07-1.67-5.54.58-9.55l0,0v0C167.72,54.1,167.64,53.8,167.43,53.74Z"/><path class="cls-2" d="M427.86,52.51a44.76,44.76,0,0,1,3.28-3.41q.73-.67,1.5-1.29l.42-.31q.49-.35,1-.67c.68-.43,1.38-.78,2.1-1.14l.08,0,.5-.19q.51-.18,1-.34a18.21,18.21,0,0,1,2-.46l-.2-.73c-.18-.68-.36-1.39-.54-2.09v0c-.18-.71-.36-1.41-.53-2.06-.09-.32-.17-.64-.26-.93l-.12-.43a3.54,3.54,0,0,0-.17-.47,2.17,2.17,0,0,0-.13-.24,1.53,1.53,0,0,0-.14-.19l-.15-.15-.08-.06-.17-.09-.09,0-.19,0-.21,0h-.35l-.26,0-.14,0-.29,0-.31.06-.5.1-.36.07a17.11,17.11,0,0,0-6.36,2.49,22.75,22.75,0,0,0-3.76,3l-.35.35c-.34.35-.68.71-1,1.08s-.86,1-1.29,1.53l-.43.54c-1.31,1.63-2.61,3.22-4,4.74l-.7.72-.49.48-.76.72c-.35.32-.7.62-1.05.91a4,4,0,0,1-.69.42c-.43.22-1,.49-1.79.8l-.19.08-.86.34-.5.19.11,0,.5.18.19.07.08,0a11.13,11.13,0,0,0,4.9.25c.27,0,.51,0,.72,0H417a2.12,2.12,0,0,1,.53.09l.11,0,.18.1.07.06a.63.63,0,0,1,.11.15.71.71,0,0,1,.08.27,1.18,1.18,0,0,1,0,.29,5.77,5.77,0,0,1-.48,1.32,9.34,9.34,0,0,1-1,1.68,14.54,14.54,0,0,0,4.34-1.66A28.75,28.75,0,0,0,427.86,52.51Z"/><path class="cls-2" d="M453.61,89l-.49-1.71-2.88-10-.34-1.14-.24-.77-.22-.69c-.24-.75-.43-1.28-.56-1.57l0-.07A15.1,15.1,0,0,0,447,80.42q0,.28,0,.57c0,.37,0,.75,0,1.13q0,.28,0,.57c0,.37.07.75.11,1.13s.1.75.16,1.12a39.43,39.43,0,0,0,1.26,5.34,1.79,1.79,0,0,0,1.91,1.34l.46,0,.45-.09.22-.06a2,2,0,0,0,.34-.14,2.78,2.78,0,0,0,.94-.81,4.37,4.37,0,0,0,.29-.42,5.39,5.39,0,0,0,.42-.88h0Z"/><polygon class="cls-2" points="456.65 32.84 456.65 32.84 456.65 32.84 456.65 32.84"/><path class="cls-2" d="M468.26,44.73a11,11,0,0,0,1.16.08,10.64,10.64,0,0,0,1.19,0,10.46,10.46,0,0,0,3.69-1.07l.59-.32.6-.38c.28-.19.56-.4.83-.62s.52-.45.76-.7.47-.5.69-.76a11.15,11.15,0,0,0,1.62-2.62c.14-.32.26-.64.37-1s.2-.66.28-1,.14-.68.18-1a13.68,13.68,0,0,0,.11-2c0-.42,0-.84-.08-1.25a12.08,12.08,0,0,0-.52-2.36,11.68,11.68,0,0,0-.43-1.1,11.48,11.48,0,0,0-1.16-2,11.63,11.63,0,0,0-1.54-1.75,12.13,12.13,0,0,0-1.89-1.43,13.57,13.57,0,0,0-5.33-1.86,9.12,9.12,0,0,0-1.08-.08h-.14a12.1,12.1,0,0,0-9.26,4.87c-.22.29-.42.59-.61.89a10.7,10.7,0,0,0-.74,1.42,9.25,9.25,0,0,0-.69,2.52c0,.55-.06,1.09-.06,1.61l-.15,0h.15C456.82,39.93,460.57,43.82,468.26,44.73Z"/><path class="cls-2" d="M503.62,32.59a3.1,3.1,0,0,0-.51-.43,3.58,3.58,0,0,0-1-.47l-.33-.08a2.82,2.82,0,0,0-1.24,0,3.28,3.28,0,0,0-.87.38,4.54,4.54,0,0,0-.56.41,8.61,8.61,0,0,0-1.59,1.91l-.34.53a27.36,27.36,0,0,0-2.74,5,13.72,13.72,0,0,1-1.8,3.35,7.54,7.54,0,0,1-.71.8,6.35,6.35,0,0,1-.78.65,6.15,6.15,0,0,1-1.18.64,6.86,6.86,0,0,1-.65.23,9.39,9.39,0,0,1-2.24.35l-.85,0c-.43,0-.9,0-1.39-.06s-.78-.07-1.24-.13l-.82-.11-.33,0c-.56-.08-1.14-.16-1.71-.23s-.84-.08-1.21-.1a11.55,11.55,0,0,0-1.2,0l-.35,0-1.42.09-1.76.13c-.63.05-1.2.11-1.74.18s-1.17.16-1.72.26a18.17,18.17,0,0,0-5.37,1.75c-.38.2-.76.43-1.14.68a13.51,13.51,0,0,0-3.39,3.22c-1.21,1.62-2.42,3.34-3.6,5.11-.68,1-1.36,2.08-2,3.16-.43.69-.86,1.41-1.29,2.14l-.86,1.47-1,1.78L452,66.35q-.6,1.1-1.19,2.2a3.44,3.44,0,0,0-.51,2.09c.23.86.51,1.94.83,3.12l.27,1,.37,1.38.59,2.14.49,1.78.2.7.57,2,.18.63.26.89.32,1.07.28.91.12.39.11.34v0a22.9,22.9,0,0,1,2-11.52l.36-.76.09-.18.18-.36.19-.36,1-1.85.42-.78.14-.26a22.14,22.14,0,0,0,1.85-4.58l.07-.28.19.22a8.73,8.73,0,0,1,1,1.62l.1.2c.06.13.12.26.17.38l.07.18a2.09,2.09,0,0,1,.11.47c.07.75.12,1.5.14,2.21s0,1.47,0,2.17c0,.48,0,1-.08,1.42q0,.35-.06.7c0,.47-.11.93-.18,1.39s-.16.92-.25,1.36a22.05,22.05,0,0,1-1.8,5.19,21.23,21.23,0,0,1-2.26,3.59l-.46.57a23.8,23.8,0,0,1-2.09,2.2l-.41.4-.2.2c-.14.15-.26.29-.36.42a4.34,4.34,0,0,0-.31.44,3.17,3.17,0,0,0-.23.47,2.59,2.59,0,0,0-.14.5,2.73,2.73,0,0,0,.15,1.45,55.8,55.8,0,0,0,6.58,12.25c1.55,2.27,3.21,4.52,4.82,6.69l.07.1.17.22a3.36,3.36,0,0,0,.77.64l.22.12a3,3,0,0,0,1.72.33,2.91,2.91,0,0,0,1.13-.38,3.77,3.77,0,0,0,.51-.35,2.93,2.93,0,0,0,.72-3.54c-.29-.74-.66-1.54-1.11-2.46l-.45-.9c-.36-.71-.74-1.41-1.11-2.12-.46-.86-.93-1.75-1.37-2.62-.24-.48-.46-.93-.65-1.35s-.41-.92-.59-1.35a6,6,0,0,1-.3-.95,5.05,5.05,0,0,1-.1-.63c0-.1,0-.21,0-.31s0-.21,0-.31a4.3,4.3,0,0,1,.07-.62,4.23,4.23,0,0,1,.13-.52,4.7,4.7,0,0,1,.86-1.55c.71-.86,1.4-1.77,2.06-2.66.87-1.16,1.78-2.37,2.75-3.47.36-.41.71-.79,1.07-1.14a16.82,16.82,0,0,1,2.4-2,3.7,3.7,0,0,1,1-.46l.24-.06a4.61,4.61,0,0,1,1.1-.13,3.57,3.57,0,0,1,1.45.29l.17.08.08,0a10.08,10.08,0,0,1,1,.54c.24.15.48.32.7.48l.51.4.42.37c.26.24.51.5.75.76s.36.41.51.6.43.57.63.87.39.61.56.93l.25.48c.16.32.31.66.45,1a14,14,0,0,1,.87,3.15,12.5,12.5,0,0,1-.18,4.84c-.29,1.18-.62,2.38-.94,3.54l-.34,1.23c-.26,1-.45,1.69-.62,2.39-.21.87-.38,1.66-.51,2.4a25.63,25.63,0,0,0-.38,3.25c0,.27,0,.52,0,.76s0,.25,0,.37a6,6,0,0,0,.15,1.05,3,3,0,0,0,.94,1.65l0,0a2.78,2.78,0,0,0,.53.35l.05,0a3.63,3.63,0,0,0,.68.24,4.34,4.34,0,0,0,1.53.11,3.42,3.42,0,0,0,1.19-.36,3.31,3.31,0,0,0,.49-.3,3.58,3.58,0,0,0,.52-.49,4.58,4.58,0,0,0,.92-1.71l.23-.75.4-1.27.28-.87.37-1.14.29-.88.64-1.91.81-2.42.58-1.75.19-.58c.35-1.06.64-2,.91-2.87s.47-1.58.67-2.33.43-1.61.62-2.42l.15-.63c0-.1,0-.2.06-.31a6,6,0,0,0,.08-.61,5.6,5.6,0,0,0,0-.61,5.05,5.05,0,0,0-.69-2.43,5.46,5.46,0,0,0-.47-.69l-.57-.73-.56-.73c-.37-.49-.73-1-1.07-1.48l-.51-.75a39.19,39.19,0,0,1-6.47-16.36q-.07-.45-.12-.9c-.07-.6-.13-1.22-.18-1.83q0-.46-.06-.93c0-.62,0-1.25-.05-1.88q0-.48,0-1c0-.23,0-.45,0-.66s0-.44,0-.64,0-.22,0-.33,0-.35.05-.52,0-.21,0-.31.06-.36.09-.53.08-.34.13-.49.1-.31.16-.46a4,4,0,0,1,.37-.7,3.38,3.38,0,0,1,1-1l.38-.22a7,7,0,0,1,1.92-.61c.59-.11,1.2-.24,1.78-.37l1.32-.28,1-.19a9.9,9.9,0,0,0,1.86-.48,7.38,7.38,0,0,0,1-.46l.45-.27.22-.15a6.48,6.48,0,0,0,.55-.44l.37-.36A7.31,7.31,0,0,0,498.7,52l.26-.44q.12-.23.24-.47c.28-.58.55-1.18.82-1.81a74.24,74.24,0,0,0,2.77-7.88c.52-1.75,1-3.62,1.61-5.88a3,3,0,0,0,.08-.52,3.29,3.29,0,0,0,0-.84A3.14,3.14,0,0,0,503.62,32.59Z"/><path class="cls-1" d="M502.58,29.6c-4.93-.77-6.59,2.63-10.62,10.85l-.32.66c-1.61,3.27-6.5,4-12.81,2a14.05,14.05,0,0,0,3.47-11.42,13.93,13.93,0,0,0-6-10c-6.09-3.85-14.39-2.65-18.5,2.68a15,15,0,0,0-2.25,13.45,13.18,13.18,0,0,0,8.83,8.64c-5.42,3.57-8.48,9-11.71,14.64-1.16,2-2.36,4.15-3.68,6.18a107.33,107.33,0,0,1-4.21-11.46l-.59-1.82-.09-.21h0c-1.82-5.69-3.43-10.85-4.62-16.2,0-.1,0-.21-.06-.33-.13-.78-.33-2-1.81-2h0a19.27,19.27,0,0,0-14.11,6.18c-1.46,1.5-2.83,3.13-4.15,4.72-.94,1.13-1.92,2.3-2.93,3.41a17,17,0,0,1-9.19,5.58c-.4.09-.45.31-.44.44,0,.63,1.74,1.67,2.54,1.78.64.09,1.22.22,1.78.34a14,14,0,0,0,5,.38l-.35.53c-1.47,2.24-3,4.55-4.43,4.94-.47.13-1.15.55-1.11,1.07s.73.83,2.08,1c7.76.11,12.94-2.19,17.32-7.69,2.31-2.91,4.71-5.92,8.25-7.5l.46-.21c1.2-.54,1.92-.86,2.38-.65s.67.73,1,2c.21.73,4,12.31,5.33,15.39l.27.64c.69,1.59.72,1.65-.31,4C444.49,77,444.38,83,446.6,90.85a3.45,3.45,0,0,1,.08.48c.11.83.25,1.86,2.55,2.55a4.51,4.51,0,0,0,1.87.11c.88-.09,1.37-.14,1.95,1.41,2,5.41,5.47,10.41,8.82,15.25l1.68,2.43c1.64,2.41,3.68,4.81,7.09,2.88s2.77-5,1.59-8.06a31.18,31.18,0,0,0-1.49-3,45.82,45.82,0,0,1-2.63-5.56l-.2-.57-.08-.24,0-.08-.13-.43-.08-.26c-.07-.23-.13-.47-.19-.71-.23-1,1.45-2.7,2.35-3.63l.5-.52c.66-.74,1.21-1.48,1.74-2.21a18.21,18.21,0,0,1,2.64-3.07,6.06,6.06,0,0,1,2.1-.91A3.66,3.66,0,0,1,480,88c2.89,3.73,4.54,7,3.22,11a87.57,87.57,0,0,0-2.61,10.22l-.11.52c-.93,4.36.16,7.34,3.05,8.4a6.89,6.89,0,0,0,2.36.44,5.37,5.37,0,0,0,5.29-4.09c.83-2.86,1.76-5.48,2.65-8a77.77,77.77,0,0,0,3.87-13.53c.38-2.22-1.62-5.15-2.5-6.3-2.54-3.34-5.61-7.82-6.89-12.83a54,54,0,0,1-1.57-12.37c.06-2.6,1.91-3,6.86-4l1.45-.3,1-.26c1.68-.4,3.26-.78,4.18-2.83a81.37,81.37,0,0,0,5.87-17.51,6.84,6.84,0,0,0-.67-5.2A4.18,4.18,0,0,0,502.58,29.6ZM504.47,35a3,3,0,0,1-.08.52c-.58,2.26-1.09,4.13-1.61,5.88A74.24,74.24,0,0,1,500,49.31c-.27.63-.54,1.24-.82,1.81q-.12.24-.24.47l-.26.44a7.31,7.31,0,0,1-.87,1.12l-.37.36a6.48,6.48,0,0,1-.55.44l-.22.15-.45.27a7.38,7.38,0,0,1-1,.46,9.9,9.9,0,0,1-1.86.48l-1,.19-1.32.28c-.58.13-1.18.26-1.78.37a7,7,0,0,0-1.92.61l-.38.22a3.38,3.38,0,0,0-1,1,4,4,0,0,0-.37.7c-.06.14-.11.3-.16.46s-.09.32-.13.49-.07.34-.09.53,0,.2,0,.31,0,.34-.05.52,0,.22,0,.33,0,.42,0,.64,0,.43,0,.66,0,.64,0,1c0,.63,0,1.26.05,1.88q0,.47.06.93c0,.61.11,1.22.18,1.83q.06.45.12.9a39.19,39.19,0,0,0,6.47,16.36l.51.75c.34.49.7,1,1.07,1.48l.56.73.57.73a5.46,5.46,0,0,1,.47.69,5.05,5.05,0,0,1,.69,2.43,5.6,5.6,0,0,1,0,.61,6,6,0,0,1-.08.61c0,.1,0,.2-.06.31l-.15.63c-.19.81-.4,1.6-.62,2.42s-.43,1.51-.67,2.33-.56,1.81-.91,2.87l-.19.58-.58,1.75-.81,2.42L491,108.7l-.29.88-.37,1.14-.28.87-.4,1.27-.23.75a4.58,4.58,0,0,1-.92,1.71,3.58,3.58,0,0,1-.52.49,3.31,3.31,0,0,1-.49.3,3.42,3.42,0,0,1-1.19.36,4.34,4.34,0,0,1-1.53-.11,3.63,3.63,0,0,1-.68-.24l-.05,0a2.78,2.78,0,0,1-.53-.35l0,0a3,3,0,0,1-.94-1.65,6,6,0,0,1-.15-1.05c0-.12,0-.25,0-.37s0-.49,0-.76a25.63,25.63,0,0,1,.38-3.25c.13-.74.3-1.53.51-2.4.17-.7.36-1.43.62-2.39l.34-1.23c.32-1.16.65-2.36.94-3.54a12.5,12.5,0,0,0,.18-4.84,14,14,0,0,0-.87-3.15c-.14-.34-.29-.67-.45-1l-.25-.48c-.17-.32-.36-.63-.56-.93s-.41-.59-.63-.87-.32-.39-.51-.6-.49-.52-.75-.76l-.42-.37-.51-.4c-.22-.17-.46-.33-.7-.48a10.08,10.08,0,0,0-1-.54l-.08,0-.17-.08a3.57,3.57,0,0,0-1.45-.29,4.61,4.61,0,0,0-1.1.13l-.24.06a3.7,3.7,0,0,0-1,.46,16.82,16.82,0,0,0-2.4,2c-.35.35-.7.73-1.07,1.14-1,1.11-1.88,2.31-2.75,3.47-.67.88-1.35,1.8-2.06,2.66a4.7,4.7,0,0,0-.86,1.55,4.23,4.23,0,0,0-.13.52,4.3,4.3,0,0,0-.07.62q0,.16,0,.31c0,.1,0,.21,0,.31a5.05,5.05,0,0,0,.1.63,6,6,0,0,0,.3.95c.17.43.37.88.59,1.35s.41.87.65,1.35c.44.87.91,1.76,1.37,2.62.38.71.75,1.41,1.11,2.12l.45.9c.45.92.82,1.73,1.11,2.46a2.93,2.93,0,0,1-.72,3.54,3.77,3.77,0,0,1-.51.35,2.91,2.91,0,0,1-1.13.38,3,3,0,0,1-1.72-.33l-.22-.12a3.36,3.36,0,0,1-.77-.64l-.17-.22-.07-.1c-1.61-2.17-3.28-4.42-4.82-6.69a55.8,55.8,0,0,1-6.58-12.25,2.73,2.73,0,0,1-.15-1.45,2.59,2.59,0,0,1,.14-.5,3.17,3.17,0,0,1,.23-.47,4.34,4.34,0,0,1,.31-.44c.11-.14.23-.27.36-.42l.2-.2.41-.4a23.8,23.8,0,0,0,2.09-2.2l.46-.57a21.23,21.23,0,0,0,2.26-3.59,22.05,22.05,0,0,0,1.8-5.19c.09-.44.18-.9.25-1.36s.13-.92.18-1.39q0-.35.06-.7c0-.46.06-.94.08-1.42,0-.7,0-1.43,0-2.17s-.07-1.46-.14-2.21a2.09,2.09,0,0,0-.11-.47l-.07-.18c0-.12-.1-.25-.17-.38l-.1-.2a8.73,8.73,0,0,0-1-1.62l-.19-.22-.07.28a22.14,22.14,0,0,1-1.85,4.58l-.14.26-.42.78-1,1.85-.19.36-.18.36-.09.18-.36.76a22.9,22.9,0,0,0-2,11.52v0l-.11-.34-.12-.39-.28-.91-.32-1.07-.26-.89-.18-.63-.57-2-.2-.7-.49-1.78-.59-2.14-.37-1.38-.27-1c-.32-1.19-.6-2.26-.83-3.12a3.44,3.44,0,0,1,.51-2.09q.59-1.11,1.19-2.2l.61-1.09,1-1.78.86-1.47c.43-.73.87-1.45,1.29-2.14.66-1.07,1.34-2.13,2-3.16,1.17-1.77,2.38-3.49,3.6-5.11a13.51,13.51,0,0,1,3.39-3.22c.38-.25.77-.48,1.14-.68A18.17,18.17,0,0,1,471.32,46c.54-.1,1.1-.18,1.72-.26s1.11-.13,1.74-.18l1.76-.13L478,45.3l.35,0a11.55,11.55,0,0,1,1.2,0c.37,0,.77,0,1.21.1s1.15.15,1.71.23l.33,0,.82.11c.46.06.87.1,1.24.13s1,.06,1.39.06l.85,0a9.39,9.39,0,0,0,2.24-.35,6.86,6.86,0,0,0,.65-.23,6.15,6.15,0,0,0,1.18-.64,6.35,6.35,0,0,0,.78-.65,7.54,7.54,0,0,0,.71-.8,13.72,13.72,0,0,0,1.8-3.35,27.36,27.36,0,0,1,2.74-5l.34-.53a8.61,8.61,0,0,1,1.59-1.91,4.54,4.54,0,0,1,.56-.41,3.28,3.28,0,0,1,.87-.38,2.82,2.82,0,0,1,1.24,0l.33.08a3.58,3.58,0,0,1,1,.47,3.1,3.1,0,0,1,.51.43,3.14,3.14,0,0,1,.8,1.6A3.29,3.29,0,0,1,504.47,35Zm-51.33,55a4.37,4.37,0,0,1-.29.42,2.78,2.78,0,0,1-.94.81,2,2,0,0,1-.34.14l-.22.06-.45.09-.46,0a1.79,1.79,0,0,1-1.91-1.34,39.43,39.43,0,0,1-1.26-5.34c-.06-.38-.11-.75-.16-1.12s-.08-.76-.11-1.13q0-.28,0-.57c0-.38,0-.77,0-1.13q0-.28,0-.57a15.1,15.1,0,0,1,1.89-7.32l0,.07c.13.29.31.82.56,1.57l.22.69.24.77.34,1.14,2.88,10,.49,1.71-.05.15h0A5.39,5.39,0,0,1,453.15,90.07Zm3.71-4.42c.07-.45.11-1,.17-1.54a24.62,24.62,0,0,1,4.36-12.72C461.75,75.62,459.6,84.15,456.86,85.65Zm-.21-52.8h0l.15,0c0-.52,0-1.06.06-1.61a9.25,9.25,0,0,1,.69-2.52,10.7,10.7,0,0,1,.74-1.42c.19-.3.39-.6.61-.89a12.1,12.1,0,0,1,9.26-4.87h.14a9.12,9.12,0,0,1,1.08.08,13.57,13.57,0,0,1,5.33,1.86,12.13,12.13,0,0,1,1.89,1.43,11.63,11.63,0,0,1,1.54,1.75,11.48,11.48,0,0,1,1.16,2,11.68,11.68,0,0,1,.43,1.1,12.08,12.08,0,0,1,.52,2.36c0,.41.08.83.08,1.25a13.68,13.68,0,0,1-.11,2c0,.34-.1.68-.18,1s-.17.66-.28,1-.23.64-.37,1a11.15,11.15,0,0,1-1.62,2.62c-.22.26-.45.52-.69.76s-.5.48-.76.7-.54.43-.83.62l-.6.38-.59.32a10.46,10.46,0,0,1-3.69,1.07,10.64,10.64,0,0,1-1.19,0,11,11,0,0,1-1.16-.08c-7.7-.91-11.45-4.79-11.47-11.88h-.15ZM432.37,52.29q-.38.4-.75.81l-.46.53-.52.61-.34.4-.67.81-.67.81-.34.4-.34.4c-.45.53-.91,1-1.39,1.54a17.09,17.09,0,0,1-3.56,2.85,15.89,15.89,0,0,1-4,1.69q-.86.23-1.77.38a23.81,23.81,0,0,1-3.83.3h0l.31-.43.1-.14h0l.21-.28h0l.12-.15.19-.24h0c.6-.75,1.21-1.44,1.73-2.15h0l.22,0a9.34,9.34,0,0,0,1-1.68,5.77,5.77,0,0,0,.48-1.32,1.18,1.18,0,0,0,0-.29.71.71,0,0,0-.08-.27.63.63,0,0,0-.11-.15l-.07-.06-.18-.1-.11,0a2.12,2.12,0,0,0-.53-.09h-.23c-.21,0-.45,0-.72,0a11.13,11.13,0,0,1-4.9-.25l-.08,0-.19-.07-.5-.18-.11,0,.5-.19.86-.34.19-.08c.75-.31,1.36-.58,1.79-.8a4,4,0,0,0,.69-.42c.35-.29.71-.6,1.05-.91l.76-.72.49-.48.7-.72c1.43-1.52,2.73-3.1,4-4.74l.43-.54c.43-.54.87-1.05,1.29-1.53s.67-.74,1-1.08l.35-.35a22.75,22.75,0,0,1,3.76-3,17.11,17.11,0,0,1,6.36-2.49l.36-.07.5-.1.31-.06.29,0,.14,0,.26,0h.35l.21,0,.19,0,.09,0,.17.09.08.06.15.15a1.53,1.53,0,0,1,.14.19,2.17,2.17,0,0,1,.13.24,3.54,3.54,0,0,1,.17.47l.12.43c.08.29.17.61.26.93.17.65.35,1.35.53,2.06v0c.18.7.36,1.41.54,2.09l.2.73.15,0h0L440,45h0l0,.07h0l.1.34h0l.05.17h0l.07.23h0l.13.4q0,.13.07.25a2,2,0,0,1,0,.23s0,.1,0,.14h0s0,.09,0,.13a1,1,0,0,1-.1.35l-.06.1a.91.91,0,0,1-.16.18,1.22,1.22,0,0,1-.34.2l-.3.09a12.25,12.25,0,0,0-4.42,2c-.42.3-.83.62-1.22,1s-.52.46-.77.7l-.55.55Z"/><path class="cls-1" d="M420.38,67.18l-.37.18c-2.21,1.07-4.58,1.19-7.69.38a4.09,4.09,0,0,1-.63-.25,1.77,1.77,0,0,0-1.37-.26,1,1,0,0,0-.49.66,1.12,1.12,0,0,0,.06.89c.33.61,1.24.87,2,1.07l.06,0a10.53,10.53,0,0,0,2.93.43c3.15,0,6.06-1.5,9.45-3.82l.39-.27h-.47A7.39,7.39,0,0,0,420.38,67.18Z"/><path class="cls-1" d="M511.77,29.46a11.2,11.2,0,0,0-6.65-6.8,6,6,0,0,0-5.29.52l-.15.1c-.61.39-1.37.88-1,1.82a.66.66,0,0,0,.39.44c.33.11.71-.13,1.08-.36.13-.08.25-.16.37-.22,3.34-1.66,6,.25,7.77,1.83a4.54,4.54,0,0,1,.75,1c.51.86,1.09,1.83,2.43,1.83h.4Z"/><path class="cls-2" d="M433.87,50.86c.39-.34.8-.66,1.22-1a12.25,12.25,0,0,1,4.42-2l.3-.09a1.22,1.22,0,0,0,.34-.2.91.91,0,0,0,.16-.18l.06-.1a1,1,0,0,0,.1-.35s0-.08,0-.13h0s0-.09,0-.14a2,2,0,0,0,0-.23q0-.12-.07-.25l-.13-.39h0l-.07-.23h0l-.05-.17h0l-.1-.34h0l0-.07h0l-.11-.41h0l-.15,0a18.21,18.21,0,0,0-2,.46q-.52.15-1,.34l-.5.19-.08,0c-.72.36-1.42.72-2.1,1.14q-.51.32-1,.67l-.42.31q-.77.62-1.5,1.29a44.76,44.76,0,0,0-3.28,3.41,28.75,28.75,0,0,1-6.93,6.23,14.54,14.54,0,0,1-4.34,1.66l-.22,0h0c-.53.71-1.13,1.4-1.73,2.15h0l-.19.24-.12.15h0l-.21.28h0l-.1.14-.31.43h0a23.81,23.81,0,0,0,3.83-.3q.91-.15,1.77-.38a15.89,15.89,0,0,0,4-1.69,17.09,17.09,0,0,0,3.56-2.85c.48-.49.94-1,1.39-1.54l.34-.4.34-.4.67-.81.67-.81.34-.4.52-.61.46-.53q.37-.41.75-.81l.18-.19.55-.55Q433.47,51.19,433.87,50.86Z"/><path class="cls-2" d="M709.58,187.91h-.63l-1.29-.06-.56,0-.56,0-.83-.07-.26,0c-.08,0-.65-.18-4.25-1.42l-.09,0c-.08.88-.26,4.66,2.47,5.86h0l.37,0,1.23.07h.18l1.94.1,1,0h0c1.24.06,2.64.15,4.08.14.76,0,1.46,0,2.15-.06l.54,0-.65-.33c-.23-.13-.46-.26-.67-.41s-.4-.28-.59-.42-.36-.29-.52-.44l-.46-.45-.42-.45-.2-.23-.37-.45-1-1.3A4.78,4.78,0,0,1,709.58,187.91Z"/><path class="cls-2" d="M758.51,238.17a2.32,2.32,0,0,0,0-.24,3.09,3.09,0,0,0-.22-.72,5.16,5.16,0,0,0-.24-.48c-.18-.32-.39-.64-.59-.93a2.48,2.48,0,0,0-2.26-1.29,3,3,0,0,0-.71.14,13.35,13.35,0,0,0-1.27.46c-.28.12-.55.25-.81.38a11.39,11.39,0,0,0-1.16.69,3.86,3.86,0,0,1-.39.23l-.17.09-.35.19c-.78.42-1.3.69-1.76.88l-.25.1-.47.16-.44.1a2.5,2.5,0,0,1-2.12-.6l-.38-.33c-.19-.18-.38-.38-.6-.62s-.55-.63-.91-1.08-.84-1-1.32-1.59c-.89-1-1.8-2.07-2.73-3.11l-.27-.3L738,229a8.48,8.48,0,0,1-1.32-2c-.08-.17-.16-.35-.23-.53a7.41,7.41,0,0,1-.43-1.64,51.41,51.41,0,0,0-2.21-8.68l-.36-1.11-.56-1.74-.3-1c-.34-1.09-.61-2-.84-2.88-.68-2.56-1.56-5.94-2.43-9.33a10.07,10.07,0,0,0-1.65-3.6,7.14,7.14,0,0,0-1.09-1.16,6.43,6.43,0,0,0-1.34-.87,6.72,6.72,0,0,0-1.59-.53,12.58,12.58,0,0,0-2.53-.23h0l-.88,0c-.42,0-.86.05-1.33.1l-.89.1-1.33.19a38,38,0,0,1-6.54.41c-1.31,0-2.68-.12-4.09-.27-.8-.09-1.62-.19-2.45-.32a4.07,4.07,0,0,1-.55-.12l-.26-.09a4.05,4.05,0,0,1-.7-.35,5.73,5.73,0,0,1-1.17-1l-.34-.38-.33-.4-.59-.75a36.3,36.3,0,0,1-2.12-3.16c-.45-.74-.91-1.55-1.41-2.48l-.31-.56-.3-.51c-.1-.16-.2-.31-.31-.46l-.16-.22c-.11-.14-.22-.28-.34-.4s-.24-.26-.37-.37l-.2-.18a6.55,6.55,0,0,0-.94-.65,1.79,1.79,0,0,0-.67-.2,4.19,4.19,0,0,0-1.08,0,6.64,6.64,0,0,0-1.19.28l-.19.07a5,5,0,0,0-1.49.83,2,2,0,0,0-.47.57q-.08.16-.15.32a5.92,5.92,0,0,0,.44,4.9c.87,1.9,1.86,3.89,3.21,6.45.61,1.16,1.23,2.32,1.86,3.48l.18.34a7.85,7.85,0,0,0,5.31,3.74c1.2.32,2.43.57,3.62.81s2.7.56,4,.93l.3.09a3.76,3.76,0,0,1,2.75,3.31q0,.6.08,1.2c.12,1.74.3,3.64.57,6,.14,1.22.29,2.44.44,3.67.33,2.72.68,5.53.91,8.31a36.76,36.76,0,0,0,1.46,6.85,55.16,55.16,0,0,1,1.37,8.13q.07.57.13,1.16c.18,1.65.36,3.47.55,5.58l.11,1.29.11,1.29q.08,1,.16,1.94c.15,1.93.3,3.84.44,5.64l.09,1.19c.18,2.38.34,4.48.49,6.19.06.72.12,1.37.18,1.94,0,.12,0,.23,0,.34a6.17,6.17,0,0,0,.34,1.4l.09.23c0,.1.1.2.15.3a3.21,3.21,0,0,0,.44.61l.14.14a2.92,2.92,0,0,0,.3.24,3.17,3.17,0,0,0,.67.36l.37.13a5,5,0,0,0,.59.13l.41.05a11.52,11.52,0,0,0,1.32,0,4.59,4.59,0,0,0,2.21-.49,2.47,2.47,0,0,0,.3-.2,2.35,2.35,0,0,0,.26-.23,2.45,2.45,0,0,0,.22-.27,2.73,2.73,0,0,0,.19-.3,3.45,3.45,0,0,0,.22-.52c0-.13.08-.26.11-.4a6.51,6.51,0,0,0,.12-.66q0-.24,0-.49c0-.08,0-.17,0-.26s0-.36,0-.55,0-.19,0-.29c-.06-3.29-.51-8.94-.94-14.39-.08-1-.16-2.06-.24-3.06q-.06-.81-.12-1.6c-.09-1.22-.18-2.39-.25-3.48,0-.62-.08-1.21-.11-1.77q0-.42,0-.81a30.1,30.1,0,0,1,0-3.68,5.44,5.44,0,0,1,.61-2.25,2.54,2.54,0,0,1,.36-.48,2.21,2.21,0,0,1,.75-.51,3.27,3.27,0,0,1,1.44-.2,6.53,6.53,0,0,1,2.06,1.08l.59.44c.29.22.6.47.92.75l.31.27.64.57.64.59.64.61.94.93.61.62.58.61c.45.48.9,1,1.31,1.43,1.19,1.32,2.4,2.58,3.61,3.75a3.41,3.41,0,0,0,3.37.84,30.73,30.73,0,0,0,3.39-1.05l.82-.32c.53-.21,1.07-.45,1.61-.7.77-.35,1.55-.74,2.37-1.17s1.5-.82,2.31-1.29,1.44-.86,2.28-1.38a6.47,6.47,0,0,0,1.25-1c.17-.18.35-.38.54-.61l.51-.64a2.55,2.55,0,0,0,.42-.77A2,2,0,0,0,758.51,238.17Z"/><path class="cls-2" d="M712.1,175.58l-.17.33a8.58,8.58,0,0,0-.47,1.22q-.07.23-.13.47c-.06.24-.12.5-.17.76s-.07.35-.09.53-.05.37-.07.55-.06.58-.07.86q0,.15,0,.3t0,.6c0,.31,0,.62,0,.92s.05.62.09.93l0,.31q0,.31.12.62t.15.62q.08.31.18.61c.1.31.21.61.34.9s.18.4.27.59.2.39.31.57.23.38.35.56a9.71,9.71,0,0,0,4.86,3.67,4.85,4.85,0,0,0,.83.32,5.91,5.91,0,0,0,.81.17,7.2,7.2,0,0,0,.75.06h.75a18.05,18.05,0,0,0,7.11-1.29l.44-.2a7.88,7.88,0,0,0,.83-.47,8.08,8.08,0,0,0,.76-.55l.35-.31a8.57,8.57,0,0,0,.65-.67,9.25,9.25,0,0,0,.58-.74,11.36,11.36,0,0,0,1.34-2.57,15,15,0,0,0,1.13-5.16,8.91,8.91,0,0,0-.91-4.06,9.45,9.45,0,0,0-2.73-3.43c-.19-.16-.4-.31-.6-.45l-.64-.42-.67-.38-.35-.17-.71-.32-.73-.28-.75-.24-.38-.1-.77-.18-.39-.07-.79-.11-.79-.06-.71,0H722a12.46,12.46,0,0,0-3.51.51l-.74.25c-.25.09-.49.2-.72.3a10.36,10.36,0,0,0-1.7,1,10,10,0,0,0-1.78,1.65c-.18.21-.36.44-.52.67a10.76,10.76,0,0,0-.69,1.11Z"/><path class="cls-1" d="M758.16,233.38c-1.67-1.54-3.56-1.14-5.18-.54a14.87,14.87,0,0,0-2.48,1.28,12.28,12.28,0,0,1-3,1.44c-.6.17-.86.11-1.21-.25a65.08,65.08,0,0,1-7.46-9.15,10.25,10.25,0,0,1-1.26-4.22c-.1-.7-.21-1.43-.38-2.12-.49-2-1.17-4-1.82-5.89a58.74,58.74,0,0,1-2.09-7.11,62.75,62.75,0,0,0-2.4-8.21c-.66-1.88-1.47-4.2-3.93-5.31a11,11,0,0,0,5.67-3.45A15,15,0,0,0,736,178.08a12,12,0,0,0-5.86-8.21c-3.68-2.25-8.76-2.89-12.37-1.57-11.29,4.14-8.5,16-8.47,16.1l0,.07c.19.77.34,1.37.16,1.55s-.47.11-1,0a14.37,14.37,0,0,0-1.63-.29,14.1,14.1,0,0,1-3-.66l-.19-.07a10.83,10.83,0,0,1-2.85-1.24.22.22,0,0,0-.23-.1c-.25.05-.37.53-.68,2.15-.1.51-.22,1.18-.32,1.48-.27-.5-.5-1-.76-1.53-.14-.29-.28-.57-.43-.85s-.31-.55-.48-.81l-.26-.39a11.69,11.69,0,0,0-1.16-1.43l-.33-.33c-.22-.22-.46-.42-.7-.61a10.49,10.49,0,0,0-1.6-1.06c-2-1.1-5.61-.25-7.07,1.68a8.27,8.27,0,0,0-.48.71c-.09.16-.18.31-.26.47a6.1,6.1,0,0,0-.38.94l-.07.24c0,.15-.07.31-.1.47a8.34,8.34,0,0,0,1,4.92l.47,1c.34.71.7,1.42,1.06,2.13.61,1.22,1.24,2.47,1.8,3.73q.22.49.42,1c.18.45.39.89.6,1.3a12.37,12.37,0,0,0,1.51,2.25,11.2,11.2,0,0,0,2.46,2.16,12.39,12.39,0,0,0,1.78,1c.42.18.86.35,1.32.5l.46.14.92.24.47.11c.44.1.9.18,1.41.27.66.11,3.92.78,4.42.9,1,.27,2,.65,2.07,1.64.2,5,2.36,22.77,3.33,26.55a62.88,62.88,0,0,1,1.21,6.55c.13.86.26,1.74.4,2.61.77,4.7,1.5,14.22,2,20.53.24,3.14.41,5.41.51,6a5.31,5.31,0,0,0,2.32,3.41,9.61,9.61,0,0,0,3.7.79,13.56,13.56,0,0,0,2.54-.28,4.23,4.23,0,0,0,3.83-4.36,90.27,90.27,0,0,0-.41-9.3c-.06-.8-.13-1.59-.18-2.39-.11-1.45-.31-3.36-.54-5.38-.68-6.2-1.61-14.69,0-15.38.74-.33,7,6.11,9.73,8.85l1.11,1.14c2.85,2.88,4.22,3.22,8.19,2A57,57,0,0,0,756.83,244a8.12,8.12,0,0,0,3.75-4.48C761.42,236.83,759.73,234.83,758.16,233.38Zm-.67,6.93c-.19.23-.37.43-.54.61a6.47,6.47,0,0,1-1.25,1c-.83.52-1.58,1-2.28,1.38s-1.57.9-2.31,1.29-1.59.82-2.37,1.17c-.54.25-1.09.48-1.61.7l-.82.32a30.73,30.73,0,0,1-3.39,1.05,3.41,3.41,0,0,1-3.37-.84c-1.21-1.16-2.42-2.42-3.61-3.75-.42-.46-.86-.94-1.31-1.43l-.58-.61-.61-.62-.94-.93-.64-.61-.64-.59-.64-.57-.31-.27c-.32-.27-.63-.53-.92-.75l-.59-.44a6.53,6.53,0,0,0-2.06-1.08,3.27,3.27,0,0,0-1.44.2,2.21,2.21,0,0,0-.75.51,2.54,2.54,0,0,0-.36.48,5.44,5.44,0,0,0-.61,2.25,30.1,30.1,0,0,0,0,3.68q0,.39,0,.81c0,.56.07,1.15.11,1.77.07,1.08.16,2.25.25,3.48q.06.79.12,1.6c.08,1,.16,2,.24,3.06.43,5.46.87,11.1.94,14.39q0,.14,0,.29t0,.55c0,.09,0,.17,0,.26s0,.33,0,.49a6.51,6.51,0,0,1-.12.66c0,.14-.07.27-.11.4a3.45,3.45,0,0,1-.22.52,2.73,2.73,0,0,1-.19.3,2.45,2.45,0,0,1-.22.27,2.35,2.35,0,0,1-.26.23,2.47,2.47,0,0,1-.3.2,4.59,4.59,0,0,1-2.21.49,11.52,11.52,0,0,1-1.32,0l-.41-.05a5,5,0,0,1-.59-.13l-.37-.13a3.17,3.17,0,0,1-.67-.36,2.92,2.92,0,0,1-.3-.24l-.14-.14a3.21,3.21,0,0,1-.44-.61c-.05-.09-.1-.19-.15-.3l-.09-.23a6.17,6.17,0,0,1-.34-1.4c0-.11,0-.22,0-.34-.06-.57-.12-1.22-.18-1.94-.15-1.71-.31-3.82-.49-6.19L716,259c-.14-1.8-.28-3.71-.44-5.64q-.08-1-.16-1.94l-.11-1.29-.11-1.29c-.19-2.11-.37-3.93-.55-5.58q-.07-.59-.13-1.16a55.16,55.16,0,0,0-1.37-8.13,36.76,36.76,0,0,1-1.46-6.85c-.23-2.78-.58-5.59-.91-8.31-.15-1.22-.3-2.44-.44-3.67-.27-2.35-.45-4.25-.57-6q0-.6-.08-1.2a3.76,3.76,0,0,0-2.75-3.31l-.3-.09c-1.34-.37-2.71-.65-4-.93s-2.43-.5-3.62-.81a7.85,7.85,0,0,1-5.31-3.74l-.18-.34c-.62-1.16-1.24-2.32-1.86-3.48-1.35-2.56-2.34-4.55-3.21-6.45a5.92,5.92,0,0,1-.44-4.9q.07-.16.15-.32a2,2,0,0,1,.47-.57,5,5,0,0,1,1.49-.83l.19-.07a6.64,6.64,0,0,1,1.19-.28,4.19,4.19,0,0,1,1.08,0,1.79,1.79,0,0,1,.67.2,6.55,6.55,0,0,1,.94.65l.2.18c.13.12.25.24.37.37s.23.26.34.4l.16.22c.11.15.21.3.31.46l.3.51.31.56c.5.93,1,1.74,1.41,2.48a36.3,36.3,0,0,0,2.12,3.16l.59.75.33.4.34.38a5.73,5.73,0,0,0,1.17,1,4.05,4.05,0,0,0,.7.35l.26.09a4.07,4.07,0,0,0,.55.12c.83.13,1.65.23,2.45.32,1.4.15,2.78.24,4.09.27a38,38,0,0,0,6.54-.41L718,194l.89-.1c.47,0,.91-.08,1.33-.1l.88,0h0a12.58,12.58,0,0,1,2.53.23,6.72,6.72,0,0,1,1.59.53,6.43,6.43,0,0,1,1.34.87,7.14,7.14,0,0,1,1.09,1.16,10.07,10.07,0,0,1,1.65,3.6c.86,3.39,1.75,6.77,2.43,9.33.23.87.5,1.79.84,2.88l.3,1,.56,1.74.36,1.11a51.41,51.41,0,0,1,2.21,8.68,7.41,7.41,0,0,0,.43,1.64c.07.18.14.35.23.53a8.48,8.48,0,0,0,1.32,2l1.11,1.24.27.3c.93,1,1.84,2.06,2.73,3.11.48.56.91,1.08,1.32,1.59s.65.79.91,1.08.42.45.6.62l.38.33a2.5,2.5,0,0,0,2.12.6l.44-.1.47-.16.25-.1c.45-.19,1-.46,1.76-.88l.35-.19.17-.09a3.86,3.86,0,0,0,.39-.23,11.39,11.39,0,0,1,1.16-.69c.26-.13.53-.26.81-.38a13.35,13.35,0,0,1,1.27-.46,3,3,0,0,1,.71-.14,2.48,2.48,0,0,1,2.26,1.29c.2.3.41.61.59.93a5.16,5.16,0,0,1,.24.48,3.09,3.09,0,0,1,.22.72,2.32,2.32,0,0,1,0,.24,2,2,0,0,1-.09.74,2.55,2.55,0,0,1-.42.77ZM713,174.17c.16-.23.34-.45.52-.67a10,10,0,0,1,1.78-1.65,10.36,10.36,0,0,1,1.7-1c.23-.11.48-.21.72-.3l.74-.25a12.46,12.46,0,0,1,3.51-.51H722l.71,0,.79.06.79.11.39.07.77.18.38.1.75.24.73.28.71.32.35.17.67.38.64.42c.21.14.41.3.6.45a9.45,9.45,0,0,1,2.73,3.43,8.91,8.91,0,0,1,.91,4.06,15,15,0,0,1-1.13,5.16,11.36,11.36,0,0,1-1.34,2.57,9.25,9.25,0,0,1-.58.74,8.57,8.57,0,0,1-.65.67l-.35.31a8.08,8.08,0,0,1-.76.55,7.88,7.88,0,0,1-.83.47l-.44.2a18.05,18.05,0,0,1-7.11,1.29H720a7.2,7.2,0,0,1-.75-.06,5.91,5.91,0,0,1-.81-.17,4.85,4.85,0,0,1-.83-.32,9.71,9.71,0,0,1-4.86-3.67c-.12-.18-.24-.36-.35-.56s-.21-.38-.31-.57-.19-.39-.27-.59-.24-.6-.34-.9-.13-.41-.18-.61-.1-.41-.15-.62-.08-.41-.12-.62l0-.31c0-.3-.07-.62-.09-.93s0-.61,0-.92,0-.4,0-.6,0-.2,0-.3c0-.29,0-.58.07-.86s0-.37.07-.55.06-.36.09-.53.11-.51.17-.76.09-.32.13-.47a8.58,8.58,0,0,1,.47-1.22l.17-.33.19-.3A10.76,10.76,0,0,1,713,174.17Zm-1.76,15,.37.45.2.23.42.45.46.45c.17.15.34.3.52.44s.39.29.59.42.44.28.67.41l.65.33-.54,0c-.69,0-1.39.06-2.15.06-1.45,0-2.85-.07-4.08-.14h0l-1,0-1.94-.1h-.18l-1.23-.07-.37,0h0c-2.73-1.19-2.55-5-2.47-5.86l.09,0c3.6,1.24,4.17,1.41,4.25,1.42l.26,0,.83.07.56,0,.56,0,1.29.06h.63a4.78,4.78,0,0,0,.61,0Z"/><path class="cls-1" d="M766.66,235.78a10.7,10.7,0,0,0-6.09-7l-.32-.11-.12,0h-.07a1.07,1.07,0,0,0-.93.51c-.27.53.1.81.36,1l.08.07c.31.25.63.49.95.72a10.87,10.87,0,0,1,2.15,1.9c1.95,2.45,2.53,4.73,1.82,7.18-.11.4-.29,1,.37,1.27a.85.85,0,0,0,.33.07c.4,0,.62-.35.79-.61l.06-.09A5.78,5.78,0,0,0,766.66,235.78Z"/><path class="cls-1" d="M738.11,271.23c-.55,0-1.1,0-1.64,0h-.71a23.71,23.71,0,0,0-4.11.32h-.09c-.39.06-1,.16-1,.74s.51.71.88.77l.16,0a13.87,13.87,0,0,0,2.82.25c.56,0,1.13,0,1.68,0s1.4,0,2.1,0a1.16,1.16,0,0,0,.88-.3.88.88,0,0,0,.24-.67A1,1,0,0,0,738.11,271.23Z"/><path class="cls-1" d="M684.25,191.25a7.48,7.48,0,0,1-1.13-1.74,7,7,0,0,1-.55-1.82q0-.13,0-.27a8.59,8.59,0,0,1-.07-1.08q0-.27,0-.55c0-.35.06-.73.11-1.11q0-.28.09-.56c.07-.36.15-.74.25-1.14l.07-.29a5.3,5.3,0,0,0,.11-.6l0-.2a1.82,1.82,0,0,0,0-.76l0-.1a.82.82,0,0,0-.11-.19.93.93,0,0,0-.64-.33l-.24,0-.22,0a1,1,0,0,0-.64.49,2.27,2.27,0,0,0-.19.43,8.42,8.42,0,0,0-.27,1,19.34,19.34,0,0,0-.3,2.27c0,.31-.06.61-.09.91s-.08.64-.13.91v0q0,.23,0,.44a7.39,7.39,0,0,0,1.32,3.4,11.31,11.31,0,0,0,1.6,1.8l.1.09a1.64,1.64,0,0,0,.31.23.82.82,0,0,0,.24.08h.18a.58.58,0,0,0,.18-.06.71.71,0,0,0,.17-.12.67.67,0,0,0,0-1Z"/><path class="cls-2" d="M571.52,16.14a26,26,0,0,0-4.79-.42A26,26,0,0,1,571.52,16.14Z"/><path class="cls-2" d="M548.63,18.46l-.82.15Z"/><path class="cls-2" d="M565.76,15.73q-1,0-2,.14Q564.79,15.77,565.76,15.73Z"/><path class="cls-2" d="M575,17c-.52-.18-1-.34-1.56-.48C573.93,16.7,574.45,16.87,575,17Z"/><path class="cls-2" d="M547,23.1a34.85,34.85,0,0,0,3.67,2.25q1.28.41,2.59.69c4.11.27,8.27,0,12.38.2a106.84,106.84,0,0,1,14.44,1.53q0-1.11.08-2.21c0-.21,0-.42,0-.62,0,.21,0,.42,0,.62-.09,2.54-.19,5.09-.28,7.59-.51,0-.75.11-.91,0-6.56-3.09-13.57-3-20.51-2.47-4.46.35-8.89.93-13.37,1-2.49,0-4.83-.65-7.35-1,.51-1.35,1.54-1.41,2.32-1.84a20.29,20.29,0,0,0,2.4-1.46c1.74-1.31,1.61-2.1-.33-3A24.4,24.4,0,0,1,534,18.69a41.52,41.52,0,0,0,8.52.49h0C544,20.5,545.51,21.83,547,23.1Z"/><path class="cls-2" d="M576.74,17.72q-.55-.24-1.11-.44Q576.18,17.49,576.74,17.72Z"/><path class="cls-2" d="M546.61,18.79l-.43.06Z"/><path class="cls-2" d="M545.75,18.9l-.37,0Z"/><path class="cls-2" d="M544.08,19.08h0Z"/><path class="cls-2" d="M544.91,19l-.29,0Z"/><path class="cls-2" d="M547.5,18.65l-.51.08Z"/><path class="cls-2" d="M606.9,46.5c-4.81-2.07-6-6.08-6.24-10.45-.11-4.66,2.81-8.19,6.73-9.91,5.16-2.27,14.76-.11,15.84,8,.53,4.5-.71,8.2-3.31,10.39A11.83,11.83,0,0,1,606.9,46.5Z"/><path class="cls-2" d="M580.25,23.06c0,.42,0,.83,0,1.25,0,.21,0,.42,0,.62s0,.42,0,.62q0,1.11-.08,2.21a106.84,106.84,0,0,0-14.44-1.53c-4.1-.18-8.27.07-12.38-.2q-1.31-.29-2.59-.69A34.85,34.85,0,0,1,547,23.1c-1.53-1.27-3-2.59-4.5-3.92h0l1.51-.1h0l.55-.05.29,0,.48-.05.37,0,.43-.06.43-.06.38-.06.51-.08.3,0,.82-.15q6.59-1.24,13.22-2.32,1-.16,2-.26t2-.14l1,0a26,26,0,0,1,4.79.42q.95.18,1.89.43c.52.14,1,.3,1.56.48l.66.24q.55.21,1.11.44l.39.17c.51.23.94.43,1.31.61l.41.22a3.81,3.81,0,0,1,.88.64,1.93,1.93,0,0,1,.27.35,2,2,0,0,1,.22.56l0,.16a4.19,4.19,0,0,1,.06.55q0,.1,0,.21C580.34,21.68,580.3,22.29,580.25,23.06Z"/><path class="cls-2" d="M629.59,87.48c-1.35-.88-2.16-1.37-2.2-15.23a10,10,0,0,0-2.74-7.11c-.61-.69-1.33-1.44-2.42-1a2,2,0,0,0-1.15,2.06c-.06,3-.14,6-.09,9.06,0,1.13.28,2.43,1.64,2.75a4.1,4.1,0,0,1,3.29,3.88c.18,3.32.36,6.11,3.5,7.69a1.32,1.32,0,0,1,.78,1.77,13,13,0,0,1-.81,2.36c-2,3.67-3.94,7.34-5.66,11.14a10,10,0,0,1-1.59,2.31c-1.7,2-2.87,2.22-4.86,1.11a4.3,4.3,0,0,1-2.13-5.27c.5-1.48,3.33-7.87,4-9.84a2.74,2.74,0,0,0-.51-3.2c-2.65-2.35-4.09-4.27-6.93-6.37-2.13-1.57-4.57-2-7-.22-1.26.92-2.61,1.72-3.86,2.66-2.65,2-3.22,4.08-1.86,7.1,1.24,2.75,2.63,5.44,3.92,8.17a21.4,21.4,0,0,1,1.43,3.46,3.42,3.42,0,0,1-3.67,4.46,4.16,4.16,0,0,1-3.28-2c-3.38-4.43-5.6-9.49-8.2-14.36-1.91-3.58-1.1-6.6,1-9.61a41.8,41.8,0,0,1,5.53-5.93,7.47,7.47,0,0,0,2.41-3.57,60.84,60.84,0,0,0,1.16-10.55c.16-2.4-1.44-3.48-3.64-2.54s-4.28.82-6.38,1.4a3.32,3.32,0,0,1-3.57-1.42c-1.31-1.62-2.61-3.24-3.84-4.93A52.53,52.53,0,0,1,577,48a4.13,4.13,0,0,1,.06-4.29,3.9,3.9,0,0,1,3.6-1.82A4.89,4.89,0,0,1,584,44.45c.74,1.25,1.57,2.47,2.21,3.77,1.16,2.36,3,3,5.45,2.47,1.63-.36,3.25-.75,4.86-1.16,3.34-.83,6.73-1.9,10.14-1a18.6,18.6,0,0,0,8.93.55,13.27,13.27,0,0,1,7.23,1.33,19.25,19.25,0,0,1,4.72,4C630,58,632,61.94,634.17,65.74c1.73,3,3.1,4.76,1.5,18.95C635.06,88.26,632.66,89.47,629.59,87.48Z"/><path class="cls-1" d="M535.39,22.51c1.58,1.18,3.25,2.23,5.17,3.54a10,10,0,0,1-5.68,2.34c-.52,0-1-.06-1.56-.06s-1.35-.28-1.65.46.41,1.38,1,1.77a18.1,18.1,0,0,0,7.54,2.8c6.28,1.15,12.46-.12,18.68-.62a54.57,54.57,0,0,1,15.25.71,17.43,17.43,0,0,1,4.37,1.67,3.1,3.1,0,0,1,1.85,3.28c-.06,1.13-.26,1.73-1.62,2.11-3.8,1.05-5.21,4.62-3.36,8.14a51.2,51.2,0,0,0,3.47,5.57,6.86,6.86,0,0,1,1.6,4c-.05,4.17.72,25.29.85,26.85.09,1.13.31,4.34.36,5.38.65.51,1.13.49,1.42.17a1.21,1.21,0,0,0,.26-.6,2.46,2.46,0,0,0,0-.62,3,3,0,0,1,.06-1,13.44,13.44,0,0,0,0-3c-.53-10.51-1.15-15.76-1.06-25.95,1,1.06,1.66,1.69,2.2,2.43a5,5,0,0,0,5.8,1.88c1.7-.45,3.4-.91,5.11-1.34,1.87-.47,2.23-.26,2.2,1.75a39.59,39.59,0,0,1-1.07,8.66A5.78,5.78,0,0,1,594.71,76a35.44,35.44,0,0,0-4,3.73c-3.3,3.9-4.19,6.81-4.28,8.05a7.53,7.53,0,0,0,.2,3.46c.14.27,1.82,3.93,2.17,4.59.71,1.34,1.37,2.7,2,4.07a55.39,55.39,0,0,0,5.67,9c2,2.75,4.56,3.23,7.35,1.57,3.16-1.87,3.73-3.65,2.21-7-.51-1.14-1.11-2.24-1.64-3.37-1.24-2.64-2.43-5.3-3.72-7.92a4,4,0,0,1-.46-2c0-.07,0-.13,0-.2v0q0-.09,0-.18v0l0-.16,0,0,.05-.15,0-.07.06-.13,0-.08.06-.1.07-.11.05-.08.14-.18a8,8,0,0,1,.87-.87l.42-.34.44-.32.28-.18.5-.3.6-.33.43-.22.74-.36.59-.28.89-.43.89-.46a1.07,1.07,0,0,1,.85-.36h0a3.29,3.29,0,0,1,1.59.63l.25.17c.25.18.51.38.78.6,1.31,1.08,2.71,2.55,3.79,3.49l.21.18.38.32.08.07c2.72,2.32,2.43,2.86.66,6.37a65.09,65.09,0,0,0-2.79,7.43c-.43,1.83-.44,3.2,1,4.84,2.8,3.19,7,3.68,9.42.08A87.93,87.93,0,0,0,631.45,93a11.67,11.67,0,0,0,.94-2.84c4-.62,4.42-1.92,4.87-5.06a65.33,65.33,0,0,0,.61-12.15c-.08-1.92-.31-4.39-1.27-6-2.77-4.77-4.48-8.9-7.8-13.35a19,19,0,0,0-6.67-5.42c-2-1-2.87-.57-1.21-2,3.83-3.3,4.83-8.07,3.88-12.6-1.72-8.26-8.85-10.46-14.69-10.07-6.43.43-12.28,7.68-11.09,14.32a21.46,21.46,0,0,0,1.18,4.2A42.65,42.65,0,0,0,602.37,46c-3.88,1-7.65,2-11.45,2.89-1.5.36-2.51-.4-3.37-1.68-1.55-2.32-2.52-5.06-5-6.75-.79-.54-.43-1.54-.43-2.35,0-6-.69-12.08.33-18.1.22-1.27-.79-1.85-1.63-2.45a22.84,22.84,0,0,0-12.06-3.82c-4.62-.29-9.16.54-13.66,1.42a92.1,92.1,0,0,1-16.39,2.14,15,15,0,0,1-7.44-2c-.45-.25-.86-.68-1.38-.24a1.21,1.21,0,0,0-.17,1.68A19.46,19.46,0,0,0,535.39,22.51Zm84.53,22a11.83,11.83,0,0,1-13,2c-4.81-2.07-6-6.08-6.24-10.45-.11-4.66,2.81-8.19,6.73-9.91,5.16-2.27,14.76-.11,15.84,8C623.76,38.63,622.52,42.33,619.92,44.52Zm-39.28-2.64A4.89,4.89,0,0,1,584,44.45c.74,1.25,1.57,2.47,2.21,3.77,1.16,2.36,3,3,5.45,2.47,1.63-.36,3.25-.75,4.86-1.16,3.34-.83,6.73-1.9,10.14-1a18.6,18.6,0,0,0,8.93.55,13.27,13.27,0,0,1,7.23,1.33,19.25,19.25,0,0,1,4.72,4C630,58,632,61.94,634.17,65.74c1.73,3,3.1,4.76,1.5,18.95-.61,3.58-3,4.79-6.08,2.79-1.35-.88-2.16-1.37-2.2-15.23a10,10,0,0,0-2.74-7.11c-.61-.69-1.33-1.44-2.42-1a2,2,0,0,0-1.15,2.06c-.06,3-.14,6-.09,9.06,0,1.13.28,2.43,1.64,2.75a4.1,4.1,0,0,1,3.29,3.88c.18,3.32.36,6.11,3.5,7.69a1.32,1.32,0,0,1,.78,1.77,13,13,0,0,1-.81,2.36c-2,3.67-3.94,7.34-5.66,11.14a10,10,0,0,1-1.59,2.31c-1.7,2-2.87,2.22-4.86,1.11a4.3,4.3,0,0,1-2.13-5.27c.5-1.48,3.33-7.87,4-9.84a2.74,2.74,0,0,0-.51-3.2c-2.65-2.35-4.09-4.27-6.93-6.37-2.13-1.57-4.57-2-7-.22-1.26.92-2.61,1.72-3.86,2.66-2.65,2-3.22,4.08-1.86,7.1,1.24,2.75,2.63,5.44,3.92,8.17a21.4,21.4,0,0,1,1.43,3.46,3.42,3.42,0,0,1-3.67,4.46,4.16,4.16,0,0,1-3.28-2c-3.38-4.43-5.6-9.49-8.2-14.36-1.91-3.58-1.1-6.6,1-9.61a41.81,41.81,0,0,1,5.53-5.93,7.47,7.47,0,0,0,2.41-3.57,60.84,60.84,0,0,0,1.16-10.55c.16-2.4-1.44-3.48-3.64-2.54s-4.28.82-6.38,1.4a3.32,3.32,0,0,1-3.57-1.42c-1.31-1.62-2.61-3.24-3.84-4.93A52.53,52.53,0,0,1,577,48a4.13,4.13,0,0,1,.06-4.29A3.9,3.9,0,0,1,580.64,41.89ZM626,78.23c-.8-1.66-3.4-1.45-3.45-2.61-.11-2.82-.66-10.32.55-9.73C627,69.43,626.32,72.14,626,78.23ZM542.15,24.35A24.4,24.4,0,0,1,534,18.69a41.52,41.52,0,0,0,8.52.49l1.51-.1h0l.55-.05.29,0,.48-.05.37,0,.43-.06.43-.06.38-.06.51-.08.3,0,.82-.15q6.59-1.24,13.22-2.32,1-.16,2-.26t2-.14l1,0a26,26,0,0,1,4.79.42q.95.18,1.89.43c.52.14,1,.3,1.56.48l.66.24q.55.21,1.11.44l.39.17c.51.23.94.43,1.31.61l.41.22a3.81,3.81,0,0,1,.88.64,1.92,1.92,0,0,1,.27.35,2,2,0,0,1,.22.56l0,.16a4.2,4.2,0,0,1,.06.55q0,.1,0,.21c0,.5,0,1.11-.08,1.87,0,.42,0,.83,0,1.25,0,.21,0,.42,0,.62s0,.42,0,.62c-.09,2.54-.19,5.09-.28,7.59-.51,0-.75.11-.91,0-6.56-3.09-13.57-3-20.51-2.47-4.46.35-8.89.93-13.37,1-2.49,0-4.83-.65-7.35-1,.51-1.35,1.54-1.41,2.32-1.84a20.28,20.28,0,0,0,2.4-1.46C544.22,26,544.09,25.26,542.15,24.35Z"/><path class="cls-1" d="M540.66,38.31c.62,0,1.25,0,1.87,0,.43,0,.82.15.85.69a1.08,1.08,0,0,1-.59,1,4.34,4.34,0,0,1-2.44.36,20.82,20.82,0,0,1-11.07-3.74,9.2,9.2,0,0,1-1.36-1.26.66.66,0,0,1,0-.85.56.56,0,0,1,.81-.16c.81.47,1.61,1,2.42,1.43A20.3,20.3,0,0,0,540.66,38.31Z"/><path class="cls-2" d="M655.27,44.26c8.52-1.41,11.32-7.95,9.39-14.85-1.12-4-5.26-8.15-12.07-7.47-7.29.72-9.78,5.56-9.9,11.49A10.46,10.46,0,0,0,655.27,44.26Z"/><path class="cls-2" d="M668.1,107.7c2.7.33,4-1.75,4.62-4.09a36.32,36.32,0,0,0,.73-4.37c.84-5.86,1.66-11.72,2.52-17.58.22-1.46.42-3.22,2.08-3.62,1.82-.44,2.79,1.16,3.79,2.39.36.44.6,1,.92,1.44,3.18,4.66,3.33,10.06,3.71,15.4.18,2.61,0,7.64.49,10.24.63,3.07,1.91,2.77,3.9,3a4,4,0,0,0,4.14-3.24,152.6,152.6,0,0,0-1.33-27.94c-.6-4.69-1.24-9.65-4.14-13.61a122.31,122.31,0,0,0-17-19.08c-2.84-2.54-6.25-5.35-8.86-4.13-2.32,1.09-3.56,1.93-6,3-.93.41-.32,2.25-1,3.16,1.73-.91,2.67-1.92,3.83-2.26.75-.22,1.7-1.4,2.29,0,.44,1-.77,1.19-1.43,1.53a36.9,36.9,0,0,0-5.15,2.62c-2.84,2.09-4.9,1.22-6.58-1.36A36.26,36.26,0,0,0,644,42.32c-2.13-2-4.32-2.81-6.71-1.3-2.56,1.63-2.16,4.4-1,6.64,1.29,2.41,2.33,5,4,7.17,6.79,8.84,8.25,11.25,19.22,5.17,2.5-1.39,5.12-2.58,7.9-4,.2,2.66-6,5-7.35,5.65,0,0-.39.53,3,4.11,4,4.16,4.11,8.89,3.7,13.94-.6,7.49-1.73,15-2.42,22.46C664.19,104.86,664.55,107.26,668.1,107.7Z"/><path class="cls-2" d="M657.36,63.16c-.69.38-1.49.79-2.22,1.11-4.55,2-8.6,1.51-11.83-2.52a3.48,3.48,0,0,0-3.11-1.3c-2.09.13-3.71.65-4,2.83s1.39,3.7,3.57,4.28a46.36,46.36,0,0,0,9.43,1c4.49.26,7.55-1.47,10.51-3.08.76-.41.21-.59-.41-1.49C658.82,63.29,658.3,62.65,657.36,63.16Z"/><path class="cls-1" d="M697,99q0-3,0-5.92A106.54,106.54,0,0,0,696,81.44c-1-7-1.56-14.09-6.73-19.67-2.55-2.76-4.76-5.82-7.31-8.59-4.22-4.59-8.09-9.69-14.16-12a8.06,8.06,0,0,0-2.2-.73C667,36.58,668,29.62,664.3,24.78c-4.22-5.26-12.19-6-17.87-2.33-4.59,3-6,8.1-5.4,13.21.23,1.84.46,3.13.46,3.13-6.86-.7-8.81,3.84-7.52,7.9,1.16,3.65,5.19,9,7.22,12.11,0,0-.55-.16-3.08.45-2.11.51-3.86,2-3.85,4.23s1.08,4.79,4,5.38C645.56,70.35,653,72,660,67.34c1.35-.9,2.05-.35,3,.91,2.54,3.22,2.37,6.91,2.08,10.69-.57,7.62-2.13,16.66-2.69,24.28a7.33,7.33,0,0,0,1.21,4.4c2.4,2.47,9.28,2.66,10.15-1.89,1.12-5.81,2.7-16.68,3.57-22.63.14-1,0-2.38,1.15-2.63s2,1,2.64,1.87c1.66,1.86,2.38,4.49,2.88,6.87a52.66,52.66,0,0,1,1,8.67c.11,2.71-.26,11.09,1.35,12.75s5.49,1.85,7.37,1.08C698,110,697,100.82,697,99ZM652.59,21.94c6.81-.67,10.95,3.49,12.07,7.47,1.94,6.9-.87,13.43-9.39,14.85a10.46,10.46,0,0,1-12.58-10.83C642.81,27.5,645.3,22.66,652.59,21.94ZM654,49.75c-2.21.35-3.67-2.15-4.88-4.23,2.05.88,6,.79,6,.79C655.36,47,654.92,49.61,654,49.75Zm5.73,15.77c-3,1.61-6,3.34-10.51,3.08a46.36,46.36,0,0,1-9.43-1c-2.18-.58-3.82-2.12-3.57-4.28s1.88-2.7,4-2.83a3.48,3.48,0,0,1,3.11,1.3c3.23,4,7.28,4.51,11.83,2.52.73-.32,1.53-.73,2.22-1.11.94-.51,1.46.13,2,.87C660,64.93,660.51,65.1,659.75,65.52ZM695,107.26a4,4,0,0,1-4.14,3.24c-2-.23-3.28.07-3.9-3-.53-2.61-.31-7.63-.49-10.24-.37-5.34-.52-10.73-3.71-15.4-.32-.47-.57-1-.92-1.44-1-1.23-2-2.83-3.79-2.39-1.66.41-1.86,2.16-2.08,3.62-.87,5.86-1.68,11.72-2.52,17.58a36.32,36.32,0,0,1-.73,4.37c-.64,2.34-1.92,4.42-4.62,4.09-3.55-.44-3.92-2.84-3.68-5.49.68-7.48,1.82-15,2.42-22.46.4-5.05.27-9.78-3.7-13.94-3.42-3.58-3-4.11-3-4.11,1.35-.69,7.55-3,7.35-5.65-2.78,1.39-5.4,2.58-7.9,4-11,6.08-12.43,3.67-19.22-5.17-1.65-2.14-2.69-4.76-4-7.17-1.2-2.24-1.6-5,1-6.64,2.38-1.51,4.57-.69,6.71,1.3a36.26,36.26,0,0,1,5.54,6.87c1.68,2.57,3.74,3.44,6.58,1.36a36.89,36.89,0,0,1,5.15-2.62c.66-.34,1.87-.5,1.43-1.53-.58-1.37-1.54-.19-2.29,0-1.16.34-2.1,1.35-3.83,2.26.67-.91.06-2.76,1-3.16,2.48-1.09,3.72-1.93,6-3,2.62-1.23,6,1.59,8.86,4.13a122.31,122.31,0,0,1,17,19.08c2.9,4,3.54,8.92,4.14,13.61A152.6,152.6,0,0,1,695,107.26Z"/><path class="cls-1" d="M633.94,36.69c.37-.4,1-.73.66-1.36-.49-.82-1.14-.37-1.75,0-3.64,2-6.12,8.7-2.53,13.08C629.73,41.41,629.8,41.16,633.94,36.69Z"/><path class="cls-1" d="M694.72,60.15c1.77,3.74,4.15,7.23,5,11.4C700.78,67,698.6,62,694.72,60.15Z"/><path class="cls-2" d="M150.45,52.44l0,.41Z"/><path class="cls-2" d="M150.43,52l0,.37Z"/><path class="cls-2" d="M137,52.68a28.82,28.82,0,0,0,13.28-6c0-.95,0-1.83.05-2.55.09-2.06-.77-1.74-2.7-1.67a118.92,118.92,0,0,0-14.38,1.26c-2.91.47-8.55.92-11.37,1,2.58,1.59,12.11,2.94,12.37,4.09s-.71,1.86-1.64,2.42c-1.23.74-3,1.52-4.77,2.42l.7-.35A51.07,51.07,0,0,0,137,52.68Z"/><path class="cls-2" d="M150.32,46.87c0,.09,0,.19,0,.28C150.32,47.06,150.32,47,150.32,46.87Z"/><path class="cls-2" d="M125.76,54.75l.1-.06Z"/><path class="cls-2" d="M126.48,54.37l.21-.11Z"/><path class="cls-2" d="M125,55.17l.15-.09Z"/><path class="cls-2" d="M124.28,55.63l.14-.09Z"/><path class="cls-2" d="M122.91,56.55l.12-.08Z"/><path class="cls-2" d="M127.26,54l.28-.14Z"/><path class="cls-2" d="M123.62,56.05l0,0Z"/><path class="cls-2" d="M150.33,48q0,.17,0,.34Q150.33,48.2,150.33,48Z"/><path class="cls-2" d="M122.24,57.08l.11-.09Z"/><path class="cls-2" d="M150.37,50.3q0,.24,0,.48Q150.38,50.55,150.37,50.3Z"/><path class="cls-2" d="M150.39,50.91v0Z"/><path class="cls-2" d="M150.36,49.79v0Z"/><path class="cls-2" d="M150.32,47.4q0,.16,0,.32Q150.32,47.56,150.32,47.4Z"/><path class="cls-2" d="M150.41,51.43c0,.16,0,.31,0,.46Z"/><path class="cls-2" d="M150.34,49.12q0,.24,0,.48Q150.35,49.36,150.34,49.12Z"/><path class="cls-2" d="M150.34,48.6v0Z"/><path class="cls-2" d="M151,31.84l-.13,0Z"/><path class="cls-2" d="M151.26,31.88h0Z"/><path class="cls-2" d="M155.35,28.11v0Z"/><path class="cls-2" d="M151.58,31.88h0Z"/><path class="cls-2" d="M155.13,27.41l.06.14Z"/><path class="cls-2" d="M150.65,31.79l-.26-.07Z"/><path class="cls-2" d="M154.9,27a2.78,2.78,0,0,1,.18.3A2.75,2.75,0,0,0,154.9,27Z"/><path class="cls-2" d="M155.26,27.72l0,.09Z"/><path class="cls-2" d="M150,31.57l-.17-.09Z"/><path class="cls-2" d="M150.28,31.68l-.17-.07Z"/><path class="cls-2" d="M152.8,29.38a12.22,12.22,0,0,0,2-2.54l.13.17a4.12,4.12,0,0,0-3.26-1.57c-1.57.09-3.25.8-3.19,3.33a3,3,0,0,0,1.41,2.7A12,12,0,0,0,152.8,29.38Z"/><path class="cls-2" d="M150.47,52.85l0-.41v-.12l0-.37v-.07c0-.15,0-.3,0-.46v-.64q0-.24,0-.48v-.7q0-.24,0-.48v-.74q0-.17,0-.34c0-.11,0-.21,0-.32s0-.21,0-.32,0-.17,0-.25,0-.19,0-.28,0-.15,0-.22a28.82,28.82,0,0,1-13.28,6,51.07,51.07,0,0,1-8.47.63l-.7.35-.34.17-.28.14-.57.29-.21.11-.62.33-.1.06-.57.32-.15.09-.62.37-.14.09-.63.41,0,0-.59.42-.12.08-.57.44-.11.09-.56.48c5.29-.34,22.92-1.81,26.23-2.84C149.34,54.27,150.58,54.77,150.47,52.85Z"/><path class="cls-2" d="M152.8,29.38a12,12,0,0,1-3,2.09h0l.17.09.08,0,.17.07.1,0,.26.07.17,0,.13,0,.18,0h.45l.33,0c2,.25,3.46-1,3.47-3.33a2.57,2.57,0,0,0,0-.33v-.09a2.47,2.47,0,0,0-.06-.29l0-.09-.07-.18-.06-.14,0-.08a2.78,2.78,0,0,0-.18-.3v0l-.13-.17A12.22,12.22,0,0,1,152.8,29.38Z"/><path class="cls-1" d="M120,59.48c12.5-1.31,16.78-1.25,26.19-2.57,3.35-.47,4.17-1.33,4.11,2.14-.26,14.49.42,31-.22,45.46-.06,1.29-.69,2.81.84,4,1.38,0,1.17-2.08,1.14-6.69,0-7.61-.59-22.09,0-45.26,0-6.36.09-12.71.19-19.07,0-2.08.08-3.51.08-3.51,5.41-.83,5.21-5.06,4.18-7.61-1.21-3-8.79-4.1-10.07,1.75a6.6,6.6,0,0,0,4.19,6,52.57,52.57,0,0,1-.13,6s-2.84.26-4.16.43c-8.86,1.13-17.74,2.15-26.67,2.52-.88,0-2,.09-2,1.41,0,1,7.7,3.15,10.71,4.13.65.21,3.35.61,3.25.88s-2.53,1.44-3,1.73c-3.82,2.33-11.54,6.48-10.75,7.59C118.24,59.22,118.49,59.68,120,59.48Zm28.4-30.71c-.06-2.53,1.63-3.24,3.19-3.33A4.12,4.12,0,0,1,154.89,27v0a2.75,2.75,0,0,1,.18.3l0,.08.06.14.07.18,0,.09a2.47,2.47,0,0,1,.06.29v.09a2.57,2.57,0,0,1,0,.33c0,2.32-1.46,3.59-3.47,3.33l-.33,0h-.45l-.18,0-.13,0-.17,0-.26-.07-.1,0-.17-.07-.08,0-.17-.09h0A3,3,0,0,1,148.44,28.77Zm-26.2,28.31.11-.09.57-.44.12-.08.59-.42,0,0,.63-.41.14-.09.62-.37.15-.09.57-.32.1-.06.62-.33.21-.11.57-.29.28-.14.34-.17c1.81-.9,3.54-1.68,4.77-2.42.93-.56,1.91-1.2,1.64-2.42s-9.79-2.5-12.37-4.09c2.82-.11,8.45-.56,11.37-1a118.92,118.92,0,0,1,14.38-1.26c1.93-.07,2.8-.39,2.7,1.67,0,.72,0,1.6-.05,2.55,0,.07,0,.14,0,.22s0,.19,0,.28,0,.16,0,.25,0,.21,0,.32,0,.21,0,.32,0,.23,0,.34v.74q0,.24,0,.48v.7q0,.24,0,.48v.64l0,.46V52l0,.37v.12l0,.41c.11,1.91-1.13,1.42-2.56,1.86-3.31,1-20.94,2.5-26.23,2.84Z"/></g></g></svg>