<svg width="15" height="15" viewBox="0 0 15 15" fill="none" xmlns="http://www.w3.org/2000/svg">
<g id="icon-clock" clip-path="url(#clip0_329_19)">
<g id="Shape">
<path d="M8.125 3.75C8.125 3.40482 7.84518 3.125 7.5 3.125C7.15482 3.125 6.875 3.40482 6.875 3.75V7.5C6.875 7.73673 7.00875 7.95315 7.22049 8.05902L9.72049 9.30902C10.0292 9.46339 10.4046 9.33824 10.559 9.02951C10.7134 8.72077 10.5882 8.34535 10.2795 8.19098L8.125 7.11373V3.75Z" fill="#BF940D"/>
<path fill-rule="evenodd" clip-rule="evenodd" d="M7.5 0.625C3.70304 0.625 0.625 3.70304 0.625 7.5C0.625 11.297 3.70304 14.375 7.5 14.375C11.297 14.375 14.375 11.297 14.375 7.5C14.375 3.70304 11.297 0.625 7.5 0.625ZM1.875 7.5C1.875 4.3934 4.3934 1.875 7.5 1.875C10.6066 1.875 13.125 4.3934 13.125 7.5C13.125 10.6066 10.6066 13.125 7.5 13.125C4.3934 13.125 1.875 10.6066 1.875 7.5Z" fill="#BF940D"/>
</g>
</g>
<defs>
<clipPath id="clip0_329_19">
<rect width="15" height="15" fill="white"/>
</clipPath>
</defs>
</svg>
