<svg xmlns="http://www.w3.org/2000/svg" viewBox="0 0 101.74 102"><defs><style>.cls-1{fill:#4f5a8d;}.cls-2{fill:#f9b340;}</style></defs><title>Asset 9</title><g id="Layer_2" data-name="Layer 2"><g id="Layer_1-2" data-name="Layer 1"><path class="cls-1" d="M96.05,88.45V43.39a7,7,0,0,0-.45-2.47h0a7.41,7.41,0,0,0-6.94-4.71H75.43a11.73,11.73,0,0,0-.7,3.32H88.67a3.74,3.74,0,0,1,.52,0l.16,0h.07l.19,0h0l.22.06.27.09.17.07.21.1.24.13h0l.21.13.21.16.19.16h0l.17.16,0,0,.14.15,0,0,.15.19.15.21.14.23c0,.07.08.15.12.22v0l.06.15,0,.1c0,.08.06.17.09.26s0,.16.06.24h0c0,.09,0,.18.05.27a2.23,2.23,0,0,1,0,.23.37.37,0,0,1,0,.08c0,.08,0,.16,0,.25V88.45H58.08l-3.27,2.88a5.87,5.87,0,0,1-7.8,0l-3.14-2.83H9.1V43.39a3.93,3.93,0,0,1,4-3.87h10V36.2h-10a7.3,7.3,0,0,0-7.39,7.19V88.45H0v3.32H.05A11.49,11.49,0,0,0,11.6,102H90.14a11.49,11.49,0,0,0,11.55-10.23h.05V88.45ZM90.14,98.68H11.6a8.13,8.13,0,0,1-8.12-6.91h39l1.84,1.66.31.28a9.33,9.33,0,0,0,12.41.08l.41-.36,1.89-1.66H98.25A8.13,8.13,0,0,1,90.14,98.68Z"/><path class="cls-1" d="M56.39,11.64a3.19,3.19,0,0,0-1-.15,2.73,2.73,0,0,0-.64.07l-.32.08a3.31,3.31,0,0,0,0,6.31l.32.08a2.73,2.73,0,0,0,.64.07,3.19,3.19,0,0,0,1-.15,3.3,3.3,0,0,0,0-6.31ZM40.17,0,40,.12,36.86,3.17l-4.12,4-3.14,3-9.42,9,0,0-.25.32V84H81.79V0ZM40,19.55V10.3H69V27.08l-8.64-8.64-6.61,6.61-4.49-4.5-9.57,9.57H32.77V19.55ZM68.31,30.12h-16l1.37-1.38,6.61-6.6ZM51.88,26.89l-3.23,3.23H43.36l5.87-5.87ZM29.6,14.55l3.17-3.05L34,10.3l2.85-2.73v8.81H27.69Zm49,29.39h0V80.86H23.12V19.55H29.6V33.29H72.14V7.13H40v-4H78.61ZM54.45,18l.32.08a2.73,2.73,0,0,0,.64.07,3.19,3.19,0,0,0,1-.15,3.3,3.3,0,0,0,0-6.31,3.19,3.19,0,0,0-1-.15,2.73,2.73,0,0,0-.64.07l-.32.08a3.31,3.31,0,0,0,0,6.31Zm1.94-6.31a3.19,3.19,0,0,0-1-.15,2.73,2.73,0,0,0-.64.07l-.32.08a3.31,3.31,0,0,0,0,6.31l.32.08a2.73,2.73,0,0,0,.64.07,3.19,3.19,0,0,0,1-.15,3.3,3.3,0,0,0,0-6.31Zm0,0a3.19,3.19,0,0,0-1-.15,2.73,2.73,0,0,0-.64.07l-.32.08a3.31,3.31,0,0,0,0,6.31l.32.08a2.73,2.73,0,0,0,.64.07,3.19,3.19,0,0,0,1-.15,3.3,3.3,0,0,0,0-6.31Zm0,0a3.19,3.19,0,0,0-1-.15,2.73,2.73,0,0,0-.64.07l-.32.08a3.31,3.31,0,0,0,0,6.31l.32.08a2.73,2.73,0,0,0,.64.07,3.19,3.19,0,0,0,1-.15,3.3,3.3,0,0,0,0-6.31Zm0,0a3.19,3.19,0,0,0-1-.15,2.73,2.73,0,0,0-.64.07l-.32.08a3.31,3.31,0,0,0,0,6.31l.32.08a2.73,2.73,0,0,0,.64.07,3.19,3.19,0,0,0,1-.15,3.3,3.3,0,0,0,0-6.31Zm0,0a3.19,3.19,0,0,0-1-.15,2.73,2.73,0,0,0-.64.07l-.32.08a3.31,3.31,0,0,0,0,6.31l.32.08a2.73,2.73,0,0,0,.64.07,3.19,3.19,0,0,0,1-.15,3.3,3.3,0,0,0,0-6.31Zm0,0a3.19,3.19,0,0,0-1-.15,2.73,2.73,0,0,0-.64.07l-.32.08a3.31,3.31,0,0,0,0,6.31l.32.08a2.73,2.73,0,0,0,.64.07,3.19,3.19,0,0,0,1-.15,3.3,3.3,0,0,0,0-6.31Zm0,0a3.19,3.19,0,0,0-1-.15,2.73,2.73,0,0,0-.64.07l-.32.08a3.31,3.31,0,0,0,0,6.31l.32.08a2.73,2.73,0,0,0,.64.07,3.19,3.19,0,0,0,1-.15,3.3,3.3,0,0,0,0-6.31Zm0,0a3.19,3.19,0,0,0-1-.15,2.73,2.73,0,0,0-.64.07l-.32.08a3.31,3.31,0,0,0,0,6.31l.32.08a2.73,2.73,0,0,0,.64.07,3.19,3.19,0,0,0,1-.15,3.3,3.3,0,0,0,0-6.31Z"/><path class="cls-1" d="M39.42,48.05a5.75,5.75,0,0,0-1.91-2,5.67,5.67,0,1,0,1.91,2Zm-2,2.81s0,.05,0,.08a1,1,0,0,1,0,.15c0,.05,0,.1,0,.15a1.28,1.28,0,0,1,0,.15c0,.08,0,.16-.06.24l-.06.18c0,.09-.07.18-.11.27a2.84,2.84,0,0,1-.2.35l-.06.09-.09.12-.08.1-.08.09-.17.17-.21.17h0l-.21.14-.16.09a2.74,2.74,0,0,1-.43.19l-.18.06-.21.05-.14,0-.29,0h-.18a3,3,0,0,1-3-3c0-.06,0-.11,0-.17s0,0,0,0a2.13,2.13,0,0,1,0-.23h0q0-.08,0-.16a.79.79,0,0,1,0-.11,2.84,2.84,0,0,1,.1-.31c0-.09.07-.18.11-.27l.07-.13a2.33,2.33,0,0,1,.13-.22L32,49l.12-.16.14-.16.13-.13.11-.1.19-.15.13-.09.08,0,.08,0,.15-.08h0l.11,0h0l.15-.06.08,0h.08l.16,0,.13,0,.15,0,.22,0h.39l.21,0a2.66,2.66,0,0,1,.41.09l.13,0,.13,0a2.93,2.93,0,0,1,.71.39l.22.18a2.8,2.8,0,0,1,.3.31l.09.11.14.21a2.91,2.91,0,0,1,.32.69,2,2,0,0,1,.06.21l0,.08a1.33,1.33,0,0,1,0,.15,1.45,1.45,0,0,1,0,.15c0,.05,0,.1,0,.15s0,.1,0,.15S37.45,50.84,37.45,50.86Z"/><circle class="cls-2" cx="34.44" cy="50.79" r="3.01"/><path class="cls-1" d="M34.44,63.11a5.67,5.67,0,1,0,5.68,5.67A5.68,5.68,0,0,0,34.44,63.11Zm3,5.83s0,.1,0,.15a2835.2,2835.2,0,0,0,0,.3l-.06.24-.06.19-.12.27-.14.25c0,.07-.09.14-.14.21l0,0a2.11,2.11,0,0,1-.14.17l-.17.18-.19.17-.07.06-.08.06-.17.11-.15.1-.23.11-.12,0-.12,0-.17,0-.15,0-.1,0-.14,0h-.41a3,3,0,0,1,0-6h.18l.24,0,.08,0,.16,0,.21,0,.06,0a3.27,3.27,0,0,1,.51.22l.15.09.17.11.08.06.24.21.1.1.14.16.13.17a.47.47,0,0,1,.06.09.33.33,0,0,1,.06.1,2,2,0,0,1,.14.25l.12.27c0,.09.06.19.08.28a.84.84,0,0,1,0,.15.77.77,0,0,1,0,.15.77.77,0,0,1,0,.15s0,.1,0,.15Z"/><path class="cls-2" d="M37.45,68.63v.31s0,.1,0,.15a2835.2,2835.2,0,0,0,0,.3l-.06.24-.06.19-.12.27-.14.25c0,.07-.09.14-.14.21l0,0a2.11,2.11,0,0,1-.14.17l-.17.18-.19.17-.07.06-.08.06-.17.11-.15.1-.23.11-.12,0-.12,0-.17,0-.15,0-.1,0-.14,0h-.41a3,3,0,0,1,0-6h.18l.24,0,.08,0,.16,0,.21,0,.06,0a3.27,3.27,0,0,1,.51.22l.15.09.17.11.08.06.24.21.1.1.14.16.13.17a.47.47,0,0,1,.06.09.33.33,0,0,1,.06.1,2,2,0,0,1,.14.25l.12.27c0,.09.06.19.08.28a.84.84,0,0,1,0,.15.77.77,0,0,1,0,.15.77.77,0,0,1,0,.15S37.44,68.58,37.45,68.63Z"/><path class="cls-1" d="M72.73,65.52a1.57,1.57,0,0,1-1.57,1.57H45.8a1.57,1.57,0,1,1,0-3.14H71.16A1.57,1.57,0,0,1,72.73,65.52Z"/><path class="cls-1" d="M55.58,72A1.57,1.57,0,0,1,54,73.61H45.8a1.57,1.57,0,1,1,0-3.14H54A1.57,1.57,0,0,1,55.58,72Z"/><path class="cls-1" d="M73,72a1.57,1.57,0,0,1-1.57,1.57H59.57A1.57,1.57,0,0,1,58,72a1.57,1.57,0,0,1,1.57-1.57H71.4A1.57,1.57,0,0,1,73,72Z"/><path class="cls-1" d="M72.49,54a1.57,1.57,0,0,1-1.57,1.57H45.56a1.57,1.57,0,0,1,0-3.14H70.92A1.57,1.57,0,0,1,72.49,54Z"/><path class="cls-1" d="M72.49,47.52a1.57,1.57,0,0,1-1.57,1.57H65.85a1.57,1.57,0,0,1,0-3.14h5.07A1.57,1.57,0,0,1,72.49,47.52Z"/><path class="cls-1" d="M61.38,47.52a1.57,1.57,0,0,1-1.57,1.57H45.31a1.57,1.57,0,0,1,0-3.14H59.81A1.57,1.57,0,0,1,61.38,47.52Z"/><path class="cls-1" d="M42.69,44.21a1.41,1.41,0,0,1-.41,1l-7,7a1.4,1.4,0,0,1-2,0l-1.84-1.84h0l-.74-.74a1.4,1.4,0,1,1,2-2l.45.45,1.15,1.15L37.51,46l2.79-2.79a1.4,1.4,0,0,1,2,0A1.42,1.42,0,0,1,42.69,44.21Z"/><path class="cls-1" d="M55.41,11.49a3.3,3.3,0,1,0,3.3,3.3A3.31,3.31,0,0,0,55.41,11.49Zm0,4.86A1.56,1.56,0,1,1,57,14.8,1.56,1.56,0,0,1,55.41,16.36Z"/><circle class="cls-2" cx="55.4" cy="14.8" r="1.56"/><path class="cls-1" d="M88.18,28.43c-.1-.14,0-.36-.06-.54s.17-.36.42-.35c.47,0,.95,0,1.42,0s.85-.28.87-.88c0-.3,0-.6,0-.9,0-.72-.22-.92-1-.93H86.66c-1.12,0-2.25,0-3.37,0-.63,0-.86.24-.88.86q0,.49,0,1c0,.59.27.85.88.88.43,0,.85,0,1.27,0s.5,0,.56.52a.44.44,0,0,1-.1.4,12,12,0,0,0-6.48,3.09l-.19.17-.18.18a12,12,0,0,0-2.81,4.37,11.73,11.73,0,0,0-.7,3.32A12,12,0,0,0,86.09,52.37h.81a11.92,11.92,0,0,0,5.67-1.53,12,12,0,0,0-4.39-22.42Zm7.34,12.74c0,.06,0,.12,0,.18s0,.24,0,.36,0,.17,0,.25l-.05.25,0,.2a1.64,1.64,0,0,1,0,.16l-.07.25-.12.37v0l-.14.39c-.11.27-.22.53-.35.78l-.14.26a8.47,8.47,0,0,1-.52.83l-.2.27-.15.18-.23.27-.24.26-.22.23-.08.07-.23.21h0l-.18.16-.18.15-.17.14a9.06,9.06,0,0,1-1.1.71l-.18.1-.35.17-.2.09-.26.11-.19.07-.23.08-.38.12-.22.06L88.7,49l-.34.07h0l-.15,0-.51.07-.15,0-.41,0h-.9l-.36,0-.2,0h-.12l-.2,0-.16,0-.15,0L84.69,49l-.19,0-.13,0-.29-.08-.06,0-.28-.1a7.74,7.74,0,0,1-.9-.38l-.25-.13a9,9,0,0,1-.87-.52l-.39-.28-.12-.1L80.82,47l-.1-.08-.23-.22-.2-.2,0,0-.21-.24L79.85,46l-.2-.25-.17-.23-.24-.35-.12-.2L79,44.65l-.14-.26-.15-.3-.12-.28h0l-.08-.19-.07-.19,0-.12-.07-.2-.1-.31-.05-.19c0-.08,0-.16-.06-.23s0-.15-.05-.23,0-.19-.05-.29,0-.24-.06-.36,0-.17,0-.26,0-.23,0-.34,0-.15,0-.22,0-.2,0-.29,0-.24,0-.36,0-.13,0-.2,0-.15,0-.22h0c0-.1,0-.2,0-.3s0-.31.07-.47l.05-.25.06-.27c0-.07,0-.14.05-.21s0-.13.06-.2l.1-.31.11-.31v0l.12-.3h0l.15-.33,0-.07.13-.26L79,36a8.41,8.41,0,0,1,.52-.81l.19-.25h0l.17-.21.18-.21.09-.1.12-.12.17-.17.2-.19.15-.14.22-.19.21-.18.47-.35a9,9,0,0,1,.87-.52l.25-.13a7.74,7.74,0,0,1,.9-.38l.28-.1.06,0,.29-.08q.34-.1.68-.16l.15,0,.36-.05.12,0,.2,0,.36,0h.48a8.86,8.86,0,0,1,8.85,8.85q0,.19,0,.37c0,.06,0,.12,0,.19s0,0,0,.05h0Z"/><path class="cls-1" d="M95.56,40.36a8.85,8.85,0,1,1-8.85-8.85A8.86,8.86,0,0,1,95.56,40.36Z"/><path class="cls-1" d="M96.83,30.73a.66.66,0,0,1-1,.65,3.81,3.81,0,0,1-.55-.38c-.66-.49-1.33-1-2-1.46-.42-.33-.49-.69-.24-1a.7.7,0,0,1,1.06-.08c.79.56,1.57,1.15,2.36,1.72A.7.7,0,0,1,96.83,30.73Z"/><path class="cls-2" d="M95.56,40.36a8.85,8.85,0,1,1-8.85-8.85A8.86,8.86,0,0,1,95.56,40.36Z"/><path class="cls-1" d="M87.36,41a1.1,1.1,0,0,0,.78-.15c1.26-.47,2.51-1,3.77-1.44a2.15,2.15,0,0,1,.87-.2.84.84,0,0,1,.81.55.87.87,0,0,1-.27,1,1.86,1.86,0,0,1-.59.31l-5.58,2.14a3.21,3.21,0,0,1-.5.16.86.86,0,0,1-1.12-.78,4.12,4.12,0,0,1,0-.6q0-3.55,0-7.11a4,4,0,0,1,0-.67.88.88,0,0,1,.86-.79.91.91,0,0,1,.91.74,3.44,3.44,0,0,1,.05.74q0,2.69,0,5.39C87.36,40.55,87.36,40.8,87.36,41Z"/></g></g></svg>