<svg xmlns="http://www.w3.org/2000/svg" viewBox="0 0 463.27 463.59"><defs><style>.cls-1{fill:#43464b;}.cls-2{fill:#fefefe;}</style></defs><title>Asset 6</title><g id="Layer_2" data-name="Layer 2"><g id="Layer_1-2" data-name="Layer 1"><path class="cls-1" d="M337.69,212c1.61,3.23,1.29,6.46.18,9.72q-4.89,14.39-9.78,28.77c-3.26,9.51-6.51,19-9.83,28.51-3.16,9-6.35,18-9.65,27-1.78,4.87-3.39,9.81-5.87,14.39a50.17,50.17,0,0,1-6.61,9.63c-1.33,1.48-2.64,3-4,4.42-4.46,4.65-9.79,8.13-15.33,11.29a107.18,107.18,0,0,1-18.23,7.74,97,97,0,0,1-16.46,3.9,30.66,30.66,0,0,1-7.84.6,5.16,5.16,0,0,0-2.6.29,2,2,0,0,1-1.17.13c-2.36-.7-4.8-.14-7.14-.5-3.21-.5-6.46-.72-9.67-1.32a83.77,83.77,0,0,1-20.06-6.07,67.32,67.32,0,0,1-14.38-9.32,62.65,62.65,0,0,1-11.41-13.1,68.78,68.78,0,0,1-8-16.26,154.5,154.5,0,0,1-6.91-25.8c-.74-4.36-1.26-8.79-1.75-13.21a134.33,134.33,0,0,1-.77-22.93c.66-10.86-.13-21.74.5-32.57.35-6.16-.12-12.32.45-18.42.64-6.79-.09-13.59.47-20.34.73-8.94,0-17.89.5-26.82a84.46,84.46,0,0,1,.77-9.49,11.47,11.47,0,0,1,10.39-9.37,15.7,15.7,0,0,1,9.94,1.88,10.68,10.68,0,0,1,5.65,9.38c.13,9.19,0,18.4,0,27.6V203.2a8.24,8.24,0,0,0,.46,3.3,3.42,3.42,0,0,0,3.58,2.18,3,3,0,0,0,2.66-2.94c.06-.63,0-1.28,0-1.92V162.3c0-13.84,0-27.68,0-41.52a15.16,15.16,0,0,1,3.54-9.43,7.3,7.3,0,0,1,3.32-2.29c5.56-2.12,11-2.3,16.15,1.2a10.22,10.22,0,0,1,3.86,5.6,18.69,18.69,0,0,1,1,6.09q0,38,0,76.08a5.22,5.22,0,0,0,1.06,3.81,2.87,2.87,0,0,0,5-.92,5.75,5.75,0,0,0,.2-1.89c.93-27.41.42-54.84.37-82.25,0-5.41-.26-10.84-.38-16.26a14.15,14.15,0,0,1,14.27-14.24,18.44,18.44,0,0,1,8.28,1.9,8.87,8.87,0,0,1,5.23,8.24c0,6.23.85,12.42.57,18.65-.13,3.12,0,6.24,0,9.36,0,5.59-.79,11.15-.48,16.74,1.07,19.57.2,39.16.48,58.74,0,2.4,1,3.52,2.92,3.52,2.14,0,3.23-1.16,3.32-3.52,0-.56,0-1.12,0-1.68q0-41.16,0-82.32a14.66,14.66,0,0,1,2.61-8.55,12.49,12.49,0,0,1,7.3-5,14.39,14.39,0,0,1,11.51,1.47,11.61,11.61,0,0,1,6,9c.79,6.62,0,13.26.47,19.86.89,11.5.64,23,.33,34.5-.82,30.94-.08,61.88-.38,92.82a11.9,11.9,0,0,0,.07,2.39,3.53,3.53,0,0,0,2.59,2.88c1.26.35,2.07-.55,2.89-1.32a4.39,4.39,0,0,0,1-1.61c3.42-8.68,6.79-17.37,10.28-26,2.06-5.1,4.37-10.09,6.48-15.17,1.23-3,2.66-5.81,4.11-8.66a16.45,16.45,0,0,1,11.3-8.85,11.4,11.4,0,0,1,5.44.38C331.25,205.13,335.35,207.34,337.69,212Z"/><path class="cls-1" d="M462.36,210.84c-.48-3.44-.62-7-1-10.42-.51-4.67-1.39-9.26-2.24-13.86-1.06-5.71-2.48-11.34-4.07-16.93-2.06-7.2-4.46-14.3-7.13-21.31a239.28,239.28,0,0,0-11.44-24.77q-3.51-6.79-7.64-13.26c-2.1-3.28-4.35-6.47-6.46-9.74-2.37-3.69-5-7.21-7.66-10.66-2.5-3.19-5.14-6.27-7.77-9.36-3.2-3.77-6.57-7.37-9.81-11.09-2.94-3.38-6.56-6.06-9.76-9.19a36.77,36.77,0,0,0-4.27-3.81c-3.36-2.43-6.36-5.28-9.6-7.86-4.37-3.47-8.92-6.68-13.55-9.75-5.77-3.83-11.73-7.39-17.82-10.72a232.19,232.19,0,0,0-22.41-10.84A216.67,216.67,0,0,0,294.2,8.45c-5.06-1.39-10.12-2.72-15.27-3.76-4-.8-8-1.4-12-2-3.38-.53-6.78-.8-10.14-1.34-2.14-.35-4.31-.21-6.42-.53A89.76,89.76,0,0,0,238.29,0c-6-.08-12,.62-17.94.36-3.36-.15-6.67.42-10,.61-4.73.27-9.44,1.13-14.15,1.81-5.81.84-11.6,1.85-17.31,3.22a228.58,228.58,0,0,0-27.69,8.24c-5.74,2.18-11.42,4.49-17,7.14A254.24,254.24,0,0,0,110.85,34c-4.61,2.83-9.1,5.86-13.49,9-3.67,2.66-7.2,5.51-10.76,8.31a83.31,83.31,0,0,0-6.73,5.72c-1.2,1.16-2.59,2.12-3.83,3.24-3.08,2.77-6.4,5.33-9.1,8.44-2.56,3-5.41,5.63-7.95,8.6-2.37,2.78-4.82,5.53-7.13,8.35A240.65,240.65,0,0,0,37.4,105.56c-3.43,5.2-6.65,10.51-9.61,16-2.51,4.63-5,9.28-7.11,14.11-2.59,5.83-5.05,11.71-7.23,17.71a239.49,239.49,0,0,0-9,32.66c-1.4,6.69-2.16,13.47-3,20.24-.3,2.31-.23,4.62-.5,6.9A100.24,100.24,0,0,0,0,226c0,2.4,0,4.8,0,7.2V244a7.67,7.67,0,0,0,.07,1.92c1,3.8.92,7.72,1.28,11.58.47,5.07,1.12,10.1,2,15.1a212.19,212.19,0,0,0,6.77,27.3,246.65,246.65,0,0,0,16.36,39.54c.66,1.27,1.44,2.48,2.11,3.75A140.17,140.17,0,0,0,37,357.09c4.84,7,9.5,14.12,15,20.67,4.16,4.94,8.52,9.69,12.82,14.48,2.71,3,5.89,5.63,8.76,8.49,3.85,3.83,8,7.36,12.11,10.8,4.41,3.65,9,7,13.75,10.29a253.11,253.11,0,0,0,23.43,14.34q7.28,3.91,14.85,7.28c6.27,2.8,12.65,5.29,19.13,7.54a216.59,216.59,0,0,0,37,9.27c2.9.46,5.86.55,8.74,1.07A95.57,95.57,0,0,0,216.5,463c5.74.17,11.48.8,17.21.54,4.14-.19,8.28-.49,12.42-.44a2.59,2.59,0,0,0,.48,0c3.7-.46,7.39-1.13,11.1-1.32,4.38-.23,8.67-1.06,13-1.64a156.27,156.27,0,0,0,16.53-3.52,205.18,205.18,0,0,0,21.94-6.64c7.79-2.86,15.44-6,22.93-9.6,4.84-2.29,9.53-4.85,14.18-7.5a244.5,244.5,0,0,0,24.48-16.2c3.77-2.8,7.33-5.85,10.92-8.89s7-6.06,10.4-9.13c4.73-4.19,8.59-9.24,13.16-13.6a7.19,7.19,0,0,0,.64-.71c2.55-3.15,5.06-6.33,7.64-9.46a192,192,0,0,0,12-16.62c2.66-4.05,5.18-8.21,7.6-12.43a220.24,220.24,0,0,0,12.09-24.45,207.28,207.28,0,0,0,10.51-31.48c1.07-4.4,2.21-8.8,3.1-13.23s1.51-9.08,2.09-13.65a120.86,120.86,0,0,0,1.31-13,6.15,6.15,0,0,1,.1-1.43,28.64,28.64,0,0,0,.76-7.57C463.15,230.92,463.74,220.87,462.36,210.84Zm-18.41,31.53c-.18,5.15-.16,10.34-1.27,15.43a37.76,37.76,0,0,0-.46,5.21,81.38,81.38,0,0,1-1.64,10.35,191.24,191.24,0,0,1-7,26.5q-2.8,8-6.22,15.79c-1.93,4.4-4.07,8.69-6.3,12.93A188.8,188.8,0,0,1,403,357c-3.63,4.65-7.41,9.15-11.2,13.65a153.83,153.83,0,0,1-14.16,14.93c-4.53,4.12-8.85,8.47-13.78,12.17-3.24,2.42-6.47,4.9-9.68,7.37a130.38,130.38,0,0,1-12.56,8.29c-5,3-10.16,6-15.42,8.68a199.46,199.46,0,0,1-43,15.63c-5.82,1.28-11.63,2.59-17.48,3.68-3.11.58-6.33.59-9.46,1.09-3.53.56-7.13.49-10.62,1.33a2.48,2.48,0,0,1-.72.06c-5.51-.26-11,1.08-16.48.4-4-.49-7.94-.44-11.9-.71-4.85-.34-9.61-1.19-14.43-1.69a139,139,0,0,1-16.42-2.78A222.32,222.32,0,0,1,160,431.85c-5.71-2-11.28-4.41-16.83-6.83a154.75,154.75,0,0,1-14.33-7.21,174.88,174.88,0,0,1-22.22-14.43c-3.31-2.61-6.7-5.11-10-7.72-1.31-1-2.52-2.2-3.79-3.29a172.12,172.12,0,0,1-15-14.5A261.47,261.47,0,0,1,59.3,355.75a203.45,203.45,0,0,1-13.2-20.19c-2.67-4.73-5.29-9.49-7.58-14.41a196.12,196.12,0,0,1-10.3-27,202.87,202.87,0,0,1-5.39-22.24c-.93-5.3-2.16-10.59-2.17-16a25.66,25.66,0,0,0-.58-4.48c-.4-2.16-.15-4.31-.4-6.43a125.31,125.31,0,0,1-.45-14.1c0-1.84,0-3.68,0-5.52a104.47,104.47,0,0,1,.89-12.12c.22-2,.31-4,.48-5.94.24-2.94.74-5.83,1.17-8.73.61-4.16,1.48-8.28,2.25-12.41,1-5.25,2.36-10.39,3.84-15.51A194.16,194.16,0,0,1,35,150.09c2.3-5.54,5-10.86,7.72-16.22A167.68,167.68,0,0,1,54.12,114.5c3.85-5.65,8.05-11,12.44-16.31,4.2-5,8.61-9.82,13.12-14.56,4.35-4.56,8.94-8.88,13.68-13A191.09,191.09,0,0,1,109.14,58.3c4.64-3.23,9.23-6.52,14.07-9.44a224.24,224.24,0,0,1,22.51-11.7,192.8,192.8,0,0,1,21-8A213.29,213.29,0,0,1,191.21,23c4.9-1,9.88-1.49,14.85-2,4.44-.49,8.88-.62,13.31-1,5-.41,10-1.18,15-.78,4.39.35,8.82-.07,13.13.51,7.78,1,15.62,1.55,23.35,3.1s15.41,3.26,22.94,5.56a213.12,213.12,0,0,1,22.57,8.5c5.44,2.35,10.68,5.08,15.93,7.8,4.38,2.26,8.59,4.86,12.79,7.49A215.2,215.2,0,0,1,363.2,65c3.44,2.69,6.83,5.47,10.12,8.37,3.91,3.44,7.54,7.13,11.16,10.85s7.09,7.74,10.5,11.75a188.93,188.93,0,0,1,14.32,19.39,208.46,208.46,0,0,1,10.93,18.82,213.65,213.65,0,0,1,12.49,29.47,206,206,0,0,1,6.91,27c1,5,1.86,10,2.37,15,.34,3.39.74,6.79,1.16,10.17.45,3.68,0,7.36.46,11A95,95,0,0,1,443.95,242.37Z"/><path class="cls-2" d="M337.87,221.74q-4.89,14.39-9.78,28.77c-3.26,9.51-6.51,19-9.83,28.51-3.16,9-6.35,18-9.65,27-1.78,4.87-3.39,9.81-5.87,14.39a50.17,50.17,0,0,1-6.61,9.63c-1.33,1.48-2.64,3-4,4.42-4.46,4.65-9.79,8.13-15.33,11.29a107.18,107.18,0,0,1-18.23,7.74,97,97,0,0,1-16.46,3.9,30.66,30.66,0,0,1-7.84.6,5.16,5.16,0,0,0-2.6.29,2,2,0,0,1-1.17.13c-2.36-.7-4.8-.14-7.14-.5-3.21-.5-6.46-.72-9.67-1.32a83.77,83.77,0,0,1-20.06-6.07,67.32,67.32,0,0,1-14.38-9.32,62.65,62.65,0,0,1-11.41-13.1,68.78,68.78,0,0,1-8-16.26,154.5,154.5,0,0,1-6.91-25.8c-.74-4.36-1.26-8.79-1.75-13.21a134.33,134.33,0,0,1-.77-22.93c.66-10.86-.13-21.74.5-32.57.35-6.16-.12-12.32.45-18.42.64-6.79-.09-13.59.47-20.34.73-8.94,0-17.89.5-26.82a84.46,84.46,0,0,1,.77-9.49,11.47,11.47,0,0,1,10.39-9.37,15.7,15.7,0,0,1,9.94,1.88,10.68,10.68,0,0,1,5.65,9.38c.13,9.19,0,18.4,0,27.6V203.2a8.24,8.24,0,0,0,.46,3.3,3.42,3.42,0,0,0,3.58,2.18,3,3,0,0,0,2.66-2.94c.06-.63,0-1.28,0-1.92V162.3c0-13.84,0-27.68,0-41.52a15.16,15.16,0,0,1,3.54-9.43,7.3,7.3,0,0,1,3.32-2.29c5.56-2.12,11-2.3,16.15,1.2a10.22,10.22,0,0,1,3.86,5.6,18.69,18.69,0,0,1,1,6.09q0,38,0,76.08a5.22,5.22,0,0,0,1.06,3.81,2.87,2.87,0,0,0,5-.92,5.75,5.75,0,0,0,.2-1.89c.93-27.41.42-54.84.37-82.25,0-5.41-.26-10.84-.38-16.26a14.15,14.15,0,0,1,14.27-14.24,18.44,18.44,0,0,1,8.28,1.9,8.87,8.87,0,0,1,5.23,8.24c0,6.23.85,12.42.57,18.65-.13,3.12,0,6.24,0,9.36,0,5.59-.79,11.15-.48,16.74,1.07,19.57.2,39.16.48,58.74,0,2.4,1,3.52,2.92,3.52,2.14,0,3.23-1.16,3.32-3.52,0-.56,0-1.12,0-1.68q0-41.16,0-82.32a14.66,14.66,0,0,1,2.61-8.55,12.49,12.49,0,0,1,7.3-5,14.39,14.39,0,0,1,11.51,1.47,11.61,11.61,0,0,1,6,9c.79,6.62,0,13.26.47,19.86.89,11.5.64,23,.33,34.5-.82,30.94-.08,61.88-.38,92.82a11.9,11.9,0,0,0,.07,2.39,3.53,3.53,0,0,0,2.59,2.88c1.26.35,2.07-.55,2.89-1.32a4.39,4.39,0,0,0,1-1.61c3.42-8.68,6.79-17.37,10.28-26,2.06-5.1,4.37-10.09,6.48-15.17,1.23-3,2.66-5.81,4.11-8.66a16.45,16.45,0,0,1,11.3-8.85,11.4,11.4,0,0,1,5.44.38c4.81,1.19,8.91,3.4,11.25,8.08C339.3,215.25,339,218.48,337.87,221.74Z"/><path class="cls-1" d="M337.87,221.74q-4.89,14.39-9.78,28.77c-3.26,9.51-6.51,19-9.83,28.51-3.16,9-6.35,18-9.65,27-1.78,4.87-3.39,9.81-5.87,14.39a50.17,50.17,0,0,1-6.61,9.63c-1.33,1.48-2.64,3-4,4.42-4.46,4.65-9.79,8.13-15.33,11.29a107.18,107.18,0,0,1-18.23,7.74,97,97,0,0,1-16.46,3.9,30.66,30.66,0,0,1-7.84.6,5.16,5.16,0,0,0-2.6.29,2,2,0,0,1-1.17.13c-2.36-.7-4.8-.14-7.14-.5-3.21-.5-6.46-.72-9.67-1.32a83.77,83.77,0,0,1-20.06-6.07,67.32,67.32,0,0,1-14.38-9.32,62.65,62.65,0,0,1-11.41-13.1,68.78,68.78,0,0,1-8-16.26,154.5,154.5,0,0,1-6.91-25.8c-.74-4.36-1.26-8.79-1.75-13.21a134.33,134.33,0,0,1-.77-22.93c.66-10.86-.13-21.74.5-32.57.35-6.16-.12-12.32.45-18.42.64-6.79-.09-13.59.47-20.34.73-8.94,0-17.89.5-26.82a84.46,84.46,0,0,1,.77-9.49,11.47,11.47,0,0,1,10.39-9.37,15.7,15.7,0,0,1,9.94,1.88,10.68,10.68,0,0,1,5.65,9.38c.13,9.19,0,18.4,0,27.6V203.2a8.24,8.24,0,0,0,.46,3.3,3.42,3.42,0,0,0,3.58,2.18,3,3,0,0,0,2.66-2.94c.06-.63,0-1.28,0-1.92V162.3c0-13.84,0-27.68,0-41.52a15.16,15.16,0,0,1,3.54-9.43,7.3,7.3,0,0,1,3.32-2.29c5.56-2.12,11-2.3,16.15,1.2a10.22,10.22,0,0,1,3.86,5.6,18.69,18.69,0,0,1,1,6.09q0,38,0,76.08a5.22,5.22,0,0,0,1.06,3.81,2.87,2.87,0,0,0,5-.92,5.75,5.75,0,0,0,.2-1.89c.93-27.41.42-54.84.37-82.25,0-5.41-.26-10.84-.38-16.26a14.15,14.15,0,0,1,14.27-14.24,18.44,18.44,0,0,1,8.28,1.9,8.87,8.87,0,0,1,5.23,8.24c0,6.23.85,12.42.57,18.65-.13,3.12,0,6.24,0,9.36,0,5.59-.79,11.15-.48,16.74,1.07,19.57.2,39.16.48,58.74,0,2.4,1,3.52,2.92,3.52,2.14,0,3.23-1.16,3.32-3.52,0-.56,0-1.12,0-1.68q0-41.16,0-82.32a14.66,14.66,0,0,1,2.61-8.55,12.49,12.49,0,0,1,7.3-5,14.39,14.39,0,0,1,11.51,1.47,11.61,11.61,0,0,1,6,9c.79,6.62,0,13.26.47,19.86.89,11.5.64,23,.33,34.5-.82,30.94-.08,61.88-.38,92.82a11.9,11.9,0,0,0,.07,2.39,3.53,3.53,0,0,0,2.59,2.88c1.26.35,2.07-.55,2.89-1.32a4.39,4.39,0,0,0,1-1.61c3.42-8.68,6.79-17.37,10.28-26,2.06-5.1,4.37-10.09,6.48-15.17,1.23-3,2.66-5.81,4.11-8.66a16.45,16.45,0,0,1,11.3-8.85,11.4,11.4,0,0,1,5.44.38c4.81,1.19,8.91,3.4,11.25,8.08C339.3,215.25,339,218.48,337.87,221.74Z"/></g></g></svg>