<svg xmlns="http://www.w3.org/2000/svg" viewBox="0 0 87.1 87.1"><defs><style>.cls-1{fill:#48486a;}</style></defs><title>Asset 203</title><g id="Layer_2" data-name="Layer 2"><g id="Layer_1-2" data-name="Layer 1"><path class="cls-1" d="M51.35,75.51H35.73A1.75,1.75,0,0,1,34,73.76V66.1a1.75,1.75,0,0,1,1.75-1.75h5.86V62.09h-6.1a1.75,1.75,0,0,1-1.75-1.75V52.68a1.75,1.75,0,0,1,1.75-1.75h6.1V48.45H31.92a1.75,1.75,0,0,1-1.75-1.75V42.94H24a1.75,1.75,0,0,1-1.75-1.75V33.54A1.75,1.75,0,0,1,24,31.79h6.13V29.92h-9.4A1.75,1.75,0,0,1,19,28.17V23.4h-5.5a1.75,1.75,0,0,1-1.75-1.75V14a1.75,1.75,0,0,1,1.75-1.75H29.14A1.75,1.75,0,0,1,30.89,14v7.66a1.75,1.75,0,0,1-1.75,1.75H22.52v3H41.72v-3h-6A1.75,1.75,0,0,1,34,21.65V14a1.75,1.75,0,0,1,1.75-1.75H51.36A1.75,1.75,0,0,1,53.11,14v7.66a1.75,1.75,0,0,1-1.75,1.75H45.22v3H63.88v-3H58a1.75,1.75,0,0,1-1.75-1.75V14A1.75,1.75,0,0,1,58,12.25H73.58A1.75,1.75,0,0,1,75.32,14v7.66a1.75,1.75,0,0,1-1.75,1.75h-6.2v4.77a1.75,1.75,0,0,1-1.75,1.75h-9.8v1.87h6.05a1.75,1.75,0,0,1,1.75,1.75v7.66a1.75,1.75,0,0,1-1.75,1.75H55.83v3.76a1.75,1.75,0,0,1-1.75,1.75h-9v2.48h6a1.75,1.75,0,0,1,1.75,1.75v7.66a1.75,1.75,0,0,1-1.75,1.75h-6v2.27h6.26a1.75,1.75,0,0,1,1.75,1.75v7.66A1.75,1.75,0,0,1,51.35,75.51ZM35.73,65.84a.27.27,0,0,0-.27.27v7.66a.27.27,0,0,0,.27.27H51.35a.27.27,0,0,0,.27-.27V66.1a.27.27,0,0,0-.27-.27H43.6V60.61h7.51a.27.27,0,0,0,.27-.27V52.68a.27.27,0,0,0-.27-.27H43.6V47H54.08a.27.27,0,0,0,.27-.27V41.46h7.53a.27.27,0,0,0,.27-.27V33.54a.27.27,0,0,0-.27-.27H54.35V28.44H65.63a.27.27,0,0,0,.27-.27V21.92h7.68a.27.27,0,0,0,.27-.27V14a.27.27,0,0,0-.27-.27H58a.27.27,0,0,0-.27.27v7.66a.27.27,0,0,0,.27.27h7.41v6H43.74v-6h7.62a.27.27,0,0,0,.27-.27V14a.27.27,0,0,0-.27-.27H35.74a.27.27,0,0,0-.27.27v7.66a.27.27,0,0,0,.27.27H43.2v6H21v-6h8.11a.27.27,0,0,0,.27-.27V14a.27.27,0,0,0-.27-.27H13.52a.27.27,0,0,0-.27.27v7.66a.27.27,0,0,0,.27.27h7v6.25a.27.27,0,0,0,.27.27H31.65v4.84H24a.27.27,0,0,0-.27.27v7.66a.27.27,0,0,0,.27.27h7.61v5.24a.27.27,0,0,0,.27.27H43.07v5.44H35.49a.27.27,0,0,0-.27.27v7.66a.27.27,0,0,0,.27.27h7.58v5.23Zm15.35,7.66H36V66.37H51.08ZM37.47,72H49.6V67.85H37.47ZM50.84,60.07H35.76V53H50.84ZM37.24,58.59H49.36V54.43H37.24ZM53.81,46.44H32.18v-5h7.48a.27.27,0,0,0,.27-.27V33.54a.27.27,0,0,0-.27-.27H32.18V28.44H53.81v4.84H46.26a.27.27,0,0,0-.27.27v7.66a.27.27,0,0,0,.27.27h7.56ZM33.66,45H52.33v-2H46.26a1.75,1.75,0,0,1-1.75-1.75V33.54a1.75,1.75,0,0,1,1.75-1.75h6.07V29.92H33.66v1.87h6a1.75,1.75,0,0,1,1.75,1.75v7.66a1.75,1.75,0,0,1-1.75,1.75h-6Zm27.95-4H46.53V33.81H61.61ZM48,39.45H60.13V35.29H48Zm-8.61,1.48H24.31V33.81H39.39ZM25.79,39.45H37.91V35.29H25.79ZM73.31,21.39H58.22V14.27H73.31ZM59.7,19.91H71.83V15.75H59.7Zm-8.61,1.48H36V14.27H51.09ZM37.49,19.91H49.61V15.75H37.49Zm-8.61,1.48H13.79V14.27H28.87ZM15.27,19.91H27.39V15.75H15.27Z"/><path class="cls-1" d="M72.29,87.1H14.81A14.82,14.82,0,0,1,0,72.29V14.81A14.82,14.82,0,0,1,14.81,0H72.29A14.82,14.82,0,0,1,87.1,14.81V72.29A14.82,14.82,0,0,1,72.29,87.1ZM14.81,3A11.86,11.86,0,0,0,3,14.81V72.29A11.86,11.86,0,0,0,14.81,84.13H72.29A11.86,11.86,0,0,0,84.13,72.29V14.81A11.86,11.86,0,0,0,72.29,3Z"/></g></g></svg>