<svg xmlns="http://www.w3.org/2000/svg" viewBox="0 0 75.48 81.59"><defs><style>.cls-1{fill:#525793;}</style></defs><title>Coourses</title><g id="Layer_2" data-name="Layer 2"><g id="Layer_1-2" data-name="Layer 1"><path class="cls-1" d="M59.87,13Q55.43,10.43,51,7.88c-2.08-1.19-4-.06-4.07,2.33,0,1.73,0,3.45,0,5.18,0,.88,0,1.75,0,2.63s0,1.75,0,2.63a2.52,2.52,0,0,0,4,2.27q4.53-2.57,9-5.2C61.95,16.51,61.93,14.21,59.87,13Zm-9.7,7V10.75l8,4.62Z"/><path class="cls-1" d="M49.65,45.34l-5.13,3V42.38Z"/><path class="cls-1" d="M49.88,70.8l-5.13,3V67.84Z"/><path class="cls-1" d="M67.7,0H37A6.1,6.1,0,0,0,30.9,6.09v8.82H0V61.17H20.19V73.1H31.58v3.65a4.73,4.73,0,0,0,4.73,4.73H56a4.73,4.73,0,0,0,4.73-4.73V64.86A4.73,4.73,0,0,0,56,60.13H36.31a4.73,4.73,0,0,0-4.73,4.73v3.65h-6.8V47.86h6.58v3.42A4.73,4.73,0,0,0,36.08,56H55.76a4.73,4.73,0,0,0,4.73-4.73V39.39a4.73,4.73,0,0,0-4.73-4.73H36.08a4.73,4.73,0,0,0-4.73,4.73v3.88H20.19V56.58H4.59V19.5H30.9v5.15A6.1,6.1,0,0,0,37,30.74H67.7a6.1,6.1,0,0,0,6.09-6.09V6.09A6.1,6.1,0,0,0,67.7,0ZM36.17,64.86a.14.14,0,0,1,.14-.14H56a.14.14,0,0,1,.14.14V76.75a.14.14,0,0,1-.14.14H36.31a.14.14,0,0,1-.14-.14Zm-.23-25.47a.14.14,0,0,1,.14-.14H55.76a.14.14,0,0,1,.14.14V51.28a.14.14,0,0,1-.14.14H36.08a.14.14,0,0,1-.14-.14ZM69.21,24.65a1.51,1.51,0,0,1-1.5,1.5H37a1.51,1.51,0,0,1-1.5-1.5V6.09A1.51,1.51,0,0,1,37,4.59H67.7a1.51,1.51,0,0,1,1.5,1.5Z"/><path class="cls-1" d="M69.48,53.82h0Z"/><path class="cls-1" d="M71.58,45.09V34.78H67V45.09A6.19,6.19,0,0,0,67,56.6v25h4.59v-25a6.19,6.19,0,0,0,0-11.51Zm-2.1,8.73h-.2a3.1,3.1,0,0,1,0-6.19h.2a3.1,3.1,0,0,1,0,6.19Z"/><path class="cls-1" d="M69.48,47.63h0Z"/></g></g></svg>