<svg xmlns="http://www.w3.org/2000/svg" viewBox="0 0 101.52 95.78"><defs><style>.cls-1{fill:#4f5a8d;}.cls-2{fill:#faaf3b;}</style></defs><title>Courses New Student Website</title><g id="Layer_2" data-name="Layer 2"><g id="Layer_1-2" data-name="Layer 1"><path class="cls-1" d="M49.84,62.08c0-1,0-2,0-3,0-2,0-4,0-6,0-2.75,2.29-4.05,4.68-2.68q5.13,2.93,10.24,5.91c2.37,1.38,2.4,4,0,5.42q-5.18,3-10.4,6a2.91,2.91,0,0,1-4.55-2.61C49.83,64.1,49.84,63.09,49.84,62.08Z"/><path class="cls-1" d="M32.14,78.7a1.42,1.42,0,0,1-.35-.94A1.26,1.26,0,0,1,33,76.45H36.3V76a1.83,1.83,0,0,1,.45-1.22,1.46,1.46,0,0,1,1.09-.5A1.64,1.64,0,0,1,39.38,76v.4H83.75a1.13,1.13,0,0,1,.84.39,1.4,1.4,0,0,1,.35.93,1.26,1.26,0,0,1-1.19,1.32H39.38v.4a1.82,1.82,0,0,1-.45,1.22,1.47,1.47,0,0,1-1.09.5,1.64,1.64,0,0,1-1.54-1.72v-.4H33A1.14,1.14,0,0,1,32.14,78.7Z"/><path class="cls-1" d="M89.12,40H28.26c-2.88,0-4.47,1.58-4.47,4.47V83.08c0,2.88,1.59,4.47,4.47,4.47H89.12c2.88,0,4.47-1.59,4.47-4.47V44.42C93.59,41.54,92,40,89.12,40Zm.53,42.62c0,.83-.2,1-1,1q-29.93,0-59.86,0c-.82,0-1-.19-1-1q0-18.83,0-37.66c0-.83.21-1,1-1,10,0,20,0,29.93,0s20,0,29.93,0c.82,0,1,.19,1,1Q89.6,63.75,89.65,82.58ZM89.12,40H28.26c-2.88,0-4.47,1.58-4.47,4.47V83.08c0,2.88,1.59,4.47,4.47,4.47H89.12c2.88,0,4.47-1.59,4.47-4.47V44.42C93.59,41.54,92,40,89.12,40Zm.53,42.62c0,.83-.2,1-1,1q-29.93,0-59.86,0c-.82,0-1-.19-1-1q0-18.83,0-37.66c0-.83.21-1,1-1,10,0,20,0,29.93,0s20,0,29.93,0c.82,0,1,.19,1,1Q89.6,63.75,89.65,82.58ZM96.59,16a6.9,6.9,0,0,0-1.38-.11c-1.26,0-1.29-.05-1.32-1.27-.1-4.1-2.55-6.56-6.65-6.66C86.06,7.9,86,7.83,86,6.7,85.83,2.44,83.32,0,79,0H6.61C3,0,1,1.45,0,4.86V75.06c.53,2.74,2.31,4.18,4.93,4.75a6.87,6.87,0,0,0,1.38.11c1.26,0,1.29.05,1.32,1.26.1,4.1,2.55,6.56,6.65,6.67,1.18,0,1.24.1,1.28,1.23.13,4.26,2.64,6.7,6.91,6.7H94.92c3.63,0,5.58-1.44,6.61-4.86v-70C101.11,18.05,99.29,16.57,96.59,16ZM7.93,48c0,8.89,0,17.77,0,26.65,0,.8-.16,1.15-1,1-.35-.06-.73,0-1.09,0A2,2,0,0,1,4,73.71c0-.26,0-.53,0-.79q0-25.86,0-51.72c0-.95.28-1.16,1.14-1.08s2.16-.3,2.67.16.17,1.8.18,2.75Q7.94,35.51,7.93,48Zm7.93,7.89c0,8.92,0,17.84,0,26.75,0,.77-.19,1.08-1,.95a3.52,3.52,0,0,0-.59,0c-1.7,0-2.43-.71-2.43-2.39q0-5.65,0-11.3,0-20.41,0-40.82c0-.79.13-1.14,1-1s2.28-.41,2.84.2.15,1.82.15,2.77Q15.87,43.46,15.86,55.89ZM97.56,89c0,1.82-.69,2.49-2.53,2.49H22.48c-2,0-2.65-.62-2.65-2.67q0-25.92,0-51.83c0-.92.28-1,1.09-1,6.67,0,13.35,0,20,0,5.25,0,8.61-2.4,10.28-7.41.2-.59.56-.52,1-.52h22.7c7.27,0,14.54,0,21.8,0,.75,0,.91.19.91.92Q97.54,59,97.56,89ZM89.12,40H28.26c-2.88,0-4.47,1.58-4.47,4.47V83.08c0,2.88,1.59,4.47,4.47,4.47H89.12c2.88,0,4.47-1.59,4.47-4.47V44.42C93.59,41.54,92,40,89.12,40Zm.53,42.62c0,.83-.2,1-1,1q-29.93,0-59.86,0c-.82,0-1-.19-1-1q0-18.83,0-37.66c0-.83.21-1,1-1,10,0,20,0,29.93,0s20,0,29.93,0c.82,0,1,.19,1,1Q89.6,63.75,89.65,82.58ZM89.12,40H28.26c-2.88,0-4.47,1.58-4.47,4.47V83.08c0,2.88,1.59,4.47,4.47,4.47H89.12c2.88,0,4.47-1.59,4.47-4.47V44.42C93.59,41.54,92,40,89.12,40Zm.53,42.62c0,.83-.2,1-1,1q-29.93,0-59.86,0c-.82,0-1-.19-1-1q0-18.83,0-37.66c0-.83.21-1,1-1,10,0,20,0,29.93,0s20,0,29.93,0c.82,0,1,.19,1,1Q89.6,63.75,89.65,82.58ZM89.12,40H28.26c-2.88,0-4.47,1.58-4.47,4.47V83.08c0,2.88,1.59,4.47,4.47,4.47H89.12c2.88,0,4.47-1.59,4.47-4.47V44.42C93.59,41.54,92,40,89.12,40Zm.53,42.62c0,.83-.2,1-1,1q-29.93,0-59.86,0c-.82,0-1-.19-1-1q0-18.83,0-37.66c0-.83.21-1,1-1,10,0,20,0,29.93,0s20,0,29.93,0c.82,0,1,.19,1,1Q89.6,63.75,89.65,82.58Z"/><path class="cls-2" d="M42.86,4.27H78.94c2.28,0,3.36,1.45,2.76,3.66a.34.34,0,0,1-.41.3H36.49c-.3,0-.6,0-.89,0a2,2,0,0,0,0,4c.3,0,.59,0,.89,0H86.88c2.27,0,3.36,1.45,2.75,3.66a.34.34,0,0,1-.41.3H22.51c-4.24,0-6.64,2.39-6.64,6.61,0,1.32,0,1.35-1.36,1.32-.85,0-2,.37-2.46-.17s-.14-1.57-.14-2.38q0-3.52,0-7a2,2,0,0,1,2.33-2.3c1.16,0,2.31,0,3.47,0a2,2,0,1,0,0-4c-1.29,0-2.58,0-3.87,0a6,6,0,0,0-5.87,5.89c0,2,0,2-2,2s-1.93,0-1.93-2q0-3.77,0-7.53C4,5,4.69,4.27,6.38,4.27Z"/><path class="cls-2" d="M58.7,20.13H95a2.64,2.64,0,0,1,2.59,3.72.32.32,0,0,1-.36.24H50.33c-2,0-2.58.48-2.75,2.48A6,6,0,0,1,41.67,32c-7,0-14.07,0-21.11,0-.64,0-.76-.19-.75-.78,0-2.91,0-5.81,0-8.72,0-1.69.72-2.41,2.41-2.41Z"/><path class="cls-1" d="M26.81,12.2a2,2,0,1,1,1.94-2A2,2,0,0,1,26.81,12.2Z"/><path class="cls-1" d="M25.76,28.06a2,2,0,1,1,2-1.91A2,2,0,0,1,25.76,28.06Z"/><path class="cls-1" d="M35.69,26.12a2,2,0,1,1-1.89-2A2,2,0,0,1,35.69,26.12Z"/><path class="cls-1" d="M41.61,24.1a2,2,0,1,1-1.94,2A2,2,0,0,1,41.61,24.1Z"/><path class="cls-2" d="M53.59,53.71,62.81,59l-9.22,5.33Z"/></g></g></svg>