<svg xmlns="http://www.w3.org/2000/svg" viewBox="0 0 102 72.86"><defs><style>.cls-1{fill:#4f5a8d;}.cls-2{fill:#fbb03b;}</style></defs><title>Crowdfunding New Student Website</title><g id="Layer_2" data-name="Layer 2"><g id="Layer_1-2" data-name="Layer 1"><path class="cls-1" d="M0,72.86V72.2Q0,36.48,0,.76c0-.7,0-.7.7-.7h1c.62,0,.54,0,.54.52q0,2.44,0,4.87c0,.55,0,1.11,0,1.66,0,.28.06.39.37.38.72,0,1.44,0,2.16,0,.25,0,.36.05.35.34,0,1.16.17.92-.91.94-.52,0-1,0-1.55,0s-.41,0-.41.38c0,1.4,0,2.81,0,4.21,0,.26.06.36.34.35.72,0,1.44,0,2.16,0,.27,0,.39,0,.39.36,0,.94,0,.94-.92.94H2.53c-.2,0-.3,0-.3.27q0,2.19,0,4.38c0,.24.11.27.31.27.65,0,1.29,0,1.94,0,.27,0,.34.08.34.34,0,1,0,1-.9,1H2.54c-.19,0-.31,0-.3.27q0,2.19,0,4.38c0,.23.1.27.3.27.74,0,1.48,0,2.22,0,.3,0,.36.1.37.38,0,.92,0,.92-.89.92-.55,0-1.11,0-1.66,0-.28,0-.34.1-.33.35q0,2.13,0,4.26c0,.24.08.32.31.31.74,0,1.48,0,2.22,0,.26,0,.36.06.35.34,0,1.2.18.94-.95,1-.54,0-1.07,0-1.61,0-.22,0-.33,0-.33.3q0,2.16,0,4.32c0,.27.12.29.33.29.68,0,1.37,0,2,0,.26,0,.38.06.35.34a3.33,3.33,0,0,0,0,.61c0,.3-.11.37-.39.36-.68,0-1.37,0-2,0-.21,0-.29.05-.29.28q0,2.19,0,4.38c0,.26.14.25.31.25.74,0,1.48,0,2.22,0,.26,0,.36.06.35.34,0,1.2.18.94-.95,1-.54,0-1.07,0-1.61,0-.22,0-.33,0-.33.3q0,2.16,0,4.32c0,.25.1.31.32.3H4.72c.38,0,.38,0,.39.4,0,.9,0,.9-.89.9H2.5c-.18,0-.26.05-.26.25q0,2.19,0,4.38c0,.22.08.28.29.28.74,0,1.48,0,2.22,0,.29,0,.37.09.38.38,0,.93,0,.93-.92.93H2.53c-.2,0-.3,0-.3.28q0,2.19,0,4.38c0,.25.14.25.31.25H4.71c.39,0,.39,0,.4.39,0,.91,0,.91-.88.91H2.56c-.22,0-.33,0-.33.3q0,2.82,0,5.65c0,.23.06.32.31.32H8.91c.25,0,.33-.09.31-.33a1.35,1.35,0,0,1,0-.17c0-1,0-1,1.05-.9.16,0,.23.07.23.23s0,.55,0,.83,0,.34.3.33h4.93c.23,0,.28-.1.27-.3s0-.55,0-.83.06-.25.25-.27c1-.1,1-.1,1,1,0,.43,0,.43.42.43h4.65c.44,0,.44,0,.45-.46,0-.8,0-.79.84-.79.44,0,.43,0,.43.42,0,.84,0,.84.85.84H29.2c.45,0,.42,0,.42-.43,0-.09,0-.18,0-.28,0-.69,0-.69.71-.69h.17c.41,0,.41,0,.42.43,0,.18,0,.37,0,.55,0,.4,0,.4.38.41H36c.41,0,.41,0,.42-.44,0,0,0,0,0-.06,0-1,0-1,1.06-.9.16,0,.23.07.22.23s0,.55,0,.83.06.33.31.33h4.93c.19,0,.33,0,.3-.28a.64.64,0,0,1,0-.17c0-.28-.14-.67.1-.83s.64,0,1-.05c.16,0,.23.09.22.25s0,.52,0,.78.09.31.32.31h3.38c.48,0,1,0,1.44,0,.31,0,.38-.11.36-.38s0-.52,0-.78.06-.24.23-.23h.83c.21,0,.24.1.24.28s0,.55,0,.83.09.29.29.28h4.82c.41,0,.41,0,.42-.43,0-.06,0-.11,0-.17,0-.25-.12-.62.07-.73A2.18,2.18,0,0,1,58,69.54c.11,0,.12.12.12.21,0,.28,0,.55,0,.83s0,.34.3.34h4.93c.22,0,.29-.09.28-.29s0-.55,0-.83.06-.25.25-.27c1-.1,1-.1,1.05,1,0,.44,0,.43.41.43H70c.41,0,.41,0,.41-.44,0,0,0,0,0-.06,0-1,0-1,1.06-.9.17,0,.22.09.21.24s0,.59,0,.89.08.27.26.26H92c.81,0,.67-.06.68.67,0,.35,0,.7,0,1.05,0,.17-.07.23-.23.23H0Z"/><path class="cls-1" d="M53,43.69q0-9.41,0-18.83a6.23,6.23,0,0,1,.14-1.54,4.4,4.4,0,0,1,4.1-3.38c1.88-.06,3.77-.06,5.65,0a4.43,4.43,0,0,1,4.22,4.43c0,2.25,0,4.5,0,6.76q0,15.89,0,31.79a4.46,4.46,0,0,1-2.91,4.24,4.27,4.27,0,0,1-1.51.28H57.45a4.43,4.43,0,0,1-4.39-4.08c0-.31,0-.63,0-.94Q53,53,53,43.69Z"/><path class="cls-1" d="M32.43,45.39q0-8.56,0-17.11a6.19,6.19,0,0,1,.14-1.54,4.4,4.4,0,0,1,4.11-3.37q2.79-.08,5.59,0a4.43,4.43,0,0,1,4.26,4.45c0,4,0,7.9,0,11.85q0,11.6,0,23.2A4.35,4.35,0,0,1,43.91,67a4,4,0,0,1-1.76.4H36.83a4.42,4.42,0,0,1-4.37-4.1c0-.31,0-.63,0-.94Q32.43,53.89,32.43,45.39Z"/><path class="cls-1" d="M84.36,54.9c0,.25-.11.34-.33.31s-.35.08-.43.31a1.52,1.52,0,0,1-1.19.86c.49.65,1.06,1.19,1.53,1.89-.53.11-.9.1-1.22-.34s-.74-.87-1.11-1.3a1.8,1.8,0,0,1-.21-.25c-.18-.32,0-.59.33-.62a3.26,3.26,0,0,0,.6-.08.58.58,0,0,0,.49-.47H81.67c-.22,0-.34-.05-.34-.31s.13-.27.32-.27h1a1.12,1.12,0,0,0-1-.37c-.33,0-.36-.06-.35-.39,0-.18.08-.27.26-.27h2.49c.24,0,.25.14.26.32s-.08.26-.26.25h-.51c0,.34.13.5.46.46C84.23,54.61,84.36,54.67,84.36,54.9Z"/><path class="cls-1" d="M94.15,54c0-.22-.07-.32-.3-.36-.69-.12-1.37-.29-2.06-.41a.45.45,0,0,1-.41-.37,6.66,6.66,0,0,0-.63-1.53.43.43,0,0,1,0-.54c.39-.54.77-1.09,1.14-1.63.22-.33.22-.33-.07-.63-.69-.69-1.39-1.38-2.07-2.08-.2-.21-.36-.25-.6-.08-.56.39-1.14.75-1.7,1.14a.44.44,0,0,1-.55,0A5.82,5.82,0,0,0,85.56,47a.46.46,0,0,1-.38-.45c-.1-.66-.24-1.31-.35-2,0-.27-.14-.41-.45-.4-1,0-2,0-3,0-.31,0-.42.13-.46.4-.12.63-.26,1.26-.37,1.9a.51.51,0,0,1-.42.5,5.2,5.2,0,0,0-1.43.59.48.48,0,0,1-.59-.06c-.56-.39-1.14-.75-1.7-1.14a.34.34,0,0,0-.52,0q-1.1,1.13-2.23,2.23a.27.27,0,0,0,0,.42c.37.53.72,1.07,1.11,1.59a.62.62,0,0,1,.08.82,4.93,4.93,0,0,0-.56,1.38.48.48,0,0,1-.45.4c-.67.11-1.33.28-2,.4-.26,0-.33.15-.32.4,0,1,0,2,0,3,0,.32.13.41.4.45.64.11,1.27.24,1.91.33.27,0,.42.12.5.4a5.09,5.09,0,0,0,.55,1.32.51.51,0,0,1-.05.64c-.39.56-.75,1.14-1.14,1.7a.31.31,0,0,0,0,.47q1.13,1.1,2.23,2.23a.3.3,0,0,0,.46,0c.57-.41,1.16-.79,1.73-1.2a.42.42,0,0,1,.54,0A4.82,4.82,0,0,0,80,64a.72.72,0,0,1,.62.7c.08.62.24,1.23.37,1.84,0,.21.13.31.36.3s.7,0,1.05,0h2.39c.15-.82.31-1.59.44-2.38a.43.43,0,0,1,.35-.41,6.23,6.23,0,0,0,1.42-.6.46.46,0,0,1,.59,0c.63.46,1.27.89,1.94,1.35L92,62.41A.28.28,0,0,0,92,62c-.4-.6-.79-1.2-1.2-1.8a.41.41,0,0,1,0-.5,6.16,6.16,0,0,0,.6-1.42c.07-.26.21-.34.46-.37.68-.1,1.35-.24,2-.36.2,0,.33-.1.32-.35C94.14,56.14,94.14,55.09,94.15,54Zm-6.61,1.49a4.73,4.73,0,1,1-4.72-4.72A4.72,4.72,0,0,1,87.54,55.52Z"/><path class="cls-1" d="M11.92,50.59q0-6.06,0-12.12a4.45,4.45,0,0,1,1.55-3.53,4.27,4.27,0,0,1,2.88-1.09c1.72,0,3.43,0,5.15,0A4.48,4.48,0,0,1,26,38.32s0,.07,0,.11q0,12.2,0,24.41a4.39,4.39,0,0,1-2.2,4,4.14,4.14,0,0,1-2.21.62c-1.7,0-3.4,0-5.09,0a4.51,4.51,0,0,1-4.62-4.61C11.93,58.75,11.92,54.67,11.92,50.59Z"/><path class="cls-1" d="M66.86,13.29h-3.6c-.43,0-.43,0-.56.41a3.44,3.44,0,0,1-3.25,2.47,3.4,3.4,0,0,1-3.33-2.35c-.14-.41-.13-.4-.59-.31l-4.77,1L43.35,16c-.28.06-.38.12-.37.45a3.45,3.45,0,0,1-5.79,2.69.45.45,0,0,0-.57-.09L22.43,25.36c-.33.15-.32.15-.2.58A3.45,3.45,0,1,1,17,24.07a3.35,3.35,0,0,1,4,.14.78.78,0,0,0,1,.11l13.83-6.16.15-.06c.3-.08.33-.24.25-.53A3.33,3.33,0,0,1,37,14.27a3.41,3.41,0,0,1,5.27.29.71.71,0,0,0,.87.31q6.09-1.26,12.19-2.49l.16,0a.59.59,0,0,0,.58-.52,3.43,3.43,0,0,1,6.62-.07.44.44,0,0,0,.53.39c2.34,0,4.69,0,7,0,.13,0,.26,0,.39,0s.27.1.27.3c0,.84,0,.84-.79.84Z"/><path class="cls-1" d="M70.71,42.34V65.71c0,.11,0,.22,0,.33,0,.43,0,.42-.42.42H68.85c-.18,0-.28-.05-.26-.25s0-.26,0-.39q0-23.51,0-47c0-.67,0-.67.67-.67.39,0,.78,0,1.16,0,.21,0,.31.06.29.28s0,.3,0,.44Q70.71,30.6,70.71,42.34Z"/><path class="cls-1" d="M48.54,43.5q0-11.16,0-22.31c0-.72-.1-.62.6-.63.41,0,.81,0,1.22,0,.25,0,.33.09.31.32s0,.26,0,.39q0,22.26,0,44.51c0,.68,0,.68-.66.68H48.79c-.2,0-.26-.08-.25-.26s0-.3,0-.44Q48.54,54.63,48.54,43.5Z"/><path class="cls-1" d="M30.35,45.83V65.65c0,.11,0,.22,0,.33,0,.48,0,.48-.48.48s-.89,0-1.33,0c-.27,0-.37-.09-.34-.36a2.81,2.81,0,0,0,0-.33q0-19.93,0-39.86c0-.8-.12-.69.7-.7h1.16c.22,0,.3.09.28.3s0,.3,0,.44Q30.35,35.89,30.35,45.83Z"/><path class="cls-1" d="M94.11,37.76h-.34c0,.29.15.39.38.37s.25,0,.25.21-.09.23-.24.23-.26,0-.32.14a1.21,1.21,0,0,1-1,.76L94,40.9c-.48.2-.59.18-.85-.11l-1-1.13a.82.82,0,0,1-.16-.22c-.1-.26,0-.4.28-.44s.63,0,.84-.37a3.52,3.52,0,0,0-.87,0c-.18,0-.28-.06-.28-.25s.13-.19.27-.19h.87a.93.93,0,0,0-.86-.29c-.23,0-.28-.11-.27-.3s.06-.24.23-.24h1.88c.15,0,.24,0,.25.21S94.27,37.77,94.11,37.76Z"/><path class="cls-1" d="M93.17,34.07a4.75,4.75,0,1,0,4.77,4.72A4.73,4.73,0,0,0,93.17,34.07Zm0,8.22a3.47,3.47,0,1,1,3.46-3.44A3.46,3.46,0,0,1,93.18,42.28Z"/><path class="cls-1" d="M102,37.65c0-.3-.13-.38-.37-.43-.43-.08-.86-.19-1.3-.25a.54.54,0,0,1-.52-.46,3.4,3.4,0,0,0-.34-.81.44.44,0,0,1,0-.55c.3-.4.57-.82.86-1.23.11-.16.13-.27,0-.42-.62-.6-1.23-1.22-1.84-1.84a.28.28,0,0,0-.43,0c-.21.15-.43.28-.65.42a3.12,3.12,0,0,1-.84.52c-.31.08-.59-.24-.91-.33l-.21-.07c-.24,0-.32-.2-.35-.42-.08-.49-.19-1-.26-1.47,0-.23-.13-.31-.36-.3H92.67c-.31,0-.69-.12-.92,0s-.2.6-.27.92a3.57,3.57,0,0,1-.24,1c-.18.28-.62.26-.92.43a1.77,1.77,0,0,0-.2.1c-.22.16-.39.08-.59-.06-.41-.29-.84-.54-1.25-.83a.28.28,0,0,0-.43,0l-2,2c.35.51.66,1,1,1.44a.48.48,0,0,1,.06.6,4,4,0,0,0-.36.87.49.49,0,0,1-.47.39c-.45.07-.9.18-1.35.27a.36.36,0,0,0-.36.44c0,.7,0,1.4,0,2.1s0,.65.61.76a4.58,4.58,0,0,0,.6.11,1.05,1.05,0,0,1,1.15.92,1,1,0,0,0,.16.35.39.39,0,0,1,0,.5c-.3.42-.57.86-.86,1.29a.3.3,0,0,0,0,.47c.39.36.76.75,1.14,1.13l.84.8a3.14,3.14,0,0,0,1-.64,1,1,0,0,1,1.45-.16,1.19,1.19,0,0,0,.46.18c.25,0,.31.19.35.42.08.49.21,1,.3,1.46a.28.28,0,0,0,.33.27h2.55c.22,0,.33-.05.36-.3.06-.42.17-.83.22-1.25s.15-.62.56-.69a2.06,2.06,0,0,0,.66-.28.46.46,0,0,1,.59.06c.39.28.8.54,1.18.82.21.15.34.12.51-.06q.85-.88,1.72-1.72c.18-.17.23-.3.07-.51s-.38-.64-.62-.92a.9.9,0,0,1-.1-1.23,1,1,0,0,0,.16-.41c.05-.3.24-.37.51-.4.45-.06.91-.16,1.36-.24.24,0,.33-.15.33-.41C102,39.28,102,38.46,102,37.65Zm-1.93,1.82a4.54,4.54,0,0,1-.82.12c-.34,0-.43.18-.49.46A4.91,4.91,0,0,1,98,41.93a.42.42,0,0,0,0,.58c.26.33.48.69.73,1,.1.14.13.25,0,.37s-.26.26-.39.39a2,2,0,0,1-.18.13l-.24-.16c-.34-.25-.69-.49-1-.75a.32.32,0,0,0-.44,0,5.61,5.61,0,0,1-2.12.9.38.38,0,0,0-.33.38c0,.35-.09.69-.15,1-.09.5-.09.5-.58.5s-.52,0-.62-.53c-.07-.36-.15-.72-.19-1.09a.3.3,0,0,0-.27-.29,5.64,5.64,0,0,1-2.22-.93c-.18-.13-.3-.06-.44,0-.34.25-.7.48-1,.75s-.3.11-.47,0c-.51-.48-.52-.47-.12-1,.22-.32.55-.62.62-1s-.33-.62-.48-1a5.35,5.35,0,0,1-.39-1.15c-.06-.34-.18-.56-.59-.56A9.92,9.92,0,0,1,86,39.41c-.2,0-.28-.1-.29-.31-.05-.74,0-.75.67-.89.29-.05.58-.11.87-.14a.35.35,0,0,0,.36-.33,5.67,5.67,0,0,1,.92-2.17.32.32,0,0,0,0-.43c-.26-.34-.49-.69-.75-1-.13-.17-.16-.28,0-.46.51-.52.49-.53,1.1-.11.26.18.52.35.77.54a.29.29,0,0,0,.39,0,5.49,5.49,0,0,1,2.18-.89.3.3,0,0,0,.27-.29c.06-.42.15-.83.22-1.25s.15-.38.44-.36c.7,0,.61-.18.76.67.05.29.1.58.13.87a.37.37,0,0,0,.33.37,5.35,5.35,0,0,1,2,.84.39.39,0,0,0,.54,0c.34-.25.7-.48,1-.73a.26.26,0,0,1,.42,0l.12.12c.45.48.47.28.06.87q-.29.43-.62.85a.28.28,0,0,0,0,.39,5.68,5.68,0,0,1,.93,2.23c0,.21.16.26.34.28l1.31.23c.18,0,.24.1.26.29C100.79,39.3,100.76,39.35,100.07,39.48Z"/><path class="cls-1" d="M26.61,12a1.28,1.28,0,0,0-1.44-.42l-.32.09c-.9.27-1.8.53-2.69.83a.61.61,0,0,1-.77-.18A1.35,1.35,0,0,0,20,11.83a2.65,2.65,0,0,1-1.76-.29,12.23,12.23,0,0,0-1.65-.77c-.77-.22-1.13-.61-.9-1.42,0-.22,0-.44,0-.66A3.86,3.86,0,0,1,18.76,5,10.16,10.16,0,0,1,21,5a3.85,3.85,0,0,1,3.63,3.09,10.18,10.18,0,0,1,.09,1.38c0,.38.33.57.63.41s.2-.3.21-.48a4.74,4.74,0,0,0-3.27-5,.5.5,0,0,1-.4-.54,1.14,1.14,0,0,1,.19-.73l.81-1.19a.49.49,0,0,0-.06-.69C22.56.89,22.28.58,22,.28S21.54,0,21.19.19a5.48,5.48,0,0,0-.65.42.45.45,0,0,1-.64,0,9.39,9.39,0,0,0-.78-.52.39.39,0,0,0-.54.07l-1,1.05a.47.47,0,0,0,0,.65l.66,1a1.71,1.71,0,0,1,.31.64c.12.55,0,.71-.5.89a4.61,4.61,0,0,0-3.18,4.29q0,.69,0,1.38c0,.25-.06.39-.34.38a2.38,2.38,0,0,0-.81.13c-1.52.45-3,.9-4.55,1.38a.91.91,0,0,0-.69,1.28Q9,15,9.6,16.87a.9.9,0,0,0,1.36.58c.24-.1.46-.24.69-.36.61-.3,1.21-.62,1.83-.9a1.69,1.69,0,0,1,1.49,0c1,.47,2.1.89,3.14,1.36a2.51,2.51,0,0,0,2.19,0c.4-.19.81-.35,1.19-.57,1.49-.88,3-1.78,4.46-2.67a2.14,2.14,0,0,0,.73-.67A1.43,1.43,0,0,0,26.61,12ZM20.83,4.1a5.82,5.82,0,0,1-.6,0v0a4,4,0,0,0-.44,0c-.22,0-.36,0-.35-.29s0-.48.29-.5.77,0,1.15,0c.21,0,.2.17.2.32S21.11,4.07,20.83,4.1Zm-2.1-2.86c.24-.24.3-.25.61,0l.64.43a.49.49,0,0,0,.61,0c.23-.16.46-.3.7-.44s.43.06.61.21.1.3,0,.48a1,1,0,0,1-1.14.63,3.14,3.14,0,0,0-.55,0h0a2.34,2.34,0,0,0-.44,0,1,1,0,0,1-1.14-.62C18.46,1.53,18.43,1.55,18.73,1.25Z"/><path class="cls-1" d="M20,9.55c.49.59,1,1.15,1.47,1.78-.59.23-.76.19-1.12-.22L19.09,9.69c-.08-.1-.2-.18-.21-.32,0-.4,0-.51.37-.49a2.06,2.06,0,0,0,.66-.07.53.53,0,0,0,.45-.45H19.21c-.13,0-.26,0-.32-.15a.29.29,0,0,1,.26-.42c.37,0,.73,0,1.15,0-.17-.33-.43-.33-.67-.37a3.33,3.33,0,0,0-.39,0c-.35,0-.4-.09-.37-.43,0-.16.09-.23.24-.23h2.55c.22,0,.21.14.22.3s0,.29-.24.27-.33,0-.5,0c.06.43.06.44.45.47.2,0,.31.06.31.29s-.1.32-.3.29a.38.38,0,0,0-.48.32,1.18,1.18,0,0,1-.74.7C20.26,9.42,20.1,9.42,20,9.55Z"/><path class="cls-1" d="M25.22,10.31a.39.39,0,0,1,.41.42.42.42,0,0,1-.42.42.44.44,0,0,1-.42-.43A.41.41,0,0,1,25.22,10.31Z"/><path class="cls-2" d="M65.84,43.68q0,9.58,0,19.16a3.22,3.22,0,0,1-.9,2.36,2.93,2.93,0,0,1-2.12.93c-1.83,0-3.65,0-5.48,0a3.11,3.11,0,0,1-3-3c0-.22,0-.44,0-.66q0-18.77,0-37.54a5,5,0,0,1,.13-1.37,3.07,3.07,0,0,1,2.93-2.29c1.81,0,3.62,0,5.43,0a3.07,3.07,0,0,1,3,3.11c0,3.36,0,6.72,0,10.08Q65.84,39.05,65.84,43.68Z"/><path class="cls-2" d="M45.23,45.45q0,8.72,0,17.44a3.16,3.16,0,0,1-.9,2.31,2.92,2.92,0,0,1-2.12.94c-1.83,0-3.65,0-5.48,0a3.11,3.11,0,0,1-3-3c0-.2,0-.41,0-.61q0-17.11,0-34.22A4.1,4.1,0,0,1,34,26.5a2.91,2.91,0,0,1,2.64-1.81c1.88-.06,3.76-.06,5.65,0a3.07,3.07,0,0,1,2.92,3c0,.7,0,1.4,0,2.1Q45.23,37.61,45.23,45.45Z"/><path class="cls-2" d="M92.85,55.18c0-.4,0-.41-.42-.49s-1.12-.24-1.68-.31a.43.43,0,0,1-.42-.41,6.74,6.74,0,0,0-1.07-2.59.51.51,0,0,1,0-.72c.35-.45.66-.93,1-1.39a.3.3,0,0,0,0-.47,7.26,7.26,0,0,1-.7-.71c-.19-.22-.35-.19-.56,0-.46.34-.95.64-1.41,1a.47.47,0,0,1-.63,0A7,7,0,0,0,84.43,48a.45.45,0,0,1-.4-.44c-.08-.55-.17-1.09-.26-1.64s-.08-.45-.51-.46-.59,0-.89,0-.36.07-.4.33c-.09.58-.23,1.16-.31,1.74a.47.47,0,0,1-.44.47,7,7,0,0,0-2.59,1.07.44.44,0,0,1-.58,0c-.49-.36-1-.69-1.5-1a.31.31,0,0,0-.48,0,7,7,0,0,1-.71.7c-.23.19-.19.35,0,.55.35.47.68,1,1,1.43a.39.39,0,0,1,0,.54A7.09,7.09,0,0,0,75.29,54c-.06.29-.2.38-.47.42-.56.09-1.12.21-1.68.3-.26,0-.39.15-.37.44a9,9,0,0,1,0,1c0,.23.09.32.31.35.57.08,1.12.22,1.69.27.37,0,.49.21.56.53a6.49,6.49,0,0,0,1,2.33.58.58,0,0,1,0,.78c-.39.53-.75,1.09-1.11,1.61l1.15,1.2c.58-.42,1.15-.82,1.72-1.23a.39.39,0,0,1,.53,0,7.33,7.33,0,0,0,2.74,1.14.4.4,0,0,1,.37.39c.07.47.14,1,.24,1.41.18.8,0,.69.81.7.2,0,.41,0,.61,0s.4-.09.44-.36c.08-.55.18-1.09.25-1.64,0-.3.14-.49.48-.55A6.64,6.64,0,0,0,87,62a.46.46,0,0,1,.63,0c.47.36,1,.69,1.43,1,.18.13.31.14.47,0s.44-.45.66-.67.28-.29,0-.64-.66-1-1-1.45a.37.37,0,0,1,0-.49,7.34,7.34,0,0,0,1.08-2.58.43.43,0,0,1,.43-.4c.6-.07,1.2-.2,1.8-.29.23,0,.32-.13.31-.36S92.86,55.5,92.85,55.18ZM82.8,60.26a4.73,4.73,0,1,1,4.75-4.73A4.7,4.7,0,0,1,82.8,60.26Z"/><path class="cls-2" d="M24.73,50.65q0,6.09,0,12.18a3.29,3.29,0,0,1-.68,2.12,2.93,2.93,0,0,1-2.34,1.18c-1.83,0-3.65,0-5.48,0a3.1,3.1,0,0,1-3-3c0-.18,0-.37,0-.55q0-12,0-23.92a4.43,4.43,0,0,1,.07-1,3.09,3.09,0,0,1,3.07-2.54c1.16,0,2.33,0,3.49,0H21.5a3.17,3.17,0,0,1,3.24,3.26C24.72,42.49,24.73,46.57,24.73,50.65Z"/><path class="cls-2" d="M59.41,15a2.31,2.31,0,0,1,0-4.61,2.31,2.31,0,1,1,0,4.61Z"/><path class="cls-2" d="M39.53,18.93a2.29,2.29,0,1,1,2.3-2.31A2.27,2.27,0,0,1,39.53,18.93Z"/><path class="cls-2" d="M21.22,26.95A2.29,2.29,0,1,1,19,24.65,2.27,2.27,0,0,1,21.22,26.95Z"/><path class="cls-2" d="M15,11.23a2.55,2.55,0,0,1,1.39.31l1.69.83a3.3,3.3,0,0,0,2,.33.86.86,0,0,1,.54.05.64.64,0,0,1,.42.47c0,.23-.19.29-.34.39a2.7,2.7,0,0,1-2.57.37l-1-.37a.86.86,0,0,0-.43-.08.38.38,0,0,0-.24.63.45.45,0,0,0,.17.14c1.33.54,2.65,1.09,4.07.29a2.27,2.27,0,0,0,1.11-1,.56.56,0,0,1,.4-.27l3.12-1,.11,0c.24,0,.51-.08.63.19a.63.63,0,0,1-.14.72,1.42,1.42,0,0,1-.31.23c-1.42.86-2.84,1.72-4.26,2.57-.4.23-.82.42-1.23.63a1.88,1.88,0,0,1-1.66,0l-3-1.31-.15-.07a2.37,2.37,0,0,0-2.08,0c-.8.34-1.55.78-2.32,1.16-.41.2-.41.21-.55-.24-.33-1.06-.64-2.12-1-3.17-.09-.28,0-.4.24-.48,1.51-.43,3-.94,4.5-1.33A5.35,5.35,0,0,1,15,11.23Z"/><path class="cls-1" d="M82.81,49.51a6,6,0,1,0,6,6A6,6,0,0,0,82.81,49.51Zm0,10.75a4.73,4.73,0,1,1,4.75-4.73A4.7,4.7,0,0,1,82.8,60.26Z"/></g></g></svg>