<svg xmlns="http://www.w3.org/2000/svg" viewBox="0 0 463.86 463.3"><defs><style>.cls-1{fill:#43464b;}.cls-2{fill:#43464b;}</style></defs><title>Asset 4</title><g id="Layer_2" data-name="Layer 2"><g id="Layer_1-2" data-name="Layer 1"><path class="cls-1" d="M317.88,175.32a15.35,15.35,0,0,0-2.63-.12H232q-41.88,0-83.75,0a10.16,10.16,0,0,0-5.48,1.42,8.22,8.22,0,0,0-4,5.19c-.69,2.76-.22,5.55.14,8.26s.38,5.54.71,8.3.51,5.39.71,8.08a53.19,53.19,0,0,0,.45,6.18,74.07,74.07,0,0,1,.78,8.53c.2,2.77.49,5.55.69,8.32a50.93,50.93,0,0,0,.45,6.18,74.07,74.07,0,0,1,.78,8.53c.2,2.77.49,5.55.69,8.32a42.31,42.31,0,0,0,.46,6.18,53.87,53.87,0,0,1,.74,7.58c.21,2.84.6,5.69.68,8.56a37.22,37.22,0,0,0,.46,5.69c.42,2.15.17,4.31.49,6.42.45,3.07.67,6.16.87,9.25.16,2.46.34,4.93.62,7.36.23,2,0,4,.44,5.94a54.35,54.35,0,0,1,.77,7.82c.19,2.85.56,5.7.7,8.56a54.65,54.65,0,0,0,.43,5.7c.52,3.22.62,6.48.87,9.72.19,2.46.4,4.92.6,7.37.26,3.08.65,6.16.84,9.25.24,3.91,2.7,8.17,7.27,8.88a24.83,24.83,0,0,0,4,.43H296a42,42,0,0,0,7.15-.41,8.86,8.86,0,0,0,7.55-8c.27-2.3.18-4.62.55-6.89a80.84,80.84,0,0,0,.76-8c.17-2.78.51-5.55.69-8.33a43.35,43.35,0,0,1,.45-5.69,72.26,72.26,0,0,0,.78-8.54c.2-2.77.52-5.54.69-8.32a42,42,0,0,1,.45-5.7,71.91,71.91,0,0,0,.78-8.53c.2-2.77.52-5.55.69-8.32a33.89,33.89,0,0,1,.46-5.7c.62-2.74.44-5.54.73-8.3s.53-5.38.73-8.07a43.76,43.76,0,0,1,.46-6.18c.6-2.74.45-5.54.73-8.3s.53-5.39.73-8.08a43.73,43.73,0,0,1,.46-6.17c.59-2.75.47-5.54.74-8.3s.52-5.39.72-8.08c.15-2,.1-4.14.44-6.18.5-3.06.61-6.16.82-9.25.17-2.45.46-4.9.64-7.36.25-3.48.73-7,.84-10.45a22.32,22.32,0,0,1,.31-2.59C326.11,181.75,324.65,176.52,317.88,175.32ZM197.4,332.18c-1.34,3.82-4.43,5.88-8.91,5.74a8.12,8.12,0,0,1-7.5-6.32,51.32,51.32,0,0,1-1-7.31c-.23-2.44-.49-4.89-.84-7.32-.27-1.89-.18-3.79-.44-5.7-.3-2.26-.47-4.58-.63-6.88-.22-2.93-.45-5.85-.85-8.76-.28-2-.4-4.13-.49-6.17-.13-2.63-.42-5.26-.71-7.84s-.14-4.91-.72-7.34a30.68,30.68,0,0,1-.48-5.68c-.12-2.63-.49-5.24-.69-7.85a54.9,54.9,0,0,0-.73-6.85,45.3,45.3,0,0,1-.51-6.17c-.16-2.62-.44-5.24-.7-7.83a57.17,57.17,0,0,0-.73-7.35,30.74,30.74,0,0,1-.47-5.68c-.13-2.79-.73-5.53-.63-8.33.07-1.66-.82-3.27-.45-4.59,0-1,0-1.51,0-2.06a8.44,8.44,0,0,1,4.85-7.43,8.06,8.06,0,0,1,8.39.51c3.2,2,4.21,5.07,4.48,8.51.25,3.17.61,6.32.88,9.48.19,2.29.43,4.59.59,6.88.21,2.93.45,5.85.85,8.77.28,2,.39,4.12.49,6.17.13,2.62.43,5.25.71,7.83a67.68,67.68,0,0,0,.71,7.35,34.2,34.2,0,0,1,.5,5.92c.13,2.63.44,5.25.71,7.84a63.08,63.08,0,0,0,.71,7.34,35.39,35.39,0,0,1,.5,5.92c.13,2.63.44,5.25.7,7.84.25,2.43.14,4.91.74,7.34a32.86,32.86,0,0,1,.45,5.45c.17,2.46.39,4.93.69,7.36s.4,5.05.71,7.57C198,325.72,198.52,329,197.4,332.18Zm42.94-.65a8.69,8.69,0,0,1-17.09-2.34q0-29.25,0-58.52,0-29,0-58c0-3.7,1.44-6.64,5-8.26,5.85-2.65,11.85,1.7,12.33,6.67.17,1.82.4,3.62.4,5.46q0,55,0,110.08A19.13,19.13,0,0,1,240.34,331.53Zm53.59-117.29c-.51,2-.33,4.11-.48,6.17-.19,2.61-.47,5.23-.71,7.83a57.06,57.06,0,0,1-.75,7.58,41.19,41.19,0,0,0-.46,5.69c-.22,2.44-.45,4.92-.72,7.35s-.13,5.08-.74,7.58a36.43,36.43,0,0,0-.44,5.45c-.22,2.45-.46,4.91-.69,7.36a79.42,79.42,0,0,1-.8,8.28,52.17,52.17,0,0,0-.43,5.46c-.22,2.37-.6,4.73-.67,7.12-.09,2.61-.52,5.21-.79,7.81-.06.55-.11,1.11-.13,1.67a83.22,83.22,0,0,1-.89,9.71c-.26,1.89-.29,3.81-.42,5.7-.19,2.61-.47,5.24-.71,7.84a73,73,0,0,1-.81,8,9,9,0,0,1-10.17,7,9.3,9.3,0,0,1-6.71-5.23c-.71-1.38-.32-2.82-.52-4.71.61-3,.39-6.5.94-10a48.87,48.87,0,0,0,.48-5.92c.09-2.64.41-5.26.71-7.84s.15-4.91.71-7.35a30.69,30.69,0,0,0,.49-5.68c.09-2.63.46-5.24.7-7.84a55.18,55.18,0,0,1,.7-6.86,39.49,39.49,0,0,0,.52-6.16c.14-2.62.44-5.25.71-7.83a65.26,65.26,0,0,1,.71-7.35,35.31,35.31,0,0,0,.5-5.92c.13-2.62.44-5.24.7-7.84a67.77,67.77,0,0,1,.72-7.34,35.31,35.31,0,0,0,.5-5.92c.13-2.62.6-5.21.65-7.85a80,80,0,0,1,.94-9.23c.57-4.12,3.83-7,8.18-7.46a9.08,9.08,0,0,1,8.67,5.61A8.53,8.53,0,0,1,293.93,214.24Z"/><path class="cls-1" d="M140.61,154.26a7.33,7.33,0,0,1-1.89-4.76c-.2-4.69,1.7-8.73,3.73-12.7a42.24,42.24,0,0,1,10.15-12.6,43.75,43.75,0,0,1,16.09-9.09A50.15,50.15,0,0,1,184,113.26c6.71.09,13.43,0,20.15,0H207a12.09,12.09,0,0,0-1.67-2.82,8.62,8.62,0,0,1-1-9.47,8.47,8.47,0,0,1,8.07-5c13,0,26.07.07,39.1,0,3.69,0,8.7,3.62,9.09,8a8.31,8.31,0,0,1-2.27,6.58,18.06,18.06,0,0,1-2,1.59,5,5,0,0,0,3.82,1.13c8.08,0,16.15-.05,24.23,0a39.22,39.22,0,0,1,15.27,3.43,36.56,36.56,0,0,1,8.36,4.63c3.74,3,7.35,6,10.09,10.09a56.93,56.93,0,0,1,5.85,10.9,28.17,28.17,0,0,1,1.43,5.29c.66,3.51-2,8.37-5.46,9a24.35,24.35,0,0,1-4.67.77q-83.25,0-166.49,0C145.63,157.45,142.79,156.74,140.61,154.26Z"/><path class="cls-2" d="M317.88,175.32a15.35,15.35,0,0,0-2.63-.12H232q-41.88,0-83.75,0a10.16,10.16,0,0,0-5.48,1.42,8.22,8.22,0,0,0-4,5.19c-.69,2.76-.22,5.55.14,8.26s.38,5.54.71,8.3.51,5.39.71,8.08a53.19,53.19,0,0,0,.45,6.18,74.07,74.07,0,0,1,.78,8.53c.2,2.77.49,5.55.69,8.32a50.93,50.93,0,0,0,.45,6.18,74.07,74.07,0,0,1,.78,8.53c.2,2.77.49,5.55.69,8.32a42.31,42.31,0,0,0,.46,6.18,53.87,53.87,0,0,1,.74,7.58c.21,2.84.6,5.69.68,8.56a37.22,37.22,0,0,0,.46,5.69c.42,2.15.17,4.31.49,6.42.45,3.07.67,6.16.87,9.25.16,2.46.34,4.93.62,7.36.23,2,0,4,.44,5.94a54.35,54.35,0,0,1,.77,7.82c.19,2.85.56,5.7.7,8.56a54.65,54.65,0,0,0,.43,5.7c.52,3.22.62,6.48.87,9.72.19,2.46.4,4.92.6,7.37.26,3.08.65,6.16.84,9.25.24,3.91,2.7,8.17,7.27,8.88a24.83,24.83,0,0,0,4,.43H296a42,42,0,0,0,7.15-.41,8.86,8.86,0,0,0,7.55-8c.27-2.3.18-4.62.55-6.89a80.84,80.84,0,0,0,.76-8c.17-2.78.51-5.55.69-8.33a43.35,43.35,0,0,1,.45-5.69,72.26,72.26,0,0,0,.78-8.54c.2-2.77.52-5.54.69-8.32a42,42,0,0,1,.45-5.7,71.91,71.91,0,0,0,.78-8.53c.2-2.77.52-5.55.69-8.32a33.89,33.89,0,0,1,.46-5.7c.62-2.74.44-5.54.73-8.3s.53-5.38.73-8.07a43.76,43.76,0,0,1,.46-6.18c.6-2.74.45-5.54.73-8.3s.53-5.39.73-8.08a43.73,43.73,0,0,1,.46-6.17c.59-2.75.47-5.54.74-8.3s.52-5.39.72-8.08c.15-2,.1-4.14.44-6.18.5-3.06.61-6.16.82-9.25.17-2.45.46-4.9.64-7.36.25-3.48.73-7,.84-10.45a22.32,22.32,0,0,1,.31-2.59C326.11,181.75,324.65,176.52,317.88,175.32ZM197.4,332.18c-1.34,3.82-4.43,5.88-8.91,5.74a8.12,8.12,0,0,1-7.5-6.32,51.32,51.32,0,0,1-1-7.31c-.23-2.44-.49-4.89-.84-7.32-.27-1.89-.18-3.79-.44-5.7-.3-2.26-.47-4.58-.63-6.88-.22-2.93-.45-5.85-.85-8.76-.28-2-.4-4.13-.49-6.17-.13-2.63-.42-5.26-.71-7.84s-.14-4.91-.72-7.34a30.68,30.68,0,0,1-.48-5.68c-.12-2.63-.49-5.24-.69-7.85a54.9,54.9,0,0,0-.73-6.85,45.3,45.3,0,0,1-.51-6.17c-.16-2.62-.44-5.24-.7-7.83a57.17,57.17,0,0,0-.73-7.35,30.74,30.74,0,0,1-.47-5.68c-.13-2.79-.73-5.53-.63-8.33.07-1.66-.82-3.27-.45-4.59,0-1,0-1.51,0-2.06a8.44,8.44,0,0,1,4.85-7.43,8.06,8.06,0,0,1,8.39.51c3.2,2,4.21,5.07,4.48,8.51.25,3.17.61,6.32.88,9.48.19,2.29.43,4.59.59,6.88.21,2.93.45,5.85.85,8.77.28,2,.39,4.12.49,6.17.13,2.62.43,5.25.71,7.83a67.68,67.68,0,0,0,.71,7.35,34.2,34.2,0,0,1,.5,5.92c.13,2.63.44,5.25.71,7.84a63.08,63.08,0,0,0,.71,7.34,35.39,35.39,0,0,1,.5,5.92c.13,2.63.44,5.25.7,7.84.25,2.43.14,4.91.74,7.34a32.86,32.86,0,0,1,.45,5.45c.17,2.46.39,4.93.69,7.36s.4,5.05.71,7.57C198,325.72,198.52,329,197.4,332.18Zm42.94-.65a8.69,8.69,0,0,1-17.09-2.34q0-29.25,0-58.52,0-29,0-58c0-3.7,1.44-6.64,5-8.26,5.85-2.65,11.85,1.7,12.33,6.67.17,1.82.4,3.62.4,5.46q0,55,0,110.08A19.13,19.13,0,0,1,240.34,331.53Zm53.59-117.29c-.51,2-.33,4.11-.48,6.17-.19,2.61-.47,5.23-.71,7.83a57.06,57.06,0,0,1-.75,7.58,41.19,41.19,0,0,0-.46,5.69c-.22,2.44-.45,4.92-.72,7.35s-.13,5.08-.74,7.58a36.43,36.43,0,0,0-.44,5.45c-.22,2.45-.46,4.91-.69,7.36a79.42,79.42,0,0,1-.8,8.28,52.17,52.17,0,0,0-.43,5.46c-.22,2.37-.6,4.73-.67,7.12-.09,2.61-.52,5.21-.79,7.81-.06.55-.11,1.11-.13,1.67a83.22,83.22,0,0,1-.89,9.71c-.26,1.89-.29,3.81-.42,5.7-.19,2.61-.47,5.24-.71,7.84a73,73,0,0,1-.81,8,9,9,0,0,1-10.17,7,9.3,9.3,0,0,1-6.71-5.23c-.71-1.38-.32-2.82-.52-4.71.61-3,.39-6.5.94-10a48.87,48.87,0,0,0,.48-5.92c.09-2.64.41-5.26.71-7.84s.15-4.91.71-7.35a30.69,30.69,0,0,0,.49-5.68c.09-2.63.46-5.24.7-7.84a55.18,55.18,0,0,1,.7-6.86,39.49,39.49,0,0,0,.52-6.16c.14-2.62.44-5.25.71-7.83a65.26,65.26,0,0,1,.71-7.35,35.31,35.31,0,0,0,.5-5.92c.13-2.62.44-5.24.7-7.84a67.77,67.77,0,0,1,.72-7.34,35.31,35.31,0,0,0,.5-5.92c.13-2.62.6-5.21.65-7.85a80,80,0,0,1,.94-9.23c.57-4.12,3.83-7,8.18-7.46a9.08,9.08,0,0,1,8.67,5.61A8.53,8.53,0,0,1,293.93,214.24Z"/><path class="cls-2" d="M140.61,154.26a7.33,7.33,0,0,1-1.89-4.76c-.2-4.69,1.7-8.73,3.73-12.7a42.24,42.24,0,0,1,10.15-12.6,43.75,43.75,0,0,1,16.09-9.09A50.15,50.15,0,0,1,184,113.26c6.71.09,13.43,0,20.15,0H207a12.09,12.09,0,0,0-1.67-2.82,8.62,8.62,0,0,1-1-9.47,8.47,8.47,0,0,1,8.07-5c13,0,26.07.07,39.1,0,3.69,0,8.7,3.62,9.09,8a8.31,8.31,0,0,1-2.27,6.58,18.06,18.06,0,0,1-2,1.59,5,5,0,0,0,3.82,1.13c8.08,0,16.15-.05,24.23,0a39.22,39.22,0,0,1,15.27,3.43,36.56,36.56,0,0,1,8.36,4.63c3.74,3,7.35,6,10.09,10.09a56.93,56.93,0,0,1,5.85,10.9,28.17,28.17,0,0,1,1.43,5.29c.66,3.51-2,8.37-5.46,9a24.35,24.35,0,0,1-4.67.77q-83.25,0-166.49,0C145.63,157.45,142.79,156.74,140.61,154.26Z"/><path class="cls-2" d="M463.11,216.25c-.39-3.09-.3-6.18-.74-9.26-.31-2.18-.48-4.43-.7-6.64-.35-3.7-1.18-7.36-1.79-11a186.49,186.49,0,0,0-4.95-21.12c-1.8-6.21-3.88-12.32-6.16-18.36q-2.37-6.27-5.15-12.36c-2.28-5-4.73-9.94-7.29-14.82A211,211,0,0,0,425,103.8a201.34,201.34,0,0,0-17.44-23c-4-4.47-7.8-9.06-12-13.29-3.6-3.6-7.39-7-11.3-10.3a59.17,59.17,0,0,0-5.46-4.64c-2.33-1.52-4.35-3.46-6.53-5.19-2.74-2.19-5.6-4.22-8.44-6.25C360,38.39,356,36,352,33.5c-3.12-1.92-6.27-3.81-9.5-5.54-4.92-2.65-9.84-5.29-15-7.55-6.86-3-13.78-5.91-20.87-8.35a217.85,217.85,0,0,0-26.22-7.24c-4.2-.88-8.4-1.8-12.64-2.35-4.64-.61-9.28-1.23-14-1.6C249.54.54,245.28,0,241,0c-2.72,0-5.44,0-8.6,0-5.06.08-10.56-.08-16.06.39-2.69.23-5.42.38-8.08.69q-6.37.73-12.73,1.69c-6.54,1-13,2.21-19.4,3.8a219.37,219.37,0,0,0-25.8,7.9c-4.09,1.58-8.16,3.23-12.14,5.06-5,2.31-10,4.6-14.81,7.31-3.89,2.19-7.77,4.4-11.61,6.69s-7.27,4.89-11,7.22a139.7,139.7,0,0,0-13.36,10C83.9,53.61,80.31,56.4,77,59.53,73.31,63,69.38,66.24,66,70.05S59.11,77.39,55.82,81.2s-6.3,7.59-9.25,11.53c-2.38,3.19-4.68,6.43-7,9.68-1.33,1.88-2.65,3.78-3.86,5.75-2.63,4.28-5.11,8.64-7.55,13a227.53,227.53,0,0,0-10.8,22.42A209.48,209.48,0,0,0,9.6,166c-1.67,5.73-3.09,11.52-4.3,17.36s-2.2,12-3,18.08C1.57,206.68,1.22,212,.63,217.27c-.46,4.09-.1,8.28-.6,12.4-.19,1.56.54,3,.49,4.5a185.34,185.34,0,0,0,1.4,26.22c.43,4,.91,7.9,1.62,11.79a205.58,205.58,0,0,0,5.82,24.34A249.44,249.44,0,0,0,24.65,335.2,215.1,215.1,0,0,0,35.4,354.1C39.1,359.87,43,365.48,47,371c2.12,3,4.5,5.77,6.86,8.57,3.64,4.33,7.57,8.4,11.35,12.6,2.4,2.65,5.14,5,7.75,7.48q6.53,6.15,13.4,11.89c4.46,3.73,9.18,7.1,13.88,10.5a171.16,171.16,0,0,0,15.16,9.57,229,229,0,0,0,24.94,12.68A219.46,219.46,0,0,0,174,455.82c4.32,1,8.64,2.16,13,3,6.77,1.35,13.64,2.05,20.47,3,4.58.66,9.19,1,13.76,1.19a261.09,261.09,0,0,0,28.25-.37l.48,0c4.63-.62,9.26-1.38,13.91-1.82a114.17,114.17,0,0,0,11.54-1.7c5.92-1.2,11.81-2.53,17.64-4.12a232.68,232.68,0,0,0,22.87-7.7c4-1.56,8-3.27,11.9-5,3-1.32,6-2.62,8.87-4.21,6-3.32,12.11-6.42,17.8-10.28,3.62-2.46,7.42-4.67,10.94-7.25A216.38,216.38,0,0,0,382.63,407c3.77-3.41,7.63-6.75,11.4-10.17s7-7.69,10.77-11.24a7.22,7.22,0,0,0,.63-.72c2.18-2.63,4.39-5.25,6.54-7.9s4.22-5,6-7.7,4-5.54,5.88-8.4c2.14-3.26,4.36-6.47,6.37-9.81a212.61,212.61,0,0,0,11.83-22.14c1.44-3.2,3-6.37,4.26-9.63a211.18,211.18,0,0,0,7.89-22.81C456,290,457.66,283.54,459,277c.83-4.21,1.46-8.44,2-12.69a93.86,93.86,0,0,0,1.28-11.82,11.19,11.19,0,0,1,.1-1.92,49.37,49.37,0,0,0,.88-9c0-2.62.14-5.24.35-7.87A84,84,0,0,0,463.11,216.25Zm-18.65,23.44c-.2,3.88-.35,7.77-.78,11.65-.28,2.51-.56,5-.69,7.6a77.38,77.38,0,0,1-1.42,10.13c-1,5.7-2.14,11.39-3.67,17a199.44,199.44,0,0,1-6.56,20.22q-4.08,10.5-9.13,20.55c-2,4.06-4.3,8-6.68,11.89A200.81,200.81,0,0,1,403.29,357c-2.52,3.27-5.18,6.44-7.84,9.6-3,3.53-5.89,7.13-9.08,10.45s-6.4,6.93-10.15,9.83c-1.26,1-2.26,2.27-3.43,3.35-3.34,3.08-6.89,5.89-10.39,8.78-3,2.49-6.24,4.67-9.35,7s-6.71,4.59-10.17,6.72A197,197,0,0,1,296,434.1c-3.9,1.13-7.78,2.32-11.71,3.33-4.08,1.05-8.23,1.8-12.34,2.69a108.57,108.57,0,0,1-15,2.29c-4.12.31-8.22.86-12.33,1.22a190.17,190.17,0,0,1-20.11.28,97.46,97.46,0,0,1-14.23-1.2c-2.88-.49-5.82-.72-8.74-1.06a177.83,177.83,0,0,1-18.74-3.42,204.07,204.07,0,0,1-20.43-5.82,227.67,227.67,0,0,1-21.71-8.8c-9.37-4.33-18.1-9.73-26.75-15.31a172,172,0,0,1-14.71-11c-3.14-2.54-6.21-5.23-9.22-8q-5.67-5.18-11-10.71C75.42,374.9,72,371,68.66,367c-3-3.5-5.93-7.07-8.71-10.75-3-4-5.73-8.23-8.5-12.41-3.76-5.65-6.91-11.65-10.11-17.61a152.82,152.82,0,0,1-8.18-18.35,203.72,203.72,0,0,1-8.31-27.42c-1.14-5.11-2.18-10.24-2.83-15.45-.34-2.74-.73-5.5-1.23-8.23a41,41,0,0,1-.46-5.94c-.11-3.5-.83-7-.63-10.49a9.05,9.05,0,0,0-.35-3.79,3.11,3.11,0,0,1-.08-1.66c.92-4.76.17-9.57.47-14.34s.63-9.5,1.26-14.23c.43-3.22.85-6.46,1.22-9.69.47-4,1.48-8,2.31-11.92A201.49,201.49,0,0,1,31.77,159q2.59-7.32,5.84-14.4c1.47-3.19,2.93-6.38,4.57-9.5,2.33-4.44,4.87-8.78,7.38-13.13a163.11,163.11,0,0,1,11.71-17.15c2.53-3.34,5.29-6.56,8-9.77A245,245,0,0,1,86.83,76.73c4.07-3.91,8.31-7.65,12.75-11.16,3.25-2.56,6.58-5,9.86-7.54,4.3-3.27,8.89-6.2,13.5-9a171.63,171.63,0,0,1,16.58-9,209.7,209.7,0,0,1,26.82-10.83A232.06,232.06,0,0,1,192,22.7c4-.77,8.18-1.1,12.27-1.66,3.85-.52,7.76-.55,11.58-1.32a2.9,2.9,0,0,1,.72,0c5.83.06,11.62-1,17.46-.49,2.24,0,4.48,0,6.72,0a67.87,67.87,0,0,1,10,.88c2,.27,4,.3,5.94.47,5.72.48,11.32,1.56,16.94,2.58A193.25,193.25,0,0,1,302.37,31c5.8,2,11.42,4.49,17,7,4.88,2.19,9.62,4.62,14.31,7.19q8,4.36,15.53,9.39C352.9,57,356.5,59.45,360,62.1s6.55,5.3,9.85,7.92a151.47,151.47,0,0,1,16.49,15.64,159.44,159.44,0,0,1,11.1,12.81c4,5.34,8.23,10.54,11.82,16.2,3.08,4.84,6,9.74,8.84,14.75a200.67,200.67,0,0,1,21.55,59.79c.93,4.67,1.84,9.36,2.38,14.08.39,3.39.66,6.81,1.13,10.18.45,3.19.19,6.38.47,9.54C444.1,228.57,444.74,234.12,444.46,239.69Z"/><path class="cls-1" d="M317.88,175.32a15.35,15.35,0,0,0-2.63-.12H232q-41.88,0-83.75,0a10.16,10.16,0,0,0-5.48,1.42,8.22,8.22,0,0,0-4,5.19c-.69,2.76-.22,5.55.14,8.26s.38,5.54.71,8.3.51,5.39.71,8.08a53.19,53.19,0,0,0,.45,6.18,74.07,74.07,0,0,1,.78,8.53c.2,2.77.49,5.55.69,8.32a50.93,50.93,0,0,0,.45,6.18,74.07,74.07,0,0,1,.78,8.53c.2,2.77.49,5.55.69,8.32a42.31,42.31,0,0,0,.46,6.18,53.87,53.87,0,0,1,.74,7.58c.21,2.84.6,5.69.68,8.56a37.22,37.22,0,0,0,.46,5.69c.42,2.15.17,4.31.49,6.42.45,3.07.67,6.16.87,9.25.16,2.46.34,4.93.62,7.36.23,2,0,4,.44,5.94a54.35,54.35,0,0,1,.77,7.82c.19,2.85.56,5.7.7,8.56a54.65,54.65,0,0,0,.43,5.7c.52,3.22.62,6.48.87,9.72.19,2.46.4,4.92.6,7.37.26,3.08.65,6.16.84,9.25.24,3.91,2.7,8.17,7.27,8.88a24.83,24.83,0,0,0,4,.43H296a42,42,0,0,0,7.15-.41,8.86,8.86,0,0,0,7.55-8c.27-2.3.18-4.62.55-6.89a80.84,80.84,0,0,0,.76-8c.17-2.78.51-5.55.69-8.33a43.35,43.35,0,0,1,.45-5.69,72.26,72.26,0,0,0,.78-8.54c.2-2.77.52-5.54.69-8.32a42,42,0,0,1,.45-5.7,71.91,71.91,0,0,0,.78-8.53c.2-2.77.52-5.55.69-8.32a33.89,33.89,0,0,1,.46-5.7c.62-2.74.44-5.54.73-8.3s.53-5.38.73-8.07a43.76,43.76,0,0,1,.46-6.18c.6-2.74.45-5.54.73-8.3s.53-5.39.73-8.08a43.73,43.73,0,0,1,.46-6.17c.59-2.75.47-5.54.74-8.3s.52-5.39.72-8.08c.15-2,.1-4.14.44-6.18.5-3.06.61-6.16.82-9.25.17-2.45.46-4.9.64-7.36.25-3.48.73-7,.84-10.45a22.32,22.32,0,0,1,.31-2.59C326.11,181.75,324.65,176.52,317.88,175.32ZM197.4,332.18c-1.34,3.82-4.43,5.88-8.91,5.74a8.12,8.12,0,0,1-7.5-6.32,51.32,51.32,0,0,1-1-7.31c-.23-2.44-.49-4.89-.84-7.32-.27-1.89-.18-3.79-.44-5.7-.3-2.26-.47-4.58-.63-6.88-.22-2.93-.45-5.85-.85-8.76-.28-2-.4-4.13-.49-6.17-.13-2.63-.42-5.26-.71-7.84s-.14-4.91-.72-7.34a30.68,30.68,0,0,1-.48-5.68c-.12-2.63-.49-5.24-.69-7.85a54.9,54.9,0,0,0-.73-6.85,45.3,45.3,0,0,1-.51-6.17c-.16-2.62-.44-5.24-.7-7.83a57.17,57.17,0,0,0-.73-7.35,30.74,30.74,0,0,1-.47-5.68c-.13-2.79-.73-5.53-.63-8.33.07-1.66-.82-3.27-.45-4.59,0-1,0-1.51,0-2.06a8.44,8.44,0,0,1,4.85-7.43,8.06,8.06,0,0,1,8.39.51c3.2,2,4.21,5.07,4.48,8.51.25,3.17.61,6.32.88,9.48.19,2.29.43,4.59.59,6.88.21,2.93.45,5.85.85,8.77.28,2,.39,4.12.49,6.17.13,2.62.43,5.25.71,7.83a67.68,67.68,0,0,0,.71,7.35,34.2,34.2,0,0,1,.5,5.92c.13,2.63.44,5.25.71,7.84a63.08,63.08,0,0,0,.71,7.34,35.39,35.39,0,0,1,.5,5.92c.13,2.63.44,5.25.7,7.84.25,2.43.14,4.91.74,7.34a32.86,32.86,0,0,1,.45,5.45c.17,2.46.39,4.93.69,7.36s.4,5.05.71,7.57C198,325.72,198.52,329,197.4,332.18Zm42.94-.65a8.69,8.69,0,0,1-17.09-2.34q0-29.25,0-58.52,0-29,0-58c0-3.7,1.44-6.64,5-8.26,5.85-2.65,11.85,1.7,12.33,6.67.17,1.82.4,3.62.4,5.46q0,55,0,110.08A19.13,19.13,0,0,1,240.34,331.53Zm53.59-117.29c-.51,2-.33,4.11-.48,6.17-.19,2.61-.47,5.23-.71,7.83a57.06,57.06,0,0,1-.75,7.58,41.19,41.19,0,0,0-.46,5.69c-.22,2.44-.45,4.92-.72,7.35s-.13,5.08-.74,7.58a36.43,36.43,0,0,0-.44,5.45c-.22,2.45-.46,4.91-.69,7.36a79.42,79.42,0,0,1-.8,8.28,52.17,52.17,0,0,0-.43,5.46c-.22,2.37-.6,4.73-.67,7.12-.09,2.61-.52,5.21-.79,7.81-.06.55-.11,1.11-.13,1.67a83.22,83.22,0,0,1-.89,9.71c-.26,1.89-.29,3.81-.42,5.7-.19,2.61-.47,5.24-.71,7.84a73,73,0,0,1-.81,8,9,9,0,0,1-10.17,7,9.3,9.3,0,0,1-6.71-5.23c-.71-1.38-.32-2.82-.52-4.71.61-3,.39-6.5.94-10a48.87,48.87,0,0,0,.48-5.92c.09-2.64.41-5.26.71-7.84s.15-4.91.71-7.35a30.69,30.69,0,0,0,.49-5.68c.09-2.63.46-5.24.7-7.84a55.18,55.18,0,0,1,.7-6.86,39.49,39.49,0,0,0,.52-6.16c.14-2.62.44-5.25.71-7.83a65.26,65.26,0,0,1,.71-7.35,35.31,35.31,0,0,0,.5-5.92c.13-2.62.44-5.24.7-7.84a67.77,67.77,0,0,1,.72-7.34,35.31,35.31,0,0,0,.5-5.92c.13-2.62.6-5.21.65-7.85a80,80,0,0,1,.94-9.23c.57-4.12,3.83-7,8.18-7.46a9.08,9.08,0,0,1,8.67,5.61A8.53,8.53,0,0,1,293.93,214.24Z"/><path class="cls-1" d="M140.61,154.26a7.33,7.33,0,0,1-1.89-4.76c-.2-4.69,1.7-8.73,3.73-12.7a42.24,42.24,0,0,1,10.15-12.6,43.75,43.75,0,0,1,16.09-9.09A50.15,50.15,0,0,1,184,113.26c6.71.09,13.43,0,20.15,0H207a12.09,12.09,0,0,0-1.67-2.82,8.62,8.62,0,0,1-1-9.47,8.47,8.47,0,0,1,8.07-5c13,0,26.07.07,39.1,0,3.69,0,8.7,3.62,9.09,8a8.31,8.31,0,0,1-2.27,6.58,18.06,18.06,0,0,1-2,1.59,5,5,0,0,0,3.82,1.13c8.08,0,16.15-.05,24.23,0a39.22,39.22,0,0,1,15.27,3.43,36.56,36.56,0,0,1,8.36,4.63c3.74,3,7.35,6,10.09,10.09a56.93,56.93,0,0,1,5.85,10.9,28.17,28.17,0,0,1,1.43,5.29c.66,3.51-2,8.37-5.46,9a24.35,24.35,0,0,1-4.67.77q-83.25,0-166.49,0C145.63,157.45,142.79,156.74,140.61,154.26Z"/><path class="cls-2" d="M317.88,175.32a15.35,15.35,0,0,0-2.63-.12H232q-41.88,0-83.75,0a10.16,10.16,0,0,0-5.48,1.42,8.22,8.22,0,0,0-4,5.19c-.69,2.76-.22,5.55.14,8.26s.38,5.54.71,8.3.51,5.39.71,8.08a53.19,53.19,0,0,0,.45,6.18,74.07,74.07,0,0,1,.78,8.53c.2,2.77.49,5.55.69,8.32a50.93,50.93,0,0,0,.45,6.18,74.07,74.07,0,0,1,.78,8.53c.2,2.77.49,5.55.69,8.32a42.31,42.31,0,0,0,.46,6.18,53.87,53.87,0,0,1,.74,7.58c.21,2.84.6,5.69.68,8.56a37.22,37.22,0,0,0,.46,5.69c.42,2.15.17,4.31.49,6.42.45,3.07.67,6.16.87,9.25.16,2.46.34,4.93.62,7.36.23,2,0,4,.44,5.94a54.35,54.35,0,0,1,.77,7.82c.19,2.85.56,5.7.7,8.56a54.65,54.65,0,0,0,.43,5.7c.52,3.22.62,6.48.87,9.72.19,2.46.4,4.92.6,7.37.26,3.08.65,6.16.84,9.25.24,3.91,2.7,8.17,7.27,8.88a24.83,24.83,0,0,0,4,.43H296a42,42,0,0,0,7.15-.41,8.86,8.86,0,0,0,7.55-8c.27-2.3.18-4.62.55-6.89a80.84,80.84,0,0,0,.76-8c.17-2.78.51-5.55.69-8.33a43.35,43.35,0,0,1,.45-5.69,72.26,72.26,0,0,0,.78-8.54c.2-2.77.52-5.54.69-8.32a42,42,0,0,1,.45-5.7,71.91,71.91,0,0,0,.78-8.53c.2-2.77.52-5.55.69-8.32a33.89,33.89,0,0,1,.46-5.7c.62-2.74.44-5.54.73-8.3s.53-5.38.73-8.07a43.76,43.76,0,0,1,.46-6.18c.6-2.74.45-5.54.73-8.3s.53-5.39.73-8.08a43.73,43.73,0,0,1,.46-6.17c.59-2.75.47-5.54.74-8.3s.52-5.39.72-8.08c.15-2,.1-4.14.44-6.18.5-3.06.61-6.16.82-9.25.17-2.45.46-4.9.64-7.36.25-3.48.73-7,.84-10.45a22.32,22.32,0,0,1,.31-2.59C326.11,181.75,324.65,176.52,317.88,175.32ZM197.4,332.18c-1.34,3.82-4.43,5.88-8.91,5.74a8.12,8.12,0,0,1-7.5-6.32,51.32,51.32,0,0,1-1-7.31c-.23-2.44-.49-4.89-.84-7.32-.27-1.89-.18-3.79-.44-5.7-.3-2.26-.47-4.58-.63-6.88-.22-2.93-.45-5.85-.85-8.76-.28-2-.4-4.13-.49-6.17-.13-2.63-.42-5.26-.71-7.84s-.14-4.91-.72-7.34a30.68,30.68,0,0,1-.48-5.68c-.12-2.63-.49-5.24-.69-7.85a54.9,54.9,0,0,0-.73-6.85,45.3,45.3,0,0,1-.51-6.17c-.16-2.62-.44-5.24-.7-7.83a57.17,57.17,0,0,0-.73-7.35,30.74,30.74,0,0,1-.47-5.68c-.13-2.79-.73-5.53-.63-8.33.07-1.66-.82-3.27-.45-4.59,0-1,0-1.51,0-2.06a8.44,8.44,0,0,1,4.85-7.43,8.06,8.06,0,0,1,8.39.51c3.2,2,4.21,5.07,4.48,8.51.25,3.17.61,6.32.88,9.48.19,2.29.43,4.59.59,6.88.21,2.93.45,5.85.85,8.77.28,2,.39,4.12.49,6.17.13,2.62.43,5.25.71,7.83a67.68,67.68,0,0,0,.71,7.35,34.2,34.2,0,0,1,.5,5.92c.13,2.63.44,5.25.71,7.84a63.08,63.08,0,0,0,.71,7.34,35.39,35.39,0,0,1,.5,5.92c.13,2.63.44,5.25.7,7.84.25,2.43.14,4.91.74,7.34a32.86,32.86,0,0,1,.45,5.45c.17,2.46.39,4.93.69,7.36s.4,5.05.71,7.57C198,325.72,198.52,329,197.4,332.18Zm42.94-.65a8.69,8.69,0,0,1-17.09-2.34q0-29.25,0-58.52,0-29,0-58c0-3.7,1.44-6.64,5-8.26,5.85-2.65,11.85,1.7,12.33,6.67.17,1.82.4,3.62.4,5.46q0,55,0,110.08A19.13,19.13,0,0,1,240.34,331.53Zm53.59-117.29c-.51,2-.33,4.11-.48,6.17-.19,2.61-.47,5.23-.71,7.83a57.06,57.06,0,0,1-.75,7.58,41.19,41.19,0,0,0-.46,5.69c-.22,2.44-.45,4.92-.72,7.35s-.13,5.08-.74,7.58a36.43,36.43,0,0,0-.44,5.45c-.22,2.45-.46,4.91-.69,7.36a79.42,79.42,0,0,1-.8,8.28,52.17,52.17,0,0,0-.43,5.46c-.22,2.37-.6,4.73-.67,7.12-.09,2.61-.52,5.21-.79,7.81-.06.55-.11,1.11-.13,1.67a83.22,83.22,0,0,1-.89,9.71c-.26,1.89-.29,3.81-.42,5.7-.19,2.61-.47,5.24-.71,7.84a73,73,0,0,1-.81,8,9,9,0,0,1-10.17,7,9.3,9.3,0,0,1-6.71-5.23c-.71-1.38-.32-2.82-.52-4.71.61-3,.39-6.5.94-10a48.87,48.87,0,0,0,.48-5.92c.09-2.64.41-5.26.71-7.84s.15-4.91.71-7.35a30.69,30.69,0,0,0,.49-5.68c.09-2.63.46-5.24.7-7.84a55.18,55.18,0,0,1,.7-6.86,39.49,39.49,0,0,0,.52-6.16c.14-2.62.44-5.25.71-7.83a65.26,65.26,0,0,1,.71-7.35,35.31,35.31,0,0,0,.5-5.92c.13-2.62.44-5.24.7-7.84a67.77,67.77,0,0,1,.72-7.34,35.31,35.31,0,0,0,.5-5.92c.13-2.62.6-5.21.65-7.85a80,80,0,0,1,.94-9.23c.57-4.12,3.83-7,8.18-7.46a9.08,9.08,0,0,1,8.67,5.61A8.53,8.53,0,0,1,293.93,214.24Z"/><path class="cls-2" d="M319.94,156.69a24.35,24.35,0,0,1-4.67.77q-83.25,0-166.49,0c-3.15,0-6-.71-8.17-3.19a7.33,7.33,0,0,1-1.89-4.76c-.2-4.69,1.7-8.73,3.73-12.7a42.24,42.24,0,0,1,10.15-12.6,43.75,43.75,0,0,1,16.09-9.09A50.15,50.15,0,0,1,184,113.26c6.71.09,13.43,0,20.15,0H207a12.09,12.09,0,0,0-1.67-2.82,8.62,8.62,0,0,1-1-9.47,8.47,8.47,0,0,1,8.07-5c13,0,26.07.07,39.1,0,3.69,0,8.7,3.62,9.09,8a8.31,8.31,0,0,1-2.27,6.58,18.06,18.06,0,0,1-2,1.59,5,5,0,0,0,3.82,1.13c8.08,0,16.15-.05,24.23,0a39.22,39.22,0,0,1,15.27,3.43,36.56,36.56,0,0,1,8.36,4.63c3.74,3,7.35,6,10.09,10.09a56.93,56.93,0,0,1,5.85,10.9,28.17,28.17,0,0,1,1.43,5.29C326.06,151.15,323.45,156,319.94,156.69Z"/></g></g></svg>