<svg xmlns="http://www.w3.org/2000/svg" viewBox="0 0 75.11 84.96"><defs><style>.cls-1{fill:#525793;}</style></defs><title>Exam And Test</title><g id="Layer_2" data-name="Layer 2"><g id="Layer_1-2" data-name="Layer 1"><path class="cls-1" d="M22.23,27.09a5,5,0,0,0-1.66-1.77,4.92,4.92,0,1,0,1.66,1.77Zm-4.32,5a2.61,2.61,0,0,1-2.61-2.61,2.67,2.67,0,0,1,0-.39h0a2.62,2.62,0,0,1,1.46-2A2.59,2.59,0,0,1,18.86,27a2.62,2.62,0,0,1,1.59,1.84,2.66,2.66,0,0,1,.07.59A2.62,2.62,0,0,1,17.91,32.07Z"/><path class="cls-1" d="M17.91,40.16a4.93,4.93,0,1,0,4.93,4.93A4.94,4.94,0,0,0,17.91,40.16Zm0,7.54a2.61,2.61,0,1,1,2.61-2.61A2.61,2.61,0,0,1,17.91,47.69Z"/><path class="cls-1" d="M51.15,42.25a1.36,1.36,0,0,1-1.37,1.36h-22a1.36,1.36,0,0,1,0-2.73h22A1.36,1.36,0,0,1,51.15,42.25Z"/><path class="cls-1" d="M36.26,47.92a1.36,1.36,0,0,1-1.36,1.36H27.77a1.36,1.36,0,0,1,0-2.73H34.9A1.36,1.36,0,0,1,36.26,47.92Z"/><path class="cls-1" d="M51.36,47.92A1.36,1.36,0,0,1,50,49.28H39.72a1.36,1.36,0,1,1,0-2.73H50A1.36,1.36,0,0,1,51.36,47.92Z"/><path class="cls-1" d="M50.94,32.29a1.36,1.36,0,0,1-1.36,1.36h-22a1.36,1.36,0,1,1,0-2.73h22A1.36,1.36,0,0,1,50.94,32.29Z"/><path class="cls-1" d="M50.94,26.63a1.37,1.37,0,0,1-.4,1,1.35,1.35,0,0,1-1,.4h-4.4a1.36,1.36,0,0,1,0-2.73h4.4A1.36,1.36,0,0,1,50.94,26.63Z"/><path class="cls-1" d="M41.29,26.63A1.36,1.36,0,0,1,39.93,28H27.35a1.36,1.36,0,0,1,0-2.73H39.93A1.36,1.36,0,0,1,41.29,26.63Z"/><path class="cls-1" d="M25.07,23.75a1.22,1.22,0,0,1-.36.86l-6.07,6.07a1.21,1.21,0,0,1-1.72,0l-2.24-2.24a1.21,1.21,0,1,1,1.71-1.72l.39.39,1,1L18.86,27l1.72-1.72L23,22.89a1.21,1.21,0,0,1,2.07.86Z"/><path class="cls-1" d="M69.84,51.79h-5.6V16.91a3.4,3.4,0,0,0-1-2.4L49.73,1a3.4,3.4,0,0,0-2.4-1H6.68A6.69,6.69,0,0,0,0,6.68v71.6A6.69,6.69,0,0,0,6.68,85H57.56a6.69,6.69,0,0,0,6.68-6.68V71.4h5.6a5.28,5.28,0,0,0,5.28-5.28V57.06A5.28,5.28,0,0,0,69.84,51.79ZM57,77.53H7.25V7.44H42.6v10A4.38,4.38,0,0,0,47,21.82H57v30H40a5.28,5.28,0,0,0-5.28,5.28v9.05A5.28,5.28,0,0,0,40,71.4H57v6.12h0ZM52.74,61.11v1.67H49.4v2.15h3.73v1.68H47.34V57.54h5.6v1.68H49.4v1.88ZM36.56,59.26V57.54h7v1.72H41.06v7.35H39V59.26Zm22.9,7.48a5.93,5.93,0,0,1-2.57-.55l.42-1.7a5.21,5.21,0,0,0,2.27.57c.94,0,1.44-.39,1.44-1s-.43-.89-1.52-1.28C58,62.28,57,61.44,57,60.13c0-1.55,1.29-2.73,3.43-2.73a5.53,5.53,0,0,1,2.31.46l-.46,1.65a4.32,4.32,0,0,0-1.9-.43c-.89,0-1.32.4-1.32.87s.51.84,1.68,1.28c1.6.59,2.36,1.43,2.36,2.7C63.12,65.45,62,66.74,59.46,66.74ZM73,59.26H70.51v7.35H68.45V59.26H66V57.54h7Z"/></g></g></svg>