<svg xmlns="http://www.w3.org/2000/svg" xmlns:xlink="http://www.w3.org/1999/xlink" viewBox="0 0 413.71 662.82"><defs><style>.cls-1{fill:none;}.cls-2{fill:#3d3f70;}.cls-3{fill:#fff;}.cls-4{fill:#3e3f61;}.cls-5{fill:#f8bd56;}.cls-6{fill:#525794;}.cls-7{fill:#bbc1e1;}.cls-8{fill:#383838;}.cls-9{opacity:0.07;}.cls-10{clip-path:url(#clip-path);}.cls-11{fill:#48486a;}.cls-12{fill:#49496a;}.cls-13{fill:#49496b;}.cls-14{fill:#4a4a6b;}.cls-15{fill:#4b4b6c;}.cls-16{clip-path:url(#clip-path-2);}.cls-17{clip-path:url(#clip-path-3);}.cls-18{clip-path:url(#clip-path-4);}.cls-19{clip-path:url(#clip-path-5);}.cls-20{clip-path:url(#clip-path-6);}.cls-21{clip-path:url(#clip-path-7);}.cls-22{clip-path:url(#clip-path-8);}.cls-23{clip-path:url(#clip-path-9);}.cls-24{clip-path:url(#clip-path-10);}.cls-25{clip-path:url(#clip-path-11);}.cls-26{clip-path:url(#clip-path-12);}.cls-27{clip-path:url(#clip-path-13);}.cls-28{clip-path:url(#clip-path-14);}.cls-29{clip-path:url(#clip-path-15);}.cls-30{clip-path:url(#clip-path-16);}.cls-31{clip-path:url(#clip-path-17);}.cls-32{clip-path:url(#clip-path-18);}.cls-33{clip-path:url(#clip-path-19);}.cls-34{clip-path:url(#clip-path-20);}.cls-35{clip-path:url(#clip-path-21);}.cls-36{clip-path:url(#clip-path-22);}.cls-37{clip-path:url(#clip-path-23);}.cls-38{clip-path:url(#clip-path-24);}.cls-39{clip-path:url(#clip-path-25);}.cls-40{clip-path:url(#clip-path-26);}.cls-41{clip-path:url(#clip-path-28);}.cls-42{clip-path:url(#clip-path-29);}.cls-43{clip-path:url(#clip-path-30);}.cls-44{clip-path:url(#clip-path-31);}.cls-45{clip-path:url(#clip-path-32);}.cls-46{clip-path:url(#clip-path-33);}.cls-47{clip-path:url(#clip-path-34);}.cls-48{clip-path:url(#clip-path-35);}.cls-49{clip-path:url(#clip-path-36);}.cls-50{clip-path:url(#clip-path-37);}.cls-51{clip-path:url(#clip-path-38);}.cls-52{clip-path:url(#clip-path-39);}.cls-53{clip-path:url(#clip-path-40);}.cls-54{clip-path:url(#clip-path-41);}.cls-55{clip-path:url(#clip-path-42);}.cls-56{fill:#cf9b4a;}.cls-57{fill:#2a2c3f;}.cls-58{fill:#6f79b8;}</style><clipPath id="clip-path"><ellipse class="cls-1" cx="29.64" cy="409.92" rx="10.8" ry="1.02"/></clipPath><clipPath id="clip-path-2"><ellipse class="cls-1" cx="29.64" cy="409.92" rx="9.94" ry="0.94"/></clipPath><clipPath id="clip-path-3"><ellipse class="cls-1" cx="29.64" cy="409.92" rx="14.92" ry="1.41"/></clipPath><clipPath id="clip-path-4"><ellipse class="cls-1" cx="29.64" cy="409.92" rx="13.74" ry="1.29"/></clipPath><clipPath id="clip-path-5"><ellipse class="cls-1" cx="29.64" cy="409.92" rx="12.74" ry="1.2"/></clipPath><clipPath id="clip-path-6"><ellipse class="cls-1" cx="29.64" cy="409.92" rx="11.65" ry="1.1"/></clipPath><clipPath id="clip-path-7"><ellipse class="cls-1" cx="29.64" cy="409.92" rx="4.82" ry="0.45"/></clipPath><clipPath id="clip-path-8"><ellipse class="cls-1" cx="29.64" cy="409.92" rx="4.44" ry="0.42"/></clipPath><clipPath id="clip-path-9"><ellipse class="cls-1" cx="29.64" cy="409.92" rx="4.12" ry="0.39"/></clipPath><clipPath id="clip-path-10"><ellipse class="cls-1" cx="29.64" cy="409.92" rx="3.77" ry="0.35"/></clipPath><clipPath id="clip-path-11"><ellipse class="cls-1" cx="29.64" cy="409.92" rx="6.61" ry="0.62"/></clipPath><clipPath id="clip-path-12"><ellipse class="cls-1" cx="29.64" cy="409.92" rx="6.09" ry="0.57"/></clipPath><clipPath id="clip-path-13"><ellipse class="cls-1" cx="29.64" cy="409.92" rx="5.65" ry="0.53"/></clipPath><clipPath id="clip-path-14"><ellipse class="cls-1" cx="29.64" cy="409.92" rx="5.16" ry="0.49"/></clipPath><clipPath id="clip-path-15"><ellipse class="cls-1" cx="29.64" cy="409.92" rx="9.14" ry="0.86"/></clipPath><clipPath id="clip-path-16"><ellipse class="cls-1" cx="29.64" cy="409.92" rx="8.42" ry="0.79"/></clipPath><clipPath id="clip-path-17"><ellipse class="cls-1" cx="29.64" cy="409.92" rx="7.8" ry="0.74"/></clipPath><clipPath id="clip-path-18"><ellipse class="cls-1" cx="29.64" cy="409.92" rx="7.14" ry="0.67"/></clipPath><clipPath id="clip-path-19"><ellipse class="cls-1" cx="29.64" cy="409.92" rx="3.33" ry="0.31"/></clipPath><clipPath id="clip-path-20"><ellipse class="cls-1" cx="29.64" cy="409.92" rx="3.03" ry="0.29"/></clipPath><clipPath id="clip-path-21"><ellipse class="cls-1" cx="29.64" cy="409.92" rx="2.83" ry="0.27"/></clipPath><clipPath id="clip-path-22"><ellipse class="cls-1" cx="29.64" cy="409.92" rx="2.6" ry="0.25"/></clipPath><clipPath id="clip-path-23"><ellipse class="cls-1" cx="29.64" cy="409.92" rx="2.41" ry="0.23"/></clipPath><clipPath id="clip-path-24"><ellipse class="cls-1" cx="29.64" cy="409.92" rx="2.21" ry="0.21"/></clipPath><clipPath id="clip-path-25"><ellipse class="cls-1" cx="29.64" cy="409.92" rx="1.95" ry="0.18"/></clipPath><clipPath id="clip-path-26"><ellipse class="cls-1" cx="29.64" cy="409.92" rx="1.78" ry="0.17"/></clipPath><clipPath id="clip-path-28"><ellipse class="cls-1" cx="29.64" cy="409.92" rx="1.64" ry="0.15"/></clipPath><clipPath id="clip-path-29"><ellipse class="cls-1" cx="29.64" cy="409.92" rx="1.52" ry="0.14"/></clipPath><clipPath id="clip-path-30"><ellipse class="cls-1" cx="29.64" cy="409.92" rx="1.39" ry="0.13"/></clipPath><clipPath id="clip-path-31"><ellipse class="cls-1" cx="29.64" cy="409.92" rx="1.22" ry="0.12"/></clipPath><clipPath id="clip-path-32"><ellipse class="cls-1" cx="29.64" cy="409.92" rx="1.12" ry="0.11"/></clipPath><clipPath id="clip-path-33"><ellipse class="cls-1" cx="29.64" cy="409.92" rx="1.04" ry="0.1"/></clipPath><clipPath id="clip-path-34"><ellipse class="cls-1" cx="29.64" cy="409.92" rx="0.96" ry="0.09"/></clipPath><clipPath id="clip-path-35"><ellipse class="cls-1" cx="29.64" cy="409.92" rx="0.89" ry="0.08"/></clipPath><clipPath id="clip-path-36"><ellipse class="cls-1" cx="29.64" cy="409.92" rx="0.81" ry="0.08"/></clipPath><clipPath id="clip-path-37"><ellipse class="cls-1" cx="29.64" cy="409.92" rx="0.72" ry="0.07"/></clipPath><clipPath id="clip-path-38"><ellipse class="cls-1" cx="29.64" cy="409.92" rx="0.65" ry="0.06"/></clipPath><clipPath id="clip-path-39"><ellipse class="cls-1" cx="29.64" cy="409.92" rx="0.56" ry="0.05"/></clipPath><clipPath id="clip-path-40"><ellipse class="cls-1" cx="29.64" cy="409.92" rx="0.46" ry="0.04"/></clipPath><clipPath id="clip-path-41"><path class="cls-1" d="M30,409.92a1.71,1.71,0,0,1-.64,0,1.73,1.73,0,0,1,.32,0A.88.88,0,0,1,30,409.92Z"/></clipPath><clipPath id="clip-path-42"><path class="cls-1" d="M29.85,409.92a1.16,1.16,0,0,1-.43,0,1.17,1.17,0,0,1,.22,0A.59.59,0,0,1,29.85,409.92Z"/></clipPath></defs><title>Flow Chart</title><g id="Layer_2" data-name="Layer 2"><g id="Layer_1-2" data-name="Layer 1"><circle class="cls-2" cx="205.22" cy="161.85" r="17.99"/><path class="cls-2" d="M205.22,377a18,18,0,1,0,18,18A18,18,0,0,0,205.22,377Zm0,29.92a11.64,11.64,0,1,1,11.64-11.64A11.64,11.64,0,0,1,205.22,407Z"/><path class="cls-2" d="M205.22,615.37a18,18,0,1,0,18,18A18,18,0,0,0,205.22,615.37Zm0,29.92a11.64,11.64,0,1,1,11.64-11.64A11.64,11.64,0,0,1,205.22,645.28Z"/><rect class="cls-2" x="201.79" y="76.55" width="6.87" height="69"/><rect class="cls-2" x="201.79" y="178.34" width="6.87" height="199.97"/><rect class="cls-2" x="201.79" y="409.98" width="6.85" height="207.27"/><rect class="cls-2" x="239.15" y="132.74" width="174.56" height="58.36" rx="29.18" onClick="getFlowchart('school')" ry="29.18"/><path class="cls-3" d="M273.9,167.64a7.22,7.22,0,0,0,3.66,1c2.09,0,3.31-1.1,3.31-2.7s-.84-2.32-3-3.15c-2.58-.91-4.18-2.25-4.18-4.48,0-2.46,2-4.29,5.11-4.29a7.18,7.18,0,0,1,3.5.77l-.56,1.67a6.29,6.29,0,0,0-3-.75c-2.16,0-3,1.29-3,2.37,0,1.48,1,2.21,3.14,3,2.68,1,4,2.32,4,4.65s-1.81,4.55-5.54,4.55a8.16,8.16,0,0,1-4-1Z"/><path class="cls-3" d="M293.92,169.7a7.6,7.6,0,0,1-3.26.66c-3.43,0-5.65-2.32-5.65-5.8a5.77,5.77,0,0,1,6.1-6,6.89,6.89,0,0,1,2.86.59l-.47,1.6a4.78,4.78,0,0,0-2.39-.54c-2.6,0-4,1.92-4,4.29a3.89,3.89,0,0,0,3.94,4.25,5.85,5.85,0,0,0,2.53-.56Z"/><path class="cls-3" d="M296.35,153.47h2.06v7.08h0a3.84,3.84,0,0,1,1.48-1.45,4.24,4.24,0,0,1,2.11-.59c1.53,0,4,.94,4,4.86v6.76h-2.06V163.6c0-1.83-.68-3.38-2.63-3.38a3,3,0,0,0-2.77,2.07,2.51,2.51,0,0,0-.14,1v6.85h-2.06Z"/><path class="cls-3" d="M319.65,164.35c0,4.2-2.91,6-5.65,6-3.07,0-5.44-2.25-5.44-5.84,0-3.8,2.49-6,5.63-6S319.65,160.88,319.65,164.35Zm-9,.12c0,2.49,1.43,4.36,3.45,4.36s3.45-1.85,3.45-4.41c0-1.92-1-4.37-3.4-4.37S310.64,162.31,310.64,164.47Z"/><path class="cls-3" d="M332.54,164.35c0,4.2-2.91,6-5.65,6-3.07,0-5.44-2.25-5.44-5.84,0-3.8,2.49-6,5.63-6S332.54,160.88,332.54,164.35Zm-9,.12c0,2.49,1.43,4.36,3.45,4.36s3.45-1.85,3.45-4.41c0-1.92-1-4.37-3.4-4.37S323.53,162.31,323.53,164.47Z"/><path class="cls-3" d="M335.15,153.47h2.06v16.66h-2.06Z"/><path class="cls-2" d="M263.32,64.23H147.13a32.12,32.12,0,1,1,0-64.23H263.32a32.12,32.12,0,0,1,0,64.23ZM147.13,5.87a26.25,26.25,0,1,0,0,52.5H263.32a26.25,26.25,0,0,0,0-52.5Z"/><rect class="cls-2" y="366.41" width="174.56" height="58.36" rx="29.18" ry="29.18" onClick="getFlowchart('publisher')" /><path class="cls-3" d="M66.21,388.16a23.56,23.56,0,0,1,3.92-.3,6.5,6.5,0,0,1,4.43,1.31,4.25,4.25,0,0,1,1.38,3.31,4.66,4.66,0,0,1-1.22,3.38,6.56,6.56,0,0,1-4.83,1.74,7.06,7.06,0,0,1-1.64-.14v6.33h-2Zm2,7.63a6.87,6.87,0,0,0,1.69.17c2.46,0,4-1.2,4-3.38s-1.48-3.1-3.73-3.1a8.55,8.55,0,0,0-1.92.17Z"/><path class="cls-3" d="M87.78,400.69c0,1.17,0,2.21.09,3.1H86l-.12-1.85h0A4.27,4.27,0,0,1,82.13,404c-1.78,0-3.92-1-3.92-5v-6.64h2.06v6.29c0,2.16.66,3.61,2.53,3.61a3,3,0,0,0,2.72-1.88,3,3,0,0,0,.19-1.06v-7h2.06Z"/><path class="cls-3" d="M91.12,403.79c0-.77.09-1.92.09-2.93V387.13h2v7.13h0a4.23,4.23,0,0,1,3.87-2.09c2.82,0,4.81,2.35,4.79,5.8C102,402,99.4,404,96.87,404a4,4,0,0,1-3.8-2.14H93l-.09,1.88Zm2.14-4.55a3.85,3.85,0,0,0,.09.75,3.19,3.19,0,0,0,3.1,2.42c2.16,0,3.45-1.76,3.45-4.36,0-2.28-1.17-4.23-3.38-4.23a3.29,3.29,0,0,0-3.14,2.54,4.05,4.05,0,0,0-.12.84Z"/><path class="cls-3" d="M104.57,387.13h2.06v16.66h-2.06Z"/><path class="cls-3" d="M112.41,389.24a1.28,1.28,0,0,1-2.56,0,1.26,1.26,0,0,1,1.29-1.29A1.22,1.22,0,0,1,112.41,389.24Zm-2.3,14.55V392.43h2.06v11.36Z"/><path class="cls-3" d="M115.32,401.68a5.41,5.41,0,0,0,2.72.82c1.5,0,2.21-.75,2.21-1.69s-.59-1.52-2.11-2.09c-2-.73-3-1.85-3-3.21,0-1.83,1.48-3.33,3.92-3.33a5.66,5.66,0,0,1,2.79.7l-.52,1.5a4.42,4.42,0,0,0-2.32-.66c-1.22,0-1.9.7-1.9,1.55s.68,1.36,2.16,1.92c2,.75,3,1.74,3,3.43,0,2-1.55,3.4-4.25,3.4a6.49,6.49,0,0,1-3.19-.77Z"/><path class="cls-3" d="M124.9,387.13H127v7.08h0a3.84,3.84,0,0,1,1.48-1.45,4.24,4.24,0,0,1,2.11-.59c1.53,0,4,.94,4,4.86v6.76H132.5v-6.52c0-1.83-.68-3.38-2.63-3.38a3,3,0,0,0-2.77,2.07,2.51,2.51,0,0,0-.14,1v6.85H124.9Z"/><path class="cls-3" d="M139.08,398.48a3.64,3.64,0,0,0,3.9,3.94,7.48,7.48,0,0,0,3.14-.58l.35,1.48a9.18,9.18,0,0,1-3.78.7c-3.5,0-5.58-2.3-5.58-5.72s2-6.12,5.33-6.12c3.71,0,4.69,3.26,4.69,5.35a7.9,7.9,0,0,1-.07,1Zm6.05-1.48c0-1.31-.54-3.35-2.86-3.35-2.09,0-3,1.92-3.17,3.35Z"/><path class="cls-3" d="M149.69,396c0-1.34,0-2.49-.09-3.54h1.81l.07,2.23h.09a3.41,3.41,0,0,1,3.14-2.49,2.18,2.18,0,0,1,.59.07v1.95a3.16,3.16,0,0,0-.7-.07,2.9,2.9,0,0,0-2.77,2.65,5.81,5.81,0,0,0-.09,1v6.05h-2Z"/><rect class="cls-2" x="239.15" y="604.46" width="174.56" height="58.36" rx="29.18" ry="29.18" onClick="getFlowchart('guest')"/><path class="cls-3" d="M291.86,640.79a14.74,14.74,0,0,1-4.86.87,7.43,7.43,0,0,1-8.12-8c0-4.72,3.26-8.17,8.56-8.17a9.74,9.74,0,0,1,3.94.73l-.49,1.66a8.23,8.23,0,0,0-3.5-.68c-3.85,0-6.36,2.39-6.36,6.36s2.42,6.38,6.1,6.38a6.67,6.67,0,0,0,2.72-.42v-4.72h-3.21v-1.64h5.21Z"/><path class="cls-3" d="M304.42,638.4c0,1.17,0,2.21.09,3.1h-1.83l-.12-1.85h0a4.27,4.27,0,0,1-3.75,2.11c-1.78,0-3.92-1-3.92-5v-6.64h2.06v6.29c0,2.16.66,3.61,2.53,3.61a3,3,0,0,0,2.72-1.88,3,3,0,0,0,.19-1.06v-7h2.06Z"/><path class="cls-3" d="M309,636.2a3.64,3.64,0,0,0,3.9,3.94,7.48,7.48,0,0,0,3.14-.58l.35,1.48a9.18,9.18,0,0,1-3.78.7c-3.5,0-5.58-2.3-5.58-5.72s2-6.12,5.33-6.12c3.71,0,4.69,3.26,4.69,5.35a7.9,7.9,0,0,1-.07,1Zm6.05-1.48c0-1.31-.54-3.35-2.86-3.35-2.09,0-3,1.92-3.17,3.35Z"/><path class="cls-3" d="M319.33,639.39a5.41,5.41,0,0,0,2.72.82c1.5,0,2.21-.75,2.21-1.69s-.59-1.52-2.11-2.09c-2-.73-3-1.85-3-3.21,0-1.83,1.48-3.33,3.92-3.33a5.66,5.66,0,0,1,2.79.7l-.52,1.5a4.42,4.42,0,0,0-2.32-.66c-1.22,0-1.9.7-1.9,1.55s.68,1.36,2.16,1.92c2,.75,3,1.74,3,3.43,0,2-1.55,3.4-4.25,3.4a6.49,6.49,0,0,1-3.19-.77Z"/><path class="cls-3" d="M331.4,626.88v3.26h3v1.57h-3v6.12c0,1.41.4,2.21,1.55,2.21a4.57,4.57,0,0,0,1.2-.14l.09,1.55a5.1,5.1,0,0,1-1.83.28,2.86,2.86,0,0,1-2.23-.87,4.21,4.21,0,0,1-.8-3v-6.19h-1.76v-1.57h1.76v-2.72Z"/><circle class="cls-3" cx="384.2" cy="162.2" r="24.19"/><path class="cls-4" d="M398.3,160.72H370.07c-.52,0-.56,0-.56.55v12.09c0,.09,0,.18,0,.3h11.8c.26,0,.32-.07.32-.33,0-1.24,0-2.47,0-3.7a2.53,2.53,0,0,1,2.6-2.44,2.56,2.56,0,0,1,2.51,2.57v3.87H398.9V161.32C398.9,160.72,398.9,160.72,398.3,160.72ZM372,164.36a.71.71,0,0,1,.75-.72h1.29a.69.69,0,0,1,.73.67c0,.49,0,1,0,1.47h0a.7.7,0,0,1-.73.68c-.43,0-.85,0-1.29,0a.72.72,0,0,1-.75-.72C372,165.27,372,164.8,372,164.36Zm2.77,6.25a.71.71,0,0,1-.74.7h-1.28a.72.72,0,0,1-.75-.73c0-.46,0-.92,0-1.38v0a.71.71,0,0,1,.73-.7c.44,0,.88,0,1.32,0h0a.69.69,0,0,1,.7.68C374.8,169.64,374.81,170.12,374.79,170.6Zm1.8-6.21a.71.71,0,0,1,.78-.75h1.22a.72.72,0,0,1,.77.76v.67h0c0,.21,0,.43,0,.65v0a.72.72,0,0,1-.73.71h-1.29a.72.72,0,0,1-.75-.75C376.57,165.27,376.57,164.83,376.59,164.39Zm2.77,5.5h0c0,.23,0,.45,0,.68a.71.71,0,0,1-.7.73c-.45,0-.9,0-1.34,0h0a.7.7,0,0,1-.68-.72q0-.69,0-1.38a.7.7,0,0,1,.75-.72q.64,0,1.29,0h0a.72.72,0,0,1,.7.74C379.36,169.44,379.36,169.67,379.36,169.89Zm12.49.69a.71.71,0,0,1-.7.71c-.47,0-.94,0-1.41,0a.67.67,0,0,1-.66-.64c0-.5,0-1,0-1.5a.69.69,0,0,1,.7-.67q.67,0,1.34,0h0a.72.72,0,0,1,.71.72c0,.22,0,.45,0,.67h0C391.84,170.11,391.85,170.35,391.84,170.58Zm0-4.85h0a.72.72,0,0,1-.72.71q-.67,0-1.34,0a.69.69,0,0,1-.69-.67c0-.49,0-1,0-1.47a.68.68,0,0,1,.7-.67q.67,0,1.34,0h0a.71.71,0,0,1,.7.72c0,.22,0,.45,0,.67h0C391.84,165.26,391.85,165.5,391.85,165.73Zm1.79-1.39a.71.71,0,0,1,.74-.7h1.31a.69.69,0,0,1,.71.66c0,.5,0,1,0,1.5a.69.69,0,0,1-.68.66h-1.38a.71.71,0,0,1-.7-.71C393.62,165.28,393.62,164.8,393.64,164.34Zm2.77,6.25v0a.71.71,0,0,1-.73.69c-.44,0-.88,0-1.32,0h0a.7.7,0,0,1-.69-.72q0-.7,0-1.41a.71.71,0,0,1,.71-.7h1.32a.72.72,0,0,1,.74.71C396.43,169.64,396.42,170.11,396.41,170.58Z"/><path class="cls-5" d="M396.41,170.58v0a.71.71,0,0,1-.73.69c-.44,0-.88,0-1.32,0h0a.7.7,0,0,1-.69-.72q0-.7,0-1.41a.71.71,0,0,1,.71-.7h1.32a.72.72,0,0,1,.74.71C396.43,169.64,396.42,170.11,396.41,170.58Z"/><path class="cls-5" d="M396.4,165.79a.69.69,0,0,1-.68.66h-1.38a.71.71,0,0,1-.7-.71c0-.47,0-.94,0-1.41a.71.71,0,0,1,.74-.7h1.31a.69.69,0,0,1,.71.66C396.42,164.79,396.42,165.29,396.4,165.79Z"/><path class="cls-5" d="M391.84,165c0,.23,0,.47,0,.7h0a.72.72,0,0,1-.72.71q-.67,0-1.34,0a.69.69,0,0,1-.69-.67c0-.49,0-1,0-1.47a.68.68,0,0,1,.7-.67q.67,0,1.34,0h0a.71.71,0,0,1,.7.72c0,.22,0,.45,0,.67Z"/><path class="cls-5" d="M391.84,169.88c0,.23,0,.47,0,.7a.71.71,0,0,1-.7.71c-.47,0-.94,0-1.41,0a.67.67,0,0,1-.66-.64c0-.5,0-1,0-1.5a.69.69,0,0,1,.7-.67q.67,0,1.34,0h0a.72.72,0,0,1,.71.72c0,.22,0,.45,0,.67Z"/><path class="cls-5" d="M379.36,169.89h0c0,.23,0,.45,0,.68a.71.71,0,0,1-.7.73c-.45,0-.9,0-1.34,0h0a.7.7,0,0,1-.68-.72q0-.69,0-1.38a.7.7,0,0,1,.75-.72q.64,0,1.29,0h0a.72.72,0,0,1,.7.74C379.36,169.44,379.36,169.67,379.36,169.89Z"/><path class="cls-5" d="M374.79,170.6a.71.71,0,0,1-.74.7h-1.28a.72.72,0,0,1-.75-.73c0-.46,0-.92,0-1.38v0a.71.71,0,0,1,.73-.7c.44,0,.88,0,1.32,0h0a.69.69,0,0,1,.7.68C374.8,169.64,374.81,170.12,374.79,170.6Z"/><path class="cls-5" d="M379.36,165.72v0a.72.72,0,0,1-.73.71h-1.29a.72.72,0,0,1-.75-.75c0-.44,0-.88,0-1.32a.71.71,0,0,1,.78-.75h1.22a.72.72,0,0,1,.77.76v.67h0C379.35,165.28,379.36,165.5,379.36,165.72Z"/><path class="cls-5" d="M374.78,165.77h0a.7.7,0,0,1-.73.68c-.43,0-.85,0-1.29,0a.72.72,0,0,1-.75-.72c0-.46,0-.93,0-1.38a.71.71,0,0,1,.75-.72h1.29a.69.69,0,0,1,.73.67C374.81,164.79,374.8,165.28,374.78,165.77Z"/><path class="cls-6" d="M390.48,154.17l-5.61-5-.5-.44,0,0-.13-.1-.11.1-6.16,5.49a.6.6,0,0,0,0,.84l.7-.62v5.76h11.3v-5.73l.66.59a.6.6,0,0,0,.15-.43A.61.61,0,0,0,390.48,154.17Zm-6.33,4.58h0a2.73,2.73,0,1,1,2.77-2.69A2.74,2.74,0,0,1,384.14,158.75Z"/><path class="cls-7" d="M384.26,153.29a2.73,2.73,0,1,0-.11,5.46h0a2.73,2.73,0,0,0,.11-5.46Zm1.11,3.07c-.51,0-1,0-1.56,0,0-.51,0-1,0-1.46,0-.11.2-.22.31-.33.11.12.27.23.3.37a3.12,3.12,0,0,1,0,.69c.52.19,1.12-.2,1.53.37A.64.64,0,0,1,385.37,156.36Z"/><path class="cls-8" d="M386,156a.64.64,0,0,1-.61.35c-.51,0-1,0-1.56,0,0-.51,0-1,0-1.46,0-.11.2-.22.31-.33.11.12.27.23.3.37a3.12,3.12,0,0,1,0,.69C385,155.82,385.57,155.43,386,156Z"/><path class="cls-4" d="M390.53,155l-6.33-5.64L377.87,155a.6.6,0,0,1,0-.84l6.16-5.49.11-.1.13.1,6.16,5.48a.61.61,0,0,1,.2.41A.6.6,0,0,1,390.53,155Z"/><circle class="cls-3" cx="29.64" cy="395.87" r="24.19"/><g class="cls-9"><g class="cls-10"><rect class="cls-11" x="18.84" y="408.91" width="21.6" height="2.03"/><ellipse class="cls-11" cx="29.64" cy="409.92" rx="7.14" ry="6.43"/><ellipse class="cls-11" cx="29.64" cy="409.92" rx="6.54" ry="5.89"/><ellipse class="cls-12" cx="29.64" cy="409.92" rx="5.95" ry="5.35"/><ellipse class="cls-13" cx="29.64" cy="409.92" rx="5.35" ry="4.82"/><ellipse class="cls-13" cx="29.64" cy="409.92" rx="4.76" ry="4.28"/><ellipse class="cls-13" cx="29.64" cy="409.92" rx="4.16" ry="3.75"/><ellipse class="cls-14" cx="29.64" cy="409.92" rx="3.57" ry="3.21"/><ellipse class="cls-14" cx="29.64" cy="409.92" rx="2.97" ry="2.68"/><ellipse class="cls-14" cx="29.64" cy="409.92" rx="2.38" ry="2.14"/><ellipse class="cls-15" cx="29.64" cy="409.92" rx="1.78" ry="1.61"/><ellipse class="cls-15" cx="29.64" cy="409.92" rx="1.19" ry="1.07"/><ellipse class="cls-15" cx="29.64" cy="409.92" rx="0.59" ry="0.54"/></g></g><g class="cls-9"><g class="cls-16"><rect class="cls-11" x="19.69" y="408.99" width="19.89" height="1.87"/><ellipse class="cls-11" cx="29.64" cy="409.92" rx="6.57" ry="5.92"/><ellipse class="cls-11" cx="29.64" cy="409.92" rx="6.03" ry="5.42"/><ellipse class="cls-12" cx="29.64" cy="409.92" rx="5.48" ry="4.93"/><ellipse class="cls-13" cx="29.64" cy="409.92" rx="4.93" ry="4.44"/><ellipse class="cls-13" cx="29.64" cy="409.92" rx="4.38" ry="3.94"/><ellipse class="cls-13" cx="29.64" cy="409.92" rx="3.83" ry="3.45"/><ellipse class="cls-14" cx="29.64" cy="409.92" rx="3.29" ry="2.96"/><ellipse class="cls-14" cx="29.64" cy="409.92" rx="2.74" ry="2.47"/><ellipse class="cls-14" cx="29.64" cy="409.92" rx="2.19" ry="1.97"/><ellipse class="cls-15" cx="29.64" cy="409.92" rx="1.64" ry="1.48"/><ellipse class="cls-15" cx="29.64" cy="409.92" rx="1.1" ry="0.99"/><ellipse class="cls-15" cx="29.64" cy="409.92" rx="0.55" ry="0.49"/></g></g><g class="cls-9"><g class="cls-17"><rect class="cls-11" x="14.72" y="408.52" width="29.84" height="2.81"/><ellipse class="cls-11" cx="29.64" cy="409.92" rx="9.86" ry="8.88"/><ellipse class="cls-11" cx="29.64" cy="409.92" rx="9.04" ry="8.14"/><ellipse class="cls-12" cx="29.64" cy="409.92" rx="8.22" ry="7.4"/><ellipse class="cls-13" cx="29.64" cy="409.92" rx="7.4" ry="6.66"/><ellipse class="cls-13" cx="29.64" cy="409.92" rx="6.58" ry="5.92"/><ellipse class="cls-13" cx="29.64" cy="409.92" rx="5.75" ry="5.18"/><ellipse class="cls-14" cx="29.64" cy="409.92" rx="4.93" ry="4.44"/><ellipse class="cls-14" cx="29.64" cy="409.92" rx="4.11" ry="3.7"/><ellipse class="cls-14" cx="29.64" cy="409.92" rx="3.29" ry="2.96"/><ellipse class="cls-15" cx="29.64" cy="409.92" rx="2.47" ry="2.22"/><ellipse class="cls-15" cx="29.64" cy="409.92" rx="1.64" ry="1.48"/><ellipse class="cls-15" cx="29.64" cy="409.92" rx="0.82" ry="0.74"/></g></g><g class="cls-9"><g class="cls-18"><rect class="cls-11" x="15.9" y="408.63" width="27.48" height="2.59"/><ellipse class="cls-11" cx="29.64" cy="409.92" rx="9.08" ry="8.18"/><ellipse class="cls-11" cx="29.64" cy="409.92" rx="8.33" ry="7.49"/><ellipse class="cls-12" cx="29.64" cy="409.92" rx="7.57" ry="6.81"/><ellipse class="cls-13" cx="29.64" cy="409.92" rx="6.81" ry="6.13"/><ellipse class="cls-13" cx="29.64" cy="409.92" rx="6.05" ry="5.45"/><ellipse class="cls-13" cx="29.64" cy="409.92" rx="5.3" ry="4.77"/><ellipse class="cls-14" cx="29.64" cy="409.92" rx="4.54" ry="4.09"/><ellipse class="cls-14" cx="29.64" cy="409.92" rx="3.78" ry="3.41"/><ellipse class="cls-14" cx="29.64" cy="409.92" rx="3.03" ry="2.73"/><ellipse class="cls-15" cx="29.64" cy="409.92" rx="2.27" ry="2.04"/><ellipse class="cls-15" cx="29.64" cy="409.92" rx="1.51" ry="1.36"/><ellipse class="cls-15" cx="29.64" cy="409.92" rx="0.76" ry="0.68"/></g></g><g class="cls-9"><g class="cls-19"><rect class="cls-11" x="16.9" y="408.72" width="25.48" height="2.4"/><ellipse class="cls-11" cx="29.64" cy="409.92" rx="8.42" ry="7.58"/><ellipse class="cls-11" cx="29.64" cy="409.92" rx="7.72" ry="6.95"/><ellipse class="cls-12" cx="29.64" cy="409.92" rx="7.02" ry="6.32"/><ellipse class="cls-13" cx="29.64" cy="409.92" rx="6.32" ry="5.69"/><ellipse class="cls-13" cx="29.64" cy="409.92" rx="5.61" ry="5.05"/><ellipse class="cls-13" cx="29.64" cy="409.92" rx="4.91" ry="4.42"/><ellipse class="cls-14" cx="29.64" cy="409.92" rx="4.21" ry="3.79"/><ellipse class="cls-14" cx="29.64" cy="409.92" rx="3.51" ry="3.16"/><ellipse class="cls-14" cx="29.64" cy="409.92" rx="2.81" ry="2.53"/><ellipse class="cls-15" cx="29.64" cy="409.92" rx="2.11" ry="1.9"/><ellipse class="cls-15" cx="29.64" cy="409.92" rx="1.4" ry="1.26"/><ellipse class="cls-15" cx="29.64" cy="409.92" rx="0.7" ry="0.63"/></g></g><g class="cls-9"><g class="cls-20"><rect class="cls-11" x="17.99" y="408.83" width="23.3" height="2.2"/><ellipse class="cls-11" cx="29.64" cy="409.92" rx="7.7" ry="6.93"/><ellipse class="cls-11" cx="29.64" cy="409.92" rx="7.06" ry="6.35"/><ellipse class="cls-12" cx="29.64" cy="409.92" rx="6.42" ry="5.78"/><ellipse class="cls-13" cx="29.64" cy="409.92" rx="5.78" ry="5.2"/><ellipse class="cls-13" cx="29.64" cy="409.92" rx="5.13" ry="4.62"/><ellipse class="cls-13" cx="29.64" cy="409.92" rx="4.49" ry="4.04"/><ellipse class="cls-14" cx="29.64" cy="409.92" rx="3.85" ry="3.47"/><ellipse class="cls-14" cx="29.64" cy="409.92" rx="3.21" ry="2.89"/><ellipse class="cls-14" cx="29.64" cy="409.92" rx="2.57" ry="2.31"/><ellipse class="cls-15" cx="29.64" cy="409.92" rx="1.93" ry="1.73"/><ellipse class="cls-15" cx="29.64" cy="409.92" rx="1.28" ry="1.16"/><ellipse class="cls-15" cx="29.64" cy="409.92" rx="0.64" ry="0.58"/></g></g><g class="cls-9"><g class="cls-21"><rect class="cls-11" x="24.81" y="409.47" width="9.65" height="0.91"/><ellipse class="cls-11" cx="29.64" cy="409.92" rx="3.19" ry="2.87"/><ellipse class="cls-11" cx="29.64" cy="409.92" rx="2.92" ry="2.63"/><ellipse class="cls-12" cx="29.64" cy="409.92" rx="2.66" ry="2.39"/><ellipse class="cls-13" cx="29.64" cy="409.92" rx="2.39" ry="2.15"/><ellipse class="cls-13" cx="29.64" cy="409.92" rx="2.13" ry="1.91"/><ellipse class="cls-13" cx="29.64" cy="409.92" rx="1.86" ry="1.67"/><ellipse class="cls-14" cx="29.64" cy="409.92" rx="1.59" ry="1.43"/><ellipse class="cls-14" cx="29.64" cy="409.92" rx="1.33" ry="1.2"/><ellipse class="cls-14" cx="29.64" cy="409.92" rx="1.06" ry="0.96"/><ellipse class="cls-15" cx="29.64" cy="409.92" rx="0.8" ry="0.72"/><ellipse class="cls-15" cx="29.64" cy="409.92" rx="0.53" ry="0.48"/><ellipse class="cls-15" cx="29.64" cy="409.92" rx="0.27" ry="0.24"/></g></g><g class="cls-9"><g class="cls-22"><rect class="cls-11" x="25.2" y="409.51" width="8.88" height="0.84"/><ellipse class="cls-11" cx="29.64" cy="409.92" rx="2.94" ry="2.64"/><ellipse class="cls-11" cx="29.64" cy="409.92" rx="2.69" ry="2.42"/><ellipse class="cls-12" cx="29.64" cy="409.92" rx="2.45" ry="2.2"/><ellipse class="cls-13" cx="29.64" cy="409.92" rx="2.2" ry="1.98"/><ellipse class="cls-13" cx="29.64" cy="409.92" rx="1.96" ry="1.76"/><ellipse class="cls-13" cx="29.64" cy="409.92" rx="1.71" ry="1.54"/><ellipse class="cls-14" cx="29.64" cy="409.92" rx="1.47" ry="1.32"/><ellipse class="cls-14" cx="29.64" cy="409.92" rx="1.22" ry="1.1"/><ellipse class="cls-14" cx="29.64" cy="409.92" rx="0.98" ry="0.88"/><ellipse class="cls-15" cx="29.64" cy="409.92" rx="0.73" ry="0.66"/><ellipse class="cls-15" cx="29.64" cy="409.92" rx="0.49" ry="0.44"/><ellipse class="cls-15" cx="29.64" cy="409.92" rx="0.24" ry="0.22"/></g></g><g class="cls-9"><g class="cls-23"><rect class="cls-11" x="25.52" y="409.54" width="8.24" height="0.78"/><ellipse class="cls-11" cx="29.64" cy="409.92" rx="2.72" ry="2.45"/><ellipse class="cls-11" cx="29.64" cy="409.92" rx="2.5" ry="2.25"/><ellipse class="cls-12" cx="29.64" cy="409.92" rx="2.27" ry="2.04"/><ellipse class="cls-13" cx="29.64" cy="409.92" rx="2.04" ry="1.84"/><ellipse class="cls-13" cx="29.64" cy="409.92" rx="1.81" ry="1.63"/><ellipse class="cls-13" cx="29.64" cy="409.92" rx="1.59" ry="1.43"/><ellipse class="cls-14" cx="29.64" cy="409.92" rx="1.36" ry="1.23"/><ellipse class="cls-14" cx="29.64" cy="409.92" rx="1.13" ry="1.02"/><ellipse class="cls-14" cx="29.64" cy="409.92" rx="0.91" ry="0.82"/><ellipse class="cls-15" cx="29.64" cy="409.92" rx="0.68" ry="0.61"/><ellipse class="cls-15" cx="29.64" cy="409.92" rx="0.45" ry="0.41"/><ellipse class="cls-15" cx="29.64" cy="409.92" rx="0.23" ry="0.2"/></g></g><g class="cls-9"><g class="cls-24"><rect class="cls-11" x="25.87" y="409.57" width="7.53" height="0.71"/><ellipse class="cls-11" cx="29.64" cy="409.92" rx="2.49" ry="2.24"/><ellipse class="cls-11" cx="29.64" cy="409.92" rx="2.28" ry="2.05"/><ellipse class="cls-12" cx="29.64" cy="409.92" rx="2.07" ry="1.87"/><ellipse class="cls-13" cx="29.64" cy="409.92" rx="1.87" ry="1.68"/><ellipse class="cls-13" cx="29.64" cy="409.92" rx="1.66" ry="1.49"/><ellipse class="cls-13" cx="29.64" cy="409.92" rx="1.45" ry="1.31"/><ellipse class="cls-14" cx="29.64" cy="409.92" rx="1.24" ry="1.12"/><ellipse class="cls-14" cx="29.64" cy="409.92" rx="1.04" ry="0.93"/><ellipse class="cls-14" cx="29.64" cy="409.92" rx="0.83" ry="0.75"/><ellipse class="cls-15" cx="29.64" cy="409.92" rx="0.62" ry="0.56"/><ellipse class="cls-15" cx="29.64" cy="409.92" rx="0.41" ry="0.37"/><ellipse class="cls-15" cx="29.64" cy="409.92" rx="0.21" ry="0.19"/></g></g><g class="cls-9"><g class="cls-25"><rect class="cls-11" x="23.02" y="409.3" width="13.23" height="1.25"/><ellipse class="cls-11" cx="29.64" cy="409.92" rx="4.37" ry="3.94"/><ellipse class="cls-11" cx="29.64" cy="409.92" rx="4.01" ry="3.61"/><ellipse class="cls-12" cx="29.64" cy="409.92" rx="3.64" ry="3.28"/><ellipse class="cls-13" cx="29.64" cy="409.92" rx="3.28" ry="2.95"/><ellipse class="cls-13" cx="29.64" cy="409.92" rx="2.91" ry="2.62"/><ellipse class="cls-13" cx="29.64" cy="409.92" rx="2.55" ry="2.3"/><ellipse class="cls-14" cx="29.64" cy="409.92" rx="2.19" ry="1.97"/><ellipse class="cls-14" cx="29.64" cy="409.92" rx="1.82" ry="1.64"/><ellipse class="cls-14" cx="29.64" cy="409.92" rx="1.46" ry="1.31"/><ellipse class="cls-15" cx="29.64" cy="409.92" rx="1.09" ry="0.98"/><ellipse class="cls-15" cx="29.64" cy="409.92" rx="0.73" ry="0.66"/><ellipse class="cls-15" cx="29.64" cy="409.92" rx="0.36" ry="0.33"/></g></g><g class="cls-9"><g class="cls-26"><rect class="cls-11" x="23.55" y="409.35" width="12.18" height="1.15"/><ellipse class="cls-11" cx="29.64" cy="409.92" rx="4.03" ry="3.62"/><ellipse class="cls-11" cx="29.64" cy="409.92" rx="3.69" ry="3.32"/><ellipse class="cls-12" cx="29.64" cy="409.92" rx="3.35" ry="3.02"/><ellipse class="cls-13" cx="29.64" cy="409.92" rx="3.02" ry="2.72"/><ellipse class="cls-13" cx="29.64" cy="409.92" rx="2.68" ry="2.42"/><ellipse class="cls-13" cx="29.64" cy="409.92" rx="2.35" ry="2.11"/><ellipse class="cls-14" cx="29.64" cy="409.92" rx="2.01" ry="1.81"/><ellipse class="cls-14" cx="29.64" cy="409.92" rx="1.68" ry="1.51"/><ellipse class="cls-14" cx="29.64" cy="409.92" rx="1.34" ry="1.21"/><ellipse class="cls-15" cx="29.64" cy="409.92" rx="1.01" ry="0.91"/><ellipse class="cls-15" cx="29.64" cy="409.92" rx="0.67" ry="0.6"/><ellipse class="cls-15" cx="29.64" cy="409.92" rx="0.34" ry="0.3"/></g></g><g class="cls-9"><g class="cls-27"><rect class="cls-11" x="23.99" y="409.39" width="11.3" height="1.06"/><ellipse class="cls-11" cx="29.64" cy="409.92" rx="3.73" ry="3.36"/><ellipse class="cls-11" cx="29.64" cy="409.92" rx="3.42" ry="3.08"/><ellipse class="cls-12" cx="29.64" cy="409.92" rx="3.11" ry="2.8"/><ellipse class="cls-13" cx="29.64" cy="409.92" rx="2.8" ry="2.52"/><ellipse class="cls-13" cx="29.64" cy="409.92" rx="2.49" ry="2.24"/><ellipse class="cls-13" cx="29.64" cy="409.92" rx="2.18" ry="1.96"/><ellipse class="cls-14" cx="29.64" cy="409.92" rx="1.87" ry="1.68"/><ellipse class="cls-14" cx="29.64" cy="409.92" rx="1.56" ry="1.4"/><ellipse class="cls-14" cx="29.64" cy="409.92" rx="1.24" ry="1.12"/><ellipse class="cls-15" cx="29.64" cy="409.92" rx="0.93" ry="0.84"/><ellipse class="cls-15" cx="29.64" cy="409.92" rx="0.62" ry="0.56"/><ellipse class="cls-15" cx="29.64" cy="409.92" rx="0.31" ry="0.28"/></g></g><g class="cls-9"><g class="cls-28"><rect class="cls-11" x="24.47" y="409.44" width="10.33" height="0.97"/><ellipse class="cls-11" cx="29.64" cy="409.92" rx="3.41" ry="3.07"/><ellipse class="cls-11" cx="29.64" cy="409.92" rx="3.13" ry="2.82"/><ellipse class="cls-12" cx="29.64" cy="409.92" rx="2.84" ry="2.56"/><ellipse class="cls-13" cx="29.64" cy="409.92" rx="2.56" ry="2.3"/><ellipse class="cls-13" cx="29.64" cy="409.92" rx="2.28" ry="2.05"/><ellipse class="cls-13" cx="29.64" cy="409.92" rx="1.99" ry="1.79"/><ellipse class="cls-14" cx="29.64" cy="409.92" rx="1.71" ry="1.54"/><ellipse class="cls-14" cx="29.64" cy="409.92" rx="1.42" ry="1.28"/><ellipse class="cls-14" cx="29.64" cy="409.92" rx="1.14" ry="1.02"/><ellipse class="cls-15" cx="29.64" cy="409.92" rx="0.85" ry="0.77"/><ellipse class="cls-15" cx="29.64" cy="409.92" rx="0.57" ry="0.51"/><ellipse class="cls-15" cx="29.64" cy="409.92" rx="0.28" ry="0.26"/></g></g><g class="cls-9"><g class="cls-29"><rect class="cls-11" x="20.5" y="409.06" width="18.28" height="1.72"/><ellipse class="cls-11" cx="29.64" cy="409.92" rx="6.04" ry="5.44"/><ellipse class="cls-11" cx="29.64" cy="409.92" rx="5.54" ry="4.98"/><ellipse class="cls-12" cx="29.64" cy="409.92" rx="5.03" ry="4.53"/><ellipse class="cls-13" cx="29.64" cy="409.92" rx="4.53" ry="4.08"/><ellipse class="cls-13" cx="29.64" cy="409.92" rx="4.03" ry="3.63"/><ellipse class="cls-13" cx="29.64" cy="409.92" rx="3.52" ry="3.17"/><ellipse class="cls-14" cx="29.64" cy="409.92" rx="3.02" ry="2.72"/><ellipse class="cls-14" cx="29.64" cy="409.92" rx="2.52" ry="2.27"/><ellipse class="cls-14" cx="29.64" cy="409.92" rx="2.01" ry="1.81"/><ellipse class="cls-15" cx="29.64" cy="409.92" rx="1.51" ry="1.36"/><ellipse class="cls-15" cx="29.64" cy="409.92" rx="1.01" ry="0.91"/><ellipse class="cls-15" cx="29.64" cy="409.92" rx="0.5" ry="0.45"/></g></g><g class="cls-9"><g class="cls-30"><rect class="cls-11" x="21.22" y="409.13" width="16.83" height="1.59"/><ellipse class="cls-11" cx="29.64" cy="409.92" rx="5.56" ry="5.01"/><ellipse class="cls-11" cx="29.64" cy="409.92" rx="5.1" ry="4.59"/><ellipse class="cls-12" cx="29.64" cy="409.92" rx="4.64" ry="4.17"/><ellipse class="cls-13" cx="29.64" cy="409.92" rx="4.17" ry="3.76"/><ellipse class="cls-13" cx="29.64" cy="409.92" rx="3.71" ry="3.34"/><ellipse class="cls-13" cx="29.64" cy="409.92" rx="3.25" ry="2.92"/><ellipse class="cls-14" cx="29.64" cy="409.92" rx="2.78" ry="2.5"/><ellipse class="cls-14" cx="29.64" cy="409.92" rx="2.32" ry="2.09"/><ellipse class="cls-14" cx="29.64" cy="409.92" rx="1.85" ry="1.67"/><ellipse class="cls-15" cx="29.64" cy="409.92" rx="1.39" ry="1.25"/><ellipse class="cls-15" cx="29.64" cy="409.92" rx="0.93" ry="0.83"/><ellipse class="cls-15" cx="29.64" cy="409.92" rx="0.46" ry="0.42"/></g></g><g class="cls-9"><g class="cls-31"><rect class="cls-11" x="21.83" y="409.19" width="15.61" height="1.47"/><ellipse class="cls-11" cx="29.64" cy="409.92" rx="5.16" ry="4.64"/><ellipse class="cls-11" cx="29.64" cy="409.92" rx="4.73" ry="4.26"/><ellipse class="cls-12" cx="29.64" cy="409.92" rx="4.3" ry="3.87"/><ellipse class="cls-13" cx="29.64" cy="409.92" rx="3.87" ry="3.48"/><ellipse class="cls-13" cx="29.64" cy="409.92" rx="3.44" ry="3.1"/><ellipse class="cls-13" cx="29.64" cy="409.92" rx="3.01" ry="2.71"/><ellipse class="cls-14" cx="29.64" cy="409.92" rx="2.58" ry="2.32"/><ellipse class="cls-14" cx="29.64" cy="409.92" rx="2.15" ry="1.93"/><ellipse class="cls-14" cx="29.64" cy="409.92" rx="1.72" ry="1.55"/><ellipse class="cls-15" cx="29.64" cy="409.92" rx="1.29" ry="1.16"/><ellipse class="cls-15" cx="29.64" cy="409.92" rx="0.86" ry="0.77"/><ellipse class="cls-15" cx="29.64" cy="409.92" rx="0.43" ry="0.39"/></g></g><g class="cls-9"><g class="cls-32"><rect class="cls-11" x="22.5" y="409.25" width="14.27" height="1.34"/><ellipse class="cls-11" cx="29.64" cy="409.92" rx="4.72" ry="4.25"/><ellipse class="cls-11" cx="29.64" cy="409.92" rx="4.32" ry="3.89"/><ellipse class="cls-12" cx="29.64" cy="409.92" rx="3.93" ry="3.54"/><ellipse class="cls-13" cx="29.64" cy="409.92" rx="3.54" ry="3.18"/><ellipse class="cls-13" cx="29.64" cy="409.92" rx="3.14" ry="2.83"/><ellipse class="cls-13" cx="29.64" cy="409.92" rx="2.75" ry="2.48"/><ellipse class="cls-14" cx="29.64" cy="409.92" rx="2.36" ry="2.12"/><ellipse class="cls-14" cx="29.64" cy="409.92" rx="1.97" ry="1.77"/><ellipse class="cls-14" cx="29.64" cy="409.92" rx="1.57" ry="1.42"/><ellipse class="cls-15" cx="29.64" cy="409.92" rx="1.18" ry="1.06"/><ellipse class="cls-15" cx="29.64" cy="409.92" rx="0.79" ry="0.71"/><ellipse class="cls-15" cx="29.64" cy="409.92" rx="0.39" ry="0.35"/></g></g><g class="cls-9"><g class="cls-33"><rect class="cls-11" x="26.31" y="409.61" width="6.65" height="0.63"/><ellipse class="cls-11" cx="29.64" cy="409.92" rx="2.2" ry="1.98"/><ellipse class="cls-11" cx="29.64" cy="409.92" rx="2.01" ry="1.81"/><ellipse class="cls-12" cx="29.64" cy="409.92" rx="1.83" ry="1.65"/><ellipse class="cls-13" cx="29.64" cy="409.92" rx="1.65" ry="1.48"/><ellipse class="cls-13" cx="29.64" cy="409.92" rx="1.47" ry="1.32"/><ellipse class="cls-13" cx="29.64" cy="409.92" rx="1.28" ry="1.15"/><ellipse class="cls-14" cx="29.64" cy="409.92" rx="1.1" ry="0.99"/><ellipse class="cls-14" cx="29.64" cy="409.92" rx="0.92" ry="0.82"/><ellipse class="cls-14" cx="29.64" cy="409.92" rx="0.73" ry="0.66"/><ellipse class="cls-15" cx="29.64" cy="409.92" rx="0.55" ry="0.49"/><ellipse class="cls-15" cx="29.64" cy="409.92" rx="0.37" ry="0.33"/><ellipse class="cls-15" cx="29.64" cy="409.92" rx="0.18" ry="0.16"/></g></g><g class="cls-9"><g class="cls-34"><rect class="cls-11" x="26.61" y="409.64" width="6.06" height="0.57"/><ellipse class="cls-11" cx="29.64" cy="409.92" rx="2" ry="1.8"/><ellipse class="cls-11" cx="29.64" cy="409.92" rx="1.84" ry="1.65"/><ellipse class="cls-12" cx="29.64" cy="409.92" rx="1.67" ry="1.5"/><ellipse class="cls-13" cx="29.64" cy="409.92" rx="1.5" ry="1.35"/><ellipse class="cls-13" cx="29.64" cy="409.92" rx="1.34" ry="1.2"/><ellipse class="cls-13" cx="29.64" cy="409.92" rx="1.17" ry="1.05"/><ellipse class="cls-14" cx="29.64" cy="409.92" rx="1" ry="0.9"/><ellipse class="cls-14" cx="29.64" cy="409.92" rx="0.83" ry="0.75"/><ellipse class="cls-14" cx="29.64" cy="409.92" rx="0.67" ry="0.6"/><ellipse class="cls-15" cx="29.64" cy="409.92" rx="0.5" ry="0.45"/><ellipse class="cls-15" cx="29.64" cy="409.92" rx="0.33" ry="0.3"/><ellipse class="cls-15" cx="29.64" cy="409.92" rx="0.17" ry="0.15"/></g></g><g class="cls-9"><g class="cls-35"><rect class="cls-11" x="26.81" y="409.66" width="5.65" height="0.53"/><ellipse class="cls-11" cx="29.64" cy="409.92" rx="1.87" ry="1.68"/><ellipse class="cls-11" cx="29.64" cy="409.92" rx="1.71" ry="1.54"/><ellipse class="cls-12" cx="29.64" cy="409.92" rx="1.56" ry="1.4"/><ellipse class="cls-13" cx="29.64" cy="409.92" rx="1.4" ry="1.26"/><ellipse class="cls-13" cx="29.64" cy="409.92" rx="1.25" ry="1.12"/><ellipse class="cls-13" cx="29.64" cy="409.92" rx="1.09" ry="0.98"/><ellipse class="cls-14" cx="29.64" cy="409.92" rx="0.93" ry="0.84"/><ellipse class="cls-14" cx="29.64" cy="409.92" rx="0.78" ry="0.7"/><ellipse class="cls-14" cx="29.64" cy="409.92" rx="0.62" ry="0.56"/><ellipse class="cls-15" cx="29.64" cy="409.92" rx="0.47" ry="0.42"/><ellipse class="cls-15" cx="29.64" cy="409.92" rx="0.31" ry="0.28"/><ellipse class="cls-15" cx="29.64" cy="409.92" rx="0.16" ry="0.14"/></g></g><g class="cls-9"><g class="cls-36"><rect class="cls-11" x="27.04" y="409.68" width="5.2" height="0.49"/><ellipse class="cls-11" cx="29.64" cy="409.92" rx="1.72" ry="1.55"/><ellipse class="cls-11" cx="29.64" cy="409.92" rx="1.58" ry="1.42"/><ellipse class="cls-12" cx="29.64" cy="409.92" rx="1.43" ry="1.29"/><ellipse class="cls-13" cx="29.64" cy="409.92" rx="1.29" ry="1.16"/><ellipse class="cls-13" cx="29.64" cy="409.92" rx="1.15" ry="1.03"/><ellipse class="cls-13" cx="29.64" cy="409.92" rx="1" ry="0.9"/><ellipse class="cls-14" cx="29.64" cy="409.92" rx="0.86" ry="0.77"/><ellipse class="cls-14" cx="29.64" cy="409.92" rx="0.72" ry="0.65"/><ellipse class="cls-14" cx="29.64" cy="409.92" rx="0.57" ry="0.52"/><ellipse class="cls-15" cx="29.64" cy="409.92" rx="0.43" ry="0.39"/><ellipse class="cls-15" cx="29.64" cy="409.92" rx="0.29" ry="0.26"/><ellipse class="cls-15" cx="29.64" cy="409.92" rx="0.14" ry="0.13"/></g></g><g class="cls-9"><g class="cls-37"><rect class="cls-11" x="27.22" y="409.7" width="4.83" height="0.45"/><ellipse class="cls-11" cx="29.64" cy="409.92" rx="1.6" ry="1.44"/><ellipse class="cls-11" cx="29.64" cy="409.92" rx="1.46" ry="1.32"/><ellipse class="cls-12" cx="29.64" cy="409.92" rx="1.33" ry="1.2"/><ellipse class="cls-13" cx="29.64" cy="409.92" rx="1.2" ry="1.08"/><ellipse class="cls-13" cx="29.64" cy="409.92" rx="1.06" ry="0.96"/><ellipse class="cls-13" cx="29.64" cy="409.92" rx="0.93" ry="0.84"/><ellipse class="cls-14" cx="29.64" cy="409.92" rx="0.8" ry="0.72"/><ellipse class="cls-14" cx="29.64" cy="409.92" rx="0.66" ry="0.6"/><ellipse class="cls-14" cx="29.64" cy="409.92" rx="0.53" ry="0.48"/><ellipse class="cls-15" cx="29.64" cy="409.92" rx="0.4" ry="0.36"/><ellipse class="cls-15" cx="29.64" cy="409.92" rx="0.27" ry="0.24"/><ellipse class="cls-15" cx="29.64" cy="409.92" rx="0.13" ry="0.12"/></g></g><g class="cls-9"><g class="cls-38"><rect class="cls-11" x="27.43" y="409.72" width="4.41" height="0.42"/><ellipse class="cls-11" cx="29.64" cy="409.92" rx="1.46" ry="1.31"/><ellipse class="cls-11" cx="29.64" cy="409.92" rx="1.34" ry="1.2"/><ellipse class="cls-12" cx="29.64" cy="409.92" rx="1.22" ry="1.09"/><ellipse class="cls-13" cx="29.64" cy="409.92" rx="1.09" ry="0.98"/><ellipse class="cls-13" cx="29.64" cy="409.92" rx="0.97" ry="0.88"/><ellipse class="cls-13" cx="29.64" cy="409.92" rx="0.85" ry="0.77"/><ellipse class="cls-14" cx="29.64" cy="409.92" rx="0.73" ry="0.66"/><ellipse class="cls-14" cx="29.64" cy="409.92" rx="0.61" ry="0.55"/><ellipse class="cls-14" cx="29.64" cy="409.92" rx="0.49" ry="0.44"/><ellipse class="cls-15" cx="29.64" cy="409.92" rx="0.36" ry="0.33"/><ellipse class="cls-15" cx="29.64" cy="409.92" rx="0.24" ry="0.22"/><ellipse class="cls-15" cx="29.64" cy="409.92" rx="0.12" ry="0.11"/></g></g><g class="cls-9"><g class="cls-39"><rect class="cls-11" x="27.69" y="409.74" width="3.9" height="0.37"/><ellipse class="cls-11" cx="29.64" cy="409.92" rx="1.29" ry="1.16"/><ellipse class="cls-11" cx="29.64" cy="409.92" rx="1.18" ry="1.06"/><ellipse class="cls-12" cx="29.64" cy="409.92" rx="1.07" ry="0.97"/><ellipse class="cls-13" cx="29.64" cy="409.92" rx="0.97" ry="0.87"/><ellipse class="cls-13" cx="29.64" cy="409.92" rx="0.86" ry="0.77"/><ellipse class="cls-13" cx="29.64" cy="409.92" rx="0.75" ry="0.68"/><ellipse class="cls-14" cx="29.64" cy="409.92" rx="0.64" ry="0.58"/><ellipse class="cls-14" cx="29.64" cy="409.92" rx="0.54" ry="0.48"/><ellipse class="cls-14" cx="29.64" cy="409.92" rx="0.43" ry="0.39"/><ellipse class="cls-15" cx="29.64" cy="409.92" rx="0.32" ry="0.29"/><ellipse class="cls-15" cx="29.64" cy="409.92" rx="0.21" ry="0.19"/><ellipse class="cls-15" cx="29.64" cy="409.92" rx="0.11" ry="0.1"/></g></g><g class="cls-9"><g class="cls-40"><rect class="cls-11" x="27.86" y="409.76" width="3.55" height="0.33"/><ellipse class="cls-11" cx="29.64" cy="409.92" rx="1.17" ry="1.06"/><ellipse class="cls-11" cx="29.64" cy="409.92" rx="1.08" ry="0.97"/><ellipse class="cls-12" cx="29.64" cy="409.92" rx="0.98" ry="0.88"/><ellipse class="cls-13" cx="29.64" cy="409.92" rx="0.88" ry="0.79"/><ellipse class="cls-13" cx="29.64" cy="409.92" rx="0.78" ry="0.7"/><ellipse class="cls-13" cx="29.64" cy="409.92" rx="0.69" ry="0.62"/><ellipse class="cls-14" cx="29.64" cy="409.92" rx="0.59" ry="0.53"/><ellipse class="cls-14" cx="29.64" cy="409.92" rx="0.49" ry="0.44"/><ellipse class="cls-14" cx="29.64" cy="409.92" rx="0.39" ry="0.35"/><ellipse class="cls-15" cx="29.64" cy="409.92" rx="0.29" ry="0.26"/><ellipse class="cls-15" cx="29.64" cy="409.92" rx="0.2" ry="0.18"/><ellipse class="cls-15" cx="29.64" cy="409.92" rx="0.1" ry="0.09"/></g></g><g class="cls-9"><g class="cls-40"><rect class="cls-11" x="27.86" y="409.76" width="3.55" height="0.33"/><ellipse class="cls-11" cx="29.64" cy="409.92" rx="1.17" ry="1.06"/><ellipse class="cls-11" cx="29.64" cy="409.92" rx="1.08" ry="0.97"/><ellipse class="cls-12" cx="29.64" cy="409.92" rx="0.98" ry="0.88"/><ellipse class="cls-13" cx="29.64" cy="409.92" rx="0.88" ry="0.79"/><ellipse class="cls-13" cx="29.64" cy="409.92" rx="0.78" ry="0.7"/><ellipse class="cls-13" cx="29.64" cy="409.92" rx="0.69" ry="0.62"/><ellipse class="cls-14" cx="29.64" cy="409.92" rx="0.59" ry="0.53"/><ellipse class="cls-14" cx="29.64" cy="409.92" rx="0.49" ry="0.44"/><ellipse class="cls-14" cx="29.64" cy="409.92" rx="0.39" ry="0.35"/><ellipse class="cls-15" cx="29.64" cy="409.92" rx="0.29" ry="0.26"/><ellipse class="cls-15" cx="29.64" cy="409.92" rx="0.2" ry="0.18"/><ellipse class="cls-15" cx="29.64" cy="409.92" rx="0.1" ry="0.09"/></g></g><g class="cls-9"><g class="cls-41"><rect class="cls-11" x="28" y="409.77" width="3.27" height="0.31"/><ellipse class="cls-11" cx="29.64" cy="409.92" rx="1.08" ry="0.97"/><ellipse class="cls-11" cx="29.64" cy="409.92" rx="0.99" ry="0.89"/><ellipse class="cls-12" cx="29.64" cy="409.92" rx="0.9" ry="0.81"/><ellipse class="cls-13" cx="29.64" cy="409.92" rx="0.81" ry="0.73"/><ellipse class="cls-13" cx="29.64" cy="409.92" rx="0.72" ry="0.65"/><ellipse class="cls-13" cx="29.64" cy="409.92" rx="0.63" ry="0.57"/><ellipse class="cls-14" cx="29.64" cy="409.92" rx="0.54" ry="0.49"/><ellipse class="cls-14" cx="29.64" cy="409.92" rx="0.45" ry="0.41"/><ellipse class="cls-14" cx="29.64" cy="409.92" rx="0.36" ry="0.32"/><ellipse class="cls-15" cx="29.64" cy="409.92" rx="0.27" ry="0.24"/><ellipse class="cls-15" cx="29.64" cy="409.92" rx="0.18" ry="0.16"/><ellipse class="cls-15" cx="29.64" cy="409.92" rx="0.09" ry="0.08"/></g></g><g class="cls-9"><g class="cls-42"><rect class="cls-11" x="28.12" y="409.78" width="3.03" height="0.29"/><ellipse class="cls-11" cx="29.64" cy="409.92" rx="1" ry="0.9"/><ellipse class="cls-11" cx="29.64" cy="409.92" rx="0.92" ry="0.83"/><ellipse class="cls-12" cx="29.64" cy="409.92" rx="0.84" ry="0.75"/><ellipse class="cls-13" cx="29.64" cy="409.92" rx="0.75" ry="0.68"/><ellipse class="cls-13" cx="29.64" cy="409.92" rx="0.67" ry="0.6"/><ellipse class="cls-13" cx="29.64" cy="409.92" rx="0.58" ry="0.53"/><ellipse class="cls-14" cx="29.64" cy="409.92" rx="0.5" ry="0.45"/><ellipse class="cls-14" cx="29.64" cy="409.92" rx="0.42" ry="0.38"/><ellipse class="cls-14" cx="29.64" cy="409.92" rx="0.33" ry="0.3"/><ellipse class="cls-15" cx="29.64" cy="409.92" rx="0.25" ry="0.23"/><ellipse class="cls-15" cx="29.64" cy="409.92" rx="0.17" ry="0.15"/><ellipse class="cls-15" cx="29.64" cy="409.92" rx="0.08" ry="0.08"/></g></g><g class="cls-9"><g class="cls-43"><rect class="cls-11" x="28.25" y="409.79" width="2.77" height="0.26"/><ellipse class="cls-11" cx="29.64" cy="409.92" rx="0.92" ry="0.83"/><ellipse class="cls-11" cx="29.64" cy="409.92" rx="0.84" ry="0.76"/><ellipse class="cls-12" cx="29.64" cy="409.92" rx="0.76" ry="0.69"/><ellipse class="cls-13" cx="29.64" cy="409.92" rx="0.69" ry="0.62"/><ellipse class="cls-13" cx="29.64" cy="409.92" rx="0.61" ry="0.55"/><ellipse class="cls-13" cx="29.64" cy="409.92" rx="0.53" ry="0.48"/><ellipse class="cls-14" cx="29.64" cy="409.92" rx="0.46" ry="0.41"/><ellipse class="cls-14" cx="29.64" cy="409.92" rx="0.38" ry="0.34"/><ellipse class="cls-14" cx="29.64" cy="409.92" rx="0.31" ry="0.28"/><ellipse class="cls-15" cx="29.64" cy="409.92" rx="0.23" ry="0.21"/><ellipse class="cls-15" cx="29.64" cy="409.92" rx="0.15" ry="0.14"/><ellipse class="cls-15" cx="29.64" cy="409.92" rx="0.08" ry="0.07"/></g></g><g class="cls-9"><g class="cls-44"><rect class="cls-11" x="28.41" y="409.81" width="2.45" height="0.23"/><ellipse class="cls-11" cx="29.64" cy="409.92" rx="0.81" ry="0.73"/><ellipse class="cls-11" cx="29.64" cy="409.92" rx="0.74" ry="0.67"/><ellipse class="cls-12" cx="29.64" cy="409.92" rx="0.67" ry="0.61"/><ellipse class="cls-13" cx="29.64" cy="409.92" rx="0.61" ry="0.55"/><ellipse class="cls-13" cx="29.64" cy="409.92" rx="0.54" ry="0.49"/><ellipse class="cls-13" cx="29.64" cy="409.92" rx="0.47" ry="0.43"/><ellipse class="cls-14" cx="29.64" cy="409.92" rx="0.4" ry="0.36"/><ellipse class="cls-14" cx="29.64" cy="409.92" rx="0.34" ry="0.3"/><ellipse class="cls-14" cx="29.64" cy="409.92" rx="0.27" ry="0.24"/><ellipse class="cls-15" cx="29.64" cy="409.92" rx="0.2" ry="0.18"/><ellipse class="cls-15" cx="29.64" cy="409.92" rx="0.13" ry="0.12"/><ellipse class="cls-15" cx="29.64" cy="409.92" rx="0.07" ry="0.06"/></g></g><g class="cls-9"><g class="cls-45"><rect class="cls-11" x="28.52" y="409.82" width="2.23" height="0.21"/><ellipse class="cls-11" cx="29.64" cy="409.92" rx="0.74" ry="0.66"/><ellipse class="cls-11" cx="29.64" cy="409.92" rx="0.68" ry="0.61"/><ellipse class="cls-12" cx="29.64" cy="409.92" rx="0.62" ry="0.55"/><ellipse class="cls-13" cx="29.64" cy="409.92" rx="0.55" ry="0.5"/><ellipse class="cls-13" cx="29.64" cy="409.92" rx="0.49" ry="0.44"/><ellipse class="cls-13" cx="29.64" cy="409.92" rx="0.43" ry="0.39"/><ellipse class="cls-14" cx="29.64" cy="409.92" rx="0.37" ry="0.33"/><ellipse class="cls-14" cx="29.64" cy="409.92" rx="0.31" ry="0.28"/><ellipse class="cls-14" cx="29.64" cy="409.92" rx="0.25" ry="0.22"/><ellipse class="cls-15" cx="29.64" cy="409.92" rx="0.18" ry="0.17"/><ellipse class="cls-15" cx="29.64" cy="409.92" rx="0.12" ry="0.11"/><ellipse class="cls-15" cx="29.64" cy="409.92" rx="0.06" ry="0.06"/></g></g><g class="cls-9"><g class="cls-46"><rect class="cls-11" x="28.6" y="409.83" width="2.08" height="0.2"/><ellipse class="cls-11" cx="29.64" cy="409.92" rx="0.69" ry="0.62"/><ellipse class="cls-11" cx="29.64" cy="409.92" rx="0.63" ry="0.57"/><ellipse class="cls-12" cx="29.64" cy="409.92" rx="0.57" ry="0.52"/><ellipse class="cls-13" cx="29.64" cy="409.92" rx="0.52" ry="0.46"/><ellipse class="cls-13" cx="29.64" cy="409.92" rx="0.46" ry="0.41"/><ellipse class="cls-13" cx="29.64" cy="409.92" rx="0.4" ry="0.36"/><ellipse class="cls-14" cx="29.64" cy="409.92" rx="0.34" ry="0.31"/><ellipse class="cls-14" cx="29.64" cy="409.92" rx="0.29" ry="0.26"/><ellipse class="cls-14" cx="29.64" cy="409.92" rx="0.23" ry="0.21"/><ellipse class="cls-15" cx="29.64" cy="409.92" rx="0.17" ry="0.15"/><ellipse class="cls-15" cx="29.64" cy="409.92" rx="0.11" ry="0.1"/><ellipse class="cls-15" cx="29.64" cy="409.92" rx="0.06" ry="0.05"/></g></g><g class="cls-9"><g class="cls-47"><rect class="cls-11" x="28.68" y="409.83" width="1.92" height="0.18"/><ellipse class="cls-11" cx="29.64" cy="409.92" rx="0.63" ry="0.57"/><ellipse class="cls-11" cx="29.64" cy="409.92" rx="0.58" ry="0.52"/><ellipse class="cls-12" cx="29.64" cy="409.92" rx="0.53" ry="0.48"/><ellipse class="cls-13" cx="29.64" cy="409.92" rx="0.48" ry="0.43"/><ellipse class="cls-13" cx="29.64" cy="409.92" rx="0.42" ry="0.38"/><ellipse class="cls-13" cx="29.64" cy="409.92" rx="0.37" ry="0.33"/><ellipse class="cls-14" cx="29.64" cy="409.92" rx="0.32" ry="0.29"/><ellipse class="cls-14" cx="29.64" cy="409.92" rx="0.26" ry="0.24"/><ellipse class="cls-14" cx="29.64" cy="409.92" rx="0.21" ry="0.19"/><ellipse class="cls-15" cx="29.64" cy="409.92" rx="0.16" ry="0.14"/><ellipse class="cls-15" cx="29.64" cy="409.92" rx="0.11" ry="0.1"/><ellipse class="cls-15" cx="29.64" cy="409.92" rx="0.05" ry="0.05"/></g></g><g class="cls-9"><g class="cls-48"><rect class="cls-11" x="28.75" y="409.84" width="1.78" height="0.17"/><ellipse class="cls-11" cx="29.64" cy="409.92" rx="0.59" ry="0.53"/><ellipse class="cls-11" cx="29.64" cy="409.92" rx="0.54" ry="0.48"/><ellipse class="cls-12" cx="29.64" cy="409.92" rx="0.49" ry="0.44"/><ellipse class="cls-13" cx="29.64" cy="409.92" rx="0.44" ry="0.4"/><ellipse class="cls-13" cx="29.64" cy="409.92" rx="0.39" ry="0.35"/><ellipse class="cls-13" cx="29.64" cy="409.92" rx="0.34" ry="0.31"/><ellipse class="cls-14" cx="29.64" cy="409.92" rx="0.29" ry="0.26"/><ellipse class="cls-14" cx="29.64" cy="409.92" rx="0.24" ry="0.22"/><ellipse class="cls-14" cx="29.64" cy="409.92" rx="0.2" ry="0.18"/><ellipse class="cls-15" cx="29.64" cy="409.92" rx="0.15" ry="0.13"/><ellipse class="cls-15" cx="29.64" cy="409.92" rx="0.1" ry="0.09"/><ellipse class="cls-15" cx="29.64" cy="409.92" rx="0.05" ry="0.04"/></g></g><g class="cls-9"><g class="cls-49"><rect class="cls-11" x="28.82" y="409.85" width="1.63" height="0.15"/><ellipse class="cls-11" cx="29.64" cy="409.92" rx="0.54" ry="0.48"/><ellipse class="cls-11" cx="29.64" cy="409.92" rx="0.49" ry="0.44"/><ellipse class="cls-12" cx="29.64" cy="409.92" rx="0.45" ry="0.4"/><ellipse class="cls-13" cx="29.64" cy="409.92" rx="0.4" ry="0.36"/><ellipse class="cls-13" cx="29.64" cy="409.92" rx="0.36" ry="0.32"/><ellipse class="cls-13" cx="29.64" cy="409.92" rx="0.31" ry="0.28"/><ellipse class="cls-14" cx="29.64" cy="409.92" rx="0.27" ry="0.24"/><ellipse class="cls-14" cx="29.64" cy="409.92" rx="0.22" ry="0.2"/><ellipse class="cls-14" cx="29.64" cy="409.92" rx="0.18" ry="0.16"/><ellipse class="cls-15" cx="29.64" cy="409.92" rx="0.13" ry="0.12"/><ellipse class="cls-15" cx="29.64" cy="409.92" rx="0.09" ry="0.08"/><ellipse class="cls-15" cx="29.64" cy="409.92" rx="0.04" ry="0.04"/></g></g><g class="cls-9"><g class="cls-50"><rect class="cls-11" x="28.92" y="409.86" width="1.44" height="0.14"/><ellipse class="cls-11" cx="29.64" cy="409.92" rx="0.47" ry="0.43"/><ellipse class="cls-11" cx="29.64" cy="409.92" rx="0.43" ry="0.39"/><ellipse class="cls-12" cx="29.64" cy="409.92" rx="0.4" ry="0.36"/><ellipse class="cls-13" cx="29.64" cy="409.92" rx="0.36" ry="0.32"/><ellipse class="cls-13" cx="29.64" cy="409.92" rx="0.32" ry="0.28"/><ellipse class="cls-13" cx="29.64" cy="409.92" rx="0.28" ry="0.25"/><ellipse class="cls-14" cx="29.64" cy="409.92" rx="0.24" ry="0.21"/><ellipse class="cls-14" cx="29.64" cy="409.92" rx="0.2" ry="0.18"/><ellipse class="cls-14" cx="29.64" cy="409.92" rx="0.16" ry="0.14"/><ellipse class="cls-15" cx="29.64" cy="409.92" rx="0.12" ry="0.11"/><ellipse class="cls-15" cx="29.64" cy="409.92" rx="0.08" ry="0.07"/><ellipse class="cls-15" cx="29.64" cy="409.92" rx="0.04" ry="0.04"/></g></g><g class="cls-9"><g class="cls-51"><rect class="cls-11" x="28.98" y="409.86" width="1.31" height="0.12"/><ellipse class="cls-11" cx="29.64" cy="409.92" rx="0.43" ry="0.39"/><ellipse class="cls-11" cx="29.64" cy="409.92" rx="0.4" ry="0.36"/><ellipse class="cls-12" cx="29.64" cy="409.92" rx="0.36" ry="0.32"/><ellipse class="cls-13" cx="29.64" cy="409.92" rx="0.32" ry="0.29"/><ellipse class="cls-13" cx="29.64" cy="409.92" rx="0.29" ry="0.26"/><ellipse class="cls-13" cx="29.64" cy="409.92" rx="0.25" ry="0.23"/><ellipse class="cls-14" cx="29.64" cy="409.92" rx="0.22" ry="0.19"/><ellipse class="cls-14" cx="29.64" cy="409.92" rx="0.18" ry="0.16"/><ellipse class="cls-14" cx="29.64" cy="409.92" rx="0.14" ry="0.13"/><ellipse class="cls-15" cx="29.64" cy="409.92" rx="0.11" ry="0.1"/><ellipse class="cls-15" cx="29.64" cy="409.92" rx="0.07" ry="0.06"/><circle class="cls-15" cx="29.64" cy="409.92" r="0.04"/></g></g><g class="cls-9"><g class="cls-52"><rect class="cls-11" x="29.08" y="409.87" width="1.12" height="0.11"/><ellipse class="cls-11" cx="29.64" cy="409.92" rx="0.37" ry="0.33"/><ellipse class="cls-11" cx="29.64" cy="409.92" rx="0.34" ry="0.31"/><ellipse class="cls-12" cx="29.64" cy="409.92" rx="0.31" ry="0.28"/><ellipse class="cls-13" cx="29.64" cy="409.92" rx="0.28" ry="0.25"/><ellipse class="cls-13" cx="29.64" cy="409.92" rx="0.25" ry="0.22"/><ellipse class="cls-13" cx="29.64" cy="409.92" rx="0.22" ry="0.19"/><ellipse class="cls-14" cx="29.64" cy="409.92" rx="0.19" ry="0.17"/><ellipse class="cls-14" cx="29.64" cy="409.92" rx="0.15" ry="0.14"/><ellipse class="cls-14" cx="29.64" cy="409.92" rx="0.12" ry="0.11"/><ellipse class="cls-15" cx="29.64" cy="409.92" rx="0.09" ry="0.08"/><ellipse class="cls-15" cx="29.64" cy="409.92" rx="0.06" ry="0.06"/><circle class="cls-15" cx="29.64" cy="409.92" r="0.03"/></g></g><g class="cls-9"><g class="cls-53"><rect class="cls-11" x="29.18" y="409.88" width="0.92" height="0.09"/><ellipse class="cls-11" cx="29.64" cy="409.92" rx="0.31" ry="0.28"/><ellipse class="cls-11" cx="29.64" cy="409.92" rx="0.28" ry="0.25"/><ellipse class="cls-12" cx="29.64" cy="409.92" rx="0.25" ry="0.23"/><ellipse class="cls-13" cx="29.64" cy="409.92" rx="0.23" ry="0.21"/><ellipse class="cls-13" cx="29.64" cy="409.92" rx="0.2" ry="0.18"/><ellipse class="cls-13" cx="29.64" cy="409.92" rx="0.18" ry="0.16"/><ellipse class="cls-14" cx="29.64" cy="409.92" rx="0.15" ry="0.14"/><ellipse class="cls-14" cx="29.64" cy="409.92" rx="0.13" ry="0.11"/><ellipse class="cls-14" cx="29.64" cy="409.92" rx="0.1" ry="0.09"/><ellipse class="cls-15" cx="29.64" cy="409.92" rx="0.08" ry="0.07"/><ellipse class="cls-15" cx="29.64" cy="409.92" rx="0.05" ry="0.05"/><circle class="cls-15" cx="29.64" cy="409.92" r="0.03"/></g></g><g class="cls-9"><g class="cls-54"><rect class="cls-11" x="29.32" y="409.89" width="0.64" height="0.06"/><ellipse class="cls-11" cx="29.64" cy="409.92" rx="0.21" ry="0.19"/><ellipse class="cls-11" cx="29.64" cy="409.92" rx="0.19" ry="0.17"/><ellipse class="cls-12" cx="29.64" cy="409.92" rx="0.18" ry="0.16"/><ellipse class="cls-13" cx="29.64" cy="409.92" rx="0.16" ry="0.14"/><ellipse class="cls-13" cx="29.64" cy="409.92" rx="0.14" ry="0.13"/><ellipse class="cls-13" cx="29.64" cy="409.92" rx="0.12" ry="0.11"/><ellipse class="cls-14" cx="29.64" cy="409.92" rx="0.11" ry="0.1"/><ellipse class="cls-14" cx="29.64" cy="409.92" rx="0.09" ry="0.08"/><ellipse class="cls-14" cx="29.64" cy="409.92" rx="0.07" ry="0.06"/><ellipse class="cls-15" cx="29.64" cy="409.92" rx="0.05" ry="0.05"/><circle class="cls-15" cx="29.64" cy="409.92" r="0.04"/><circle class="cls-15" cx="29.64" cy="409.92" r="0.02"/></g></g><g class="cls-9"><g class="cls-55"><rect class="cls-11" x="29.42" y="409.9" width="0.43" height="0.04"/><ellipse class="cls-11" cx="29.64" cy="409.92" rx="0.14" ry="0.13"/><ellipse class="cls-11" cx="29.64" cy="409.92" rx="0.13" ry="0.12"/><ellipse class="cls-12" cx="29.64" cy="409.92" rx="0.12" ry="0.11"/><ellipse class="cls-13" cx="29.64" cy="409.92" rx="0.11" ry="0.1"/><ellipse class="cls-13" cx="29.64" cy="409.92" rx="0.1" ry="0.09"/><ellipse class="cls-13" cx="29.64" cy="409.92" rx="0.08" ry="0.08"/><ellipse class="cls-14" cx="29.64" cy="409.92" rx="0.07" ry="0.06"/><ellipse class="cls-14" cx="29.64" cy="409.92" rx="0.06" ry="0.05"/><ellipse class="cls-14" cx="29.64" cy="409.92" rx="0.05" ry="0.04"/><circle class="cls-15" cx="29.64" cy="409.92" r="0.04"/><circle class="cls-15" cx="29.64" cy="409.92" r="0.02"/><circle class="cls-15" cx="29.64" cy="409.92" r="0.01"/></g></g><path class="cls-5" d="M18.3,405.79a3.69,3.69,0,0,0,1.55,1.46l.42.23.83.45.49.26c.13.07.34,0,.38-.11s-.1-.28-.23-.37l-.32-.26-.68-.55-.15-.12.18.12.44.29.56.36.53.34.39.25a.35.35,0,0,0,.41,0,.25.25,0,0,0,0-.21.47.47,0,0,0-.15-.24l-.19-.16a6.52,6.52,0,0,0-.53-.44l-.6-.46-.5-.37-.24-.17h0l2.35,1.66c.16.11.54.3.71.05a.41.41,0,0,0,0-.35.93.93,0,0,0-.23-.22c-.17-.14-.34-.29-.52-.42-.37-.28-.73-.56-1.11-.83l-.25-.18a8.92,8.92,0,0,0,.89.59c.35.22.58.4.85.54a.65.65,0,0,0,.25.11.46.46,0,0,0,.35-.11c.09-.12,0-.34-.13-.43a13.7,13.7,0,0,0-1.82-1.26s-.54-.3-.59-.35a3.71,3.71,0,0,0,1.72.4s.9-.41-.56-.68c0,0-.82-.33-1.34-.56a3.39,3.39,0,0,0-2.18-.16s-1-.53-1.2-.72l-.91,1.07A15.21,15.21,0,0,1,18.3,405.79Z"/><path class="cls-5" d="M41.37,404.74a3.23,3.23,0,0,1-.55,2l-.24.39-.47.76-.28.45a.26.26,0,0,1-.39.07c-.13-.13-.06-.29,0-.43s.09-.25.14-.37.19-.52.29-.78c0-.06,0-.12.07-.17l-.09.18-.23.45-.28.56-.27.53c-.07.13-.13.26-.2.39a.33.33,0,0,1-.36.18.28.28,0,0,1-.15-.16.43.43,0,0,1,0-.28c0-.08.05-.15.07-.23a5.65,5.65,0,0,1,.22-.61l.27-.66.23-.55.11-.26h0l-1.13,2.49c-.08.17-.31.5-.58.36a.43.43,0,0,1-.17-.32.81.81,0,0,1,.08-.3c.07-.2.14-.4.22-.6.17-.41.33-.81.51-1.21,0-.09.08-.18.12-.27a7.61,7.61,0,0,1-.45.91c-.19.34-.28.6-.44.85,0,.07-.09.17-.16.21a.47.47,0,0,1-.36.06.37.37,0,0,1-.13-.43,11.78,11.78,0,0,1,.89-1.9s.31-.5.32-.56a3.27,3.27,0,0,1-1.28,1.11s-1,0,.12-.84c0,0,.54-.65.86-1.08a3.07,3.07,0,0,1,1.81-1.1s.54-.88.65-1.16l2,.75S41.32,404.23,41.37,404.74Z"/><path class="cls-56" d="M27.33,389.85a1.78,1.78,0,0,1-.88,2.09,5.6,5.6,0,0,0,7.11,0s-1.54-.14-1-2.84Z"/><path class="cls-6" d="M43,402l-2.79-6.57a6.11,6.11,0,0,0-3.87-3.24l-2.71-1c-3,3-6.83,0-6.83,0l-1.68.84c-1.56.78-3.4,1.36-4.37,2.8l-4.44,7s.41,2.63,1.55,3.3c0,0,.33-1.61,2.71-1.38l-.38-1.66,3.93-3.6.62,6.11H35.2l.82-6.11L39.33,402l-1.48,2.38c2.48-.92,3.52.6,3.52.6A7.56,7.56,0,0,0,43,402Z"/><path class="cls-5" d="M34.57,385.4c0-3.52-2.15-5.44-4.79-5.44S25,381.87,25,385.4c-.15,0-.94.05-.49.86a2.18,2.18,0,0,1,.52,1.21s.17.36.42.2a7.17,7.17,0,0,0,2.73,3.19s1.79,1.05,3.11.12a6.12,6.12,0,0,0,2.91-3.27c.21.07.35-.23.35-.23a2.18,2.18,0,0,1,.52-1.21C35.52,385.45,34.73,385.4,34.57,385.4Z"/><path class="cls-57" d="M34.62,385.41c-.16.3-.88.71-.8,1.1h0c-.1-.14,0-.56,0-.73a4.94,4.94,0,0,0-.16-.84,4.43,4.43,0,0,0-.73-1.62,2,2,0,0,0-1.83-.94c-.53,0-1.32.14-1.41.71-.45-1-2.37-.95-3-.15a3.15,3.15,0,0,0-.62,1.55c-.05.34-.07.68-.15,1a2.14,2.14,0,0,1-.2.74,1.32,1.32,0,0,0-.72-.85c-.59-.27-.06-2.87.07-3.25A4.93,4.93,0,0,1,29.54,379a19.45,19.45,0,0,1,3.13-.28,4.12,4.12,0,0,0-.67.56,8.36,8.36,0,0,1,1.82-.21c-.34.22-.18.57-.35.91.75,0,1.3.79,1.69,1.27-.36-.09-.7-.25-1.05-.34C35.67,381.32,35.1,384.51,34.62,385.41Z"/><path class="cls-7" d="M26.78,391.22l-1.21.61a8.22,8.22,0,0,0,4.37,1.78H30c2.24,0,3.8-.6,4.64-2l-1-.38a6.14,6.14,0,0,1-3.16,1.32A6.79,6.79,0,0,1,26.78,391.22Z"/><path class="cls-57" d="M38.56,407.58a.73.73,0,0,1-.76.68H21.72a.73.73,0,0,1-.76-.68V397a.73.73,0,0,1,.76-.68H37.8a.73.73,0,0,1,.76.68Z"/><path class="cls-7" d="M21.17,397.17v5.91c0,2.69.33,4.87.74,4.87H37.6c.41,0,.74-2.18.74-4.87v-5.91Z"/><rect class="cls-7" x="23.6" y="408.09" width="2.43" height="0.52"/><rect class="cls-7" x="33.06" y="408.09" width="2.43" height="0.52"/><path class="cls-57" d="M19.17,408.82H40.4a2.52,2.52,0,0,1-.82,1.16H21.09S19.36,409.81,19.17,408.82Z"/><path class="cls-4" d="M32.12,385.12a3.83,3.83,0,0,0-.74.12l-.17.05a4.18,4.18,0,0,1-2.38,0l-.27-.1h0a3.72,3.72,0,0,0-.82-.14c-2.06-.14-2.39.63-2,1.55a1.75,1.75,0,0,0,1.93,1.23c1.14,0,1.71-.28,1.93-1.23a1.21,1.21,0,0,0,0-.43.57.57,0,0,1,.71,0,1.18,1.18,0,0,0,0,.49c.22,1,.8,1.23,1.93,1.23a1.75,1.75,0,0,0,1.93-1.23C34.52,385.75,34.18,385,32.12,385.12Zm-2.84,1.51c-.18.74-.66,1-1.6,1a1.45,1.45,0,0,1-1.6-1c-.29-.71,0-1.32,1.69-1.21C28.72,385.49,29.47,385.86,29.28,386.63Zm4.49,0a1.45,1.45,0,0,1-1.6,1c-.94,0-1.42-.22-1.6-1s.57-1.14,1.51-1.21C33.79,385.36,34.06,386,33.78,386.68Z"/><polygon class="cls-4" points="25.93 386.39 25.43 386.5 25.24 385.34 26.03 385.34 25.93 386.39"/><polygon class="cls-4" points="33.95 386.39 34.45 386.5 34.64 385.34 33.85 385.34 33.95 386.39"/><circle class="cls-3" cx="384.23" cy="633.59" r="24.19"/><path class="cls-58" d="M397,645.31v.15a28.47,28.47,0,0,1-23.87.07v-.22l1-3.68A5.8,5.8,0,0,1,377,638l3.54-1.88a1.46,1.46,0,0,1,.69-.18l.06-.47.28-2.09.07-.51v-.07h6.8l0,.16.07.54.27,2,.06.48h.09a1.46,1.46,0,0,1,.69.18l3.53,1.88a5.8,5.8,0,0,1,2.88,3.66Z"/><path class="cls-56" d="M388.84,635.91h0l-.33-2.45-.09-.7h-6.8l-.08.59-.35,2.56,0,.06s0,2.61,3.78,2.61S388.84,635.91,388.84,635.91Z"/><path class="cls-5" d="M391.26,627.88c-.1-.32-.29-.24-.52-.33a13.78,13.78,0,0,0,.12-4.86,5.09,5.09,0,0,0-2.44-3.17,5.73,5.73,0,0,0-6.73,0,5.09,5.09,0,0,0-2.44,3.17,13.78,13.78,0,0,0,.12,4.86c-.23.09-.42,0-.52.33a2.44,2.44,0,0,0,.06.88,3.39,3.39,0,0,0,.56,1.72,2.58,2.58,0,0,1,.69,1,12.09,12.09,0,0,0,.58,1.52,5.41,5.41,0,0,0,1.82,2.12,3.16,3.16,0,0,0,5,0,5.41,5.41,0,0,0,1.82-2.12,12.09,12.09,0,0,0,.58-1.52,2.58,2.58,0,0,1,.69-1,3.39,3.39,0,0,0,.56-1.72A2.44,2.44,0,0,0,391.26,627.88Z"/><path class="cls-57" d="M391.24,627.47h0l-.06.26c-.1-.13-.24-.11-.4-.16l0-.07a.88.88,0,0,1,0-.21l-.13-.95a2.29,2.29,0,0,0-1.89-2h0c-2.47-.39-4.91.23-7.2-.77l-.09,0-1.24-.56a.28.28,0,0,0-.37.27l-.34,4a.88.88,0,0,1,0,.21l0,.07c-.16.05-.31,0-.4.16l-.06-.26h0a23.44,23.44,0,0,1,0-5.48,6.44,6.44,0,0,1,12.29,0A23.44,23.44,0,0,1,391.24,627.47Z"/><path class="cls-4" d="M153.31,24.5h9.13v2.37H156.2v4.36H162V33.6H156.2v6.71h-2.88Z"/><path class="cls-4" d="M164.77,23.66h2.91V40.32h-2.91Z"/><path class="cls-4" d="M181.67,34.5a5.66,5.66,0,0,1-5.87,6.08,5.53,5.53,0,0,1-5.72-5.89A5.64,5.64,0,0,1,176,28.63C179.39,28.63,181.67,31,181.67,34.5Zm-8.61.12c0,2.21,1.08,3.87,2.84,3.87s2.79-1.62,2.79-3.92c0-1.78-.8-3.83-2.77-3.83S173.06,32.71,173.06,34.61Z"/><path class="cls-4" d="M185.59,28.89l1.2,5.19c.26,1.22.52,2.46.73,3.71h0c.23-1.24.61-2.51.94-3.68L190,28.89h2.35L193.76,34c.35,1.34.66,2.58.92,3.83h0c.19-1.24.44-2.49.75-3.83l1.27-5.07h2.84L196,40.32h-2.68l-1.36-4.64a35,35,0,0,1-.87-3.66h0a30.22,30.22,0,0,1-.87,3.66l-1.46,4.64H186l-3.38-11.43Z"/><path class="cls-4" d="M214.7,40a8.34,8.34,0,0,1-3.24.59,5.49,5.49,0,0,1-5.89-5.82c0-3.43,2.35-6.1,6.36-6.1a7.21,7.21,0,0,1,2.79.54l-.52,2.16a5.08,5.08,0,0,0-2.18-.44,3.41,3.41,0,0,0-3.5,3.71,3.39,3.39,0,0,0,3.5,3.68,5.6,5.6,0,0,0,2.27-.45Z"/><path class="cls-4" d="M216.84,23.66h2.91v6.8h0a3.89,3.89,0,0,1,1.43-1.32,3.93,3.93,0,0,1,2-.52c1.95,0,4,1.29,4,5v6.73H224.3V33.91c0-1.67-.61-2.91-2.21-2.91a2.35,2.35,0,0,0-2.23,1.62,2.43,2.43,0,0,0-.12.87v6.83h-2.91Z"/><path class="cls-4" d="M236.69,40.32,236.51,39h-.07a4.24,4.24,0,0,1-3.38,1.53,3.39,3.39,0,0,1-3.59-3.4c0-2.89,2.56-4.34,6.78-4.32v-.19c0-.75-.3-2-2.32-2a6.06,6.06,0,0,0-3.07.84l-.56-1.88a8.23,8.23,0,0,1,4.13-1c3.66,0,4.72,2.32,4.72,4.81v4.13a18.36,18.36,0,0,0,.17,2.74Zm-.38-5.58c-2,0-4,.4-4,2.14A1.51,1.51,0,0,0,234,38.51a2.34,2.34,0,0,0,2.25-1.57,2,2,0,0,0,.09-.63Z"/><path class="cls-4" d="M242.19,32.57c0-1.55,0-2.65-.09-3.68h2.51l.09,2.18h.09a3.41,3.41,0,0,1,3.12-2.44,3.08,3.08,0,0,1,.68.07v2.72a4.06,4.06,0,0,0-.84-.09,2.55,2.55,0,0,0-2.58,2.18,5.07,5.07,0,0,0-.09.89v5.91h-2.89Z"/><path class="cls-4" d="M254.4,25.63v3.26h2.74V31H254.4v5c0,1.38.37,2.11,1.48,2.11a4.36,4.36,0,0,0,1.13-.14l0,2.21a6.39,6.39,0,0,1-2.09.28,3.34,3.34,0,0,1-2.49-.94,4.56,4.56,0,0,1-.89-3.19V31h-1.64V28.89h1.64V26.31Z"/></g></g></svg>