<svg xmlns="http://www.w3.org/2000/svg" viewBox="0 0 101.23 100.97"><defs><style>.cls-1{fill:#4f5a8d;}.cls-2{fill:#333232;}.cls-3{fill:#333;}.cls-4{fill:#fad570;}.cls-5{fill:#faaf3b;}.cls-6{fill:#fefdfd;}.cls-7{fill:#fefcfc;}</style></defs><title>Homework New Student Website</title><g id="Layer_2" data-name="Layer 2"><g id="Layer_1-2" data-name="Layer 1"><path class="cls-1" d="M0,71.13c.19-.13.16-.34.21-.53a6.43,6.43,0,0,1,6.24-4.8c5,0,10,0,15,0,1.44,0,1.44,0,1.49,1.39.55,1.31.22,1.86-1.2,1.87q-7.39,0-14.78,0A3.59,3.59,0,0,0,4,70.3a3,3,0,0,0-.32,3.33,3.26,3.26,0,0,0,3.09,1.74h36c1.07,0,1.14-.09,1.16-1.21,0-1,0-1.91,0-2.86-.1-2.22-.1-2.22-2.29-2.22H28c-.33,0-.66,0-1,0-1.32-.07-1.64-.62-1.1-1.88.05-1.39.05-1.39,1.5-1.39,6.36,0,12.71,0,19.07,0,.75,0,.92.19.91.92,0,2.73,0,5.47,0,8.2,0,.53.08.8.68.94A6.32,6.32,0,0,1,53.19,83a6.4,6.4,0,0,1-6.57,5.58h-.81c1.84,2.91,2.12,5.84.29,8.76a7.36,7.36,0,0,1-5.77,3.5c-1.57.14-3.14,0-4.71.06a.42.42,0,0,1-.32-.12,5.19,5.19,0,0,1-.16-2.42c0-.64.52-.77,1.05-.79,1.18,0,2.36,0,3.54,0a4.32,4.32,0,0,0,3.85-6.24,4.67,4.67,0,0,0-4.4-2.46H21.56c-1.54,0-1.69-.17-1.7-1.69,0-1.72.11-1.88,1.82-1.88h24.4a5.3,5.3,0,0,0,1.66-.15c2-.64,2.68-2.69,1.62-4.77a3.38,3.38,0,0,0-2.91-1.38H14.41c-1.14,0-1.23.11-1.25,1.24,0,.26,0,.53,0,.79,0,1,0,2,0,3.05s.08,1.18,1.16,1.21H15.6c1.77,0,1.92.16,1.88,1.92,0,1.46-.18,1.66-1.64,1.66-3.72,0-7.43,0-11.15,0-1.34,0-1.4.07-1.42,1.37,0,1.09,0,2.17,0,3.26s0,2,0,3.05c0,.66.29,1,.95,1H30.94c1.61,0,1.8.21,1.76,1.84,0,.52.12,1.06-.31,1.49a2.64,2.64,0,0,1-.69,0H.87a1.55,1.55,0,0,1-.87-.09V85.55a1.82,1.82,0,0,1,1.32-.29H8.22c1.32,0,1.36-.05,1.37-1.41s0-2.43,0-3.65-.08-1.26-1.31-1.27c-.69,0-1.38,0-2.07,0A6.81,6.81,0,0,1,.61,75.55,8.38,8.38,0,0,1,0,73.5Z"/><path class="cls-2" d="M94.87,100.77l0,.19H68.77a1.14,1.14,0,0,1,.07-1.59c.54,1.31,1.69,1.07,2.74,1.07H93.17A2.42,2.42,0,0,1,94.87,100.77Z"/><path class="cls-3" d="M65.79,100.76l0,.2H52.17l0-.21a1.72,1.72,0,0,1,1.31-.31h11A1.75,1.75,0,0,1,65.79,100.76Z"/><path class="cls-1" d="M99.6,39.64a6.63,6.63,0,0,0-7.17-2.3A.84.84,0,0,1,91.36,37Q84.14,27.7,76.87,18.41a.93.93,0,0,1-.16-1.13,6.89,6.89,0,0,0-6.25-9.9,2.54,2.54,0,0,1-1.36-.46C65.54,4.69,62,2.47,58.42.21c-.53-.34-.77-.3-1.11.26-1.14,1.92-2.38,3.78-3.52,5.7-.4.67-.67.86-1.39.36-1.31-.92-2.73-1.71-4.07-2.59A.89.89,0,0,0,47.06,4c-2.47,2.07-5,4.1-7.48,6.14-1.3,1.06-1.3,1.06-.46,2.38.58,1.31.92,1.39,2,.52,2-1.67,4.07-3.34,6.12-5A1.07,1.07,0,0,1,48.65,8l1.58,1c4.65,2.92,9.34,5.77,13.95,8.75l0,0,0,0c1.09.65,2.16,1.34,3.24,2,1.51.93,1.52.92,1.1,2.67q-2.11,8.73-4.13,17.5c-.27,1.18-.28,1.19-1.27.58Q52.45,33.83,41.74,27.11c-3-1.87-6-3.75-9-5.59-1.13-.7-1.14-.7-.08-1.56.51-.41,1-.83,1.55-1.23h0l.09-.08c.85-.81,1.82-1.48,2.7-2.26,1.05-.93,1-1.39-.22-2.1h0c-.94-1.09-.94-1.08-2.09-.14l-7.87,6.44c-.22.18-.53.29-.59.66q5.34,3.34,10.7,6.67c.44.27.62.47.42,1.06a10.34,10.34,0,0,0,17.1,10.8c.48-.48.77-.45,1.3-.11,3.24,2.07,6.52,4.08,9.77,6.13.55.35.74.4.92-.37,1.73-7.49,3.53-15,5.26-22.45.29-1.24.62-2.21,2-2.62.6-.17.83-.13,1.18.32q6.92,8.93,13.89,17.83c.42.53.34.81,0,1.29a6.82,6.82,0,0,0,1.13,9.53,1,1,0,0,1,.38,1.29Q87.82,58,85.41,65.41c-.67,2-.65,2,1.32,2.71.72.26.92.09,1.14-.6,1.7-5.31,3.46-10.61,5.18-15.91.17-.52.35-.7.94-.69a6.68,6.68,0,0,0,6.51-4A6.48,6.48,0,0,0,99.6,39.64ZM56.15,7.93c.75-1.11,1.46-2.26,2.15-3.42.27-.46.51-.56,1-.25C61.84,5.89,64.4,7.48,67,9.07c.33.2.51.38.26.77-.81,1.28-1.59,2.56-2.39,3.84-.11.17-.23.33-.5.28l-.57-.33c-2.45-1.53-4.88-3.09-7.35-4.58C55.85,8.71,55.78,8.47,56.15,7.93Z"/><path class="cls-4" d="M39.13,12.56c1,1,1,1,2.15.06q3-2.46,6-4.93c.35-.29.61-.49,1.1-.17q7.83,4.95,15.7,9.85a1,1,0,0,1,.14.13,16.43,16.43,0,0,1-1,4.8,5.78,5.78,0,0,0-.76,3.08,7.45,7.45,0,0,1-.63,2.7,31.53,31.53,0,0,0-1.4,5.29c-.09.35.21.6.29.92a.8.8,0,0,1-1.26.26c-3.66-2.28-7.34-4.52-11-6.88a.46.46,0,0,1-.12-.15c-.09-.55.29-.92.55-1.32s.27-.9-.27-1.2a6.9,6.9,0,0,1-.66-.43c-.52-.38-.87-.24-1.2.28s-.38.93-.92,1.1a6.89,6.89,0,0,1-2.46-1.62A1.89,1.89,0,0,1,43.94,23c.37-.51.24-.83-.26-1.11-.17-.09-.33-.22-.5-.32-.9-.54-.91-.51-1.55.36-.27.37-.34,1-1,1-1.86-1.39-3.9-2.48-5.82-3.77-.26-.18-.61-.27-.7-.64.92-.78,1.79-1.64,2.77-2.32.83-.57.81-1,.12-1.62a1.76,1.76,0,0,1-.23-.31Z"/><path class="cls-1" d="M65.79,100.76H52.2a10,10,0,0,1,7.24-11,11.45,11.45,0,0,1,3-.34c4.74,0,9.48,0,14.22,0,.64,0,.93-.12,1.14-.8,1.88-5.91,3.83-11.8,5.74-17.7.17-.52.3-.72.94-.51,2.12.71,2.14.67,1.45,2.8-1.66,5.08-3.29,10.18-5,15.25-.29.88-.05,1,.73,1a27.48,27.48,0,0,1,4.93.1c5.39.93,8.8,5.59,8.25,11.19h-24c-1.65,0-1.65,0-2.09-1.36l0,0c-.57-1.34-.22-1.86,1.3-1.87H89.4c.5,0,1.2.25,1.46-.25s-.26-1.1-.59-1.58a6.63,6.63,0,0,0-2.52-2.16A6.56,6.56,0,0,0,85,93H62a4.88,4.88,0,0,0-2.75.62,5.93,5.93,0,0,0-3,2.88c-.42.86-.32,1,.64,1,2.55,0,5.11,0,7.66,0,1.42,0,1.72.49,1.24,1.85Z"/><path class="cls-4" d="M3.74,70.11a3.31,3.31,0,0,1,2.9-1.36H21.33c1.57,0,1.57,0,1.62-1.57h2.92c.06,1.57.06,1.57,1.62,1.57,5.32,0,10.63,0,15.95,0,.74,0,1,.18.91.92-.07.55,0,1.11-.07,1.67a1.86,1.86,0,0,1-1.31.31q-17.76,0-35.52,0a7.42,7.42,0,0,1-3-.55C4.07,70.91,3.54,70.76,3.74,70.11Z"/><path class="cls-4" d="M3,93.45c0-1.32,0-2.64,0-3.95,0-.75.15-1,1-1,3.92,0,7.84,0,11.76,0,1.5,0,1.5,0,1.58-1.43a3.43,3.43,0,0,1,2.9,0c.08,1.43.08,1.43,1.58,1.43,5.92,0,11.84,0,17.76,0a4.43,4.43,0,0,1,4.39,2.73c.28.69-.17,1.05-.64,1.37a7.36,7.36,0,0,1-4.13,1.12c-2.07,0-4.14,0-6.21,0H4.7C4.12,93.77,3.5,93.9,3,93.45Z"/><path class="cls-5" d="M3,93.45q18.17,0,36.35,0a6.79,6.79,0,0,0,4-1.19,1,1,0,0,0,.55-1A4.57,4.57,0,0,1,40,97.82a34,34,0,0,1-3.64,0c-.86-.06-1.08.26-1,1a17.88,17.88,0,0,1,0,1.87c0-1.38-.87-1.51-2-1.35a6.89,6.89,0,0,1-1,0c-.1-1.55-.1-1.55-1.68-1.55q-13.41,0-26.82,0c-.75,0-1-.16-1-1C3,95.76,3,94.6,3,93.45Z"/><path class="cls-5" d="M3.74,70.11c.23.73.93.8,1.5.93a11.11,11.11,0,0,0,2.33.3q18.36,0,36.71,0c0,1.25,0,2.5.06,3.75,0,.49-.18.66-.64.6a2.65,2.65,0,0,0-.3,0H6.58a3.35,3.35,0,0,1-3.21-1.89A3.16,3.16,0,0,1,3.74,70.11Z"/><path class="cls-5" d="M20.14,87.11h-2.9c-.08-1.55-.08-1.55-1.67-1.55-.62,0-1.25,0-1.87,0s-.89-.09-.85-.79c.07-1.25,0-2.5,0-3.75a2.63,2.63,0,0,1,1.36-.15H41.62c2.69,0,5.4.22,8-.7a3.11,3.11,0,0,1,.25,3.51,3.27,3.27,0,0,1-3.12,1.86h-25C20.22,85.57,20.22,85.57,20.14,87.11Z"/><path class="cls-4" d="M49.63,80.19a4.77,4.77,0,0,1-3.22,1q-16.28,0-32.55,0a2.07,2.07,0,0,1-1-.15c-.13-2.4-.13-2.4,2.23-2.4H46.34A3.44,3.44,0,0,1,49.63,80.19Z"/><path class="cls-5" d="M87.94,93.3a6.4,6.4,0,0,1,3.28,3.39c.46,1,.4,1.09-.68,1.09h-20c-1.65,0-1.65,0-1.75,1.6H65.86c-.1-1.6-.1-1.6-1.74-1.6h-8.6A6.37,6.37,0,0,1,59,93.43a8.74,8.74,0,0,1,2.53-.3H85.49C86.31,93.13,87.13,93.24,87.94,93.3Z"/><path class="cls-5" d="M34.16,18.53l6.06,3.73c.26.16.5.31.5.65.88.52,1.57,1.45,2.75,1.37a20.54,20.54,0,0,1,2.39,1.6,3.72,3.72,0,0,0,2.6,1.59l9,5.57c.58.36,1.19.7,1.73,1.11a1.32,1.32,0,0,0,1.53.19c.37-.28.76-.12,1.13,0,.58.15.85-.07,1-.62.34-1.34.6-2.69,1-4,.13-.49-.07-.7-.53-.85s-1.28-.06-1.65-.7a16.78,16.78,0,0,0,.63-2.8c.5-.41,1-.09,1.47,0,.75.22,1.21.1,1.26-.77a2.93,2.93,0,0,1,.15-.67c.17-.53-.07-.76-.57-.91s-1.2-.07-1.53-.69c.43-1.6.65-3.25,1.21-4.81,1.51.93,3,1.86,4.54,2.77a.67.67,0,0,1,.35.82L64.31,41.52,31.21,20.83Z"/><path class="cls-4" d="M40.22,30,52.4,37.57A7.32,7.32,0,0,1,40.22,30Z"/><path class="cls-5" d="M90.31,44a3.89,3.89,0,0,1,3.9-4,3.94,3.94,0,0,1,4,3.9,4,4,0,0,1-3.93,4A4,4,0,0,1,90.31,44Z"/><path class="cls-4" d="M74.46,14.42a4,4,0,0,1-1.51,3c-1.16.92-1.64.94-2.89.16-.81-.5-1.6-1-2.43-1.51-.43-.25-.53-.46-.23-.9q1.4-2.14,2.72-4.34a.81.81,0,0,1,1-.41A4,4,0,0,1,74.46,14.42Z"/><path class="cls-6" d="M61.62,28.1c.82.39,2.15.1,2.46.82s-.26,1.74-.46,2.63S63.21,33.21,63,34c-.11.52-.24.84-.89.59a8.18,8.18,0,0,0-1.44-.3c-.32-.19-.8-.2-.63-.84.43-1.64.8-3.3,1.18-5A.52.52,0,0,1,61.62,28.1Z"/><path class="cls-7" d="M63,22.31c.69.19,1.37.41,2.07.55.43.09.49.24.41.66-.45,2.37-.43,2.37-2.79,1.82a3.14,3.14,0,0,0-.48,0A4,4,0,0,1,63,22.31Z"/><path class="cls-6" d="M43.47,24.28c-.14.12-.26.33-.42.35a5.75,5.75,0,0,1-2.33-1.72l1-1.46c.09-.14.14-.34.26-.4,1-.56,1.42.65,2.19.86.35.1.62.33.29.79S43.78,23.75,43.47,24.28Z"/><path class="cls-6" d="M48.45,27.46s0,.06-.06.07c-1,.53-1.39-.61-2.12-.83-.35-.1-.77-.31-.42-.83a7.44,7.44,0,0,0,.7-1.05c.39-.87.82-1,1.66-.42,1.45,1,1.49,1,.53,2.55C48.64,27.12,48.55,27.29,48.45,27.46Z"/><path class="cls-4" d="M87.94,93.3a.88.88,0,0,1-.65.15L59,93.43a4.62,4.62,0,0,1,2.69-.78H85.39A5.35,5.35,0,0,1,87.94,93.3Z"/><path class="cls-1" d="M19,49.82v3.79h4V49.82h1.73v9.46H23V55.12H19v4.17H17.28V49.82Z"/><path class="cls-1" d="M33.14,55.8a3.39,3.39,0,0,1-3.51,3.64,3.31,3.31,0,0,1-3.43-3.52,3.38,3.38,0,0,1,3.54-3.62A3.28,3.28,0,0,1,33.14,55.8ZM28,55.87c0,1.32.65,2.32,1.7,2.32s1.67-1,1.67-2.34c0-1.07-.48-2.29-1.66-2.29S28,54.74,28,55.87Z"/><path class="cls-1" d="M34.56,54.48c0-.79,0-1.45-.06-2H36l.07,1h0a2.37,2.37,0,0,1,2.11-1.17,2,2,0,0,1,1.9,1.26h0A2.59,2.59,0,0,1,41,52.7a2.28,2.28,0,0,1,1.38-.41c1.14,0,2.29.77,2.29,3v4H43V55.51c0-1.14-.39-1.81-1.22-1.81a1.32,1.32,0,0,0-1.21.91,2.48,2.48,0,0,0-.08.58v4.1H38.76v-4c0-1-.38-1.63-1.18-1.63a1.35,1.35,0,0,0-1.24,1,1.48,1.48,0,0,0-.1.56v4H34.56Z"/><path class="cls-1" d="M47.7,56.35a1.86,1.86,0,0,0,2.11,1.77,5.14,5.14,0,0,0,1.9-.31L51.95,59a6.43,6.43,0,0,1-2.39.42A3.23,3.23,0,0,1,46,56a3.39,3.39,0,0,1,3.34-3.68c2.22,0,2.95,1.83,2.95,3.33a4.23,4.23,0,0,1-.06.73Zm3-1.21a1.47,1.47,0,0,0-1.42-1.67,1.69,1.69,0,0,0-1.59,1.67Z"/><path class="cls-1" d="M54.72,52.45l.72,3.1c.15.73.31,1.47.44,2.22h0c.14-.74.37-1.5.56-2.2l.88-3.12h1.4l.86,3c.21.8.39,1.54.55,2.29h0c.11-.74.27-1.49.45-2.29l.76-3h1.7l-2.15,6.84h-1.6l-.81-2.78A21.09,21.09,0,0,1,58,54.31h0a17.92,17.92,0,0,1-.52,2.19l-.87,2.78H55l-2-6.84Z"/><path class="cls-1" d="M70.52,55.8A3.39,3.39,0,0,1,67,59.44a3.31,3.31,0,0,1-3.43-3.52,3.38,3.38,0,0,1,3.54-3.62A3.28,3.28,0,0,1,70.52,55.8Zm-5.15.07c0,1.32.65,2.32,1.7,2.32s1.67-1,1.67-2.34c0-1.07-.48-2.29-1.66-2.29S65.36,54.74,65.36,55.87Z"/><path class="cls-1" d="M71.94,54.65c0-.93,0-1.59-.06-2.2h1.5l.06,1.31h.06a2,2,0,0,1,1.87-1.46,1.86,1.86,0,0,1,.41,0V54a2.38,2.38,0,0,0-.51-.06,1.52,1.52,0,0,0-1.54,1.31,2.94,2.94,0,0,0-.06.53v3.54H71.94Z"/><path class="cls-1" d="M78.67,55.45h0c.17-.27.37-.56.55-.8l1.66-2.2H83l-2.53,2.79,2.89,4H81.22l-2-3-.59.69v2.33H76.94v-10h1.73Z"/><path class="cls-1" d="M19.75,28.24l-1.92-.69a1.59,1.59,0,0,0-2.22,1c-.12.31-.22.61-.34.92s-.14.74-.71.69c-.3,0-.42.32-.53.59l-3.62,9.68Q8,47,5.52,53.55a3.16,3.16,0,0,0-.2,1c0,1.7-.11,3.39-.17,5.09a1.59,1.59,0,0,0,1,1.71,1.57,1.57,0,0,0,1.89-.6l3.28-4a2.8,2.8,0,0,0,.46-.81l6.46-17.32a2.19,2.19,0,0,0,.11-.34.66.66,0,0,0-1.25-.42c-.35.88-.67,1.78-1,2.67a9.23,9.23,0,0,0-.32.88c-.07.26-.18.24-.38.16-1.07-.41-2.14-.81-3.21-1.2-.21-.08-.28-.13-.19-.37q1.53-4,3-8.1c.09-.23.17-.25.38-.17q1.6.61,3.21,1.2c.24.09.26.19.17.42-.21.49-.39,1-.57,1.5a.69.69,0,0,0,.36,1c.36.14.72-.05.89-.5q.44-1.14.86-2.29c.18-.5.1-.74-.36-1-.17-.09-.16-.17-.11-.31.13-.35.23-.71.39-1a2.11,2.11,0,0,0,0-2Z"/><path class="cls-4" d="M11.43,41.61l-.1.24c-.89,2.39-1.78,4.79-2.68,7.18-.09.24-.07.33.18.42,1.06.38,2.12.77,3.17,1.18.26.1.35,0,.44-.21q1.33-3.6,2.68-7.18c.08-.22.07-.32-.18-.41-1.08-.39-2.14-.8-3.22-1.19C11.63,41.61,11.51,41.49,11.43,41.61Z"/><path class="cls-4" d="M8,50.66,8,50.87c-.33.88-.65,1.75-1,2.63-.08.21-.07.3.17.39q1.61.58,3.21,1.2c.25.1.32,0,.41-.19.31-.87.64-1.73,1-2.58.09-.23.07-.33-.19-.42-1.08-.38-2.14-.79-3.21-1.19C8.23,50.66,8.12,50.57,8,50.66Z"/><path class="cls-5" d="M6.65,55.13c-.05,1.62-.1,3.16-.16,4.7a.28.28,0,0,0,.16.29c.16.07.25,0,.33-.14.93-1.14,1.86-2.29,2.8-3.43.2-.24,0-.27-.15-.32Z"/><path class="cls-5" d="M16.4,30.69l1.15.43c.32.12.7.38.94.29s.28-.58.4-.9c.37-1,.37-1-.6-1.36-1.29-.48-1.29-.48-1.77.8l-.19.5C16.31,30.53,16.28,30.62,16.4,30.69Z"/></g></g></svg>