<svg xmlns="http://www.w3.org/2000/svg" viewBox="0 0 463.29 463.78"><defs><style>.cls-1{fill:#43464b;}.cls-2{fill:#fefefe;}</style></defs><title>Asset 3</title><g id="Layer_2" data-name="Layer 2"><g id="Layer_1-2" data-name="Layer 1"><path class="cls-1" d="M267.29,300.69c2.58,2.51,1.43,3.72-1.12,4.4A137.77,137.77,0,0,1,249,308.85a101.11,101.11,0,0,1-16.38,1.34,108.25,108.25,0,0,1-19.67-1.82A137.07,137.07,0,0,1,198,305.23a122.93,122.93,0,0,1-14.42-5,112,112,0,0,1-20.44-11.41,73.45,73.45,0,0,1-10.32-8.47,137.48,137.48,0,0,1-10.43-10.89A147,147,0,0,1,130,251.59a118.73,118.73,0,0,1-6.75-14.52,11.82,11.82,0,0,1-.16-9.66c1.65-4,3.14-8,5.13-11.85a115,115,0,0,1,11.89-18.46,112.18,112.18,0,0,1,9.19-10c1.69-1.67,2.56-1.68,4.23,0,10.36,10.34,20.68,20.72,31.08,31,1.53,1.52,1.29,3.23,1,4.9a45.39,45.39,0,0,0,5.78,32.38,49.63,49.63,0,0,0,9.84,11.95A44.34,44.34,0,0,0,221,277.52a47.54,47.54,0,0,0,8.26,1.09c2.46.12,4.89-.2,7.33-.09a14,14,0,0,0,4.22-.71,4.55,4.55,0,0,1,4.93,1.34C252.86,286.39,260,293.6,267.29,300.69Z"/><path class="cls-1" d="M341,332.48a9.23,9.23,0,0,0-2.7-4.94q-18.36-18.28-36.67-36.62a27.8,27.8,0,0,0-2.41-1.89,122.08,122.08,0,0,0,14.33-11.78,105.87,105.87,0,0,0,8.82-9.75,102.55,102.55,0,0,0,11.39-17,136.63,136.63,0,0,0,6.1-13.52,12.07,12.07,0,0,0,.33-9.08,122,122,0,0,0-8.43-18,110,110,0,0,0-23.33-27.93,113.83,113.83,0,0,0-13.19-9.84,118.65,118.65,0,0,0-35.26-15,95.27,95.27,0,0,0-14.06-2.45,90.85,90.85,0,0,0-10.92-.9c-4.46.1-8.91-.09-13.39.38s-9,1-13.42,1.87a97.14,97.14,0,0,0-13.58,3.63,140.08,140.08,0,0,0-14,5.59c-3.19,1.49-3.17,1.55-5.75-1q-19.52-19.52-39-39a7.87,7.87,0,0,0-4-2.43c-4.15-.8-7.31.64-8.81,3.69-1.65,3.38-1.73,6.32,1.69,9.75Q226,237.39,327.29,338.75a8.2,8.2,0,0,0,10.2,1.46A7.8,7.8,0,0,0,341,332.48ZM278.45,232a50.58,50.58,0,0,1-4.81,20.51c-.76,1.58-1.64,3.11-2.55,4.6s-1.61,1.53-2.85.41c-.36-.32-.69-.68-1-1l-60.4-60.4c-2.31-2.31-2.34-2.41.36-4.14a41.62,41.62,0,0,1,15.22-6.08,39.68,39.68,0,0,1,10-1,51,51,0,0,1,18.45,4.39,47.35,47.35,0,0,1,14.62,10.21,44.72,44.72,0,0,1,12.09,24A43.42,43.42,0,0,1,278.45,232Z"/><path class="cls-1" d="M463.25,232.72c-.16-3.67,0-7.36,0-11a10.1,10.1,0,0,0,0-1.91c-.72-3.67-.88-7.41-1.29-11.11-.49-4.42-.85-8.84-1.5-13.25-.84-5.66-2-11.25-3.23-16.83a186.56,186.56,0,0,0-6.9-23.35,216,216,0,0,0-9.58-22.7c-5.2-10.43-10.57-20.75-17.35-30.28-2.53-3.57-5.1-7.12-7.61-10.71a93.63,93.63,0,0,0-7.09-8.69c-2.5-2.78-4.71-5.83-7.31-8.5-8.07-8.29-16.24-16.47-25.41-23.6-4-3.13-8-6.33-12.16-9.23a213.1,213.1,0,0,0-20.56-12.66,272.4,272.4,0,0,0-25-12c-7.24-3-14.65-5.43-22.13-7.68a176.29,176.29,0,0,0-18.28-4.57,202.57,202.57,0,0,0-21.43-3.12c-4.82-.37-9.65-.94-14.47-1.22-9.17-.55-18.36.06-27.53.45-1.72.08-3.47.32-5.21.55-3.14.41-6.28.87-9.42,1.3-3.93.54-7.89.91-11.78,1.64a161.4,161.4,0,0,0-16.27,3.67c-5,1.49-10.13,2.85-15.09,4.56a219,219,0,0,0-20.43,8.17c-6.6,3-13.07,6.33-19.39,9.91-3.55,2-6.89,4.32-10.34,6.48A194.66,194.66,0,0,0,88.49,49.66c-2.37,1.88-4.61,3.92-6.95,5.83-2.64,2.17-5.38,4.27-7.82,6.63a237.94,237.94,0,0,0-20,21.25c-4.2,5.2-8.41,10.4-12.23,15.88a223.12,223.12,0,0,0-21.29,37.09q-4.77,10.71-8.6,21.77a200.41,200.41,0,0,0-7.17,27.46c-.76,4-1.57,7.94-2.09,12a69.88,69.88,0,0,1-.9,7.08A12.4,12.4,0,0,0,1,208.39a17.39,17.39,0,0,1-.54,5.93A17.67,17.67,0,0,0,0,219.06c0,4.24,0,8.48,0,12.72,0,4.8-.06,9.6,0,14.4,0,2.22.36,4.43.61,6.64s.7,4.24.75,6.37.41,4.45.66,6.65c.41,3.45,1.07,6.89,1.74,10.32a197,197,0,0,0,5.63,22.19,278.68,278.68,0,0,0,12.27,31.9c2.94,6.41,6.32,12.56,9.76,18.67a180,180,0,0,0,13.19,19.9,189.27,189.27,0,0,0,16.29,19.35c.56.57,1,1.21,1.56,1.81,2,2.36,3.9,4.93,6.29,6.86,3.6,2.93,6.54,6.53,10.16,9.44S86,412.21,89.67,415a214.09,214.09,0,0,0,18.22,12.7q7.73,4.82,15.76,9.06a212.89,212.89,0,0,0,23.49,10.78c6.41,2.42,12.85,4.76,19.42,6.73,5.5,1.65,11.13,2.71,16.68,4.08,2.55.62,5.12,1.17,7.71,1.54,4.16.6,8.38.85,12.52,1.59a109.73,109.73,0,0,0,14.4,1.68c5,.24,10.05.78,15.05.51,4.22-.23,8.44-.33,12.66-.4a2.59,2.59,0,0,0,.48,0c4.75-.95,9.59-1.31,14.4-1.81,3.08-.31,6.17-.7,9.21-1.17,5.72-.89,11.39-2.17,17-3.53A214.61,214.61,0,0,0,311.54,449a231.31,231.31,0,0,0,23.28-10c2.49-1.26,4.94-2.61,7.41-3.91,4.6-2.41,9-5.11,13.39-7.9a181.67,181.67,0,0,0,21.59-15.75c3.54-3.08,7.43-5.78,10.79-9,7.86-7.6,15.63-15.29,22.53-23.82,4.41-5.45,8.49-11.13,12.54-16.84a210.75,210.75,0,0,0,11.77-19.14,180.06,180.06,0,0,0,8.47-17.18c2.75-6.44,5.38-12.93,7.6-19.6,1.34-4,2.59-8,3.66-12.11,1.72-6.53,3.38-13.07,4.55-19.74,1-5.55,2-11.1,2.55-16.7.36-3.87.68-7.76.94-11.63A115.43,115.43,0,0,0,463.25,232.72ZM444,239.65c-.27,3.4-.37,6.82-.86,10.2-.33,2.28-.23,4.6-.48,6.9-.44,4.19-1,8.37-1.63,12.51a159.41,159.41,0,0,1-3.8,17.71c-2.8,10-5.9,20-10.45,29.45q-1.65,3.45-3.26,6.93a204.38,204.38,0,0,1-26,40.3A214.93,214.93,0,0,1,376,387c-4.05,3.81-8.24,7.49-12.64,10.93-6.65,5.2-13.46,10.18-20.57,14.74-3.69,2.37-7.49,4.55-11.36,6.63-3.58,1.93-7.19,3.79-10.9,5.48-5.23,2.39-10.55,4.53-15.94,6.5a219.63,219.63,0,0,1-24.49,7.23c-6,1.44-12.12,2.56-18.23,3.56a41.74,41.74,0,0,1-6.64.66,62.82,62.82,0,0,0-6.37.75c-2.53.25-5.07.55-7.61.6-4.61.1-9.22,0-13.83,0a143.73,143.73,0,0,1-15.24-.89q-8.55-.79-17-2.12c-6-.93-12-2.35-17.92-3.88a208.3,208.3,0,0,1-28.75-9.65,198,198,0,0,1-21.66-10.71,185.9,185.9,0,0,1-21.47-14.26c-5.28-4.08-10.66-8.05-15.48-12.75-2.22-2.16-4.53-4.25-6.77-6.41-5.34-5.16-10.11-10.84-15-16.39a196,196,0,0,1-16-21.38c-3.66-5.51-6.83-11.32-10-17.13a162.65,162.65,0,0,1-12.11-28.33,209.88,209.88,0,0,1-7.2-27.45c-.68-3.74-1.31-7.5-1.64-11.31-.27-3.15-.87-6.28-1.32-9.42,0-.32-.05-.64-.07-1-.24-6.53-.78-13.06-.48-19.61,0-2.32,0-4.64,0-7a121.53,121.53,0,0,1,.88-13.08c.41-4.6.93-9.17,1.61-13.72a213.42,213.42,0,0,1,4.46-21.46,182.2,182.2,0,0,1,8.6-26A207.42,207.42,0,0,1,45,129.38a183.53,183.53,0,0,1,9.59-15.71q4.94-7,10.38-13.69c3.28-4,6.78-7.82,10.18-11.71a118.91,118.91,0,0,1,9.52-9.78c5.81-5.32,11.72-10.51,18-15.35,4.91-3.82,9.91-7.51,15.1-10.9a187.35,187.35,0,0,1,26.69-14.48c6.28-2.77,12.59-5.43,19.11-7.58,5.9-1.94,11.9-3.52,17.89-5.12A147.15,147.15,0,0,1,198,21.85c3.75-.56,7.58-.84,11.37-1.2,3.24-.31,6.54.07,9.73-.8a2.41,2.41,0,0,1,.71,0c7.27.16,14.52-.91,21.78-.46,3.4.21,6.79.66,10.17,1.14a22.92,22.92,0,0,0,2.6.27A88.11,88.11,0,0,1,268.8,22.6c4.76.9,9.54,1.74,14.23,2.94a208.86,208.86,0,0,1,30.11,10.12c5.89,2.52,11.61,5.33,17.29,8.26,4.82,2.47,9.47,5.28,14.09,8.11,5.51,3.38,10.76,7.12,15.93,11,2.49,1.85,4.73,4,7.19,5.9,3.61,2.77,6.87,5.94,10.25,9a47.25,47.25,0,0,1,7.31,7.58,7.42,7.42,0,0,0,1,1.06c6,5.79,10.92,12.44,16,19,6.27,8.1,11.2,17,16.3,25.85,3.92,6.8,6.9,14,9.92,21.23,4.85,11.59,8,23.66,10.44,35.93,1,5.06,1.73,10.17,2.69,15.24a42.75,42.75,0,0,1,.54,5.21c.14,2,.52,3.93.84,5.89a4.41,4.41,0,0,1,.16.94c-.28,3.68.52,7.31.5,11C443.51,231.06,444.36,235.34,444,239.65Z"/><path class="cls-2" d="M267.29,300.69c2.58,2.51,1.43,3.72-1.12,4.4A137.77,137.77,0,0,1,249,308.85a101.11,101.11,0,0,1-16.38,1.34,108.25,108.25,0,0,1-19.67-1.82A137.07,137.07,0,0,1,198,305.23a122.93,122.93,0,0,1-14.42-5,112,112,0,0,1-20.44-11.41,73.45,73.45,0,0,1-10.32-8.47,137.48,137.48,0,0,1-10.43-10.89A147,147,0,0,1,130,251.59a118.73,118.73,0,0,1-6.75-14.52,11.82,11.82,0,0,1-.16-9.66c1.65-4,3.14-8,5.13-11.85a115,115,0,0,1,11.89-18.46,112.18,112.18,0,0,1,9.19-10c1.69-1.67,2.56-1.68,4.23,0,10.36,10.34,20.68,20.72,31.08,31,1.53,1.52,1.29,3.23,1,4.9a45.39,45.39,0,0,0,5.78,32.38,49.63,49.63,0,0,0,9.84,11.95A44.34,44.34,0,0,0,221,277.52a47.54,47.54,0,0,0,8.26,1.09c2.46.12,4.89-.2,7.33-.09a14,14,0,0,0,4.22-.71,4.55,4.55,0,0,1,4.93,1.34C252.86,286.39,260,293.6,267.29,300.69Z"/><path class="cls-2" d="M341,332.48a9.23,9.23,0,0,0-2.7-4.94q-18.36-18.28-36.67-36.62a27.8,27.8,0,0,0-2.41-1.89,122.08,122.08,0,0,0,14.33-11.78,105.87,105.87,0,0,0,8.82-9.75,102.55,102.55,0,0,0,11.39-17,136.63,136.63,0,0,0,6.1-13.52,12.07,12.07,0,0,0,.33-9.08,122,122,0,0,0-8.43-18,110,110,0,0,0-23.33-27.93,113.83,113.83,0,0,0-13.19-9.84,118.65,118.65,0,0,0-35.26-15,95.27,95.27,0,0,0-14.06-2.45,90.85,90.85,0,0,0-10.92-.9c-4.46.1-8.91-.09-13.39.38s-9,1-13.42,1.87a97.14,97.14,0,0,0-13.58,3.63,140.08,140.08,0,0,0-14,5.59c-3.19,1.49-3.17,1.55-5.75-1q-19.52-19.52-39-39a7.87,7.87,0,0,0-4-2.43c-4.15-.8-7.31.64-8.81,3.69-1.65,3.38-1.73,6.32,1.69,9.75Q226,237.39,327.29,338.75a8.2,8.2,0,0,0,10.2,1.46A7.8,7.8,0,0,0,341,332.48ZM278.45,232a50.58,50.58,0,0,1-4.81,20.51c-.76,1.58-1.64,3.11-2.55,4.6s-1.61,1.53-2.85.41c-.36-.32-.69-.68-1-1l-60.4-60.4c-2.31-2.31-2.34-2.41.36-4.14a41.62,41.62,0,0,1,15.22-6.08,39.68,39.68,0,0,1,10-1,51,51,0,0,1,18.45,4.39,47.35,47.35,0,0,1,14.62,10.21,44.72,44.72,0,0,1,12.09,24A43.42,43.42,0,0,1,278.45,232Z"/><path class="cls-1" d="M341,332.48a9.23,9.23,0,0,0-2.7-4.94q-18.36-18.28-36.67-36.62a27.8,27.8,0,0,0-2.41-1.89,122.08,122.08,0,0,0,14.33-11.78,105.87,105.87,0,0,0,8.82-9.75,102.55,102.55,0,0,0,11.39-17,136.63,136.63,0,0,0,6.1-13.52,12.07,12.07,0,0,0,.33-9.08,122,122,0,0,0-8.43-18,110,110,0,0,0-23.33-27.93,113.83,113.83,0,0,0-13.19-9.84,118.65,118.65,0,0,0-35.26-15,95.27,95.27,0,0,0-14.06-2.45,90.85,90.85,0,0,0-10.92-.9c-4.46.1-8.91-.09-13.39.38s-9,1-13.42,1.87a97.14,97.14,0,0,0-13.58,3.63,140.08,140.08,0,0,0-14,5.59c-3.19,1.49-3.17,1.55-5.75-1q-19.52-19.52-39-39a7.87,7.87,0,0,0-4-2.43c-4.15-.8-7.31.64-8.81,3.69-1.65,3.38-1.73,6.32,1.69,9.75Q226,237.39,327.29,338.75a8.2,8.2,0,0,0,10.2,1.46A7.8,7.8,0,0,0,341,332.48ZM278.45,232a50.58,50.58,0,0,1-4.81,20.51c-.76,1.58-1.64,3.11-2.55,4.6s-1.61,1.53-2.85.41c-.36-.32-.69-.68-1-1l-60.4-60.4c-2.31-2.31-2.34-2.41.36-4.14a41.62,41.62,0,0,1,15.22-6.08,39.68,39.68,0,0,1,10-1,51,51,0,0,1,18.45,4.39,47.35,47.35,0,0,1,14.62,10.21,44.72,44.72,0,0,1,12.09,24A43.42,43.42,0,0,1,278.45,232Z"/><path class="cls-1" d="M266.17,305.09A137.77,137.77,0,0,1,249,308.85a101.11,101.11,0,0,1-16.38,1.34,108.25,108.25,0,0,1-19.67-1.82A137.07,137.07,0,0,1,198,305.23a122.93,122.93,0,0,1-14.42-5,112,112,0,0,1-20.44-11.41,73.45,73.45,0,0,1-10.32-8.47,137.48,137.48,0,0,1-10.43-10.89A147,147,0,0,1,130,251.59a118.73,118.73,0,0,1-6.75-14.52,11.82,11.82,0,0,1-.16-9.66c1.65-4,3.14-8,5.13-11.85a115,115,0,0,1,11.89-18.46,112.18,112.18,0,0,1,9.19-10c1.69-1.67,2.56-1.68,4.23,0,10.36,10.34,20.68,20.72,31.08,31,1.53,1.52,1.29,3.23,1,4.9a45.39,45.39,0,0,0,5.78,32.38,49.63,49.63,0,0,0,9.84,11.95A44.34,44.34,0,0,0,221,277.52a47.54,47.54,0,0,0,8.26,1.09c2.46.12,4.89-.2,7.33-.09a14,14,0,0,0,4.22-.71,4.55,4.55,0,0,1,4.93,1.34c7.12,7.24,14.28,14.45,21.55,21.54C269.87,303.2,268.72,304.41,266.17,305.09Z"/></g></g></svg>