<svg xmlns="http://www.w3.org/2000/svg" xmlns:xlink="http://www.w3.org/1999/xlink" viewBox="0 0 1080 540"><defs><style>.cls-1{fill:#414042;}.cls-2{fill:url(#linear-gradient);}.cls-3{fill:#ccbac2;}.cls-4{fill:url(#linear-gradient-2);}.cls-5{fill:url(#linear-gradient-3);}.cls-6{fill:url(#linear-gradient-4);}.cls-7{fill:url(#linear-gradient-5);}.cls-8{fill:url(#linear-gradient-6);}.cls-9{fill:url(#linear-gradient-7);}.cls-10{fill:url(#linear-gradient-8);}.cls-11{fill:url(#linear-gradient-9);}.cls-12{fill:url(#linear-gradient-10);}.cls-13{fill:url(#linear-gradient-11);}.cls-14{fill:url(#linear-gradient-12);}.cls-15{fill:url(#linear-gradient-13);}.cls-16{fill:url(#linear-gradient-14);}.cls-17{fill:url(#linear-gradient-15);}</style><linearGradient id="linear-gradient" x1="51.2" y1="403.7" x2="551.47" y2="335.93" gradientTransform="matrix(1, 0, 0, -1, 0, 456)" gradientUnits="userSpaceOnUse"><stop offset="0" stop-color="#cbd1d6"/><stop offset="0.09" stop-color="#c7ced2"/><stop offset="0.17" stop-color="#bcc3c7"/><stop offset="0.25" stop-color="#aab1b5"/><stop offset="0.29" stop-color="#cad1d5"/><stop offset="0.33" stop-color="#e1e8ec"/><stop offset="0.37" stop-color="#eff6f9"/><stop offset="0.4" stop-color="#f4fbfe"/><stop offset="0.63" stop-color="#f4fbfe"/><stop offset="0.75" stop-color="#979da1"/><stop offset="0.83" stop-color="#b0b7bc"/><stop offset="0.85" stop-color="#959b9f"/><stop offset="0.87" stop-color="#7d8387"/><stop offset="0.89" stop-color="#6f7478"/><stop offset="0.91" stop-color="#6a6f73"/><stop offset="0.93" stop-color="#71767a"/><stop offset="0.95" stop-color="#84898e"/><stop offset="0.97" stop-color="#a4a9ae"/><stop offset="1" stop-color="#cbd1d6"/></linearGradient><linearGradient id="linear-gradient-2" x1="-38.9" y1="60.95" x2="667.6" y2="31.45" gradientTransform="matrix(1, 0, 0, 1, 0, 0)" xlink:href="#linear-gradient"/><linearGradient id="linear-gradient-3" x1="-38.69" y1="65.85" x2="667.81" y2="36.35" gradientTransform="matrix(1, 0, 0, 1, 0, 0)" xlink:href="#linear-gradient"/><linearGradient id="linear-gradient-4" x1="-38.67" y1="66.46" x2="667.83" y2="36.96" gradientTransform="matrix(1, 0, 0, 1, 0, 0)" xlink:href="#linear-gradient"/><linearGradient id="linear-gradient-5" x1="-38.78" y1="63.79" x2="667.72" y2="34.29" gradientTransform="matrix(1, 0, 0, 1, 0, 0)" xlink:href="#linear-gradient"/><linearGradient id="linear-gradient-6" x1="-38.58" y1="68.53" x2="667.92" y2="39.03" gradientTransform="matrix(1, 0, 0, 1, 0, 0)" xlink:href="#linear-gradient"/><linearGradient id="linear-gradient-7" x1="-38.54" y1="69.56" x2="667.96" y2="40.06" gradientTransform="matrix(1, 0, 0, 1, 0, 0)" xlink:href="#linear-gradient"/><linearGradient id="linear-gradient-8" x1="-38.49" y1="70.66" x2="668.01" y2="41.16" gradientTransform="matrix(1, 0, 0, 1, 0, 0)" xlink:href="#linear-gradient"/><linearGradient id="linear-gradient-9" x1="-38.42" y1="72.53" x2="668.08" y2="43.03" gradientTransform="matrix(1, 0, 0, 1, 0, 0)" xlink:href="#linear-gradient"/><linearGradient id="linear-gradient-10" x1="-38.37" y1="73.71" x2="668.13" y2="44.21" gradientTransform="matrix(1, 0, 0, 1, 0, 0)" xlink:href="#linear-gradient"/><linearGradient id="linear-gradient-11" x1="-38.32" y1="74.88" x2="668.18" y2="45.38" gradientTransform="matrix(1, 0, 0, 1, 0, 0)" xlink:href="#linear-gradient"/><linearGradient id="linear-gradient-12" x1="-38.43" y1="72.23" x2="668.07" y2="42.73" gradientTransform="matrix(1, 0, 0, 1, 0, 0)" xlink:href="#linear-gradient"/><linearGradient id="linear-gradient-13" x1="-38.23" y1="77.04" x2="668.27" y2="47.54" gradientTransform="matrix(1, 0, 0, 1, 0, 0)" xlink:href="#linear-gradient"/><linearGradient id="linear-gradient-14" x1="-38.2" y1="77.67" x2="668.3" y2="48.17" gradientTransform="matrix(1, 0, 0, 1, 0, 0)" xlink:href="#linear-gradient"/><linearGradient id="linear-gradient-15" x1="-38.16" y1="78.53" x2="668.34" y2="49.03" gradientTransform="matrix(1, 0, 0, 1, 0, 0)" xlink:href="#linear-gradient"/></defs><title>Artboard our testimonial backround DesktopBreak</title><g id="Layer_2" data-name="Layer 2"><g id="Layer_1-2" data-name="Layer 1"><rect class="cls-1" width="1080" height="540"/><rect class="cls-2" x="98.86" y="83.39" width="373.08" height="1.27"/><path class="cls-3" d="M99.35,100.24a3.57,3.57,0,0,0,2,.6c1.31,0,2.1-.7,2.1-1.69s-.47-1.45-1.82-1.88c-1.62-.52-2.27-1.18-2.27-2.23A2.23,2.23,0,0,1,101.86,93a3.5,3.5,0,0,1,1.8.41l-.23.49a3,3,0,0,0-1.59-.42c-1.45,0-1.91.88-1.91,1.51,0,.86.52,1.35,1.82,1.77,1.47.48,2.27,1.06,2.27,2.36,0,1.12-.82,2.24-2.75,2.24a4,4,0,0,1-2.16-.6Z"/><path class="cls-3" d="M108.17,101.33a2.87,2.87,0,0,1-3-3,3,3,0,0,1,3-3.08,2.86,2.86,0,0,1,3,3,3,3,0,0,1-3.08,3.09Zm0-.48a2.44,2.44,0,0,0,2.47-2.58,2.44,2.44,0,1,0-4.88.06,2.38,2.38,0,0,0,2.4,2.52Z"/><path class="cls-3" d="M112.83,96.82c0-.47,0-.92,0-1.39h.55l0,1.12h0a2.25,2.25,0,0,1,2.08-1.26,1.93,1.93,0,0,1,1.81,1.37h0a2.56,2.56,0,0,1,.6-.8,2.18,2.18,0,0,1,1.57-.56c.54,0,2.06.29,2.06,2.69v3.21H121V98c0-1.45-.62-2.19-1.68-2.19A1.89,1.89,0,0,0,117.61,97a1.56,1.56,0,0,0-.12.56v3.67h-.59v-3.5c0-1.13-.61-1.9-1.58-1.9a2,2,0,0,0-1.79,1.33,1.64,1.64,0,0,0-.11.56v3.5h-.59Z"/><path class="cls-3" d="M123.63,98.31a2.3,2.3,0,0,0,2.43,2.52,4,4,0,0,0,1.85-.36l.16.47a4.62,4.62,0,0,1-2.06.4,2.78,2.78,0,0,1-3-2.88,2.89,2.89,0,0,1,2.88-3.17,2.48,2.48,0,0,1,2.51,2.66,1.46,1.46,0,0,1,0,.36Zm4.2-.47a1.9,1.9,0,0,0-2-2.07,2.23,2.23,0,0,0-2.2,2.07Z"/><path class="cls-3" d="M135.34,101.33a2.87,2.87,0,0,1-3-3,3,3,0,0,1,3-3.08,2.86,2.86,0,0,1,3,3,3,3,0,0,1-3.08,3.09Zm0-.48a2.44,2.44,0,0,0,2.47-2.58,2.44,2.44,0,1,0-4.88.06,2.38,2.38,0,0,0,2.4,2.52Z"/><path class="cls-3" d="M140,101.19V95.9h-.88v-.47H140v-.28a2.89,2.89,0,0,1,.7-2.18,2,2,0,0,1,1.37-.52,2,2,0,0,1,.95.22l-.19.46a1.62,1.62,0,0,0-.8-.18c-1.18,0-1.43,1-1.43,2.19v.29h1.69v.47H140.6v5.29Z"/><path class="cls-3" d="M147.14,94.16v1.27H149v.47h-1.82v3.68c0,.71.22,1.25.92,1.25a2.24,2.24,0,0,0,.76-.11l.07.46a2.36,2.36,0,0,1-.89.16,1.33,1.33,0,0,1-1.07-.43,2.13,2.13,0,0,1-.38-1.39V95.9H145.5v-.47h1.05V94.34Z"/><path class="cls-3" d="M150.38,92.6H151v4h0a2.28,2.28,0,0,1,.89-.94,2.51,2.51,0,0,1,1.29-.37c.55,0,2.24.24,2.24,2.61v3.29h-.59V97.92c0-1.12-.48-2.12-1.81-2.12a2.17,2.17,0,0,0-2,1.36,1.52,1.52,0,0,0-.1.61v3.42h-.59Z"/><path class="cls-3" d="M157.51,98.31a2.3,2.3,0,0,0,2.43,2.52,4,4,0,0,0,1.85-.36l.16.47a4.62,4.62,0,0,1-2.06.4,2.78,2.78,0,0,1-3-2.88,2.89,2.89,0,0,1,2.88-3.17,2.48,2.48,0,0,1,2.51,2.66,1.46,1.46,0,0,1,0,.36Zm4.2-.47a1.9,1.9,0,0,0-2-2.07,2.23,2.23,0,0,0-2.2,2.07Z"/><path class="cls-3" d="M166.56,100.41a2.79,2.79,0,0,0,1.44.43c1,0,1.45-.53,1.45-1.12s-.46-1-1.36-1.28-1.56-.88-1.56-1.56a1.68,1.68,0,0,1,1.89-1.6,2.52,2.52,0,0,1,1.39.38l-.23.48a2.2,2.2,0,0,0-1.27-.37,1.07,1.07,0,0,0-1.21,1c0,.65.49.9,1.34,1.19,1.05.36,1.57.82,1.57,1.68s-.77,1.66-2.07,1.66a3.23,3.23,0,0,1-1.61-.42Z"/><path class="cls-3" d="M171.69,97.29c0-.62,0-1.24,0-1.86h.56l0,1.2h0a2.61,2.61,0,0,1,2.42-1.34,2.76,2.76,0,0,1,2.77,2.9,2.89,2.89,0,0,1-2.91,3.14,2.55,2.55,0,0,1-2.25-1.18h0v3.43h-.59Zm.59,1.58a1.89,1.89,0,0,0,.06.46,2.25,2.25,0,0,0,2.17,1.52,2.35,2.35,0,0,0,2.38-2.64,2.3,2.3,0,0,0-2.3-2.45,2.24,2.24,0,0,0-2.2,1.58,1.9,1.9,0,0,0-.11.5Z"/><path class="cls-3" d="M179.08,98.31a2.3,2.3,0,0,0,2.43,2.52,4,4,0,0,0,1.85-.36l.16.47a4.62,4.62,0,0,1-2.06.4,2.78,2.78,0,0,1-3-2.88,2.89,2.89,0,0,1,2.88-3.17,2.48,2.48,0,0,1,2.51,2.66,1.46,1.46,0,0,1,0,.36Zm4.2-.47a1.9,1.9,0,0,0-2-2.07,2.23,2.23,0,0,0-2.2,2.07Z"/><path class="cls-3" d="M189.93,100.91a4.5,4.5,0,0,1-1.93.42,2.88,2.88,0,0,1-3-2.94,3,3,0,0,1,3.27-3.11,3.44,3.44,0,0,1,1.75.41l-.22.48a3.11,3.11,0,0,0-1.58-.38,2.52,2.52,0,1,0-.1,5,3.86,3.86,0,0,0,1.68-.38Z"/><path class="cls-3" d="M191.74,94.24a.5.5,0,0,1-.47-.52.52.52,0,0,1,.49-.52.52.52,0,0,1,0,1Zm-.28,6.94V95.43h.59v5.76Z"/><path class="cls-3" d="M198.1,99.79a9.13,9.13,0,0,0,.1,1.39h-.54l-.1-.89h0a2.55,2.55,0,0,1-2.09,1,1.65,1.65,0,0,1-1.83-1.58c0-1.31,1.21-2.16,3.9-2.12v-.13a1.54,1.54,0,0,0-1.63-1.72,2.9,2.9,0,0,0-1.66.48l-.19-.42a3.47,3.47,0,0,1,1.89-.55c2,0,2.17,1.51,2.17,2.42Zm-.59-1.68c-1.52,0-3.27.19-3.27,1.52a1.16,1.16,0,0,0,1.26,1.21,2,2,0,0,0,1.94-1.18.94.94,0,0,0,.07-.34Z"/><path class="cls-3" d="M200.12,92.6h.59v8.59h-.59Z"/><path class="cls-3" d="M205.7,101.19V95.9h-.88v-.47h.88v-.28a2.89,2.89,0,0,1,.7-2.18,2,2,0,0,1,1.37-.52,2,2,0,0,1,.95.22l-.19.46a1.62,1.62,0,0,0-.8-.18c-1.18,0-1.43,1-1.43,2.19v.29H208v.47h-1.69v5.29Z"/><path class="cls-3" d="M213.05,99.79a9.13,9.13,0,0,0,.1,1.39h-.54l-.1-.89h0a2.55,2.55,0,0,1-2.09,1,1.65,1.65,0,0,1-1.83-1.58c0-1.31,1.21-2.16,3.9-2.12v-.13a1.54,1.54,0,0,0-1.63-1.72,2.9,2.9,0,0,0-1.66.48l-.19-.42a3.47,3.47,0,0,1,1.89-.55c2,0,2.17,1.51,2.17,2.42Zm-.59-1.68c-1.52,0-3.27.19-3.27,1.52a1.16,1.16,0,0,0,1.26,1.21,2,2,0,0,0,1.94-1.18.94.94,0,0,0,.07-.34Z"/><path class="cls-3" d="M219.51,100.91a4.5,4.5,0,0,1-1.93.42,2.88,2.88,0,0,1-3-2.94,3,3,0,0,1,3.27-3.11,3.44,3.44,0,0,1,1.75.41l-.22.48a3.11,3.11,0,0,0-1.58-.38,2.52,2.52,0,1,0-.1,5,3.86,3.86,0,0,0,1.68-.38Z"/><path class="cls-3" d="M221.08,98.31a2.3,2.3,0,0,0,2.43,2.52,4,4,0,0,0,1.85-.36l.16.47a4.62,4.62,0,0,1-2.06.4,2.78,2.78,0,0,1-3-2.88,2.89,2.89,0,0,1,2.88-3.17,2.48,2.48,0,0,1,2.51,2.66,1.46,1.46,0,0,1,0,.36Zm4.2-.47a1.9,1.9,0,0,0-2-2.07,2.23,2.23,0,0,0-2.2,2.07Z"/><path class="cls-3" d="M227.25,100.41a2.79,2.79,0,0,0,1.44.43c1,0,1.45-.53,1.45-1.12s-.46-1-1.36-1.28-1.56-.88-1.56-1.56a1.68,1.68,0,0,1,1.89-1.6,2.52,2.52,0,0,1,1.39.38l-.23.48a2.2,2.2,0,0,0-1.27-.37,1.07,1.07,0,0,0-1.21,1c0,.65.49.9,1.34,1.19,1.05.36,1.57.82,1.57,1.68s-.77,1.66-2.07,1.66a3.23,3.23,0,0,1-1.61-.42Z"/><path class="cls-3" d="M237.69,101.33a2.87,2.87,0,0,1-3-3,3,3,0,0,1,3-3.08,2.86,2.86,0,0,1,3,3,3,3,0,0,1-3.08,3.09Zm0-.48a2.44,2.44,0,0,0,2.47-2.58,2.44,2.44,0,1,0-4.88.06,2.38,2.38,0,0,0,2.4,2.52Z"/><path class="cls-3" d="M242.36,101.19V95.9h-.88v-.47h.88v-.28a2.89,2.89,0,0,1,.7-2.18,2,2,0,0,1,1.37-.52,2,2,0,0,1,.95.22l-.19.46a1.62,1.62,0,0,0-.8-.18c-1.18,0-1.43,1-1.43,2.19v.29h1.69v.47h-1.69v5.29Z"/><path class="cls-3" d="M249.49,94.16v1.27h1.82v.47h-1.82v3.68c0,.71.22,1.25.92,1.25a2.24,2.24,0,0,0,.76-.11l.07.46a2.36,2.36,0,0,1-.89.16,1.33,1.33,0,0,1-1.07-.43,2.13,2.13,0,0,1-.38-1.39V95.9h-1.05v-.47h1.05V94.34Z"/><path class="cls-3" d="M252.73,92.6h.59v4h0a2.28,2.28,0,0,1,.89-.94,2.51,2.51,0,0,1,1.29-.37c.55,0,2.24.24,2.24,2.61v3.29h-.59V97.92c0-1.12-.48-2.12-1.81-2.12a2.17,2.17,0,0,0-2,1.36,1.52,1.52,0,0,0-.1.61v3.42h-.59Z"/><path class="cls-3" d="M260.09,94.24a.5.5,0,0,1-.47-.52.52.52,0,0,1,.49-.52.52.52,0,0,1,0,1Zm-.28,6.94V95.43h.59v5.76Z"/><path class="cls-3" d="M262.28,100.41a2.79,2.79,0,0,0,1.44.43c1,0,1.45-.53,1.45-1.12s-.46-1-1.36-1.28-1.56-.88-1.56-1.56a1.68,1.68,0,0,1,1.89-1.6,2.52,2.52,0,0,1,1.39.38l-.23.48a2.2,2.2,0,0,0-1.27-.37,1.07,1.07,0,0,0-1.21,1c0,.65.49.9,1.34,1.19,1.05.36,1.57.82,1.57,1.68s-.77,1.66-2.07,1.66a3.23,3.23,0,0,1-1.61-.42Z"/><path class="cls-3" d="M270.29,97.29c0-.62,0-1.24,0-1.86h.56l0,1.2h0a2.61,2.61,0,0,1,2.42-1.34,2.76,2.76,0,0,1,2.77,2.9,2.89,2.89,0,0,1-2.91,3.14,2.55,2.55,0,0,1-2.25-1.18h0v3.43h-.59Zm.59,1.58a1.89,1.89,0,0,0,.06.46,2.25,2.25,0,0,0,2.17,1.52,2.35,2.35,0,0,0,2.38-2.64,2.3,2.3,0,0,0-2.3-2.45,2.24,2.24,0,0,0-2.2,1.58,1.9,1.9,0,0,0-.11.5Z"/><path class="cls-3" d="M277.65,97.29c0-.62,0-1.24,0-1.86h.54l0,1.25h0A1.9,1.9,0,0,1,280,95.28a1,1,0,0,1,.28,0v.54a1.48,1.48,0,0,0-.34,0c-.8,0-1.42.67-1.61,1.67a2.79,2.79,0,0,0-.06.56v3.12h-.59Z"/><path class="cls-3" d="M283.82,101.33a2.87,2.87,0,0,1-3-3,3,3,0,0,1,3-3.08,2.86,2.86,0,0,1,3,3,3,3,0,0,1-3.08,3.09Zm0-.48a2.44,2.44,0,0,0,2.47-2.58,2.44,2.44,0,1,0-4.88.06,2.38,2.38,0,0,0,2.4,2.52Z"/><path class="cls-3" d="M286.73,103.25a1.86,1.86,0,0,0,1.33-.47c.34-.36.48-.82.48-2.45V95.43h.59v5.34a3.18,3.18,0,0,1-.66,2.33,2.53,2.53,0,0,1-1.68.64Zm2.09-9a.49.49,0,0,1-.47-.52.52.52,0,0,1,.5-.52.52.52,0,0,1,0,1Z"/><path class="cls-3" d="M291.28,98.31a2.3,2.3,0,0,0,2.43,2.52,4,4,0,0,0,1.85-.36l.16.47a4.62,4.62,0,0,1-2.06.4,2.78,2.78,0,0,1-3-2.88,2.89,2.89,0,0,1,2.88-3.17,2.48,2.48,0,0,1,2.51,2.66,1.46,1.46,0,0,1,0,.36Zm4.2-.47a1.9,1.9,0,0,0-2-2.07,2.23,2.23,0,0,0-2.2,2.07Z"/><path class="cls-3" d="M302.13,100.91a4.5,4.5,0,0,1-1.93.42,2.88,2.88,0,0,1-3-2.94,3,3,0,0,1,3.27-3.11,3.44,3.44,0,0,1,1.75.41l-.22.48a3.11,3.11,0,0,0-1.58-.38,2.52,2.52,0,1,0-.1,5,3.86,3.86,0,0,0,1.68-.38Z"/><path class="cls-3" d="M304.61,94.16v1.27h1.82v.47h-1.82v3.68c0,.71.22,1.25.92,1.25a2.24,2.24,0,0,0,.76-.11l.07.46a2.36,2.36,0,0,1-.89.16,1.33,1.33,0,0,1-1.07-.43,2.13,2.13,0,0,1-.38-1.39V95.9H303v-.47H304V94.34Z"/><path class="cls-3" d="M310.73,92.6h.59v4h0a2.56,2.56,0,0,1,2.4-1.33,2.77,2.77,0,0,1,2.77,2.94,2.89,2.89,0,0,1-2.87,3.11,2.54,2.54,0,0,1-2.36-1.26h0l0,1.12h-.54c0-.47,0-.92,0-1.39Zm.59,6.3a1.87,1.87,0,0,0,.06.44,2.23,2.23,0,0,0,2.17,1.51,2.55,2.55,0,0,0,.07-5.08,2.26,2.26,0,0,0-2.21,1.61,1.6,1.6,0,0,0-.1.53Z"/><path class="cls-3" d="M323,99.79c0,.47,0,.92,0,1.39h-.55l0-1.16h0a2.5,2.5,0,0,1-2.24,1.31c-.66,0-2.17-.23-2.17-2.67V95.43h.59v3.11c0,1.34.47,2.28,1.74,2.28a2.15,2.15,0,0,0,1.92-1.22,1.84,1.84,0,0,0,.14-.67V95.43H323Z"/><path class="cls-3" d="M325.4,94.24a.5.5,0,0,1-.47-.52.52.52,0,0,1,.49-.52.52.52,0,0,1,0,1Zm-.28,6.94V95.43h.59v5.76Z"/><path class="cls-3" d="M327.82,92.6h.59v8.59h-.59Z"/><path class="cls-3" d="M331.35,94.16v1.27h1.82v.47h-1.82v3.68c0,.71.22,1.25.92,1.25a2.24,2.24,0,0,0,.76-.11l.07.46a2.36,2.36,0,0,1-.89.16,1.33,1.33,0,0,1-1.07-.43,2.13,2.13,0,0,1-.38-1.39V95.9h-1.05v-.47h1.05V94.34Z"/><path class="cls-3" d="M337.31,95.43l1.06,3.36c.22.7.38,1.25.53,1.77h0c.16-.5.37-1.08.64-1.77l1.28-3.36h.59l1.22,3.35c.26.72.46,1.3.61,1.79h0c.13-.5.32-1.08.56-1.77L345,95.43h.6l-2.09,5.76H343L341.81,98a20.16,20.16,0,0,1-.68-2.05h0c-.19.67-.44,1.35-.72,2.06l-1.26,3.17h-.53l-1.89-5.76Z"/><path class="cls-3" d="M347.15,94.24a.5.5,0,0,1-.47-.52.52.52,0,0,1,.49-.52.52.52,0,0,1,0,1Zm-.28,6.94V95.43h.59v5.76Z"/><path class="cls-3" d="M350.4,94.16v1.27h1.82v.47H350.4v3.68c0,.71.22,1.25.92,1.25a2.24,2.24,0,0,0,.76-.11l.07.46a2.36,2.36,0,0,1-.89.16,1.33,1.33,0,0,1-1.07-.43,2.13,2.13,0,0,1-.38-1.39V95.9h-1.05v-.47h1.05V94.34Z"/><path class="cls-3" d="M353.64,92.6h.59v4h0a2.28,2.28,0,0,1,.89-.94,2.51,2.51,0,0,1,1.29-.37c.55,0,2.24.24,2.24,2.61v3.29h-.59V97.92c0-1.12-.48-2.12-1.81-2.12a2.17,2.17,0,0,0-2,1.36,1.52,1.52,0,0,0-.1.61v3.42h-.59Z"/><path class="cls-3" d="M363.38,100.41a2.79,2.79,0,0,0,1.44.43c1,0,1.45-.53,1.45-1.12s-.46-1-1.36-1.28-1.56-.88-1.56-1.56a1.68,1.68,0,0,1,1.89-1.6,2.52,2.52,0,0,1,1.39.38l-.23.48a2.2,2.2,0,0,0-1.27-.37,1.07,1.07,0,0,0-1.21,1c0,.65.49.9,1.34,1.19,1.05.36,1.57.82,1.57,1.68s-.77,1.66-2.07,1.66a3.23,3.23,0,0,1-1.61-.42Z"/><path class="cls-3" d="M368.51,97.29c0-.62,0-1.24,0-1.86H369l0,1.2h0a2.61,2.61,0,0,1,2.42-1.34,2.76,2.76,0,0,1,2.77,2.9,2.89,2.89,0,0,1-2.91,3.14,2.55,2.55,0,0,1-2.25-1.18h0v3.43h-.59Zm.59,1.58a1.89,1.89,0,0,0,.06.46,2.25,2.25,0,0,0,2.17,1.52,2.35,2.35,0,0,0,2.38-2.64,2.3,2.3,0,0,0-2.3-2.45,2.24,2.24,0,0,0-2.2,1.58,1.9,1.9,0,0,0-.11.5Z"/><path class="cls-3" d="M375.9,98.31a2.3,2.3,0,0,0,2.43,2.52,4,4,0,0,0,1.85-.36l.16.47a4.62,4.62,0,0,1-2.06.4,2.78,2.78,0,0,1-3-2.88,2.89,2.89,0,0,1,2.88-3.17,2.48,2.48,0,0,1,2.51,2.66,1.46,1.46,0,0,1,0,.36Zm4.2-.47a1.9,1.9,0,0,0-2-2.07,2.23,2.23,0,0,0-2.2,2.07Z"/><path class="cls-3" d="M386.75,100.91a4.5,4.5,0,0,1-1.93.42,2.88,2.88,0,0,1-3-2.94A3,3,0,0,1,385,95.28a3.44,3.44,0,0,1,1.75.41l-.22.48a3.11,3.11,0,0,0-1.58-.38,2.52,2.52,0,1,0-.1,5,3.86,3.86,0,0,0,1.68-.38Z"/><path class="cls-3" d="M388.56,94.24a.5.5,0,0,1-.47-.52.52.52,0,0,1,.49-.52.52.52,0,0,1,0,1Zm-.28,6.94V95.43h.59v5.76Z"/><path class="cls-3" d="M394.92,99.79a9.13,9.13,0,0,0,.1,1.39h-.54l-.1-.89h0a2.55,2.55,0,0,1-2.09,1,1.65,1.65,0,0,1-1.83-1.58c0-1.31,1.21-2.16,3.9-2.12v-.13a1.54,1.54,0,0,0-1.63-1.72,2.9,2.9,0,0,0-1.66.48l-.19-.42a3.47,3.47,0,0,1,1.89-.55c2,0,2.17,1.51,2.17,2.42Zm-.59-1.68c-1.52,0-3.27.19-3.27,1.52a1.16,1.16,0,0,0,1.26,1.21,2,2,0,0,0,1.94-1.18.94.94,0,0,0,.07-.34Z"/><path class="cls-3" d="M396.94,92.6h.59v8.59h-.59Z"/><path class="cls-3" d="M406.45,99.79a9.13,9.13,0,0,0,.1,1.39H406l-.1-.89h0a2.55,2.55,0,0,1-2.09,1A1.65,1.65,0,0,1,402,99.75c0-1.31,1.21-2.16,3.9-2.12v-.13a1.54,1.54,0,0,0-1.63-1.72,2.9,2.9,0,0,0-1.66.48l-.19-.42a3.47,3.47,0,0,1,1.89-.55c2,0,2.17,1.51,2.17,2.42Zm-.59-1.68c-1.52,0-3.27.19-3.27,1.52a1.16,1.16,0,0,0,1.26,1.21,2,2,0,0,0,1.94-1.18.94.94,0,0,0,.07-.34Z"/><path class="cls-3" d="M408.47,92.6h.59v4h0a2.56,2.56,0,0,1,2.4-1.33,2.77,2.77,0,0,1,2.77,2.94,2.89,2.89,0,0,1-2.87,3.11,2.54,2.54,0,0,1-2.36-1.26h0l0,1.12h-.54c0-.47,0-.92,0-1.39Zm.59,6.3a1.87,1.87,0,0,0,.06.44,2.23,2.23,0,0,0,2.17,1.51,2.55,2.55,0,0,0,.07-5.08,2.26,2.26,0,0,0-2.21,1.61,1.6,1.6,0,0,0-.1.53Z"/><path class="cls-3" d="M416.1,94.24a.5.5,0,0,1-.47-.52.52.52,0,0,1,.49-.52.52.52,0,0,1,0,1Zm-.28,6.94V95.43h.59v5.76Z"/><path class="cls-3" d="M418.53,92.6h.59v8.59h-.59Z"/><path class="cls-3" d="M421.5,94.24a.5.5,0,0,1-.47-.52.52.52,0,0,1,.49-.52.52.52,0,0,1,0,1Zm-.28,6.94V95.43h.59v5.76Z"/><path class="cls-3" d="M424.75,94.16v1.27h1.82v.47h-1.82v3.68c0,.71.22,1.25.92,1.25a2.24,2.24,0,0,0,.76-.11l.07.46a2.36,2.36,0,0,1-.89.16,1.33,1.33,0,0,1-1.07-.43,2.13,2.13,0,0,1-.38-1.39V95.9h-1.05v-.47h1.05V94.34Z"/><path class="cls-3" d="M428.27,94.24a.5.5,0,0,1-.47-.52.52.52,0,0,1,.49-.52.52.52,0,0,1,0,1Zm-.28,6.94V95.43h.59v5.76Z"/><path class="cls-3" d="M430.73,98.31a2.3,2.3,0,0,0,2.43,2.52,4,4,0,0,0,1.85-.36l.16.47a4.62,4.62,0,0,1-2.06.4,2.78,2.78,0,0,1-3-2.88A2.89,2.89,0,0,1,433,95.28a2.48,2.48,0,0,1,2.51,2.66,1.46,1.46,0,0,1,0,.36Zm4.2-.47a1.9,1.9,0,0,0-2-2.07,2.23,2.23,0,0,0-2.2,2.07Z"/><path class="cls-3" d="M436.9,100.41a2.79,2.79,0,0,0,1.44.43c1,0,1.45-.53,1.45-1.12s-.46-1-1.36-1.28-1.56-.88-1.56-1.56a1.68,1.68,0,0,1,1.89-1.6,2.52,2.52,0,0,1,1.39.38l-.23.48a2.2,2.2,0,0,0-1.27-.37,1.07,1.07,0,0,0-1.21,1c0,.65.49.9,1.34,1.19,1.05.36,1.57.82,1.57,1.68s-.77,1.66-2.07,1.66a3.23,3.23,0,0,1-1.61-.42Z"/><path class="cls-3" d="M448.85,99.79a9.13,9.13,0,0,0,.1,1.39h-.54l-.1-.89h0a2.55,2.55,0,0,1-2.09,1,1.65,1.65,0,0,1-1.83-1.58c0-1.31,1.21-2.16,3.9-2.12v-.13a1.54,1.54,0,0,0-1.63-1.72,2.9,2.9,0,0,0-1.66.48l-.19-.42a3.47,3.47,0,0,1,1.89-.55c2,0,2.17,1.51,2.17,2.42Zm-.59-1.68c-1.52,0-3.27.19-3.27,1.52a1.16,1.16,0,0,0,1.26,1.21,2,2,0,0,0,1.94-1.18.94.94,0,0,0,.07-.34Z"/><path class="cls-3" d="M450.87,97.29c0-.62,0-1.24,0-1.86h.54l0,1.25h0a1.9,1.9,0,0,1,1.76-1.39,1,1,0,0,1,.28,0v.54a1.47,1.47,0,0,0-.33,0c-.8,0-1.42.67-1.61,1.67a2.79,2.79,0,0,0-.06.56v3.12h-.59Z"/><path class="cls-3" d="M454.64,98.31a2.3,2.3,0,0,0,2.43,2.52,4,4,0,0,0,1.85-.36l.16.47a4.62,4.62,0,0,1-2.06.4,2.78,2.78,0,0,1-3-2.88,2.89,2.89,0,0,1,2.88-3.17,2.48,2.48,0,0,1,2.51,2.66,1.46,1.46,0,0,1,0,.36Zm4.2-.47a1.9,1.9,0,0,0-2-2.07,2.23,2.23,0,0,0-2.2,2.07Z"/><path class="cls-3" d="M467.87,99.79a9.13,9.13,0,0,0,.1,1.39h-.54l-.1-.89h0a2.55,2.55,0,0,1-2.09,1,1.65,1.65,0,0,1-1.83-1.58c0-1.31,1.21-2.16,3.9-2.12v-.13a1.54,1.54,0,0,0-1.63-1.72,2.9,2.9,0,0,0-1.66.48l-.19-.42a3.47,3.47,0,0,1,1.89-.55c2,0,2.17,1.51,2.17,2.42Zm-.59-1.68c-1.52,0-3.27.19-3.27,1.52a1.16,1.16,0,0,0,1.26,1.21,2,2,0,0,0,1.94-1.18.94.94,0,0,0,.07-.34Z"/><path class="cls-3" d="M469.64,100.41a2.79,2.79,0,0,0,1.44.43c1,0,1.45-.53,1.45-1.12s-.46-1-1.36-1.28-1.56-.88-1.56-1.56a1.68,1.68,0,0,1,1.89-1.6,2.52,2.52,0,0,1,1.39.38l-.23.48a2.2,2.2,0,0,0-1.27-.37,1.07,1.07,0,0,0-1.21,1c0,.65.49.9,1.34,1.19,1.05.36,1.57.82,1.57,1.68s-.77,1.66-2.07,1.66a3.23,3.23,0,0,1-1.61-.42Z"/><path class="cls-3" d="M477.66,101.19V95.9h-.88v-.47h.88v-.28a2.89,2.89,0,0,1,.7-2.18,2,2,0,0,1,1.37-.52,2,2,0,0,1,.95.22l-.19.46a1.62,1.62,0,0,0-.8-.18c-1.18,0-1.43,1-1.43,2.19v.29h1.69v.47h-1.69v5.29Z"/><path class="cls-3" d="M483.26,101.33a2.87,2.87,0,0,1-3-3,3,3,0,0,1,3-3.08,2.86,2.86,0,0,1,3,3,3,3,0,0,1-3.08,3.09Zm0-.48a2.44,2.44,0,0,0,2.47-2.58,2.44,2.44,0,1,0-4.88.06,2.38,2.38,0,0,0,2.4,2.52Z"/><path class="cls-3" d="M487.93,92.6h.59v8.59h-.59Z"/><path class="cls-3" d="M490.63,92.6h.59v8.59h-.59Z"/><path class="cls-3" d="M495.75,101.33a2.87,2.87,0,0,1-3-3,3,3,0,0,1,3-3.08,2.86,2.86,0,0,1,3,3,3,3,0,0,1-3.08,3.09Zm0-.48a2.44,2.44,0,0,0,2.47-2.58,2.44,2.44,0,1,0-4.88.06,2.38,2.38,0,0,0,2.4,2.52Z"/><path class="cls-3" d="M500.21,95.43l1.06,3.36c.22.7.38,1.25.53,1.77h0c.16-.5.37-1.08.64-1.77l1.28-3.36h.59l1.22,3.35c.26.72.46,1.3.61,1.79h0c.13-.5.32-1.08.56-1.77l1.15-3.36h.6l-2.09,5.76h-.53L504.71,98A20.16,20.16,0,0,1,504,96h0c-.19.67-.44,1.35-.72,2.06L502,101.19h-.53l-1.89-5.76Z"/><path class="cls-3" d="M509.53,100.41a2.79,2.79,0,0,0,1.44.43c1,0,1.45-.53,1.45-1.12s-.46-1-1.36-1.28-1.56-.88-1.56-1.56a1.68,1.68,0,0,1,1.89-1.6,2.52,2.52,0,0,1,1.39.38l-.23.48a2.2,2.2,0,0,0-1.27-.37,1.07,1.07,0,0,0-1.21,1c0,.65.49.9,1.34,1.19,1.05.36,1.57.82,1.57,1.68s-.77,1.66-2.07,1.66a3.23,3.23,0,0,1-1.61-.42Z"/><path class="cls-3" d="M514.64,101.33a.52.52,0,0,1-.49-.55.53.53,0,0,1,.52-.56.52.52,0,0,1,.5.56.53.53,0,0,1-.52.55Z"/><path class="cls-3" d="M107.09,111.77c-.08-1.2-.19-2.76-.19-3.62h0c-.32.86-.7,1.8-1.21,3l-1.87,4.41h-.44l-1.75-4.35c-.5-1.26-.87-2.22-1.14-3.08h0c0,.94-.1,2.41-.2,3.74l-.29,3.69h-.58l.65-8.08h.67l1.94,4.82c.41,1,.72,1.85,1,2.58h0c.22-.68.54-1.5,1-2.57l2-4.83h.7l.58,8.08h-.58Z"/><path class="cls-3" d="M113.82,114.19a9.13,9.13,0,0,0,.1,1.39h-.54l-.1-.89h0a2.55,2.55,0,0,1-2.09,1,1.65,1.65,0,0,1-1.83-1.58c0-1.31,1.21-2.16,3.9-2.12v-.13a1.54,1.54,0,0,0-1.63-1.72,2.9,2.9,0,0,0-1.66.48l-.19-.42a3.47,3.47,0,0,1,1.89-.55c2,0,2.17,1.51,2.17,2.42Zm-.59-1.68c-1.52,0-3.27.19-3.27,1.52a1.16,1.16,0,0,0,1.26,1.21,2,2,0,0,0,1.94-1.18.94.94,0,0,0,.07-.34Z"/><path class="cls-3" d="M115.83,111.22c0-.47,0-.92,0-1.39h.55l0,1.15h0a2.45,2.45,0,0,1,2.22-1.3c.53,0,2.24.24,2.24,2.63v3.27h-.59v-3.27c0-1.13-.49-2.12-1.81-2.12a2.12,2.12,0,0,0-2,1.37,1.65,1.65,0,0,0-.1.52v3.51h-.59Z"/><path class="cls-3" d="M122.49,109.83l1.72,3.85a11,11,0,0,1,.47,1.21h0c.13-.36.29-.79.48-1.26l1.61-3.8h.64l-2,4.65c-.79,1.82-1.31,2.72-2.07,3.27a3,3,0,0,1-1.06.52l-.16-.49a2.86,2.86,0,0,0,1.06-.56,4.22,4.22,0,0,0,1.1-1.55.66.66,0,0,0,.07-.23.74.74,0,0,0-.08-.26l-2.39-5.35Z"/><path class="cls-3" d="M132.27,108.56v1.27h1.82v.47h-1.82V114c0,.71.22,1.25.92,1.25a2.24,2.24,0,0,0,.76-.11l.07.46a2.36,2.36,0,0,1-.89.16,1.33,1.33,0,0,1-1.07-.43,2.13,2.13,0,0,1-.38-1.39V110.3h-1.05v-.47h1.05v-1.09Z"/><path class="cls-3" d="M135.51,107h.59v4h0a2.28,2.28,0,0,1,.89-.94,2.51,2.51,0,0,1,1.29-.37c.55,0,2.24.24,2.24,2.61v3.29H140v-3.26c0-1.12-.48-2.12-1.81-2.12a2.17,2.17,0,0,0-2,1.36,1.52,1.52,0,0,0-.1.61v3.42h-.59Z"/><path class="cls-3" d="M146.54,114.19a9.13,9.13,0,0,0,.1,1.39h-.54l-.1-.89h0a2.55,2.55,0,0,1-2.09,1,1.65,1.65,0,0,1-1.83-1.58c0-1.31,1.21-2.16,3.9-2.12v-.13a1.54,1.54,0,0,0-1.63-1.72,2.9,2.9,0,0,0-1.66.48l-.19-.42a3.47,3.47,0,0,1,1.89-.55c2,0,2.17,1.51,2.17,2.42Zm-.59-1.68c-1.52,0-3.27.19-3.27,1.52a1.16,1.16,0,0,0,1.26,1.21,2,2,0,0,0,1.94-1.18.94.94,0,0,0,.07-.34Z"/><path class="cls-3" d="M148.56,111.22c0-.47,0-.92,0-1.39h.55l0,1.15h0a2.45,2.45,0,0,1,2.22-1.3c.53,0,2.24.24,2.24,2.63v3.27H153v-3.27c0-1.13-.49-2.12-1.81-2.12a2.12,2.12,0,0,0-2,1.37,1.65,1.65,0,0,0-.1.52v3.51h-.59Z"/><path class="cls-3" d="M156.24,112.6h0c.16-.18.43-.47.64-.66l2.24-2.11h.74l-2.57,2.37,2.94,3.38h-.73l-2.63-3-.66.64v2.41h-.59V107h.59Z"/><path class="cls-3" d="M160.9,114.81a2.79,2.79,0,0,0,1.44.43c1,0,1.45-.53,1.45-1.12s-.46-1-1.36-1.28-1.56-.88-1.56-1.56a1.68,1.68,0,0,1,1.89-1.6,2.52,2.52,0,0,1,1.39.38l-.23.48a2.2,2.2,0,0,0-1.27-.37,1.07,1.07,0,0,0-1.21,1c0,.65.49.9,1.34,1.19,1.05.36,1.57.82,1.57,1.68s-.77,1.66-2.07,1.66a3.23,3.23,0,0,1-1.61-.42Z"/><path class="cls-3" d="M169.75,108.56v1.27h1.82v.47h-1.82V114c0,.71.22,1.25.92,1.25a2.24,2.24,0,0,0,.76-.11l.07.46a2.36,2.36,0,0,1-.89.16,1.33,1.33,0,0,1-1.07-.43,2.13,2.13,0,0,1-.38-1.39V110.3h-1.05v-.47h1.05v-1.09Z"/><path class="cls-3" d="M175.35,115.73a2.87,2.87,0,0,1-3-3,3,3,0,0,1,3-3.08,2.86,2.86,0,0,1,3,3,3,3,0,0,1-3.08,3.09Zm0-.48a2.44,2.44,0,0,0,2.47-2.58,2.44,2.44,0,1,0-4.88.06,2.38,2.38,0,0,0,2.4,2.52Z"/><path class="cls-3" d="M186.83,114.19a9.13,9.13,0,0,0,.1,1.39h-.54l-.1-.89h0a2.55,2.55,0,0,1-2.09,1,1.65,1.65,0,0,1-1.83-1.58c0-1.31,1.21-2.16,3.9-2.12v-.13a1.54,1.54,0,0,0-1.63-1.72,2.9,2.9,0,0,0-1.66.48l-.19-.42a3.47,3.47,0,0,1,1.89-.55c2,0,2.17,1.51,2.17,2.42Zm-.59-1.68c-1.52,0-3.27.19-3.27,1.52a1.16,1.16,0,0,0,1.26,1.21,2,2,0,0,0,1.94-1.18.94.94,0,0,0,.07-.34Z"/><path class="cls-3" d="M188.85,107h.59v8.59h-.59Z"/><path class="cls-3" d="M191.55,107h.59v8.59h-.59Z"/><path class="cls-3" d="M198,108.56v1.27h1.82v.47H198V114c0,.71.22,1.25.92,1.25a2.24,2.24,0,0,0,.76-.11l.07.46a2.36,2.36,0,0,1-.89.16,1.33,1.33,0,0,1-1.07-.43,2.13,2.13,0,0,1-.38-1.39V110.3h-1.05v-.47h1.05v-1.09Z"/><path class="cls-3" d="M201.2,107h.59v4h0a2.28,2.28,0,0,1,.89-.94,2.51,2.51,0,0,1,1.29-.37c.55,0,2.24.24,2.24,2.61v3.29h-.59v-3.26c0-1.12-.48-2.12-1.81-2.12a2.17,2.17,0,0,0-2,1.36,1.52,1.52,0,0,0-.1.61v3.42h-.59Z"/><path class="cls-3" d="M208.33,112.71a2.3,2.3,0,0,0,2.43,2.52,4,4,0,0,0,1.85-.36l.16.47a4.62,4.62,0,0,1-2.06.4,2.78,2.78,0,0,1-3-2.88,2.89,2.89,0,0,1,2.88-3.17,2.48,2.48,0,0,1,2.51,2.66,1.46,1.46,0,0,1,0,.36Zm4.2-.47a1.9,1.9,0,0,0-2-2.07,2.23,2.23,0,0,0-2.2,2.07Z"/><path class="cls-3" d="M217.62,111.69c0-.62,0-1.24,0-1.86h.56l0,1.2h0a2.61,2.61,0,0,1,2.42-1.34,2.76,2.76,0,0,1,2.77,2.9,2.89,2.89,0,0,1-2.91,3.14,2.55,2.55,0,0,1-2.25-1.18h0V118h-.59Zm.59,1.58a1.89,1.89,0,0,0,.06.46,2.25,2.25,0,0,0,2.17,1.52,2.35,2.35,0,0,0,2.38-2.64,2.3,2.3,0,0,0-2.3-2.45,2.24,2.24,0,0,0-2.2,1.58,1.9,1.9,0,0,0-.11.5Z"/><path class="cls-3" d="M225,112.71a2.3,2.3,0,0,0,2.43,2.52,4,4,0,0,0,1.85-.36l.16.47a4.62,4.62,0,0,1-2.06.4,2.78,2.78,0,0,1-3-2.88,2.89,2.89,0,0,1,2.88-3.17,2.48,2.48,0,0,1,2.51,2.66,1.46,1.46,0,0,1,0,.36Zm4.2-.47a1.9,1.9,0,0,0-2-2.07,2.23,2.23,0,0,0-2.2,2.07Z"/><path class="cls-3" d="M233.84,115.73a2.87,2.87,0,0,1-3-3,3,3,0,0,1,3-3.08,2.86,2.86,0,0,1,3,3,3,3,0,0,1-3.08,3.09Zm0-.48a2.44,2.44,0,0,0,2.47-2.58,2.44,2.44,0,1,0-4.88.06,2.38,2.38,0,0,0,2.4,2.52Z"/><path class="cls-3" d="M238.51,111.69c0-.62,0-1.24,0-1.86H239l0,1.2h0a2.61,2.61,0,0,1,2.42-1.34,2.76,2.76,0,0,1,2.77,2.9,2.89,2.89,0,0,1-2.91,3.14,2.55,2.55,0,0,1-2.25-1.18h0V118h-.59Zm.59,1.58a1.89,1.89,0,0,0,.06.46,2.25,2.25,0,0,0,2.17,1.52,2.35,2.35,0,0,0,2.38-2.64,2.3,2.3,0,0,0-2.3-2.45,2.24,2.24,0,0,0-2.2,1.58,1.9,1.9,0,0,0-.11.5Z"/><path class="cls-3" d="M245.86,107h.59v8.59h-.59Z"/><path class="cls-3" d="M248.6,112.71a2.3,2.3,0,0,0,2.43,2.52,4,4,0,0,0,1.85-.36l.16.47a4.62,4.62,0,0,1-2.06.4,2.78,2.78,0,0,1-3-2.88,2.89,2.89,0,0,1,2.88-3.17,2.48,2.48,0,0,1,2.51,2.66,1.46,1.46,0,0,1,0,.36Zm4.2-.47a1.9,1.9,0,0,0-2-2.07,2.23,2.23,0,0,0-2.2,2.07Z"/><path class="cls-3" d="M254.16,117.1a16.44,16.44,0,0,0,.62-2.54l.77-.12a15.08,15.08,0,0,1-.92,2.6Z"/><path class="cls-3" d="M259.71,109.83l1.06,3.36c.22.7.38,1.25.53,1.78h0c.16-.5.37-1.08.64-1.78l1.28-3.36h.59l1.22,3.35c.26.72.46,1.3.61,1.79h0c.13-.5.32-1.08.56-1.78l1.15-3.36h.6l-2.09,5.76h-.53l-1.17-3.18a20.16,20.16,0,0,1-.68-2.05h0c-.19.67-.44,1.35-.72,2.06l-1.26,3.17H261l-1.89-5.76Z"/><path class="cls-3" d="M269.55,108.64a.5.5,0,0,1-.47-.52.52.52,0,0,1,.49-.52.52.52,0,0,1,0,1Zm-.28,6.94v-5.76h.59v5.76Z"/><path class="cls-3" d="M272.8,108.56v1.27h1.82v.47H272.8V114c0,.71.22,1.25.92,1.25a2.24,2.24,0,0,0,.76-.11l.07.46a2.36,2.36,0,0,1-.89.16,1.33,1.33,0,0,1-1.07-.43,2.13,2.13,0,0,1-.38-1.39V110.3h-1.05v-.47h1.05v-1.09Z"/><path class="cls-3" d="M276,107h.59v4h0a2.28,2.28,0,0,1,.89-.94,2.51,2.51,0,0,1,1.29-.37c.55,0,2.24.24,2.24,2.61v3.29h-.59v-3.26c0-1.12-.48-2.12-1.81-2.12a2.17,2.17,0,0,0-2,1.36,1.52,1.52,0,0,0-.1.61v3.42H276Z"/><path class="cls-3" d="M286.84,108.56v1.27h1.82v.47h-1.82V114c0,.71.22,1.25.92,1.25a2.24,2.24,0,0,0,.76-.11l.07.46a2.36,2.36,0,0,1-.89.16,1.33,1.33,0,0,1-1.07-.43,2.13,2.13,0,0,1-.38-1.39V110.3H285.2v-.47h1.05v-1.09Z"/><path class="cls-3" d="M290.08,107h.59v4h0a2.28,2.28,0,0,1,.89-.94,2.51,2.51,0,0,1,1.29-.37c.55,0,2.24.24,2.24,2.61v3.29h-.59v-3.26c0-1.12-.48-2.12-1.81-2.12a2.17,2.17,0,0,0-2,1.36,1.52,1.52,0,0,0-.1.61v3.42h-.59Z"/><path class="cls-3" d="M297.21,112.71a2.3,2.3,0,0,0,2.43,2.52,4,4,0,0,0,1.85-.36l.16.47a4.62,4.62,0,0,1-2.06.4,2.78,2.78,0,0,1-3-2.88,2.89,2.89,0,0,1,2.88-3.17,2.48,2.48,0,0,1,2.51,2.66,1.46,1.46,0,0,1,0,.36Zm4.2-.47a1.9,1.9,0,0,0-2-2.07,2.23,2.23,0,0,0-2.2,2.07Z"/><path class="cls-3" d="M303.89,108.64a.5.5,0,0,1-.47-.52.52.52,0,0,1,.49-.52.52.52,0,0,1,0,1Zm-.28,6.94v-5.76h.59v5.76Z"/><path class="cls-3" d="M306.32,111.69c0-.62,0-1.24,0-1.86h.54l0,1.25h0a1.9,1.9,0,0,1,1.76-1.39,1,1,0,0,1,.28,0v.54a1.48,1.48,0,0,0-.34,0c-.8,0-1.42.67-1.61,1.67a2.79,2.79,0,0,0-.06.56v3.12h-.59Z"/><path class="cls-3" d="M312.8,114.81a2.79,2.79,0,0,0,1.44.43c1,0,1.45-.53,1.45-1.12s-.46-1-1.36-1.28-1.56-.88-1.56-1.56a1.68,1.68,0,0,1,1.89-1.6,2.52,2.52,0,0,1,1.39.38l-.23.48a2.2,2.2,0,0,0-1.27-.37,1.07,1.07,0,0,0-1.21,1c0,.65.49.9,1.34,1.19,1.05.36,1.57.82,1.57,1.68s-.77,1.66-2.07,1.66a3.23,3.23,0,0,1-1.61-.42Z"/><path class="cls-3" d="M317.93,111.69c0-.62,0-1.24,0-1.86h.56l0,1.2h0a2.61,2.61,0,0,1,2.42-1.34,2.76,2.76,0,0,1,2.77,2.9,2.89,2.89,0,0,1-2.91,3.14,2.55,2.55,0,0,1-2.25-1.18h0V118h-.59Zm.59,1.58a1.89,1.89,0,0,0,.06.46,2.25,2.25,0,0,0,2.17,1.52,2.35,2.35,0,0,0,2.38-2.64,2.3,2.3,0,0,0-2.3-2.45,2.24,2.24,0,0,0-2.2,1.58,1.9,1.9,0,0,0-.11.5Z"/><path class="cls-3" d="M325.33,112.71a2.3,2.3,0,0,0,2.43,2.52,4,4,0,0,0,1.85-.36l.16.47a4.62,4.62,0,0,1-2.06.4,2.78,2.78,0,0,1-3-2.88,2.89,2.89,0,0,1,2.88-3.17,2.48,2.48,0,0,1,2.51,2.66,1.46,1.46,0,0,1,0,.36Zm4.2-.47a1.9,1.9,0,0,0-2-2.07,2.23,2.23,0,0,0-2.2,2.07Z"/><path class="cls-3" d="M336.17,115.31a4.5,4.5,0,0,1-1.93.42,2.88,2.88,0,0,1-3-2.94,3,3,0,0,1,3.27-3.11,3.44,3.44,0,0,1,1.75.41l-.22.48a3.11,3.11,0,0,0-1.58-.38,2.52,2.52,0,1,0-.1,5,3.86,3.86,0,0,0,1.68-.38Z"/><path class="cls-3" d="M338,108.64a.5.5,0,0,1-.47-.52.52.52,0,0,1,.49-.52.52.52,0,0,1,0,1Zm-.28,6.94v-5.76h.59v5.76Z"/><path class="cls-3" d="M344.34,114.19a9.13,9.13,0,0,0,.1,1.39h-.54l-.1-.89h0a2.55,2.55,0,0,1-2.09,1,1.65,1.65,0,0,1-1.83-1.58c0-1.31,1.21-2.16,3.9-2.12v-.13a1.54,1.54,0,0,0-1.63-1.72,2.9,2.9,0,0,0-1.66.48l-.19-.42a3.47,3.47,0,0,1,1.89-.55c2,0,2.17,1.51,2.17,2.42Zm-.59-1.68c-1.52,0-3.27.19-3.27,1.52a1.16,1.16,0,0,0,1.26,1.21,2,2,0,0,0,1.94-1.18.94.94,0,0,0,.07-.34Z"/><path class="cls-3" d="M346.36,107h.59v8.59h-.59Z"/><path class="cls-3" d="M356.38,115.31a4.5,4.5,0,0,1-1.93.42,2.88,2.88,0,0,1-3-2.94,3,3,0,0,1,3.27-3.11,3.44,3.44,0,0,1,1.75.41l-.22.48a3.11,3.11,0,0,0-1.58-.38,2.52,2.52,0,1,0-.1,5,3.86,3.86,0,0,0,1.68-.38Z"/><path class="cls-3" d="M360.34,115.73a2.87,2.87,0,0,1-3-3,3,3,0,0,1,3-3.08,2.86,2.86,0,0,1,3,3,3,3,0,0,1-3.08,3.09Zm0-.48a2.44,2.44,0,0,0,2.47-2.58,2.44,2.44,0,1,0-4.88.06,2.38,2.38,0,0,0,2.4,2.52Z"/><path class="cls-3" d="M365,111.22c0-.47,0-.92,0-1.39h.55l0,1.15h0a2.45,2.45,0,0,1,2.22-1.3c.53,0,2.24.24,2.24,2.63v3.27h-.59v-3.27c0-1.13-.49-2.12-1.81-2.12a2.12,2.12,0,0,0-2,1.37,1.65,1.65,0,0,0-.1.52v3.51H365Z"/><path class="cls-3" d="M372.93,108.56v1.27h1.82v.47h-1.82V114c0,.71.22,1.25.92,1.25a2.24,2.24,0,0,0,.76-.11l.07.46a2.36,2.36,0,0,1-.89.16,1.33,1.33,0,0,1-1.07-.43,2.13,2.13,0,0,1-.38-1.39V110.3h-1.05v-.47h1.05v-1.09Z"/><path class="cls-3" d="M376.17,111.69c0-.62,0-1.24,0-1.86h.54l0,1.25h0a1.9,1.9,0,0,1,1.76-1.39,1,1,0,0,1,.28,0v.54a1.48,1.48,0,0,0-.34,0c-.8,0-1.42.67-1.61,1.67a2.79,2.79,0,0,0-.06.56v3.12h-.59Z"/><path class="cls-3" d="M380.4,108.64a.5.5,0,0,1-.47-.52.52.52,0,0,1,.49-.52.52.52,0,0,1,0,1Zm-.28,6.94v-5.76h.59v5.76Z"/><path class="cls-3" d="M382.83,107h.59v4h0a2.56,2.56,0,0,1,2.4-1.33,2.77,2.77,0,0,1,2.77,2.94,2.89,2.89,0,0,1-2.87,3.11,2.54,2.54,0,0,1-2.36-1.26h0l0,1.12h-.54c0-.47,0-.92,0-1.39Zm.59,6.3a1.87,1.87,0,0,0,.06.44,2.23,2.23,0,0,0,2.17,1.51,2.55,2.55,0,0,0,.07-5.08,2.26,2.26,0,0,0-2.21,1.61,1.6,1.6,0,0,0-.1.53Z"/><path class="cls-3" d="M395.1,114.19c0,.47,0,.92,0,1.39h-.55l0-1.16h0a2.5,2.5,0,0,1-2.24,1.31c-.66,0-2.17-.23-2.17-2.67v-3.23h.59v3.11c0,1.34.47,2.28,1.74,2.28a2.15,2.15,0,0,0,1.92-1.22,1.84,1.84,0,0,0,.14-.67v-3.49h.59Z"/><path class="cls-3" d="M398,108.56v1.27h1.82v.47H398V114c0,.71.22,1.25.92,1.25a2.24,2.24,0,0,0,.76-.11l.07.46a2.36,2.36,0,0,1-.89.16,1.33,1.33,0,0,1-1.07-.43,2.13,2.13,0,0,1-.38-1.39V110.3H396.4v-.47h1.05v-1.09Z"/><path class="cls-3" d="M401.56,108.64a.5.5,0,0,1-.47-.52.52.52,0,0,1,.49-.52.52.52,0,0,1,0,1Zm-.28,6.94v-5.76h.59v5.76Z"/><path class="cls-3" d="M406.41,115.73a2.87,2.87,0,0,1-3-3,3,3,0,0,1,3-3.08,2.86,2.86,0,0,1,3,3,3,3,0,0,1-3.08,3.09Zm0-.48a2.44,2.44,0,0,0,2.47-2.58,2.44,2.44,0,1,0-4.88.06,2.38,2.38,0,0,0,2.4,2.52Z"/><path class="cls-3" d="M411.07,111.22c0-.47,0-.92,0-1.39h.55l0,1.15h0a2.45,2.45,0,0,1,2.22-1.3c.53,0,2.24.24,2.24,2.63v3.27h-.59v-3.27c0-1.13-.49-2.12-1.81-2.12a2.12,2.12,0,0,0-2,1.37,1.65,1.65,0,0,0-.1.52v3.51h-.59Z"/><path class="cls-3" d="M417.93,114.81a2.79,2.79,0,0,0,1.44.43c1,0,1.45-.53,1.45-1.12s-.46-1-1.36-1.28-1.56-.88-1.56-1.56a1.68,1.68,0,0,1,1.89-1.6,2.52,2.52,0,0,1,1.39.38l-.23.48a2.2,2.2,0,0,0-1.27-.37,1.07,1.07,0,0,0-1.21,1c0,.65.49.9,1.34,1.19,1.05.36,1.57.82,1.57,1.68s-.77,1.66-2.07,1.66a3.23,3.23,0,0,1-1.61-.42Z"/><path class="cls-3" d="M422.21,117.1a16.44,16.44,0,0,0,.62-2.54l.77-.12a15.08,15.08,0,0,1-.92,2.6Z"/><path class="cls-3" d="M99.47,124.23l1.06,3.36c.22.7.38,1.25.53,1.78h0c.16-.5.37-1.08.64-1.78l1.28-3.36h.59l1.22,3.35c.26.72.46,1.3.61,1.79h0c.13-.5.32-1.08.56-1.78l1.15-3.36h.6L105.67,130h-.53L104,126.81a20.16,20.16,0,0,1-.68-2.05h0c-.19.67-.44,1.35-.72,2.06L101.28,130h-.53l-1.89-5.76Z"/><path class="cls-3" d="M109,121.4h.59v4h0a2.28,2.28,0,0,1,.89-.94,2.51,2.51,0,0,1,1.29-.37c.55,0,2.24.24,2.24,2.61V130h-.59v-3.26c0-1.12-.48-2.12-1.81-2.12a2.17,2.17,0,0,0-2,1.36,1.52,1.52,0,0,0-.1.61V130H109Z"/><path class="cls-3" d="M116.4,123a.5.5,0,0,1-.47-.52.52.52,0,0,1,.49-.52.52.52,0,0,1,0,1Zm-.28,6.94v-5.76h.59V130Z"/><path class="cls-3" d="M123.26,129.71a4.5,4.5,0,0,1-1.93.42,2.88,2.88,0,0,1-3-2.94,3,3,0,0,1,3.27-3.11,3.44,3.44,0,0,1,1.75.41l-.22.48a3.11,3.11,0,0,0-1.58-.38,2.52,2.52,0,1,0-.1,5,3.86,3.86,0,0,0,1.68-.38Z"/><path class="cls-3" d="M124.8,121.4h.59v4h0a2.28,2.28,0,0,1,.89-.94,2.51,2.51,0,0,1,1.29-.37c.55,0,2.24.24,2.24,2.61V130h-.59v-3.26c0-1.12-.48-2.12-1.81-2.12a2.17,2.17,0,0,0-2,1.36,1.52,1.52,0,0,0-.1.61V130h-.59Z"/><path class="cls-3" d="M134.61,124.23l1.06,3.36c.22.7.38,1.25.53,1.78h0c.16-.5.37-1.08.64-1.78l1.28-3.36h.59l1.22,3.35c.26.72.46,1.3.61,1.79h0c.13-.5.32-1.08.56-1.78l1.15-3.36h.6L140.81,130h-.53l-1.17-3.18a20.16,20.16,0,0,1-.68-2.05h0c-.19.67-.44,1.35-.72,2.06L136.42,130h-.53L134,124.23Z"/><path class="cls-3" d="M144.15,127.11a2.3,2.3,0,0,0,2.43,2.52,4,4,0,0,0,1.85-.36l.16.47a4.62,4.62,0,0,1-2.06.4,2.78,2.78,0,0,1-3-2.88,2.89,2.89,0,0,1,2.88-3.17,2.48,2.48,0,0,1,2.51,2.66,1.46,1.46,0,0,1,0,.36Zm4.2-.47a1.9,1.9,0,0,0-2-2.07,2.23,2.23,0,0,0-2.2,2.07Z"/><path class="cls-3" d="M157.38,128.59a9.13,9.13,0,0,0,.1,1.39h-.54l-.1-.89h0a2.55,2.55,0,0,1-2.09,1,1.65,1.65,0,0,1-1.83-1.58c0-1.31,1.21-2.16,3.9-2.12v-.13a1.54,1.54,0,0,0-1.63-1.72,2.9,2.9,0,0,0-1.66.48l-.19-.42a3.47,3.47,0,0,1,1.89-.55c2,0,2.17,1.51,2.17,2.42Zm-.59-1.68c-1.52,0-3.27.19-3.27,1.52a1.16,1.16,0,0,0,1.26,1.21,2,2,0,0,0,1.94-1.18.94.94,0,0,0,.07-.34Z"/><path class="cls-3" d="M159.39,126.09c0-.62,0-1.24,0-1.86h.54l0,1.25h0a1.9,1.9,0,0,1,1.76-1.39,1,1,0,0,1,.28,0v.54a1.47,1.47,0,0,0-.33,0c-.8,0-1.42.67-1.61,1.67a2.79,2.79,0,0,0-.06.56V130h-.59Z"/><path class="cls-3" d="M163.17,127.11a2.3,2.3,0,0,0,2.43,2.52,4,4,0,0,0,1.85-.36l.16.47a4.62,4.62,0,0,1-2.06.4,2.78,2.78,0,0,1-3-2.88,2.89,2.89,0,0,1,2.88-3.17,2.48,2.48,0,0,1,2.51,2.66,1.46,1.46,0,0,1,0,.36Zm4.2-.47a1.9,1.9,0,0,0-2-2.07,2.23,2.23,0,0,0-2.2,2.07Z"/><path class="cls-3" d="M172.46,126.09c0-.62,0-1.24,0-1.86H173l0,1.2h0a2.61,2.61,0,0,1,2.42-1.34,2.76,2.76,0,0,1,2.77,2.9,2.89,2.89,0,0,1-2.91,3.14,2.55,2.55,0,0,1-2.25-1.18h0v3.43h-.59Zm.59,1.58a1.89,1.89,0,0,0,.06.46,2.25,2.25,0,0,0,2.17,1.52,2.35,2.35,0,0,0,2.38-2.64,2.3,2.3,0,0,0-2.3-2.45,2.24,2.24,0,0,0-2.2,1.58,1.9,1.9,0,0,0-.11.5Z"/><path class="cls-3" d="M179.82,126.09c0-.62,0-1.24,0-1.86h.54l0,1.25h0a1.9,1.9,0,0,1,1.76-1.39,1,1,0,0,1,.28,0v.54a1.47,1.47,0,0,0-.33,0c-.8,0-1.42.67-1.61,1.67a2.79,2.79,0,0,0-.06.56V130h-.59Z"/><path class="cls-3" d="M183.6,127.11a2.3,2.3,0,0,0,2.43,2.52,4,4,0,0,0,1.85-.36l.16.47a4.62,4.62,0,0,1-2.06.4,2.78,2.78,0,0,1-3-2.88,2.89,2.89,0,0,1,2.88-3.17,2.48,2.48,0,0,1,2.51,2.66,1.46,1.46,0,0,1,0,.36Zm4.2-.47a1.9,1.9,0,0,0-2-2.07,2.23,2.23,0,0,0-2.2,2.07Z"/><path class="cls-3" d="M189.76,129.21a2.79,2.79,0,0,0,1.44.43c1,0,1.45-.53,1.45-1.12s-.46-1-1.36-1.28-1.56-.88-1.56-1.56a1.68,1.68,0,0,1,1.89-1.6,2.52,2.52,0,0,1,1.39.38l-.23.48a2.2,2.2,0,0,0-1.27-.37,1.07,1.07,0,0,0-1.21,1c0,.65.49.9,1.34,1.19,1.05.36,1.57.82,1.57,1.68s-.77,1.66-2.07,1.66a3.23,3.23,0,0,1-1.61-.42Z"/><path class="cls-3" d="M194.94,127.11a2.3,2.3,0,0,0,2.43,2.52,4,4,0,0,0,1.85-.36l.16.47a4.62,4.62,0,0,1-2.06.4,2.78,2.78,0,0,1-3-2.88,2.89,2.89,0,0,1,2.88-3.17,2.48,2.48,0,0,1,2.51,2.66,1.46,1.46,0,0,1,0,.36Zm4.2-.47a1.9,1.9,0,0,0-2-2.07,2.23,2.23,0,0,0-2.2,2.07Z"/><path class="cls-3" d="M201.34,125.62c0-.47,0-.92,0-1.39h.55l0,1.15h0a2.45,2.45,0,0,1,2.22-1.3c.53,0,2.24.24,2.24,2.63V130h-.59v-3.27c0-1.13-.49-2.12-1.81-2.12a2.12,2.12,0,0,0-2,1.37,1.65,1.65,0,0,0-.1.52V130h-.59Z"/><path class="cls-3" d="M209.26,123v1.27h1.82v.47h-1.82v3.68c0,.71.22,1.25.92,1.25a2.24,2.24,0,0,0,.76-.11l.07.46a2.36,2.36,0,0,1-.89.16,1.33,1.33,0,0,1-1.07-.43,2.13,2.13,0,0,1-.38-1.39V124.7h-1.05v-.47h1.05v-1.09Z"/><path class="cls-3" d="M212.78,123a.5.5,0,0,1-.47-.52.52.52,0,0,1,.49-.52.52.52,0,0,1,0,1ZM212.5,130v-5.76h.59V130Z"/><path class="cls-3" d="M215.2,125.62c0-.47,0-.92,0-1.39h.55l0,1.15h0a2.45,2.45,0,0,1,2.22-1.3c.53,0,2.24.24,2.24,2.63V130h-.59v-3.27c0-1.13-.49-2.12-1.81-2.12a2.12,2.12,0,0,0-2,1.37,1.65,1.65,0,0,0-.1.52V130h-.59Z"/><path class="cls-3" d="M227.41,129.13a3.37,3.37,0,0,1-.89,2.69,3.27,3.27,0,0,1-2.16.71,3.6,3.6,0,0,1-2.05-.56l.22-.47a3.39,3.39,0,0,0,1.93.55,2.16,2.16,0,0,0,2.36-2.45v-.84h0A2.51,2.51,0,0,1,224.5,130a2.76,2.76,0,0,1-2.75-2.81,2.93,2.93,0,0,1,2.88-3.09,2.32,2.32,0,0,1,2.22,1.21h0l0-1.07h.54c0,.47,0,.92,0,1.39Zm-.59-2.59a1.87,1.87,0,0,0-.08-.6,2.1,2.1,0,0,0-2-1.38,2.33,2.33,0,0,0-2.35,2.54,2.26,2.26,0,0,0,2.33,2.4,2.21,2.21,0,0,0,2-1.38,1.74,1.74,0,0,0,.12-.62Z"/><path class="cls-3" d="M233.23,123v1.27H235v.47h-1.82v3.68c0,.71.22,1.25.92,1.25a2.24,2.24,0,0,0,.76-.11l.07.46a2.36,2.36,0,0,1-.89.16,1.33,1.33,0,0,1-1.07-.43,2.13,2.13,0,0,1-.38-1.39V124.7h-1.05v-.47h1.05v-1.09Z"/><path class="cls-3" d="M238.83,130.13a2.87,2.87,0,0,1-3-3,3,3,0,0,1,3-3.08,2.86,2.86,0,0,1,3,3,3,3,0,0,1-3.08,3.09Zm0-.48a2.44,2.44,0,0,0,2.47-2.58,2.44,2.44,0,1,0-4.88.06,2.38,2.38,0,0,0,2.4,2.52Z"/><path class="cls-3" d="M246.07,124.23l1.72,3.85a11,11,0,0,1,.47,1.21h0c.13-.36.29-.79.48-1.26l1.61-3.8H251l-2,4.65c-.79,1.82-1.31,2.72-2.07,3.27a3,3,0,0,1-1.06.52l-.16-.49a2.86,2.86,0,0,0,1.06-.56,4.22,4.22,0,0,0,1.1-1.55.66.66,0,0,0,.07-.23.76.76,0,0,0-.08-.26l-2.39-5.35Z"/><path class="cls-3" d="M254.5,130.13a2.87,2.87,0,0,1-3-3,3,3,0,0,1,3-3.08,2.86,2.86,0,0,1,3,3,3,3,0,0,1-3.08,3.09Zm0-.48a2.44,2.44,0,0,0,2.47-2.58,2.44,2.44,0,1,0-4.88.06,2.38,2.38,0,0,0,2.4,2.52Z"/><path class="cls-3" d="M264.09,128.59c0,.47,0,.92,0,1.39h-.55l0-1.16h0a2.5,2.5,0,0,1-2.24,1.31c-.66,0-2.17-.23-2.17-2.67v-3.23h.59v3.11c0,1.34.47,2.28,1.74,2.28a2.15,2.15,0,0,0,1.92-1.22,1.84,1.84,0,0,0,.14-.67v-3.49h.59Z"/><path class="cls-3" d="M269.91,123v1.27h1.82v.47h-1.82v3.68c0,.71.22,1.25.92,1.25a2.24,2.24,0,0,0,.76-.11l.07.46a2.36,2.36,0,0,1-.89.16,1.33,1.33,0,0,1-1.07-.43,2.13,2.13,0,0,1-.38-1.39V124.7h-1.05v-.47h1.05v-1.09Z"/><path class="cls-3" d="M275.51,130.13a2.87,2.87,0,0,1-3-3,3,3,0,0,1,3-3.08,2.86,2.86,0,0,1,3,3,3,3,0,0,1-3.08,3.09Zm0-.48a2.44,2.44,0,0,0,2.47-2.58,2.44,2.44,0,1,0-4.88.06,2.38,2.38,0,0,0,2.4,2.52Z"/><path class="cls-3" d="M285.29,121.4v7.2c0,.47,0,.92,0,1.39h-.54l0-1.2h0a2.46,2.46,0,0,1-2.33,1.34,2.78,2.78,0,0,1-2.77-2.89,2.94,2.94,0,0,1,2.9-3.15,2.35,2.35,0,0,1,2.13,1.1h0V121.4Zm-.59,5.15a2.28,2.28,0,0,0-.07-.56,2.09,2.09,0,0,0-2.08-1.42,2.36,2.36,0,0,0-2.33,2.6,2.28,2.28,0,0,0,2.31,2.48,2.17,2.17,0,0,0,2.09-1.58,1.65,1.65,0,0,0,.07-.5Z"/><path class="cls-3" d="M291.34,128.59a9.13,9.13,0,0,0,.1,1.39h-.54l-.1-.89h0a2.55,2.55,0,0,1-2.09,1,1.65,1.65,0,0,1-1.83-1.58c0-1.31,1.21-2.16,3.9-2.12v-.13a1.54,1.54,0,0,0-1.63-1.72,2.9,2.9,0,0,0-1.66.48l-.19-.42a3.47,3.47,0,0,1,1.89-.55c2,0,2.17,1.51,2.17,2.42Zm-.59-1.68c-1.52,0-3.27.19-3.27,1.52a1.16,1.16,0,0,0,1.26,1.21,2,2,0,0,0,1.94-1.18.94.94,0,0,0,.07-.34Z"/><path class="cls-3" d="M293,124.23l1.72,3.85a11,11,0,0,1,.47,1.21h0c.13-.36.29-.79.48-1.26l1.61-3.8h.64l-2,4.65c-.79,1.82-1.31,2.72-2.07,3.27a3,3,0,0,1-1.06.52l-.16-.49a2.86,2.86,0,0,0,1.06-.56,4.22,4.22,0,0,0,1.1-1.55.66.66,0,0,0,.07-.23.76.76,0,0,0-.08-.26l-2.39-5.35Z"/><path class="cls-3" d="M298.79,130.13a.52.52,0,0,1-.49-.55.53.53,0,0,1,.52-.56.52.52,0,0,1,.5.56.53.53,0,0,1-.52.55Z"/><path class="cls-4" d="M125.31,54.66c0,6.9-4.43,13.54-13.24,13.54S98.83,61.52,98.83,54.59s4.39-13.5,13.24-13.5S125.35,47.57,125.31,54.66Zm-24.49,0c0,5.93,3.79,11.7,11.25,11.7s11.29-5.78,11.29-11.7c0-6.08-3.75-11.66-11.29-11.66S100.78,48.43,100.82,54.62Z"/><path class="cls-5" d="M144.7,67.75V64.41A7.37,7.37,0,0,1,138.1,68c-5,0-8.36-3-8.36-8.18V49.18h1.84V59.84c0,4.2,2.59,6.45,6.6,6.41a6.44,6.44,0,0,0,6.49-6.75V49.18h1.84V67.75Z"/><path class="cls-6" d="M153.06,49.22l.08,3.3A6.52,6.52,0,0,1,159.29,49a7.24,7.24,0,0,1,4,1.09l-.83,1.5a6,6,0,0,0-3.15-.86,6.15,6.15,0,0,0-6.11,6.19v10.8h-1.84V49.22Z"/><path class="cls-7" d="M184.16,43.33h-9.49v-1.8h21v1.8h-9.49V67.75h-2Z"/><path class="cls-8" d="M193,58.49a9.31,9.31,0,0,1,9.41-9.56c5.21,0,9.86,3.19,9.15,10.43H194.92a7.29,7.29,0,0,0,7.54,6.86c2.44,0,5.29-1,6.68-2.81l1.31,1a10.18,10.18,0,0,1-8,3.56A9.09,9.09,0,0,1,193,58.49ZM210,57.74c0-4.58-3-7.13-7.5-7.13a7.41,7.41,0,0,0-7.54,7.13Z"/><path class="cls-9" d="M234.19,49.22V67.75h-1.84V63.81A8.66,8.66,0,0,1,224.77,68a9.53,9.53,0,0,1,0-19.05,8.4,8.4,0,0,1,7.58,4.28V49.22Zm-17,9.26a7.44,7.44,0,0,0,7.58,7.76c10.31,0,10.31-15.49,0-15.49A7.41,7.41,0,0,0,217.2,58.49Z"/><path class="cls-10" d="M266.63,67.75V56.65a5.73,5.73,0,0,0-5.93-6.08,5.85,5.85,0,0,0-6,6.19v11H252.9v-11a5.95,5.95,0,1,0-11.89,0v11h-1.84V49.22h1.73l0,3.08a6.53,6.53,0,0,1,6-3.45c2.81,0,5.78,1.28,6.86,4.58a7.16,7.16,0,0,1,6.86-4.58,7.45,7.45,0,0,1,7.76,7.8v11.1Z"/><path class="cls-11" d="M311.41,67.75V56.65a5.73,5.73,0,0,0-5.93-6.08,5.85,5.85,0,0,0-6,6.19v11h-1.84v-11a5.95,5.95,0,1,0-11.89,0v11H284V49.22h1.73l0,3.08a6.53,6.53,0,0,1,6-3.45c2.81,0,5.78,1.28,6.86,4.58a7.16,7.16,0,0,1,6.86-4.58,7.45,7.45,0,0,1,7.76,7.8v11.1Z"/><path class="cls-12" d="M317.37,58.49a9.31,9.31,0,0,1,9.41-9.56c5.21,0,9.86,3.19,9.15,10.43H319.25a7.29,7.29,0,0,0,7.54,6.86c2.44,0,5.29-1,6.68-2.81l1.31,1a10.18,10.18,0,0,1-8,3.56A9.09,9.09,0,0,1,317.37,58.49Zm16.92-.75c0-4.58-3-7.13-7.5-7.13a7.41,7.41,0,0,0-7.54,7.13Z"/><path class="cls-13" d="M367.78,67.75V56.65a5.73,5.73,0,0,0-5.93-6.08,5.85,5.85,0,0,0-6,6.19v11h-1.84v-11a5.95,5.95,0,1,0-11.89,0v11h-1.84V49.22h1.73l0,3.08a6.53,6.53,0,0,1,6-3.45c2.81,0,5.78,1.28,6.86,4.58a7.16,7.16,0,0,1,6.86-4.58,7.45,7.45,0,0,1,7.76,7.8v11.1Z"/><path class="cls-14" d="M376.59,41.5V53.27a8.2,8.2,0,0,1,7.69-4.35c5.18,0,9.3,3.45,9.3,9.56S389.5,68,384.32,68a8.72,8.72,0,0,1-7.73-4.39v4.09h-1.8V41.5Zm0,17a7.41,7.41,0,0,0,7.58,7.8c4.16,0,7.58-2.63,7.58-7.76s-3.41-7.8-7.58-7.8A7.42,7.42,0,0,0,376.63,58.45Z"/><path class="cls-15" d="M397,58.49a9.31,9.31,0,0,1,9.41-9.56c5.21,0,9.86,3.19,9.15,10.43H398.91a7.29,7.29,0,0,0,7.54,6.86c2.44,0,5.29-1,6.68-2.81l1.31,1a10.18,10.18,0,0,1-8,3.56A9.09,9.09,0,0,1,397,58.49Zm16.92-.75c0-4.58-3-7.13-7.5-7.13a7.41,7.41,0,0,0-7.54,7.13Z"/><path class="cls-16" d="M422.09,49.22l.08,3.3A6.52,6.52,0,0,1,428.31,49a7.24,7.24,0,0,1,4,1.09l-.83,1.5a6,6,0,0,0-3.15-.86,6.15,6.15,0,0,0-6.11,6.19v10.8h-1.84V49.22Z"/><path class="cls-17" d="M447.78,52.6a7.92,7.92,0,0,0-5.78-2c-2.89,0-5.66,1-5.59,3.41s3.3,3,5.63,3.38c3.3.56,7.84,1.13,7.65,5.44C449.58,67,445.34,68,442.08,68s-6.49-1.24-8.1-3.71l1.35-1.2a8.22,8.22,0,0,0,6.79,3.15c2.25,0,5.66-.6,5.78-3.53.08-2.66-3-3.19-6-3.68-3.6-.6-7.16-1.27-7.2-5s3.6-5.21,7.35-5.18a9.71,9.71,0,0,1,6.9,2.48Z"/></g></g></svg>