<svg xmlns="http://www.w3.org/2000/svg" viewBox="0 0 75.11 84.96"><defs><style>.cls-1{fill:#525793;}</style></defs><title>PDF</title><g id="Layer_2" data-name="Layer 2"><g id="Layer_1-2" data-name="Layer 1"><g id="Layer_2-2" data-name="Layer 2"><g id="Capa_1" data-name="Capa 1"><path class="cls-1" d="M43.7,58.12v3.36h1.77c2.15,0,2.15-1.28,2.15-1.71s0-1.64-2.15-1.64H43.7Z"/><path class="cls-1" d="M69.84,51.79h-5.6V16.91a3.4,3.4,0,0,0-1-2.4L49.73,1a3.4,3.4,0,0,0-2.4-1H6.68A6.69,6.69,0,0,0,0,6.68v71.6A6.69,6.69,0,0,0,6.68,85H57.56a6.69,6.69,0,0,0,6.68-6.68V71.4h5.6a5.28,5.28,0,0,0,5.28-5.28V57.06A5.28,5.28,0,0,0,69.84,51.79ZM57,77.52H7.25V7.44H42.6v10A4.38,4.38,0,0,0,47,21.82H57v30H40a5.28,5.28,0,0,0-5.28,5.28h0v9.05A5.28,5.28,0,0,0,40,71.4H57v6.14ZM49.78,59.77c0,2.4-1.66,3.88-4.32,3.88H43.69v2.06a1,1,0,0,1-1,1h-.25a1,1,0,0,1-1-1h0V56.91a1,1,0,0,1,1-1h3C48.14,55.95,49.78,57.41,49.78,59.77Zm5.46,6.91H51.79a1,1,0,0,1-1-1h0v-8.8a1,1,0,0,1,1-1h3.46a5.37,5.37,0,1,1,0,10.73Zm13.81-9.51a1,1,0,0,1-1,1h-3.9v2.31h3.33a1,1,0,0,1,1,1h0v.25a1,1,0,0,1-1,1H64.18v3.1a1,1,0,0,1-1,1H63a1,1,0,0,1-1-1h0V56.91a1,1,0,0,1,1-1h5.13a1,1,0,0,1,1,1h0v.25Z"/><path class="cls-1" d="M55.25,58.12H53V64.5h2.25a3.19,3.19,0,1,0,.24-6.37h-.23Z"/><path class="cls-1" d="M21.72,19.82c.23,2.54.34,7.37-1.48,11.17l-.44.89c-3.18,1-6.53,3-7.09,5.13a2.49,2.49,0,0,0,.55,2.33,2.85,2.85,0,0,0,2.14,1c2,0,4-2,6.21-6a57.74,57.74,0,0,1,6.42-.8c2.68,2.89,4.84,4.3,6.61,4.3a2.93,2.93,0,0,0,2.62-1.63,2.43,2.43,0,0,0,0-2.29c-1.11-2.12-5.43-3-8-3.18q-.34-.39-.69-.8C25.89,26.7,24.8,22,24.4,19.52c-.05-.56-.11-1-.16-1.38-.17-1.3-.95-1.5-1.39-1.5a1.32,1.32,0,0,0-1,.49,1.7,1.7,0,0,0-.31,1.39C21.58,18.88,21.64,19.35,21.72,19.82ZM15.51,37.46a2.93,2.93,0,0,1,.46-.83,3.34,3.34,0,0,1,2.2-1.15,12.22,12.22,0,0,1-2.66,2ZM34.5,35a5.53,5.53,0,0,1-2.68-1.33A6.06,6.06,0,0,1,34.5,35ZM24.08,27.84a19.4,19.4,0,0,0,1.66,2.91l-2.57.34a19.22,19.22,0,0,0,.92-3.24Z"/></g></g></g></g></svg>