<svg xmlns="http://www.w3.org/2000/svg" viewBox="0 0 100 100"><defs><style>.cls-1{fill:#1a1a1a;}.cls-2{fill:#383838;opacity:0.2;}</style></defs><title>Profile Icon</title><g id="Layer_2" data-name="Layer 2"><g id="Layer_1-2" data-name="Layer 1"><path class="cls-1" d="M50,0a50,50,0,1,0,50,50A50,50,0,0,0,50,0Zm0,96.15A46.15,46.15,0,1,1,96.15,50,46.16,46.16,0,0,1,50,96.15Z"/><ellipse class="cls-2" cx="50" cy="50" rx="46.15" ry="46.15"/><path class="cls-1" d="M56.61,57.69a14.65,14.65,0,1,0-13.35,0A23.42,23.42,0,0,0,28.73,70h4.38a19.69,19.69,0,0,1,33.62,0h4.38A23.35,23.35,0,0,0,56.61,57.69Zm-17.46-13A10.77,10.77,0,1,1,50,55.38,10.77,10.77,0,0,1,39.15,44.65v0Z"/></g></g></svg>