<svg xmlns="http://www.w3.org/2000/svg" viewBox="0 0 101.45 101.57"><defs><style>.cls-1{fill:#4f5a8d;}.cls-2{fill:#faaf3b;}.cls-3{fill:#fad570;}</style></defs><title>School Total Upload Student New Website</title><g id="Layer_2" data-name="Layer 2"><g id="Layer_1-2" data-name="Layer 1"><path class="cls-1" d="M95.84,19.67c-.73,0-1-.11-1-.92.05-3.78,0-7.57,0-11.35,0-.64-.12-.88-.82-.85-1.67.06-3.34,0-5,0-.56,0-.76-.12-.74-.72,0-1.63,0-3.27,0-4.91,0-.75-.15-1-.93-1q-40,0-80,0c-.75,0-1,.16-1,.93,0,8,0,16,0,23.93,0,1.33,0,1.33-1.33,1.34A4.91,4.91,0,0,0,0,31.36Q0,54,0,76.67a4.9,4.9,0,0,0,5.21,5.17h8.9a1.09,1.09,0,0,1,1.09.51,13,13,0,0,0,11.38,6c5.59,0,11.18,0,16.77,0,.65,0,.85.15.84.83,0,3.07,0,6.14,0,9.2,0,1-.45,2.44.19,2.91s2,.12,3.07.13a1.38,1.38,0,0,0,.29-1.05c0-6.92,0-13.84,0-20.76,0-1.1-.24-1.32-1.33-1.35-1.3,0-2.59,0-3.89,0s-1.46-.51-.89-1.48q4-6.73,8-13.42c.67-1.1,1.44-1.1,2.1,0Q55.85,70,59.83,76.77c.57,1,.28,1.44-.89,1.48s-2.38,0-3.58,0c-1.46,0-1.64.19-1.64,1.66q0,10.12,0,20.25a1.63,1.63,0,0,0,.29,1.26c.82,0,1.64,0,2.45,0s.84-.18.83-.84c0-3.78,0-7.57,0-11.35,0-.78.2-.94.95-.94q10.08,0,20.15,0A9.59,9.59,0,0,0,87.5,82.5a1,1,0,0,1,1-.68c2.45,0,4.91,0,7.36,0,3.61,0,5.55-1.94,5.55-5.55v-51C101.45,21.57,99.55,19.65,95.84,19.67ZM90.61,9.81c.85,0,1.07.19,1,1-.06,2.66,0,5.32,0,8,0,.68-.19.83-.84.83-6,0-11.93,0-17.9,0a5.17,5.17,0,0,0-5.14,3.15c-.41.86-.91,1.68-1.26,2.56a1.23,1.23,0,0,1-1.37.87c-8.11,0-16.23,0-24.34,0-7.84,0-15.68,0-23.52,0-.76,0-1-.17-.94-.94q.06-7.26,0-14.52c0-.77.19-.94.95-.94q18.35,0,36.71,0T90.61,9.81Zm-12,75.29H68.46c-3.44,0-6.89,0-10.33,0-.73,0-1-.2-.88-.9s-.32-1.79.17-2.24,1.42-.13,2.16-.14a4.15,4.15,0,0,0,3.65-6.25q-4.3-7.41-8.82-14.7a4.38,4.38,0,0,0-7.4,0q-4.51,7.29-8.81,14.7a4.15,4.15,0,0,0,3.66,6.25c.74,0,1.73-.32,2.16.14s.07,1.49.16,2.26-.17.89-.88.89c-5.73,0-11.45,0-17.18,0a9.81,9.81,0,1,1,.62-19.6,9.64,9.64,0,0,1,2,.32c.68.18,1,0,1.12-.68a16.33,16.33,0,0,1,28.71-6.54,1.74,1.74,0,0,0,2.09.77c8-1.9,15.2,3.21,16.14,11.46.13,1.16.56,1.23,1.5,1.22a6.53,6.53,0,1,1,.26,13.07Zm8.2-68.72c1.58,0,1.58,0,1.58-1.6s0-1.68-1.7-1.68-1.58,0-1.58,1.59S85.09,16.38,86.78,16.38Zm-36-3.27h-29c-2.16,0-2.11,0-2.18,2.14,0,.93.23,1.15,1.15,1.15q29.4,0,58.79,0c2.26,0,2.22,0,2.28-2.25,0-.85-.2-1-1-1C70.8,13.12,60.82,13.11,50.83,13.11Zm13.59,6.52q-17.94,0-35.88,0c-2.37,0-2.33,0-2.38,2.35,0,.77.19.95.95.94,6.2,0,12.41,0,18.61,0H63.2c2.26,0,2.21,0,2.28-2.25C65.5,19.82,65.27,19.63,64.42,19.63Zm-43.1,0c-1.69,0-1.69,0-1.69,1.69s0,1.58,1.59,1.58,1.69,0,1.69-1.69S22.91,19.65,21.32,19.65Z"/><path class="cls-2" d="M47.45,101.44c0-7.32,0-14.65,0-22,0-.81-.25-1-1-.92-1.46.05-2.93,0-4.39,0-1.1,0-1.49-.67-.93-1.6q4.21-7.05,8.46-14.08a1.19,1.19,0,0,1,2.19,0q4.25,7,8.46,14.08c.56.94.17,1.59-.94,1.61-1.46,0-2.93,0-4.39,0-.73,0-1,.12-1,.92,0,7.32,0,14.65,0,22Z"/><path class="cls-2" d="M13.46,78.56c-2.89,0-5.72,0-8.54,0a1.61,1.61,0,0,1-1.64-1.82c0-2.22,0-4.43,0-6.65q0-16.51,0-33c0-.82.15-1.07,1-1.07q46.42,0,92.84,0c.95,0,1.08.28,1.07,1.13q0,19.58,0,39.16c0,1.79-.5,2.28-2.31,2.28-2.22,0-4.43,0-6.65,0-.6,0-.85-.07-.91-.79A9.73,9.73,0,0,0,80.8,69a1.3,1.3,0,0,1-1.17-1.1,16,16,0,0,0-16.4-12.19,5.54,5.54,0,0,1-4.47-1.67,19.55,19.55,0,0,0-31.11,7.32,1.08,1.08,0,0,1-1.23.84,13,13,0,0,0-13,16A2,2,0,0,1,13.46,78.56Z"/><path class="cls-3" d="M50.62,32.74q-23,0-45.92,0c-.45,0-1.31.6-1.43-.49-.17-1.65.32-2.57,1.43-2.73a7.21,7.21,0,0,1,1,0q30.63,0,61.26,0a1.47,1.47,0,0,0,1.62-1c.65-1.5,1.45-2.92,2.16-4.39a1.93,1.93,0,0,1,1.94-1.2c7.84,0,15.68,0,23.52,0,1.34,0,1.94.6,1.95,1.93,0,2.28,0,4.57,0,6.85,0,.85-.19,1.06-1,1.06q-18.66,0-37.33,0Z"/><path class="cls-2" d="M47.56,3.29q18.25,0,36.5,0c.85,0,1.08.19,1.05,1-.06,2.24,0,2.25-2.29,2.25q-34.3,0-68.6,0c-.92,0-1.17.21-1.16,1.15,0,5.86,0,11.72,0,17.58,0,.76-.18,1-.94.95-2.35,0-2.35,0-2.35-2.39,0-6.51,0-13,0-19.53,0-.87.24-1,1.06-1Q29.21,3.31,47.56,3.29Z"/><path class="cls-1" d="M73.66,26.2c1.61,0,1.61,0,1.61,1.56s0,1.71-1.66,1.71S72,29.47,72,27.91,72,26.2,73.66,26.2Z"/><path class="cls-1" d="M80.26,29.47c-1.72,0-1.72,0-1.72-1.76,0-1.51,0-1.51,1.55-1.51,1.72,0,1.72,0,1.72,1.76C81.82,29.47,81.82,29.47,80.26,29.47Z"/><path class="cls-1" d="M86.74,26.2c1.62,0,1.62,0,1.62,1.65s0,1.62-1.65,1.62-1.62,0-1.62-1.65S85.09,26.2,86.74,26.2Z"/><path class="cls-1" d="M93.27,26.2c1.63,0,1.63,0,1.63,1.64s0,1.63-1.64,1.63-1.63,0-1.63-1.64S91.63,26.2,93.27,26.2Z"/><path class="cls-1" d="M69.55,41.13a18.36,18.36,0,0,1,3-.21,4.76,4.76,0,0,1,3,.79A2.9,2.9,0,0,1,76.67,44a3.17,3.17,0,0,1-.91,2.36,4.6,4.6,0,0,1-3.22,1,5.63,5.63,0,0,1-.77,0v3.55H69.55Zm2.22,4.51a3.43,3.43,0,0,0,.75.06c1.19,0,1.93-.6,1.93-1.62s-.63-1.46-1.75-1.46a3.82,3.82,0,0,0-.93.09Z"/><path class="cls-1" d="M78.1,41.13a20,20,0,0,1,3-.21A6.38,6.38,0,0,1,85.2,42a4.39,4.39,0,0,1,1.68,3.74,5,5,0,0,1-1.65,4A7.12,7.12,0,0,1,80.65,51a19.42,19.42,0,0,1-2.55-.15Zm2.25,8.1a4.12,4.12,0,0,0,.78,0c2,0,3.36-1.1,3.36-3.47a2.85,2.85,0,0,0-3.12-3.15,4.67,4.67,0,0,0-1,.09Z"/><path class="cls-1" d="M88.35,41h6.07v1.84H90.6v2.27h3.56v1.83H90.6v4H88.35Z"/></g></g></svg>