<svg xmlns="http://www.w3.org/2000/svg" viewBox="0 0 102 101.99"><defs><style>.cls-1{fill:#4f5a8d;}.cls-2{fill:#fff;}.cls-3{fill:#fbb03b;}.cls-4{fill:#f9af3b;}.cls-5{fill:#fab03b;}.cls-6{fill:#f8ae3a;}.cls-7{fill:#50588f;}</style></defs><title>School Library New Student Website</title><g id="Layer_2" data-name="Layer 2"><g id="Layer_1-2" data-name="Layer 1"><path class="cls-1" d="M20.74,70.25c-.21,0-.41,0-.61,0H13.88a7.9,7.9,0,0,0-1.46,0,1.33,1.33,0,0,0-1.19,1,2.33,2.33,0,0,0-.08.69v4.28h0v1.47c0,1,0,2,0,3a1.45,1.45,0,0,0,1.59,1.55h3.73c1.39,0,2.78,0,4.16,0a1.37,1.37,0,0,0,1.52-1.43q0-4.59,0-9.2C22.15,70.8,21.63,70.35,20.74,70.25Zm-1.7,9c-.24.28-.76.08-1.16.1s-.81,0-1.22,0H14.53c-.23,0-.34,0-.33-.29a5.91,5.91,0,0,0,0-.94c0-.31.1-.4.42-.4,1,0,2,0,3,0h1.16c.2,0,.3.08.28.28v.11C19.09,78.52,19.27,79,19,79.26Zm0-4.58c-.25.27-.77.07-1.17.09s-.82,0-1.22,0c-.68,0-1.35,0-2,0-.29,0-.47,0-.43-.38s-.16-.88.08-1.14.77-.09,1.17-.09c1.08,0,2.16,0,3.24,0,.31,0,.46.07.43.39S19.28,74.42,19,74.68Z"/><path class="cls-1" d="M11.16,64c0-.84,0-1.68,0-2.52s0-1.72,0-2.58h0c0-1.58,0-3.16,0-4.75a3,3,0,0,1,.11-.87A1.76,1.76,0,0,1,12.64,52a4.41,4.41,0,0,1,1-.11h6a4.86,4.86,0,0,1,.73,0,1.85,1.85,0,0,1,1.76,1.85c0,.18,0,.35,0,.53v9.2a5,5,0,0,1,0,.7,1.39,1.39,0,0,1-1.38,1.25,4.67,4.67,0,0,1-.49,0H12.74A1.46,1.46,0,0,1,11.16,64Z"/><path class="cls-1" d="M36.52,53.89a1.85,1.85,0,0,0-1.84-2,2.74,2.74,0,0,0-.49,0q-3.16,0-6.31,0H27.7c-1.45.07-2.16.77-2.17,2.15,0,2.13,0,4.26,0,6.39,0,.52,0,.52.58.52h10c.26,0,.41,0,.4-.34C36.52,58.38,36.54,56.13,36.52,53.89Zm-3,3.8c0,.22-.07.3-.31.3H29c-.27,0-.35-.09-.34-.34,0-.82,0-1.64,0-2.46,0-.27.08-.37.39-.37,1.36,0,2.73,0,4.09,0,.28,0,.41,0,.4.35C33.46,56,33.47,56.85,33.48,57.69Z"/><path class="cls-1" d="M39.9,47.21A11.09,11.09,0,1,1,51,57.86,10.85,10.85,0,0,1,39.9,47.21Z"/><path d="M61.37,74.17a2,2,0,0,0-1.89-2,2.07,2.07,0,0,0-2.31,1.72,2.83,2.83,0,0,0,0,.58v13a3.15,3.15,0,0,0,0,.53,2.12,2.12,0,0,0,4.21-.34q0-3.34,0-6.68C61.38,78.71,61.39,76.44,61.37,74.17Zm-1.19,13.2a3.53,3.53,0,0,1,0,.46.88.88,0,0,1-.91.78.89.89,0,0,1-.92-.77,3.64,3.64,0,0,1,0-.47V74.55a3.65,3.65,0,0,1,0-.47,1,1,0,0,1,.95-.83.93.93,0,0,1,.88.82,3.68,3.68,0,0,1,0,.47Z"/><path class="cls-1" d="M36.82,79.25a2.79,2.79,0,1,0,2.89,2.81A2.85,2.85,0,0,0,36.82,79.25Zm0,3.8a1,1,0,1,1,1.09-1A1,1,0,0,1,36.78,83.05Zm2.08,2.73c-.65,0-1.31,0-2,0s-1.51,0-2.27,0a1,1,0,0,0-1,1.11,1,1,0,0,0,1.06.87h4.23a1,1,0,1,0,0-2Zm.08,3.29c-1.45,0-2.9,0-4.35,0a1,1,0,0,0-.89.52A1,1,0,0,0,34.62,91c.71,0,1.43,0,2.14,0s1.47,0,2.21,0a1,1,0,1,0,0-2Zm0,0c-1.45,0-2.9,0-4.35,0a1,1,0,0,0-.89.52A1,1,0,0,0,34.62,91c.71,0,1.43,0,2.14,0s1.47,0,2.21,0a1,1,0,1,0,0-2Zm-.08-3.29c-.65,0-1.31,0-2,0s-1.51,0-2.27,0a1,1,0,0,0-1,1.11,1,1,0,0,0,1.06.87h4.23a1,1,0,1,0,0-2Zm-2-6.53a2.79,2.79,0,1,0,2.89,2.81A2.85,2.85,0,0,0,36.82,79.25Zm0,3.8a1,1,0,1,1,1.09-1A1,1,0,0,1,36.78,83.05Zm0-3.8a2.79,2.79,0,1,0,2.89,2.81A2.85,2.85,0,0,0,36.82,79.25Zm0,3.8a1,1,0,1,1,1.09-1A1,1,0,0,1,36.78,83.05Zm2.08,2.73c-.65,0-1.31,0-2,0s-1.51,0-2.27,0a1,1,0,0,0-1,1.11,1,1,0,0,0,1.06.87h4.23a1,1,0,1,0,0-2Zm.08,3.29c-1.45,0-2.9,0-4.35,0a1,1,0,0,0-.89.52A1,1,0,0,0,34.62,91c.71,0,1.43,0,2.14,0s1.47,0,2.21,0a1,1,0,1,0,0-2Zm0,0c-1.45,0-2.9,0-4.35,0a1,1,0,0,0-.89.52A1,1,0,0,0,34.62,91c.71,0,1.43,0,2.14,0s1.47,0,2.21,0a1,1,0,1,0,0-2Zm-.08-3.29c-.65,0-1.31,0-2,0s-1.51,0-2.27,0a1,1,0,0,0-1,1.11,1,1,0,0,0,1.06.87h4.23a1,1,0,1,0,0-2Zm-2-6.53a2.79,2.79,0,1,0,2.89,2.81A2.85,2.85,0,0,0,36.82,79.25Zm0,3.8a1,1,0,1,1,1.09-1A1,1,0,0,1,36.78,83.05Zm0-3.8a2.79,2.79,0,1,0,2.89,2.81A2.85,2.85,0,0,0,36.82,79.25Zm0,3.8a1,1,0,1,1,1.09-1A1,1,0,0,1,36.78,83.05Zm2.08,2.73c-.65,0-1.31,0-2,0s-1.51,0-2.27,0a1,1,0,0,0-1,1.11,1,1,0,0,0,1.06.87h4.23a1,1,0,1,0,0-2Zm.08,3.29c-1.45,0-2.9,0-4.35,0a1,1,0,0,0-.89.52A1,1,0,0,0,34.62,91c.71,0,1.43,0,2.14,0s1.47,0,2.21,0a1,1,0,1,0,0-2Zm0,0c-1.45,0-2.9,0-4.35,0a1,1,0,0,0-.89.52A1,1,0,0,0,34.62,91c.71,0,1.43,0,2.14,0s1.47,0,2.21,0a1,1,0,1,0,0-2Zm-.08-3.29c-.65,0-1.31,0-2,0s-1.51,0-2.27,0a1,1,0,0,0-1,1.11,1,1,0,0,0,1.06.87h4.23a1,1,0,1,0,0-2Zm-2-6.53a2.79,2.79,0,1,0,2.89,2.81A2.85,2.85,0,0,0,36.82,79.25Zm0,3.8a1,1,0,1,1,1.09-1A1,1,0,0,1,36.78,83.05Zm0-3.8a2.79,2.79,0,1,0,2.89,2.81A2.85,2.85,0,0,0,36.82,79.25Zm0,3.8a1,1,0,1,1,1.09-1A1,1,0,0,1,36.78,83.05Zm2.08,2.73c-.65,0-1.31,0-2,0s-1.51,0-2.27,0a1,1,0,0,0-1,1.11,1,1,0,0,0,1.06.87h4.23a1,1,0,1,0,0-2Zm.08,3.29c-1.45,0-2.9,0-4.35,0a1,1,0,0,0-.89.52A1,1,0,0,0,34.62,91c.71,0,1.43,0,2.14,0s1.47,0,2.21,0a1,1,0,1,0,0-2Zm0,0c-1.45,0-2.9,0-4.35,0a1,1,0,0,0-.89.52A1,1,0,0,0,34.62,91c.71,0,1.43,0,2.14,0s1.47,0,2.21,0a1,1,0,1,0,0-2Zm-.08-3.29c-.65,0-1.31,0-2,0s-1.51,0-2.27,0a1,1,0,0,0-1,1.11,1,1,0,0,0,1.06.87h4.23a1,1,0,1,0,0-2Zm-2-6.53a2.79,2.79,0,1,0,2.89,2.81A2.85,2.85,0,0,0,36.82,79.25Zm0,3.8a1,1,0,1,1,1.09-1A1,1,0,0,1,36.78,83.05Zm0-3.8a2.79,2.79,0,1,0,2.89,2.81A2.85,2.85,0,0,0,36.82,79.25Zm0,3.8a1,1,0,1,1,1.09-1A1,1,0,0,1,36.78,83.05Zm2.08,2.73c-.65,0-1.31,0-2,0s-1.51,0-2.27,0a1,1,0,0,0-1,1.11,1,1,0,0,0,1.06.87h4.23a1,1,0,1,0,0-2Zm.08,3.29c-1.45,0-2.9,0-4.35,0a1,1,0,0,0-.89.52A1,1,0,0,0,34.62,91c.71,0,1.43,0,2.14,0s1.47,0,2.21,0a1,1,0,1,0,0-2Zm0,0c-1.45,0-2.9,0-4.35,0a1,1,0,0,0-.89.52A1,1,0,0,0,34.62,91c.71,0,1.43,0,2.14,0s1.47,0,2.21,0a1,1,0,1,0,0-2Zm-.08-3.29c-.65,0-1.31,0-2,0s-1.51,0-2.27,0a1,1,0,0,0-1,1.11,1,1,0,0,0,1.06.87h4.23a1,1,0,1,0,0-2Zm-2-6.53a2.79,2.79,0,1,0,2.89,2.81A2.85,2.85,0,0,0,36.82,79.25Zm0,3.8a1,1,0,1,1,1.09-1A1,1,0,0,1,36.78,83.05Zm0-3.8a2.79,2.79,0,1,0,2.89,2.81A2.85,2.85,0,0,0,36.82,79.25Zm0,3.8a1,1,0,1,1,1.09-1A1,1,0,0,1,36.78,83.05Zm2.08,2.73c-.65,0-1.31,0-2,0s-1.51,0-2.27,0a1,1,0,0,0-1,1.11,1,1,0,0,0,1.06.87h4.23a1,1,0,1,0,0-2Zm.08,3.29c-1.45,0-2.9,0-4.35,0a1,1,0,0,0-.89.52A1,1,0,0,0,34.62,91c.71,0,1.43,0,2.14,0s1.47,0,2.21,0a1,1,0,1,0,0-2Zm0,0c-1.45,0-2.9,0-4.35,0a1,1,0,0,0-.89.52A1,1,0,0,0,34.62,91c.71,0,1.43,0,2.14,0s1.47,0,2.21,0a1,1,0,1,0,0-2Zm-.08-3.29c-.65,0-1.31,0-2,0s-1.51,0-2.27,0a1,1,0,0,0-1,1.11,1,1,0,0,0,1.06.87h4.23a1,1,0,1,0,0-2Zm-2-6.53a2.79,2.79,0,1,0,2.89,2.81A2.85,2.85,0,0,0,36.82,79.25Zm0,3.8a1,1,0,1,1,1.09-1A1,1,0,0,1,36.78,83.05Zm0-3.8a2.79,2.79,0,1,0,2.89,2.81A2.85,2.85,0,0,0,36.82,79.25Zm0,3.8a1,1,0,1,1,1.09-1A1,1,0,0,1,36.78,83.05Zm2.08,2.73c-.65,0-1.31,0-2,0s-1.51,0-2.27,0a1,1,0,0,0-1,1.11,1,1,0,0,0,1.06.87h4.23a1,1,0,1,0,0-2Zm.08,3.29c-1.45,0-2.9,0-4.35,0a1,1,0,0,0-.89.52A1,1,0,0,0,34.62,91c.71,0,1.43,0,2.14,0s1.47,0,2.21,0a1,1,0,1,0,0-2Zm0,0c-1.45,0-2.9,0-4.35,0a1,1,0,0,0-.89.52A1,1,0,0,0,34.62,91c.71,0,1.43,0,2.14,0s1.47,0,2.21,0a1,1,0,1,0,0-2Zm-.08-3.29c-.65,0-1.31,0-2,0s-1.51,0-2.27,0a1,1,0,0,0-1,1.11,1,1,0,0,0,1.06.87h4.23a1,1,0,1,0,0-2Zm-2-6.53a2.79,2.79,0,1,0,2.89,2.81A2.85,2.85,0,0,0,36.82,79.25Zm0,3.8a1,1,0,1,1,1.09-1A1,1,0,0,1,36.78,83.05Zm0-3.8a2.79,2.79,0,1,0,2.89,2.81A2.85,2.85,0,0,0,36.82,79.25Zm0,3.8a1,1,0,1,1,1.09-1A1,1,0,0,1,36.78,83.05Zm2.08,2.73c-.65,0-1.31,0-2,0s-1.51,0-2.27,0a1,1,0,0,0-1,1.11,1,1,0,0,0,1.06.87h4.23a1,1,0,1,0,0-2Zm.08,3.29c-1.45,0-2.9,0-4.35,0a1,1,0,0,0-.89.52A1,1,0,0,0,34.62,91c.71,0,1.43,0,2.14,0s1.47,0,2.21,0a1,1,0,1,0,0-2Zm0,0c-1.45,0-2.9,0-4.35,0a1,1,0,0,0-.89.52A1,1,0,0,0,34.62,91c.71,0,1.43,0,2.14,0s1.47,0,2.21,0a1,1,0,1,0,0-2Zm-4.3-1.31h4.23a1,1,0,1,0,0-2c-.65,0-1.31,0-2,0s-1.51,0-2.27,0a1,1,0,0,0-1,1.11A1,1,0,0,0,34.64,87.76Zm2.18-2.94A2.79,2.79,0,1,0,33.92,82,2.86,2.86,0,0,0,36.82,84.82Zm0-3.83a1,1,0,1,1-1,1A1.05,1.05,0,0,1,36.79,81ZM70.84,91.9c-.34,0-.69,0-1,0s-.32-.09-.31-.31a2.77,2.77,0,0,0,0-.41V75c0-.37,0-.74,0-1.11a2,2,0,0,0-2-1.93,10.13,10.13,0,0,0-2.84.15c0-.86,0-1.67,0-2.49A2.59,2.59,0,0,0,62,67.06q-2.82-.07-5.64,0a2.58,2.58,0,0,0-2.6,2.64v1.94c0,.14,0,.3-.05.42a12.28,12.28,0,0,0-3.73,0v-.6c0-2.09,0-4.18,0-6.27a1.63,1.63,0,0,0-1.83-1.72c-.78.06-1.58,0-2.4,0,0-.3,0-.55,0-.8a1.51,1.51,0,0,0-1.7-1.64c-.65,0-1.3,0-2,0a1.59,1.59,0,0,0-1.71,1.64c0,2,0,4,0,5.93a1.64,1.64,0,0,1,0,.58,7.16,7.16,0,0,0-.9-.18c-1.8,0-3.6,0-5.39,0a2.07,2.07,0,0,0-1.9,1.18A2.37,2.37,0,0,0,32,71.34V91.69c0,.15-.06.21-.22.21s-.61,0-.91,0a2.45,2.45,0,0,0-2.48,2.41c0,.36,0,.71,0,1.06a2.38,2.38,0,0,0,1.79,2.14,4,4,0,0,0,1,.1H70.62c.15,0,.29,0,.43,0a2.45,2.45,0,0,0,2.37-2.39v-.83A2.45,2.45,0,0,0,70.84,91.9ZM64.67,74.36c0-.14,0-.27,0-.41a.85.85,0,0,1,.84-.85,15.87,15.87,0,0,1,2,0,.84.84,0,0,1,.84.79,3.54,3.54,0,0,1,0,.46v17a.85.85,0,0,1-.08.55H64.9c-.2,0-.23-.09-.23-.25ZM55,69.44a1.47,1.47,0,0,1,1.77-1.22q2.43-.06,4.86,0a1.47,1.47,0,0,1,1.78,1.33,2.31,2.31,0,0,1,0,.87q0,10.26,0,20.53c0,.21,0,.43,0,.64s-.11.33-.37.33H55.3c-.37,0-.38,0-.38-.43,0-3.46,0-6.92,0-10.38s0-7.12,0-10.67c0-.19,0-.38,0-.57A1,1,0,0,1,55,69.44Zm-9.15-4c0-.14,0-.27,0-.41s.11-.44.43-.44c.69,0,1.39,0,2.08,0,.31,0,.46.12.46.42V91.33c0,.64.08.57-.58.57s-1.31,0-2,0c-.42,0-.43,0-.43-.42ZM41.63,91.23V62.85c0-.63,0-.66.69-.66s1.19,0,1.78,0c.42,0,.48.08.5.49,0,.14,0,.28,0,.41q0,14.09,0,28.15c0,.75.13.65-.66.66s-1.35,0-2,0c-.2,0-.31,0-.29-.26S41.63,91.37,41.63,91.23ZM33.2,71.45a1,1,0,0,1,0-.17c0-.82.31-1.12,1.15-1.09,1.61,0,3.21,0,4.82,0,.72,0,1,.1,1.17.74a4.1,4.1,0,0,1,0,1V91.4c0,.5,0,.51-.54.51H33.72c-.52,0-.52,0-.52-.46Q33.19,81.45,33.2,71.45Zm39,23.93A1.28,1.28,0,0,1,71,96.46c-.16,0-.32,0-.49,0H31.38c-.16,0-.33,0-.49,0a1.3,1.3,0,0,1-1.32-1.21,7.36,7.36,0,0,1,0-.94,1.29,1.29,0,0,1,1.34-1.25c.15,0,.29,0,.43,0H70.49c.18,0,.37,0,.55,0a1.27,1.27,0,0,1,1.16,1A3.93,3.93,0,0,1,72.21,95.38ZM34.62,91c.71,0,1.43,0,2.14,0s1.47,0,2.21,0a1,1,0,1,0,0-2c-1.45,0-2.9,0-4.35,0a1,1,0,0,0-.89.52A1,1,0,0,0,34.62,91Zm0-3.28h4.23a1,1,0,1,0,0-2c-.65,0-1.31,0-2,0s-1.51,0-2.27,0a1,1,0,0,0-1,1.11A1,1,0,0,0,34.64,87.76Zm2.18-2.94A2.79,2.79,0,1,0,33.92,82,2.86,2.86,0,0,0,36.82,84.82Zm0-3.83a1,1,0,1,1-1,1A1.05,1.05,0,0,1,36.79,81Zm0-1.74a2.79,2.79,0,1,0,2.89,2.81A2.85,2.85,0,0,0,36.82,79.25Zm0,3.8a1,1,0,1,1,1.09-1A1,1,0,0,1,36.78,83.05Zm2.08,2.73c-.65,0-1.31,0-2,0s-1.51,0-2.27,0a1,1,0,0,0-1,1.11,1,1,0,0,0,1.06.87h4.23a1,1,0,1,0,0-2Zm.08,3.29c-1.45,0-2.9,0-4.35,0a1,1,0,0,0-.89.52A1,1,0,0,0,34.62,91c.71,0,1.43,0,2.14,0s1.47,0,2.21,0a1,1,0,1,0,0-2Zm0,0c-1.45,0-2.9,0-4.35,0a1,1,0,0,0-.89.52A1,1,0,0,0,34.62,91c.71,0,1.43,0,2.14,0s1.47,0,2.21,0a1,1,0,1,0,0-2Zm-.08-3.29c-.65,0-1.31,0-2,0s-1.51,0-2.27,0a1,1,0,0,0-1,1.11,1,1,0,0,0,1.06.87h4.23a1,1,0,1,0,0-2Zm-2-6.53a2.79,2.79,0,1,0,2.89,2.81A2.85,2.85,0,0,0,36.82,79.25Zm0,3.8a1,1,0,1,1,1.09-1A1,1,0,0,1,36.78,83.05Zm0-3.8a2.79,2.79,0,1,0,2.89,2.81A2.85,2.85,0,0,0,36.82,79.25Zm0,3.8a1,1,0,1,1,1.09-1A1,1,0,0,1,36.78,83.05Zm2.08,2.73c-.65,0-1.31,0-2,0s-1.51,0-2.27,0a1,1,0,0,0-1,1.11,1,1,0,0,0,1.06.87h4.23a1,1,0,1,0,0-2Zm.08,3.29c-1.45,0-2.9,0-4.35,0a1,1,0,0,0-.89.52A1,1,0,0,0,34.62,91c.71,0,1.43,0,2.14,0s1.47,0,2.21,0a1,1,0,1,0,0-2Zm0,0c-1.45,0-2.9,0-4.35,0a1,1,0,0,0-.89.52A1,1,0,0,0,34.62,91c.71,0,1.43,0,2.14,0s1.47,0,2.21,0a1,1,0,1,0,0-2Zm-.08-3.29c-.65,0-1.31,0-2,0s-1.51,0-2.27,0a1,1,0,0,0-1,1.11,1,1,0,0,0,1.06.87h4.23a1,1,0,1,0,0-2Zm-2-6.53a2.79,2.79,0,1,0,2.89,2.81A2.85,2.85,0,0,0,36.82,79.25Zm0,3.8a1,1,0,1,1,1.09-1A1,1,0,0,1,36.78,83.05Zm0-3.8a2.79,2.79,0,1,0,2.89,2.81A2.85,2.85,0,0,0,36.82,79.25Zm0,3.8a1,1,0,1,1,1.09-1A1,1,0,0,1,36.78,83.05Zm2.08,2.73c-.65,0-1.31,0-2,0s-1.51,0-2.27,0a1,1,0,0,0-1,1.11,1,1,0,0,0,1.06.87h4.23a1,1,0,1,0,0-2Zm.08,3.29c-1.45,0-2.9,0-4.35,0a1,1,0,0,0-.89.52A1,1,0,0,0,34.62,91c.71,0,1.43,0,2.14,0s1.47,0,2.21,0a1,1,0,1,0,0-2Zm0,0c-1.45,0-2.9,0-4.35,0a1,1,0,0,0-.89.52A1,1,0,0,0,34.62,91c.71,0,1.43,0,2.14,0s1.47,0,2.21,0a1,1,0,1,0,0-2Zm-.08-3.29c-.65,0-1.31,0-2,0s-1.51,0-2.27,0a1,1,0,0,0-1,1.11,1,1,0,0,0,1.06.87h4.23a1,1,0,1,0,0-2Zm-2-6.53a2.79,2.79,0,1,0,2.89,2.81A2.85,2.85,0,0,0,36.82,79.25Zm0,3.8a1,1,0,1,1,1.09-1A1,1,0,0,1,36.78,83.05Zm0-3.8a2.79,2.79,0,1,0,2.89,2.81A2.85,2.85,0,0,0,36.82,79.25Zm0,3.8a1,1,0,1,1,1.09-1A1,1,0,0,1,36.78,83.05Zm2.08,2.73c-.65,0-1.31,0-2,0s-1.51,0-2.27,0a1,1,0,0,0-1,1.11,1,1,0,0,0,1.06.87h4.23a1,1,0,1,0,0-2Zm.08,3.29c-1.45,0-2.9,0-4.35,0a1,1,0,0,0-.89.52A1,1,0,0,0,34.62,91c.71,0,1.43,0,2.14,0s1.47,0,2.21,0a1,1,0,1,0,0-2Zm0,0c-1.45,0-2.9,0-4.35,0a1,1,0,0,0-.89.52A1,1,0,0,0,34.62,91c.71,0,1.43,0,2.14,0s1.47,0,2.21,0a1,1,0,1,0,0-2Zm-.08-3.29c-.65,0-1.31,0-2,0s-1.51,0-2.27,0a1,1,0,0,0-1,1.11,1,1,0,0,0,1.06.87h4.23a1,1,0,1,0,0-2Zm-2-6.53a2.79,2.79,0,1,0,2.89,2.81A2.85,2.85,0,0,0,36.82,79.25Zm0,3.8a1,1,0,1,1,1.09-1A1,1,0,0,1,36.78,83.05Zm0-3.8a2.79,2.79,0,1,0,2.89,2.81A2.85,2.85,0,0,0,36.82,79.25Zm0,3.8a1,1,0,1,1,1.09-1A1,1,0,0,1,36.78,83.05Zm2.08,2.73c-.65,0-1.31,0-2,0s-1.51,0-2.27,0a1,1,0,0,0-1,1.11,1,1,0,0,0,1.06.87h4.23a1,1,0,1,0,0-2Zm.08,3.29c-1.45,0-2.9,0-4.35,0a1,1,0,0,0-.89.52A1,1,0,0,0,34.62,91c.71,0,1.43,0,2.14,0s1.47,0,2.21,0a1,1,0,1,0,0-2Zm0,0c-1.45,0-2.9,0-4.35,0a1,1,0,0,0-.89.52A1,1,0,0,0,34.62,91c.71,0,1.43,0,2.14,0s1.47,0,2.21,0a1,1,0,1,0,0-2Zm-.08-3.29c-.65,0-1.31,0-2,0s-1.51,0-2.27,0a1,1,0,0,0-1,1.11,1,1,0,0,0,1.06.87h4.23a1,1,0,1,0,0-2Zm-2-6.53a2.79,2.79,0,1,0,2.89,2.81A2.85,2.85,0,0,0,36.82,79.25Zm0,3.8a1,1,0,1,1,1.09-1A1,1,0,0,1,36.78,83.05Zm0-3.8a2.79,2.79,0,1,0,2.89,2.81A2.85,2.85,0,0,0,36.82,79.25Zm0,3.8a1,1,0,1,1,1.09-1A1,1,0,0,1,36.78,83.05Zm2.08,2.73c-.65,0-1.31,0-2,0s-1.51,0-2.27,0a1,1,0,0,0-1,1.11,1,1,0,0,0,1.06.87h4.23a1,1,0,1,0,0-2Zm.08,3.29c-1.45,0-2.9,0-4.35,0a1,1,0,0,0-.89.52A1,1,0,0,0,34.62,91c.71,0,1.43,0,2.14,0s1.47,0,2.21,0a1,1,0,1,0,0-2Zm0,0c-1.45,0-2.9,0-4.35,0a1,1,0,0,0-.89.52A1,1,0,0,0,34.62,91c.71,0,1.43,0,2.14,0s1.47,0,2.21,0a1,1,0,1,0,0-2Zm-.08-3.29c-.65,0-1.31,0-2,0s-1.51,0-2.27,0a1,1,0,0,0-1,1.11,1,1,0,0,0,1.06.87h4.23a1,1,0,1,0,0-2Zm-2-6.53a2.79,2.79,0,1,0,2.89,2.81A2.85,2.85,0,0,0,36.82,79.25Zm0,3.8a1,1,0,1,1,1.09-1A1,1,0,0,1,36.78,83.05Zm0-3.8a2.79,2.79,0,1,0,2.89,2.81A2.85,2.85,0,0,0,36.82,79.25Zm0,3.8a1,1,0,1,1,1.09-1A1,1,0,0,1,36.78,83.05Zm2.08,2.73c-.65,0-1.31,0-2,0s-1.51,0-2.27,0a1,1,0,0,0-1,1.11,1,1,0,0,0,1.06.87h4.23a1,1,0,1,0,0-2Zm.08,3.29c-1.45,0-2.9,0-4.35,0a1,1,0,0,0-.89.52A1,1,0,0,0,34.62,91c.71,0,1.43,0,2.14,0s1.47,0,2.21,0a1,1,0,1,0,0-2Zm0,0c-1.45,0-2.9,0-4.35,0a1,1,0,0,0-.89.52A1,1,0,0,0,34.62,91c.71,0,1.43,0,2.14,0s1.47,0,2.21,0a1,1,0,1,0,0-2Zm-.08-3.29c-.65,0-1.31,0-2,0s-1.51,0-2.27,0a1,1,0,0,0-1,1.11,1,1,0,0,0,1.06.87h4.23a1,1,0,1,0,0-2Zm-2-6.53a2.79,2.79,0,1,0,2.89,2.81A2.85,2.85,0,0,0,36.82,79.25Zm0,3.8a1,1,0,1,1,1.09-1A1,1,0,0,1,36.78,83.05Z"/><path class="cls-1" d="M76.46,60.23c0-1.58,0-3.16,0-4.74,0-.51,0-1,0-1.53a1.93,1.93,0,0,0-2-2H67.51A1.91,1.91,0,0,0,65.45,54c0,2.17,0,4.34,0,6.51,0,.47,0,.48.5.48h5c1.62,0,3.23,0,4.84,0C76.6,61,76.46,61,76.46,60.23Zm-3.07-2.56c0,.27-.11.32-.36.32H70.9c-.7,0-1.39,0-2.08,0-.28,0-.34-.09-.34-.34,0-.83,0-1.67,0-2.51,0-.26.09-.33.35-.33,1.41,0,2.81,0,4.22,0,.27,0,.35.09.34.34Q73.38,56.41,73.39,57.67Z"/><path class="cls-1" d="M90.8,71.69a1.42,1.42,0,0,0-1.45-1.44,5,5,0,0,0-.55,0h-7a5.29,5.29,0,0,0-.8.06,1.31,1.31,0,0,0-1.17,1,2.79,2.79,0,0,0-.07.58c0,2.91,0,5.82,0,8.73,0,1.14.55,1.65,1.73,1.65q3.76,0,7.53,0c1.22,0,1.72-.51,1.75-1.69,0-.14,0-.27,0-.41V72.28A5.8,5.8,0,0,0,90.8,71.69Zm-7.92,1.53a3.34,3.34,0,0,1,1.26-.07c1.06,0,2.11,0,3.17,0,.43,0,.43,0,.44.42s0,.58,0,.88-.08.33-.34.33c-.71,0-1.43,0-2.14,0s-1.39,0-2.08,0c-.26,0-.36-.07-.35-.33S82.87,73.63,82.88,73.22Zm4.81,6c-.24.28-.76.08-1.16.1s-.81,0-1.22,0c-.68,0-1.35,0-2,0-.3,0-.46,0-.43-.39s-.15-.87.07-1.14.77-.09,1.17-.1c1.09,0,2.17,0,3.25,0,.31,0,.44.08.42.4S87.92,79,87.69,79.26Z"/><path class="cls-1" d="M90.81,54c0,1.64,0,3.28,0,4.93v4.51c0,.2,0,.39,0,.59a1.43,1.43,0,0,1-1.58,1.44c-1.1,0-2.2,0-3.31,0H81.51c-1.14,0-1.71-.52-1.71-1.61,0-3.3,0-6.6,0-9.91,0-1.3.72-2,2.07-2.07h6.8A2,2,0,0,1,90.81,54Z"/><path class="cls-1" d="M102,88.16a1.4,1.4,0,0,0-1.46-1.09H98c-.77,0-.77,0-.77-.75V48a2.81,2.81,0,0,0,0-.41c0-.3.09-.37.38-.36.84,0,1.68,0,2.52,0a2.61,2.61,0,0,0,.78-.1,1.39,1.39,0,0,0,1-1.78,3,3,0,0,0-.39-.72L99.87,42.1Q95.43,35.43,91,28.74a2.61,2.61,0,0,0-2.42-1.29c-1.29,0-2.57,0-3.86,0H60.46A1.75,1.75,0,0,1,59.13,27c-2-2-4.07-3.9-6.12-5.84a1.58,1.58,0,0,1-.5-1.15c0-1.39,0-2.78,0-4.17,0-.6.16-.75.81-.76s1.06,0,1.59,0H66.47a5.29,5.29,0,0,0,.8,0,1.39,1.39,0,0,0,1.15-1.66,2.4,2.4,0,0,0-.44-.89L66,9.62c-.35-.5-.35-.61,0-1.11l2-2.87A2.92,2.92,0,0,0,68.34,5a1.41,1.41,0,0,0-1.25-2,8,8,0,0,0-.85,0H55.15c-.76,0-1.51,0-2.27,0-.29,0-.44-.07-.41-.41a6.67,6.67,0,0,0,0-1.34A1.34,1.34,0,0,0,51,0a1.39,1.39,0,0,0-1.52,1.16,5.79,5.79,0,0,0-.05.93c0,5.89,0,11.78,0,17.66a2,2,0,0,1-.68,1.56Q45.94,24,43.1,26.79a2.41,2.41,0,0,1-1.79.7q-8.1,0-16.18,0h-12a2.27,2.27,0,0,0-2.08,1.09L.5,44.53c-.1.15-.2.3-.28.45a1.41,1.41,0,0,0,1.16,2.18,5,5,0,0,0,.55,0H4c.87,0,.74-.1.74.72V86.61c0,.45,0,.45-.47.45-.94,0-1.88,0-2.82,0A1.39,1.39,0,0,0,0,88.43a1.41,1.41,0,0,0,1.4,1.48,3.9,3.9,0,0,0,.49,0l17.4,0c.7,0,.64-.06.64.65V101.3c0,.69,0,.69.7.69H81.42c.16,0,.32,0,.49,0s.32-.09.31-.31a2.78,2.78,0,0,1,0-.41V90.54c0-.72,0-.62.67-.62H99.3c.23,0,.45,0,.67,0a2.08,2.08,0,0,0,1.18-.24A1.27,1.27,0,0,0,102,88.16Zm-8.58-1.1H80.51c-.17,0-.33,0-.49,0s-.25.09-.25.25a10.72,10.72,0,0,0,0,2.34A16.29,16.29,0,0,1,80,93.06c0,2.08,0,4.15,0,6.22,0,.43.11.52-.54.52H22.93c-.76,0-.76,0-.76-.76,0-2.75,0-5.51,0-8.27,0-1,0-2.07,0-3.1,0-.72.1-.63-.64-.64h-13c-.79,0-.68.07-.68-.65V47.84c0-.77-.12-.66.72-.67,5.4,0,10.79,0,16.18,0A3,3,0,0,0,27,46.3L50.29,24c.21-.21.37-.46.68-.8a7,7,0,0,0,.59.68l16.73,16C70.51,42,72.74,44.12,75,46.26a3.13,3.13,0,0,0,2.35.92c5.41,0,10.83,0,16.24,0h.12c.46,0,.47,0,.47.45q0,3.73,0,7.45V86.34C94.12,87.07,94.29,87.06,93.37,87.06Z"/><path class="cls-2" d="M61.37,74.17a2,2,0,0,0-1.89-2,2.07,2.07,0,0,0-2.31,1.72,2.83,2.83,0,0,0,0,.58v13a3.15,3.15,0,0,0,0,.53,2.12,2.12,0,0,0,4.21-.34q0-3.34,0-6.68C61.38,78.71,61.39,76.44,61.37,74.17Zm-1.19,13.2a3.53,3.53,0,0,1,0,.46.88.88,0,0,1-.91.78.89.89,0,0,1-.92-.77,3.64,3.64,0,0,1,0-.47V74.55a3.65,3.65,0,0,1,0-.47,1,1,0,0,1,.95-.83.93.93,0,0,1,.88.82,3.68,3.68,0,0,1,0,.47Z"/><path class="cls-3" d="M64,12.23h-11c-.47,0-.61-.16-.62-.62s0-1.21,0-1.82c0-1.06,0-2.11,0-3.17,0-.64.09-.73.73-.73H63.68c.33,0,.37.09.2.35-.37.56-.75,1.12-1.13,1.67a1.59,1.59,0,0,0,0,2.3L64,12A1.46,1.46,0,0,1,64,12.23Z"/><path d="M61.37,74.17a2,2,0,0,0-1.89-2,2.07,2.07,0,0,0-2.31,1.72,2.83,2.83,0,0,0,0,.58v13a3.15,3.15,0,0,0,0,.53,2.12,2.12,0,0,0,4.21-.34q0-3.34,0-6.68C61.38,78.71,61.39,76.44,61.37,74.17Zm-1.19,13.2a3.53,3.53,0,0,1,0,.46.88.88,0,0,1-.91.78.89.89,0,0,1-.92-.77,3.64,3.64,0,0,1,0-.47V74.55a3.65,3.65,0,0,1,0-.47,1,1,0,0,1,.95-.83.93.93,0,0,1,.88.82,3.68,3.68,0,0,1,0,.47Z"/><path class="cls-3" d="M61.37,74.17a2,2,0,0,0-1.89-2,2.07,2.07,0,0,0-2.31,1.72,2.83,2.83,0,0,0,0,.58v13a3.15,3.15,0,0,0,0,.53,2.12,2.12,0,0,0,4.21-.34q0-3.34,0-6.68C61.38,78.71,61.39,76.44,61.37,74.17Zm-1.19,13.2a3.53,3.53,0,0,1,0,.46.88.88,0,0,1-.91.78.89.89,0,0,1-.92-.77,3.64,3.64,0,0,1,0-.47V74.55a3.65,3.65,0,0,1,0-.47,1,1,0,0,1,.95-.83.93.93,0,0,1,.88.82,3.68,3.68,0,0,1,0,.47Z"/><path class="cls-3" d="M40.36,70.94c-.22-.64-.45-.79-1.17-.74-1.61,0-3.21,0-4.82,0-.84,0-1.17.27-1.15,1.09a1,1,0,0,0,0,.17q0,10,0,20c0,.45,0,.46.52.46h6.12c.53,0,.53,0,.54-.51V72A4.1,4.1,0,0,0,40.36,70.94Zm-3.54,8.31A2.79,2.79,0,1,1,33.92,82,2.84,2.84,0,0,1,36.82,79.25ZM39,91c-.74,0-1.47,0-2.21,0s-1.43,0-2.14,0a1,1,0,0,1-.92-1.45,1,1,0,0,1,.89-.52c1.45,0,2.9,0,4.35,0a1,1,0,1,1,0,2Zm-.1-3.28H34.64a1,1,0,0,1-1.06-.87,1,1,0,0,1,1-1.11c.76,0,1.51,0,2.27,0s1.31,0,2,0a1,1,0,1,1,0,2Z"/><path class="cls-3" d="M36.82,79.25a2.79,2.79,0,1,0,2.89,2.81A2.85,2.85,0,0,0,36.82,79.25Zm0,3.8a1,1,0,1,1,1.09-1A1,1,0,0,1,36.78,83.05Z"/><path class="cls-3" d="M40,86.79a1,1,0,0,1-1.09,1c-.71,0-1.43,0-2.14,0s-1.39,0-2.08,0a1,1,0,0,1-1.06-.87,1,1,0,0,1,1-1.11c.76,0,1.51,0,2.27,0s1.31,0,2,0A1,1,0,0,1,40,86.79Z"/><path class="cls-3" d="M40,90a1,1,0,0,1-1,1c-.73,0-1.47,0-2.21,0s-1.43,0-2.14,0a1,1,0,1,1,0-2c1.45,0,2.9,0,4.35,0A1,1,0,0,1,40,90Z"/><path class="cls-4" d="M50.05,82.73c0-2.76,0-5.51,0-8.27,0-1,.31-1.46,1.43-1.39a7.18,7.18,0,0,0,1,0,1,1,0,0,1,1.2,1.13c0,3.77,0,7.54,0,11.32q0,3,0,5.92c0,.45,0,.46-.45.46h-2.7c-.48,0-.49,0-.49-.5q0-3.2,0-6.39Q50.05,83.88,50.05,82.73Z"/><path class="cls-3" d="M63.42,70.42a2.31,2.31,0,0,0,0-.87,1.47,1.47,0,0,0-1.78-1.33q-2.43-.06-4.86,0A1.47,1.47,0,0,0,55,69.44a1,1,0,0,0-.08.42c0,.19,0,.38,0,.57,0,3.55,0,7.11,0,10.67s0,6.92,0,10.38c0,.41,0,.43.38.43h7.78c.26,0,.38-.07.37-.33s0-.43,0-.64Q63.43,80.68,63.42,70.42Zm-2,17.24a2.12,2.12,0,0,1-4.21.34,3.15,3.15,0,0,1,0-.53v-13a2.83,2.83,0,0,1,0-.58,2.07,2.07,0,0,1,2.31-1.72,2,2,0,0,1,1.89,2c0,2.27,0,4.54,0,6.81S61.38,85.43,61.37,87.66Z"/><path class="cls-3" d="M51,55a7.74,7.74,0,1,1,8.05-7.87A8,8,0,0,1,51,55Z"/><path class="cls-5" d="M16.64,58h-2c-.27,0-.41,0-.41-.35,0-.82,0-1.64,0-2.46,0-.29.11-.37.4-.36h4.1c.28,0,.41.06.4.36,0,.82,0,1.64,0,2.46,0,.3-.12.36-.4.36C18,58,17.33,58,16.64,58Z"/><path class="cls-3" d="M16.72,61c.67,0,1.35,0,2,0,.29,0,.4.09.38.37s0,.63,0,.94-.08.27-.29.27H14.54c-.23,0-.34-.07-.33-.3s0-.63,0-.94.1-.34.36-.34Z"/><path class="cls-3" d="M85.3,58c-.69,0-1.39,0-2.08,0-.29,0-.4-.07-.39-.36,0-.82,0-1.64,0-2.46,0-.25.09-.34.36-.34h4.22c.26,0,.36.08.36.34,0,.84,0,1.68,0,2.52,0,.23-.09.3-.32.3Z"/><path class="cls-6" d="M85.36,60.94c.67,0,1.34,0,2,0,.33,0,.44.1.42.4s0,.55,0,.82a.42.42,0,0,1-.45.45l-.3,0H83.3c-.43,0-.44,0-.44-.43s0-.62,0-.93.11-.33.37-.33Z"/><path class="cls-1" d="M61.37,74.17a2,2,0,0,0-1.89-2,2.07,2.07,0,0,0-2.31,1.72,2.83,2.83,0,0,0,0,.58v13a3.15,3.15,0,0,0,0,.53,2.12,2.12,0,0,0,4.21-.34q0-3.34,0-6.68C61.38,78.71,61.39,76.44,61.37,74.17Zm-1.19,13.2a3.53,3.53,0,0,1,0,.46.88.88,0,0,1-.91.78.89.89,0,0,1-.92-.77,3.64,3.64,0,0,1,0-.47V74.55a3.65,3.65,0,0,1,0-.47,1,1,0,0,1,.95-.83.93.93,0,0,1,.88.82,3.68,3.68,0,0,1,0,.47Z"/><path class="cls-1" d="M36.82,79.25a2.79,2.79,0,1,0,2.89,2.81A2.85,2.85,0,0,0,36.82,79.25Zm0,3.8a1,1,0,1,1,1.09-1A1,1,0,0,1,36.78,83.05Z"/><path class="cls-1" d="M40,86.79a1,1,0,0,1-1.09,1c-.71,0-1.43,0-2.14,0s-1.39,0-2.08,0a1,1,0,0,1-1.06-.87,1,1,0,0,1,1-1.11c.76,0,1.51,0,2.27,0s1.31,0,2,0A1,1,0,0,1,40,86.79Z"/><path class="cls-1" d="M40,90a1,1,0,0,1-1,1c-.73,0-1.47,0-2.21,0s-1.43,0-2.14,0a1,1,0,1,1,0-2c1.45,0,2.9,0,4.35,0A1,1,0,0,1,40,90Z"/><path class="cls-1" d="M53.19,82.69c0,2.13,0,4.26,0,6.38a1,1,0,0,1-1.27,1.18h-.31a.9.9,0,0,1-.94-.88c0-.14,0-.27,0-.41q0-6.3,0-12.59c0-.1,0-.2,0-.29,0-.72.34-1,1.1-1a4.34,4.34,0,0,1,.49,0,.9.9,0,0,1,.91.92c0,.37,0,.74,0,1.11Q53.19,79.88,53.19,82.69Z"/><path class="cls-7" d="M52.46,45c0,.78,0,1.56,0,2.34a1.27,1.27,0,0,1-1.36,1.34q-2.51,0-5,0A1.42,1.42,0,0,1,46,45.84a17.65,17.65,0,0,1,1.77-.05H49c.52,0,.52,0,.52-.53,0-.9,0-1.8,0-2.69a1.46,1.46,0,0,1,2-1.27,1.24,1.24,0,0,1,.95,1.22C52.47,43.36,52.46,44.18,52.46,45Z"/></g></g></svg>