<svg xmlns="http://www.w3.org/2000/svg" viewBox="0 0 91.01 101.62"><defs><style>.cls-1{fill:#4f5a8d;}.cls-2{fill:#fbb03b;}</style></defs><title>Stacks New Student Website</title><g id="Layer_2" data-name="Layer 2"><g id="Layer_1-2" data-name="Layer 1"><path class="cls-1" d="M35.34,47.28c0,.54-.18.78-.73.85a5.83,5.83,0,0,1-.67,0H11.32a5.11,5.11,0,0,1-.78,0c-.42-.06-.59-.29-.6-.74s.14-.7.54-.79a3.93,3.93,0,0,1,.78,0H34c.19,0,.37,0,.56,0C35.1,46.58,35.32,46.79,35.34,47.28Z"/><path class="cls-1" d="M87.62,67.22a21.76,21.76,0,0,0-5-4.41l-.46-.33c.85-.08,1.66-.06,2.48-.09a3.56,3.56,0,0,0,3.53-3.85,3.45,3.45,0,0,0-2.5-3.21c-.23-.06-.47-.1-.71-.14a1.91,1.91,0,0,1-1.69-1.68c-.16-.84-.34-1.68-.51-2.51a27.16,27.16,0,0,1-.5-8.43,15,15,0,0,1,1.08-4.2A2.42,2.42,0,0,1,85,36.91a5.71,5.71,0,0,0,1.49-.62,3.58,3.58,0,0,0-.65-6.4,5.34,5.34,0,0,0-1.92-.28H75.19a1.29,1.29,0,0,1-.61-.06A15.62,15.62,0,0,0,68,0,15.53,15.53,0,0,0,52.9,10.18a15.15,15.15,0,0,0-.35,9.76,15.55,15.55,0,0,0,7.92,9.59,1.45,1.45,0,0,1-.61.06l-30.38,0-12.84,0a17.34,17.34,0,0,0-4,.42A16.26,16.26,0,0,0,.06,44.59,16,16,0,0,0,4.13,56.89,16.88,16.88,0,0,0,8,60.1a2.21,2.21,0,0,1,.74.59c-.86.05-1.65.09-2.45.16A3.59,3.59,0,0,0,5.72,68,2.22,2.22,0,0,1,7.85,70c.12.64.27,1.27.4,1.91a26.22,26.22,0,0,1,.39,9.37,17.33,17.33,0,0,1-.91,3.56,2.31,2.31,0,0,1-2,1.59A3,3,0,0,0,3.4,87.94a3.59,3.59,0,0,0,2.19,5.48A5.75,5.75,0,0,0,7,93.57H60c.77,0,.66-.1.66.64,0,1.81,0,3.61,0,5.42a4.92,4.92,0,0,0,.44,1.83c.06.16.13.21.29.14a5,5,0,0,0,1.46-.79c.93-.83,1.88-1.64,2.82-2.46l2.73-2.41.44.37c1.71,1.5,3.42,3,5.11,4.5a4.12,4.12,0,0,0,1.46.78c.17.06.26,0,.34-.15a4,4,0,0,0,.41-1.83c0-1.88,0-3.76,0-5.64,0-.26.06-.37.35-.42a22.25,22.25,0,0,0,4.29-1.2A15,15,0,0,0,89.09,85,18.65,18.65,0,0,0,91,77.47,14.62,14.62,0,0,0,87.62,67.22ZM6.56,57.07a14.79,14.79,0,0,1-4.6-8C.11,41.15,5.45,34,11.74,32a16.23,16.23,0,0,1,4.73-.7c2.47,0,4.95,0,7.43,0h60a3.86,3.86,0,0,1,1.11.09,2,2,0,0,1,1.51,2,1.92,1.92,0,0,1-1.75,1.92,6.83,6.83,0,0,1-1,0H17.23a12.23,12.23,0,0,0-4.76.77,10.29,10.29,0,0,0-6.75,9.05,10.66,10.66,0,0,0,8.66,11.44,11.61,11.61,0,0,0,2.22.19q8.18,0,16.36,0l44.9,0H84.1a6.39,6.39,0,0,1,.67,0,2,2,0,0,1,0,3.95,7.32,7.32,0,0,1-.78,0H16.7A14.82,14.82,0,0,1,6.56,57.07ZM64.79,44.26a.92.92,0,0,0,.67.61,1.88,1.88,0,0,0,.5,0H80c.45,0,.47,0,.45.46s.17.87-.09,1.12-.71.06-1.08.06H56.92a3.94,3.94,0,0,1-.72,0c-.65-.12-1,.31-1.35.72-.08.09,0,.16,0,.24a1.6,1.6,0,0,0,1.36.72c7.82-.1,15.63,0,23.45,0,.79,0,.67-.09.82.63.42,1.95.84,3.89,1.26,5.83.1.47.08.49-.42.52H17a10.15,10.15,0,0,1-4.69-1,8.84,8.84,0,0,1-4.93-9,9,9,0,0,1,7.09-8,11.54,11.54,0,0,1,2.5-.22h65l-1.05,4.56c-.12.51-.24,1-.35,1.52,0,.2-.13.3-.34.27a3.22,3.22,0,0,0-.34,0H66.76c-.28,0-.56,0-.84,0a1,1,0,0,0-.81.29C64.92,43.74,64.7,44,64.79,44.26ZM60.63,88.49c0,1,0,2,0,3.07,0,.4,0,.4-.4.41H36.11l-18.64,0-10.27,0a4.56,4.56,0,0,1-1.82-.44c-.92-.4-1.14-2.42-.11-2.93.3-.15.58-.34.87-.51a.86.86,0,0,1,.53-.12c.28,0,.56,0,.84,0H60.09C60.68,87.95,60.63,87.9,60.63,88.49ZM71.75,77.72l-14.24,0c-1,0-1,0-1.83.77a2.21,2.21,0,0,0,1.66.83c.93,0,1.86,0,2.79,0,.44,0,.45,0,.45.39,0,2,0,4.1,0,6.14,0,.31-.1.39-.38.36a3.65,3.65,0,0,0-.39,0H9.25a.41.41,0,0,1,0-.4q.66-3,1.33-6c.1-.43.1-.44.54-.44H34.32a1.6,1.6,0,0,0,1.87-.91,1.65,1.65,0,0,0-1.64-.73,3.35,3.35,0,0,1-.61,0H11.21c-.66,0-.67,0-.66-.69,0-.31-.14-.69.09-.9s.57-.06.87-.06h9.55c1.19,0,2.38,0,3.57,0A1.7,1.7,0,0,0,26,75.53c.09-.09.19-.17.29-.25a2.16,2.16,0,0,0-1.81-.82c-4.45,0-8.9,0-13.35,0-.66,0-.5.07-.66-.56-.27-1.08-.51-2.17-.76-3.26-.19-.83-.38-1.66-.57-2.5a3.75,3.75,0,0,1,.91-.06H73.91a10.45,10.45,0,0,1,5.74,1.53,9,9,0,0,1,2.76,12.25,8.41,8.41,0,0,1-4.81,3.93,8.81,8.81,0,0,1-1,.23c-.27.05-.32-.06-.32-.29,0-2,0-4,0-6,0-.3.11-.38.39-.38,1,0,2.09,0,3.13,0a5.32,5.32,0,0,0,.67,0A.61.61,0,0,0,81,78.8a.67.67,0,0,0-.35-.75,2,2,0,0,0-1.11-.32Zm5.86,13.92a4.46,4.46,0,0,1-1.33.16,2.1,2.1,0,0,1,0-.72c0-.95,0-1.9,0-2.85,0-.47,0-.47.46-.57a11.34,11.34,0,0,0,6.39-3.91,10.67,10.67,0,0,0-7.9-17.22c-.35,0-.71,0-1.06,0H7.6a11.21,11.21,0,0,1-1.28-.06,2,2,0,0,1-1.85-2.06,2,2,0,0,1,2-2c.2,0,.41,0,.61,0H74.62a14.76,14.76,0,0,1,3,29.22Z"/><path class="cls-2" d="M81.48,15.62a14,14,0,1,1-13.88-14A14,14,0,0,1,81.48,15.62Z"/><path class="cls-2" d="M74.52,99a.49.49,0,0,1-.38-.2c-1.53-1.33-3.08-2.64-4.55-4l0,0a1.36,1.36,0,0,0-2.19,0L64.71,97.1c-.65.58-1.32,1.15-2,1.72l-.38.29v-.63q0-9.24,0-18.47c0-.68-.06-.61.58-.61H74.16c.31,0,.39.11.37.39,0,.11,0,.22,0,.33q0,9.12,0,18.25Z"/><path class="cls-1" d="M63.43,16.72q0-3.16,0-6.31c0-.13,0-.26,0-.39s.1-.35.36-.35c.86,0,1.71,0,2.57,0h3.24a5,5,0,0,1,1.16.15,3.3,3.3,0,0,1,2.58,2.5,5,5,0,0,1,0,2.92,3.45,3.45,0,0,1-2.93,2.49,21.58,21.58,0,0,1-3,.1H65.79c-.42,0-.43,0-.43.43,0,1.6,0,3.2,0,4.8,0,.79.12.71-.71.72H63.7c-.18,0-.28-.07-.27-.26s0-.26,0-.39Q63.43,19.93,63.43,16.72Z"/><path class="cls-2" d="M65.36,13.79c0-.67,0-1.34,0-2,0-.26.07-.36.35-.36l3.57,0a3.1,3.1,0,0,1,.77.11,1.79,1.79,0,0,1,1.49,1.77,5.91,5.91,0,0,1,0,1A1.71,1.71,0,0,1,70.15,16a4.51,4.51,0,0,1-1.15.17c-1.1,0-2.19,0-3.29,0-.28,0-.35-.1-.35-.36C65.37,15.12,65.36,14.46,65.36,13.79Z"/></g></g></svg>