<svg xmlns="http://www.w3.org/2000/svg" viewBox="0 0 102 93.17"><defs><style>.cls-1{fill:#4f5a8d;}.cls-2{fill:#fbb03b;}.cls-3{fill:#faaf3b;}</style></defs><title>Subscription New Student Website</title><g id="Layer_2" data-name="Layer 2"><g id="Layer_1-2" data-name="Layer 1"><path class="cls-1" d="M90.87,56.3a.48.48,0,0,1-.15-.61.52.52,0,0,1,.53-.31.6.6,0,0,1,.33.16c.58.43,1.18.88,1.78,1.3a.55.55,0,0,1,.25.58.51.51,0,0,1-.84.28c-.37-.25-.73-.53-1.1-.8S91.14,56.51,90.87,56.3Z"/><path class="cls-1" d="M94.7,66.77a8.66,8.66,0,0,1-7.06,6.74,9.08,9.08,0,1,1-3.23-17.88c.2,0,.36,0,.35-.31,0-.49,0-.49-.49-.49-.33,0-.65,0-1,0a.55.55,0,0,1-.58-.57,7.71,7.71,0,0,1,0-.78c0-.49.2-.69.69-.69h4.93c.58,0,.74.16.76.73,0,.19,0,.37,0,.56,0,.6-.16.74-.74.76h-1c-.21,0-.33.05-.29.28s-.13.45.25.52a8.49,8.49,0,0,1,4.25,1.86A8.73,8.73,0,0,1,94.7,66.77Z"/><path class="cls-1" d="M99.94,56.65a15.71,15.71,0,0,0-13.27-8.33c-.8-.07-1.58,0-2.38,0-.15,0-.31-.09-.44,0a1.37,1.37,0,0,1-.69.09,1.25,1.25,0,0,0-.73,0,16.13,16.13,0,0,0-7,3.32,1.59,1.59,0,0,1-.66.47,1.09,1.09,0,0,1-.05-.49q0-22,0-44.05a4.42,4.42,0,0,1,3.51-4.32A4.52,4.52,0,0,1,83.3,6a5.22,5.22,0,0,1,.37,2.11V40.64a9.64,9.64,0,0,0,.53,3.79c.15.33,0,.45-.32.45H82.23c-1.29,0-2.57,0-3.85,0-.64,0-.94.28-.9.84a12.15,12.15,0,0,1,0,1.7c0,.31,0,.65.48.69H89.29A13.56,13.56,0,0,0,90.94,48a6.19,6.19,0,0,0,5.3-6c0-1.79,0-3.59,0-5.38V10.24c0-.16,0-.31,0-.47s-.15-.4-.43-.4H90.78c-.68,0-.69,0-.69.7s0,1.21,0,1.82c0,.4.12.53.49.52.61,0,1.21,0,1.82,0s.76.11.77.69v.45q0,9,0,18.05v9.82c0,.28,0,.57,0,.85A3,3,0,0,1,90.21,45,3.12,3.12,0,0,1,87,42.63a5.84,5.84,0,0,1-.09-1.18q0-16.79,0-33.6a8,8,0,0,0-.41-2.57A7.67,7.67,0,0,0,79,0c-3.12,0-6.25,0-9.36,0h-14L34.43,0q-.46,0-.92,0a9.06,9.06,0,0,0-7.58,5,9.66,9.66,0,0,0-1.05,4.72c0,1.57,0,3.14,0,4.71V67.83c0,.39.07.45.47.47s1,0,1.48,0c1.1,0,1.1,0,1.1-1.09V10.55c0-.54,0-1.1,0-1.65a5.64,5.64,0,0,1,1.63-3.76,6.4,6.4,0,0,1,4.83-2l8,0h30c.15,0,.31,0,.44.11a3.47,3.47,0,0,1-.23.37,7,7,0,0,0-.88,2,11.41,11.41,0,0,0-.35,3.15V19q0,18.72,0,37.42a2,2,0,0,1-.23.92,16.08,16.08,0,0,0-.37,13.52,1,1,0,0,1,.17.53,2.07,2.07,0,0,1-.57,0H16c-.43,0-.52-.12-.53-.56a2.56,2.56,0,0,1,0-.45V37.3c0-.84,0-1.66,0-2.5,0-.56.11-.65.66-.65h4.09c.33,0,.68,0,1,0s.44-.13.45-.45c0-.72,0-1.44,0-2.15a.41.41,0,0,0-.41-.45h-.4l-4.31,0-3.42,0c-.6,0-.72.12-.74.73a4,4,0,0,0,0,.4c0,1.32,0,2.65,0,4q0,18.52,0,37.06a6.84,6.84,0,0,0,0,.74c.05.35.17.44.53.48h59.5a.94.94,0,0,1,.8.39,15.7,15.7,0,0,0,6.38,4.68,13.72,13.72,0,0,0,4.79,1.09,4.31,4.31,0,0,0,2.59,0,9.65,9.65,0,0,0,2.69-.4A16.18,16.18,0,0,0,99.94,56.65ZM85.75,79a14.54,14.54,0,1,1,14.57-14.4A14.56,14.56,0,0,1,85.75,79Z"/><path class="cls-1" d="M98.66,80.74c-1,0-2.09,0-3.12,0H87.76c-.24,0-.49.08-.69-.15H84.48c-.21.24-.49.13-.74.13H60.63a1.5,1.5,0,0,0-1.25.52c-.68.72-1.38,1.41-2.06,2.11a1.47,1.47,0,0,1-1.16.49c-4.32,0-8.63,0-12.95,0a1.52,1.52,0,0,1-1.16-.49c-.68-.7-1.38-1.4-2.06-2.11a1.54,1.54,0,0,0-1.25-.52H.44a.39.39,0,0,0-.43.43v.4c0,1.2,0,2.38,0,3.58A1.81,1.81,0,0,0,.6,86.6c2,1.93,3.91,3.87,5.82,5.82a2.33,2.33,0,0,0,1.81.74h83.4a1.5,1.5,0,0,0,1.06-.47Q95.8,89.54,99,86.43a1.43,1.43,0,0,0,.44-1.06c0-1.3,0-2.61,0-3.91C99.38,80.83,99.3,80.74,98.66,80.74Zm-2.38,3.78a1,1,0,0,1-.32.57l-4.51,4.49a1.45,1.45,0,0,1-1,.47H18.76c-3.12,0-6.25,0-9.37,0a2.26,2.26,0,0,1-1.74-.74c-1.36-1.41-2.75-2.76-4.13-4.15a1.05,1.05,0,0,1-.41-.88.47.47,0,0,1,.44-.51H37.42a1.72,1.72,0,0,1,1.36.57c.66.7,1.37,1.37,2,2.07a1.58,1.58,0,0,0,1.26.51H57.4a1.35,1.35,0,0,0,1.1-.45c.7-.73,1.45-1.45,2.15-2.18a1.59,1.59,0,0,1,1.21-.52H95.64C96.19,83.76,96.38,84,96.28,84.52Z"/><path class="cls-1" d="M6.25,53.73q0-11.12,0-22.25a6.65,6.65,0,0,1,.53-2.88,6,6,0,0,1,5.62-3.72c2.89-.07,5.79,0,8.68,0,.58,0,.65.08.65.66s0,1.25,0,1.87c0,.45-.07.54-.52.54l-2.33,0c-1.89,0-3.78,0-5.67,0a5.27,5.27,0,0,0-1.41.11A3.18,3.18,0,0,0,9.36,30.7a7.16,7.16,0,0,0-.1,1.24q0,5.79,0,11.58,0,16.12,0,32.23c0,.42,0,.83,0,1.25s-.22.64-.71.58a9.8,9.8,0,0,0-1.7,0c-.5,0-.61-.07-.63-.56,0-.15,0-.3,0-.45Q6.25,65.14,6.25,53.73Z"/><path class="cls-1" d="M49.65,16.58H67.86c.21,0,.31.07.3.29,0,.76,0,1.51,0,2.27,0,.24-.11.29-.31.28H31.66c-.63,0-.64,0-.64-.62s0-1.25,0-1.87c0-.28.09-.38.36-.35a3.4,3.4,0,0,0,.4,0Z"/><path class="cls-1" d="M49.57,23.21H67.67c.49,0,.49,0,.49.49,0,.66,0,1.32,0,2,0,.31-.11.41-.4.37a3.09,3.09,0,0,0-.34,0H31.73c-.81,0-.7.13-.71-.73,0-.61,0-1.21,0-1.82,0-.26.09-.33.33-.31s.26,0,.4,0Z"/><path class="cls-1" d="M31,32.92c0-1,0-2,0-3,0-.29.08-.38.38-.38h5.9c.39,0,.4,0,.4.41q0,2.92,0,5.84c0,.4,0,.41-.41.41H31.45c-.41,0-.42,0-.42-.45C31,34.85,31,33.89,31,32.92Z"/><path class="cls-1" d="M64.81,29.6c1,0,2,0,3,0,.28,0,.4.06.39.37,0,2,0,3.94,0,5.9,0,.39,0,.4-.42.4H61.89c-.4,0-.41,0-.41-.4q0-2.92,0-5.85c0-.41,0-.42.44-.42Z"/><path class="cls-1" d="M51.26,32.9c0-1,0-2,0-3,0-.27.07-.36.35-.36h6c.24,0,.33.08.32.32q0,3,0,6c0,.29-.13.34-.38.34h-6c-.28,0-.36-.09-.35-.36C51.27,34.91,51.26,33.9,51.26,32.9Z"/><path class="cls-1" d="M34.34,62.43H31.45c-.41,0-.42,0-.42-.38q0-2.95,0-5.89c0-.39,0-.4.41-.4h5.84c.42,0,.42,0,.42.45,0,1.93,0,3.85,0,5.78,0,.5,0,.45-.48.45Z"/><path class="cls-1" d="M61.47,50.39c0-1,0-2,0-2.95,0-.4,0-.41.41-.41h5.84c.43,0,.43,0,.43.44q0,2.92,0,5.84c0,.39,0,.4-.41.4H61.85c-.29,0-.39-.08-.38-.38C61.48,52.35,61.47,51.37,61.47,50.39Z"/><path class="cls-1" d="M57.94,50.38c0,1,0,2,0,2.95,0,.29-.07.39-.38.39q-3,0-6,0c-.32,0-.37-.13-.36-.4q0-2.95,0-5.89c0-.29.07-.4.38-.4q3,0,6,0c.32,0,.37.13.36.41C57.93,48.41,57.94,49.4,57.94,50.38Z"/><path class="cls-1" d="M41.24,32.93c0-1,0-2,0-2.95,0-.28.06-.39.37-.39,2,0,3.93,0,5.9,0,.39,0,.4,0,.4.41q0,2.92,0,5.84c0,.41,0,.42-.4.42H41.66c-.41,0-.42,0-.42-.45C41.24,34.85,41.24,33.89,41.24,32.93Z"/><path class="cls-1" d="M31,50.39c0-1,0-2,0-3,0-.4,0-.4.41-.4h5.85c.41,0,.42,0,.42.4,0,2,0,3.94,0,5.9,0,.32-.12.38-.4.38h-5.9c-.28,0-.39-.06-.39-.37C31,52.36,31,51.37,31,50.39Z"/><path class="cls-1" d="M47.82,62.43H41.67c-.44,0-.43,0-.43-.43q0-2.89,0-5.79c0-.46,0-.46.47-.46h5.73c.46,0,.46,0,.46.47q0,2.92,0,5.84A.48.48,0,0,1,47.82,62.43Z"/><path class="cls-1" d="M44.56,53.71c-1,0-2,0-2.95,0-.3,0-.38-.08-.38-.38,0-2,0-3.93,0-5.9,0-.4,0-.4.41-.41h5.84c.4,0,.41,0,.41.41,0,2,0,3.93,0,5.9,0,.32-.11.38-.4.37C46.53,53.7,45.55,53.71,44.56,53.71Z"/><path class="cls-1" d="M64.82,45H61.87c-.39,0-.4,0-.4-.41q0-2.92,0-5.84c0-.4,0-.4.4-.4h5.9c.29,0,.39.08.39.38q0,2.95,0,5.9c0,.3-.09.39-.39.39C66.79,45,65.81,45,64.82,45Z"/><path class="cls-1" d="M57.94,41.65c0,1,0,2,0,2.95,0,.29-.07.4-.37.4q-3,0-6,0c-.26,0-.36-.07-.36-.35q0-3,0-6c0-.26.06-.37.34-.36q3,0,6,0c.3,0,.33.13.33.38C57.94,39.68,57.94,40.66,57.94,41.65Z"/><path class="cls-1" d="M34.36,38.33H37.2c.5,0,.51,0,.51.48q0,2.86,0,5.73c0,.44,0,.45-.42.45h-5.9c-.26,0-.36,0-.36-.34,0-2,0-4,0-6,0-.25.09-.32.33-.31Z"/><path class="cls-1" d="M44.61,38.33H47.5c.39,0,.4,0,.4.41q0,2.92,0,5.84c0,.4,0,.41-.41.41-2,0-3.93,0-5.89,0-.32,0-.37-.12-.36-.39q0-2.95,0-5.89c0-.28.06-.39.37-.39C42.61,38.34,43.61,38.33,44.61,38.33Z"/><path class="cls-1" d="M38.48,8.54h1.24c.22,0,.29.09.29.3,0,.83,0,1.66,0,2.49,0,.26-.12.31-.34.31H37.24c-.2,0-.32,0-.32-.27q0-1.27,0-2.54c0-.23.11-.28.31-.28Z"/><path class="cls-1" d="M44.2,8.54c.38,0,.75,0,1.13,0s.38.05.37.34c0,.81,0,1.62,0,2.43,0,.24-.08.33-.33.33q-1.21,0-2.43,0c-.23,0-.34-.06-.34-.31,0-.83,0-1.66,0-2.49,0-.22.07-.3.29-.3C43.33,8.55,43.76,8.54,44.2,8.54Z"/><path class="cls-1" d="M32.59,8.54c.4,0,.79,0,1.19,0s.32.1.32.34q0,1.22,0,2.44c0,.25-.09.33-.33.32-.81,0-1.62,0-2.44,0-.26,0-.32-.11-.31-.34,0-.81,0-1.62,0-2.44,0-.25.08-.33.33-.32C31.76,8.55,32.18,8.54,32.59,8.54Z"/><path class="cls-2" d="M36,32.94c0,.43,0,.87,0,1.3,0,.25,0,.38-.34.37q-1.33,0-2.66,0c-.28,0-.35-.11-.35-.36,0-.87,0-1.74,0-2.61,0-.25,0-.38.34-.38q1.33,0,2.66,0c.28,0,.36.11.35.37C36,32.07,36,32.5,36,32.94Z"/><path class="cls-2" d="M66.48,33c0,.43,0,.87,0,1.3,0,.21-.07.3-.29.3H63.41c-.19,0-.27-.07-.27-.27q0-1.39,0-2.78c0-.21.08-.3.3-.3h2.78c.19,0,.27.08.27.27C66.47,32,66.48,32.52,66.48,33Z"/><path class="cls-2" d="M56.27,33c0,.45,0,.91,0,1.36,0,.22-.08.29-.3.29H53.25c-.2,0-.32,0-.32-.27q0-1.39,0-2.77c0-.22.09-.3.3-.3.91,0,1.81,0,2.72,0,.25,0,.32.1.32.34C56.26,32.05,56.27,32.51,56.27,33Z"/><path class="cls-3" d="M36,59.17c0,.42,0,.83,0,1.25,0,.26-.06.38-.35.38-.89,0-1.78,0-2.67,0-.24,0-.34-.08-.34-.33,0-.91,0-1.81,0-2.72,0-.21.07-.31.29-.31h2.78c.24,0,.28.13.27.32C36,58.22,36,58.7,36,59.17Z"/><path class="cls-2" d="M63.14,50.4c0-.45,0-.91,0-1.36,0-.22,0-.35.31-.35q1.36,0,2.72,0c.26,0,.31.12.31.34,0,.91,0,1.81,0,2.72,0,.25-.1.32-.33.32-.89,0-1.78,0-2.66,0-.29,0-.35-.13-.34-.38C63.15,51.27,63.14,50.83,63.14,50.4Z"/><path class="cls-2" d="M54.6,48.7H56c.21,0,.31.06.31.29,0,.94,0,1.89,0,2.83,0,.19-.09.26-.28.26H53.21c-.19,0-.28-.07-.28-.26,0-.94,0-1.89,0-2.83,0-.23.1-.29.31-.29Z"/><path class="cls-3" d="M44.58,34.61H43.22c-.23,0-.34-.06-.34-.32,0-.9,0-1.81,0-2.71,0-.21.07-.32.29-.32h2.77c.21,0,.31.07.31.29q0,1.39,0,2.77c0,.24-.12.28-.31.28Z"/><path class="cls-3" d="M36,50.4c0,.43,0,.87,0,1.3,0,.25-.05.38-.34.37-.9,0-1.81,0-2.71,0-.22,0-.3-.09-.3-.3,0-.92,0-1.85,0-2.77,0-.25.12-.31.35-.31.89,0,1.77,0,2.66,0,.27,0,.37.08.36.36C36,49.5,36,50,36,50.4Z"/><path class="cls-3" d="M44.61,57.43c.43,0,.87,0,1.3,0,.23,0,.34.06.34.32q0,1.36,0,2.72c0,.25-.11.33-.34.32H43.25c-.26,0-.37-.08-.37-.36,0-.89,0-1.78,0-2.66,0-.29.12-.35.37-.35C43.7,57.44,44.16,57.43,44.61,57.43Z"/><path class="cls-2" d="M46.25,50.39c0,.45,0,.91,0,1.36,0,.25-.1.33-.33.32q-1.33,0-2.66,0c-.26,0-.38-.06-.37-.35,0-.91,0-1.81,0-2.72,0-.25.1-.32.34-.32.91,0,1.81,0,2.72,0,.26,0,.32.12.31.34C46.24,49.49,46.25,49.94,46.25,50.39Z"/><path class="cls-2" d="M66.48,41.69c0,.45,0,.91,0,1.36,0,.22-.08.3-.3.3-.91,0-1.82,0-2.72,0-.26,0-.32-.11-.32-.34,0-.89,0-1.78,0-2.67,0-.27.09-.36.36-.36.87,0,1.74,0,2.61,0,.32,0,.38.13.37.41,0,.43,0,.87,0,1.3Z"/><path class="cls-2" d="M56.27,41.68c0,.45,0,.91,0,1.36,0,.21-.06.31-.29.3-.91,0-1.82,0-2.72,0-.25,0-.32-.1-.32-.34,0-.91,0-1.82,0-2.72,0-.21.06-.31.29-.31H56c.25,0,.33.11.32.34C56.26,40.77,56.27,41.22,56.27,41.68Z"/><path class="cls-3" d="M32.68,41.65c0-.43,0-.87,0-1.3,0-.25.06-.38.35-.38.89,0,1.77,0,2.66,0,.22,0,.36,0,.35.31,0,.92,0,1.85,0,2.77,0,.23-.11.29-.31.29H33c-.25,0-.33-.1-.33-.33C32.69,42.56,32.68,42.11,32.68,41.65Z"/><path class="cls-3" d="M44.58,43.34H43.22c-.24,0-.34-.07-.34-.32q0-1.36,0-2.72c0-.25.11-.33.34-.33h2.72c.21,0,.31.07.31.3q0,1.39,0,2.78c0,.23-.1.29-.31.29Z"/><path class="cls-2" d="M85.9,72.65a8,8,0,1,1,8-8.05A8.06,8.06,0,0,1,85.9,72.65Z"/><path class="cls-1" d="M86.46,65.17l2.87-1.08.74-.29c.55-.19,1-.07,1.11.32s0,.77-.59,1l-3.07,1.18c-.44.17-.88.34-1.33.5-.75.26-1.13,0-1.13-.8,0-1.91,0-3.82,0-5.73a1.9,1.9,0,0,1,0-.23c.05-.45.29-.68.68-.68a.68.68,0,0,1,.7.68,4.44,4.44,0,0,1,0,.57C86.46,62.08,86.46,63.57,86.46,65.17Z"/></g></g></svg>