<svg xmlns="http://www.w3.org/2000/svg" viewBox="0 0 463.78 463.2"><defs><style>.cls-1{fill:#43464b;}.cls-2{fill:#fefefe;}</style></defs><title>Asset 7</title><g id="Layer_2" data-name="Layer 2"><g id="Layer_1-2" data-name="Layer 1"><path class="cls-1" d="M463.36,221.76c-.3-4.2-.65-8.39-1-12.59-.35-4.52-.76-9-1.48-13.49-.91-5.65-1.89-11.27-3.23-16.83a221.7,221.7,0,0,0-8.35-27.42,182.66,182.66,0,0,0-7.45-17.62c-2.84-5.55-5.47-11.2-8.57-16.61-2.93-5.11-6.15-10-9.49-14.9-2-2.89-4-5.74-6-8.62-2.27-3.27-4.79-6.33-7.3-9.41-2.22-2.71-4.49-5.38-6.9-7.93-3.54-3.76-6.77-7.77-10.68-11.24-4.4-3.91-8.76-7.87-13.24-11.71s-9-7.13-13.53-10.59c-3.3-2.5-6.8-4.73-10.31-6.93-6.28-4-12.72-7.63-19.26-11.12-4.51-2.4-9.2-4.44-13.88-6.5a217.44,217.44,0,0,0-24.68-9c-6.24-1.88-12.61-3.35-19-4.77A125,125,0,0,0,265,2c-3.55-.37-7.09-.89-10.66-1.16C250.12.55,245.94,0,241.71,0h-10c-4.41.29-9.75-.25-15.1.38-3.54.41-7.12.65-10.67,1C200,2,194.08,2.81,188.22,3.87a221.12,221.12,0,0,0-27.5,7,209.57,209.57,0,0,0-23.42,9,246.65,246.65,0,0,0-22.94,11.91c-3.77,2.24-7.32,4.82-11,7.14C100,41,96.89,43.34,93.77,45.69c-3.56,2.68-7,5.57-10.43,8.36Q77,59.15,71.07,64.67A197.81,197.81,0,0,0,57.45,79.11Q53.16,83.94,49.22,89q-7.61,9.82-14.27,20.32c-3.47,5.46-6.52,11.15-9.61,16.82-2.41,4.41-4.42,9-6.4,13.65A227.45,227.45,0,0,0,9,167.73a248.85,248.85,0,0,0-7,33.81c-.71,5-1,10.12-1.4,15.18A104.82,104.82,0,0,0,0,229.13c.16,3.92,0,7.84,0,11.76a9.44,9.44,0,0,0,.09,1.92,61.49,61.49,0,0,1,.8,8.77c.18,2.45.51,4.9.7,7.36.13,1.65.13,3.34.41,5,.58,3.44,1.21,6.88,1.84,10.31A191.88,191.88,0,0,0,9.19,296c1.61,5.26,3.38,10.47,5.24,15.64q2.46,6.87,5.46,13.53c2.56,5.67,5.2,11.31,8.3,16.72,2.89,5,5.62,10.19,9,15,4.15,5.95,8.17,12,12.6,17.72S59.08,385.68,64,391a216.2,216.2,0,0,0,19.85,18.65c5.28,4.38,10.66,8.59,16.31,12.45a233.78,233.78,0,0,0,58.21,29.15c6.71,2.25,13.5,4.23,20.41,5.81a189.2,189.2,0,0,0,19.42,3.68c4.48.54,8.95,1.28,13.47,1.6,5.48.4,11,.92,16.44.9,6.15,0,12.29.06,18.43-.43,2.3-.18,4.58-.5,6.88-.66,3.4-.24,6.76-.87,10.14-1.3,2.92-.38,5.86-.55,8.74-1.11,5.54-1.07,11-2.35,16.51-3.71a203,203,0,0,0,24.79-7.92c5-2,10-4.09,15-6.29a184.09,184.09,0,0,0,17.46-9c4.13-2.4,8.18-4.93,12.19-7.54,3.27-2.12,6.47-4.36,9.63-6.65a140.58,140.58,0,0,0,11.81-9.29c4-3.58,8.28-6.74,12-10.63,4.45-4.69,9.22-9.07,13.54-13.9,3.61-4.05,7-8.25,10.32-12.53a203.31,203.31,0,0,0,14.29-20.85c3.11-5.29,6.28-10.55,9-16.05,2-4,3.82-8.07,5.62-12.17a193.86,193.86,0,0,0,10-27.9,231.68,231.68,0,0,0,7-34.78c.63-5.68.91-11.38,1.65-17.06.64-4.87,0-9.87.56-14.81A38.1,38.1,0,0,0,463.36,221.76Zm-18.87,17.55c-.81,3.38-.22,6.82-.76,10.23-.37,2.39-.4,4.91-.66,7.35a122.11,122.11,0,0,1-1.79,13.44c-1.09,5.05-2,10.12-3.32,15.13a197.06,197.06,0,0,1-8.76,26c-2.59,6.29-5.57,12.39-8.74,18.39a207.22,207.22,0,0,1-14.08,22.77A163.81,163.81,0,0,1,396,366c-3.41,3.89-6.83,7.78-10.37,11.58-4.08,4.39-8.64,8.26-12.79,12.56-2.25,2.34-5,4.21-7.44,6.35-3.73,3.23-7.81,6-11.75,9s-8.12,5.32-12.17,8a144.91,144.91,0,0,1-12.89,7.33c-4.36,2.3-8.9,4.27-13.42,6.25-5.85,2.56-11.88,4.63-17.94,6.62a220.43,220.43,0,0,1-22.85,6,150.61,150.61,0,0,1-17.86,2.78c-4.27.4-8.53.93-12.82,1.22s-8.44.27-12.67.35a156.93,156.93,0,0,1-16.92-.88c-4.66-.42-9.3-1.08-14-1.61a136.69,136.69,0,0,1-17.55-3.32A217.75,217.75,0,0,1,161,432c-5.17-1.87-10.3-3.84-15.32-6.11-2.47-1.12-5-2.09-7.44-3.28-2.72-1.33-5.39-2.78-8-4.27-4.44-2.51-8.85-5.07-13.1-7.91-3-2-6.08-4.07-9-6.21-4.91-3.54-9.64-7.32-14.23-11.24-4.24-3.62-8.25-7.53-12.16-11.53-4.69-4.79-9.13-9.79-13.48-14.88-3.89-4.54-7.53-9.26-11.06-14.07a136,136,0,0,1-7.55-11.33c-1.55-2.61-3.1-5.21-4.55-7.87-1.83-3.37-3.66-6.74-5.33-10.19a191.12,191.12,0,0,1-7.91-18.72,197.56,197.56,0,0,1-7.35-25.21A103.41,103.41,0,0,1,22.1,266c-.22-2.52-.77-5-1.24-7.51a13.71,13.71,0,0,1-.15-2.39,55.48,55.48,0,0,0-.83-7.81c0-.31-.11-.63-.12-.94-.22-7.82-1-15.65-.37-23.45.24-3.07,0-6.19.75-9.26.46-2,.27-4.11.49-6.17.56-5.38,1.48-10.68,2.35-16a181.38,181.38,0,0,1,4-18.16,193.47,193.47,0,0,1,8.16-24.21c2.8-6.73,6.07-13.22,9.45-19.65a177.78,177.78,0,0,1,10.7-17.54c3.43-5,7.34-9.6,10.87-14.5a49,49,0,0,1,3.29-3.79c4-4.47,7.94-9,12.19-13.15C86.16,77,91,72.83,95.73,68.6c4.55-4,9.5-7.51,14.34-11.11a164.22,164.22,0,0,1,19.33-12.3,203.28,203.28,0,0,1,35.41-15.65c5.6-1.77,11.24-3.46,17-4.72,4.11-.89,8.21-1.87,12.36-2.52a78.73,78.73,0,0,1,9.2-1.2c1.11,0,2.2-.31,3.3-.46,4.9-.64,9.84-.69,14.75-1.09,4.4-.36,8.77-.07,12.26-.35,3,0,5,0,7.12,0a61,61,0,0,1,10.45.88c2,.3,4,.26,5.94.5,5.76.68,11.49,1.49,17.17,2.62a190.08,190.08,0,0,1,26,7.09c6.55,2.3,13,4.94,19.29,7.79,5.09,2.3,10,4.85,14.93,7.55,3.77,2.08,7.42,4.37,11.12,6.56,4.81,2.84,9.22,6.28,13.73,9.53,3.73,2.7,7.28,5.67,10.81,8.65a172.86,172.86,0,0,1,13.61,12.76,233.14,233.14,0,0,1,17.52,20.51,227.61,227.61,0,0,1,14.1,21.31,174.93,174.93,0,0,1,10.08,19.83,224.55,224.55,0,0,1,8,21,175.44,175.44,0,0,1,6.19,25.47c.68,4.31,1.69,8.57,2.21,12.89a34.46,34.46,0,0,1,.61,6.41,17.22,17.22,0,0,0,.61,4.24,21.8,21.8,0,0,1,.34,4.75c-.24,4.8.65,9.55.58,14.34C444.13,235.65,444.91,237.55,444.49,239.31Zm-78.55,35.61c-3.16-3.18-6.34-6.33-9.49-9.51-1.89-1.9-1.87-1.92-3.83,0L297,321.1a5.87,5.87,0,0,1-2,1.71c-.23-.19-.49-.37-.71-.59l-10.36-10.35q-9-9-18-18c-1.3-1.3-1.35-1.29-2.66,0q-5,5-10,10c-1.34,1.35-1.36,1.41.08,2.82,12.31,12,24.07,24.53,36.21,36.7,1.58,1.58,3.16,3.17,4.75,4.74a2.77,2.77,0,0,0,1.76,1.09,22.87,22.87,0,0,1,1.51-1.81q28.74-28.77,57.51-57.52c4.12-4.12,7.82-8.64,12.1-12.61a3,3,0,0,0,.39-.59A6.43,6.43,0,0,0,365.94,274.92ZM280,252a73.33,73.33,0,0,1,15.36,18.82,84.45,84.45,0,0,1,7.78,19c.39,1.42.37,3,1.27,4.21a1.58,1.58,0,0,0,1.11-.62l11.88-11.88c2.19-2.19,2.39-2.71,1.12-5.42-3.21-6.85-5.84-14-10.25-20.24a92.65,92.65,0,0,0-9.43-12,107.29,107.29,0,0,0-8.37-7.87,84.77,84.77,0,0,0-11-8c-3.52-2-7.08-4-10.73-5.82-1.48-.73-1.48-1.12-.18-2.14a36.9,36.9,0,0,0,3.92-3.11c3.95-4,8.22-7.75,11.35-12.59a94,94,0,0,0,5.06-8.37,67.55,67.55,0,0,0,6.83-25.41,64.16,64.16,0,0,0-1.1-16.65,68.07,68.07,0,0,0-7.89-21.19,50.9,50.9,0,0,0-6.81-9.48,73.31,73.31,0,0,0-17.1-14.07,67.14,67.14,0,0,0-28-8.74,63.46,63.46,0,0,0-16.43.81,70.87,70.87,0,0,0-22.54,8.32,72,72,0,0,0-6.71,4.56c-2.73,2-4.92,4.54-7.35,6.85A56.45,56.45,0,0,0,170.91,136a64,64,0,0,0-7.08,25.6,65.88,65.88,0,0,0,18.57,51.18,95.56,95.56,0,0,0,9.65,8.34c-1.5.88-2.75,1.72-4.09,2.39a106.1,106.1,0,0,0-22.87,15.89A91,91,0,0,0,154,251.59a85.17,85.17,0,0,0-10.58,18.16c-5,11.4-7.33,23.47-8.43,35.81-.16,1.85.08,2.1,1.93,2.11,4.88,0,9.76,0,14.63,0,2.45,0,2.7-.18,2.61-2.57-.18-4.51.75-8.88,1.72-13.21a76.46,76.46,0,0,1,27.76-43.46A81.37,81.37,0,0,1,201.81,238a79,79,0,0,1,28.13-5.68c1.79-.06,3.47.5,5.22.5a43.35,43.35,0,0,1,9.42,1.29,83.54,83.54,0,0,1,21.62,8.12A73.09,73.09,0,0,1,280,252Zm-51.3-38.4a47.27,47.27,0,0,1,1-94.52c26.36.25,47.22,21,47.19,47.53A47.13,47.13,0,0,1,228.71,213.56Z"/><path class="cls-2" d="M365.94,274.92c-3.16-3.18-6.34-6.33-9.49-9.51-1.89-1.9-1.87-1.92-3.83,0L297,321.1a5.87,5.87,0,0,1-2,1.71c-.23-.19-.49-.37-.71-.59l-10.36-10.35q-9-9-18-18c-1.3-1.3-1.35-1.29-2.66,0q-5,5-10,10c-1.34,1.35-1.36,1.41.08,2.82,12.31,12,24.07,24.53,36.21,36.7,1.58,1.58,3.16,3.17,4.75,4.74a2.77,2.77,0,0,0,1.76,1.09,22.87,22.87,0,0,1,1.51-1.81q28.74-28.77,57.51-57.52c4.12-4.12,7.82-8.64,12.1-12.61a3,3,0,0,0,.39-.59A6.43,6.43,0,0,0,365.94,274.92ZM280,252a73.33,73.33,0,0,1,15.36,18.82,84.45,84.45,0,0,1,7.78,19c.39,1.42.37,3,1.27,4.21a1.58,1.58,0,0,0,1.11-.62l11.88-11.88c2.19-2.19,2.39-2.71,1.12-5.42-3.21-6.85-5.84-14-10.25-20.24a92.65,92.65,0,0,0-9.43-12,107.29,107.29,0,0,0-8.37-7.87,84.77,84.77,0,0,0-11-8c-3.52-2-7.08-4-10.73-5.82-1.48-.73-1.48-1.12-.18-2.14a36.9,36.9,0,0,0,3.92-3.11c3.95-4,8.22-7.75,11.35-12.59a94,94,0,0,0,5.06-8.37,67.55,67.55,0,0,0,6.83-25.41,64.16,64.16,0,0,0-1.1-16.65,68.07,68.07,0,0,0-7.89-21.19,50.9,50.9,0,0,0-6.81-9.48,73.31,73.31,0,0,0-17.1-14.07,67.14,67.14,0,0,0-28-8.74,63.46,63.46,0,0,0-16.43.81,70.87,70.87,0,0,0-22.54,8.32,72,72,0,0,0-6.71,4.56c-2.73,2-4.92,4.54-7.35,6.85A56.45,56.45,0,0,0,170.91,136a64,64,0,0,0-7.08,25.6,65.88,65.88,0,0,0,18.57,51.18,95.56,95.56,0,0,0,9.65,8.34c-1.5.88-2.75,1.72-4.09,2.39a106.1,106.1,0,0,0-22.87,15.89A91,91,0,0,0,154,251.59a85.17,85.17,0,0,0-10.58,18.16c-5,11.4-7.33,23.47-8.43,35.81-.16,1.85.08,2.1,1.93,2.11,4.88,0,9.76,0,14.63,0,2.45,0,2.7-.18,2.61-2.57-.18-4.51.75-8.88,1.72-13.21a76.46,76.46,0,0,1,27.76-43.46A81.37,81.37,0,0,1,201.81,238a79,79,0,0,1,28.13-5.68c1.79-.06,3.47.5,5.22.5a43.35,43.35,0,0,1,9.42,1.29,83.54,83.54,0,0,1,21.62,8.12A73.09,73.09,0,0,1,280,252Zm-51.3-38.4a47.27,47.27,0,0,1,1-94.52c26.36.25,47.22,21,47.19,47.53A47.13,47.13,0,0,1,228.71,213.56Z"/><path class="cls-1" d="M318.53,276c-3.21-6.85-5.84-14-10.25-20.24a92.65,92.65,0,0,0-9.43-12,107.29,107.29,0,0,0-8.37-7.87,84.77,84.77,0,0,0-11-8c-3.52-2-7.08-4-10.73-5.82-1.48-.73-1.48-1.12-.18-2.14a36.9,36.9,0,0,0,3.92-3.11c3.95-4,8.22-7.75,11.35-12.59a94,94,0,0,0,5.06-8.37,67.55,67.55,0,0,0,6.83-25.41,64.16,64.16,0,0,0-1.1-16.65,68.07,68.07,0,0,0-7.89-21.19,50.9,50.9,0,0,0-6.81-9.48,73.31,73.31,0,0,0-17.1-14.07,67.14,67.14,0,0,0-28-8.74,63.46,63.46,0,0,0-16.43.81,70.87,70.87,0,0,0-22.54,8.32,72,72,0,0,0-6.71,4.56c-2.73,2-4.92,4.54-7.35,6.85A56.45,56.45,0,0,0,170.91,136a64,64,0,0,0-7.08,25.6,65.88,65.88,0,0,0,18.57,51.18,95.56,95.56,0,0,0,9.65,8.34c-1.5.88-2.75,1.72-4.09,2.39a106.1,106.1,0,0,0-22.87,15.89A91,91,0,0,0,154,251.59a85.17,85.17,0,0,0-10.58,18.16c-5,11.4-7.33,23.47-8.43,35.81-.16,1.85.08,2.1,1.93,2.11,4.88,0,9.76,0,14.63,0,2.45,0,2.7-.18,2.61-2.57-.18-4.51.75-8.88,1.72-13.21a76.46,76.46,0,0,1,27.76-43.46A81.37,81.37,0,0,1,201.81,238a79,79,0,0,1,28.13-5.68c1.79-.06,3.47.5,5.22.5a43.35,43.35,0,0,1,9.42,1.29,83.54,83.54,0,0,1,21.62,8.12,76.26,76.26,0,0,1,29.17,28.58,84.45,84.45,0,0,1,7.78,19c.39,1.42.37,3,1.27,4.21a1.58,1.58,0,0,0,1.11-.62l11.88-11.88C319.6,279.27,319.8,278.75,318.53,276Zm-89.82-62.48a47.27,47.27,0,0,1,1-94.52c26.36.25,47.22,21,47.19,47.53A47.13,47.13,0,0,1,228.71,213.56Z"/><path class="cls-1" d="M367.52,276.73a3,3,0,0,1-.39.59c-4.28,4-8,8.49-12.1,12.61q-28.77,28.74-57.51,57.52a22.87,22.87,0,0,0-1.51,1.81,2.77,2.77,0,0,1-1.76-1.09c-1.59-1.57-3.17-3.16-4.75-4.74-12.14-12.17-23.9-24.7-36.21-36.7-1.44-1.41-1.42-1.47-.08-2.82q5-5,10-10c1.31-1.29,1.36-1.3,2.66,0q9,9,18,18l10.36,10.35c.22.22.48.4.71.59a5.87,5.87,0,0,0,2-1.71l55.66-55.65c2-2,1.94-1.94,3.83,0,3.15,3.18,6.33,6.33,9.49,9.51A6.43,6.43,0,0,1,367.52,276.73Z"/></g></g></svg>