<svg xmlns="http://www.w3.org/2000/svg" viewBox="0 0 93.5 101.73"><defs><style>.cls-1{fill:#4f5a8d;}.cls-2{fill:#fbb03b;}.cls-3{fill:#fab03b;}</style></defs><title>Your Upload PDF Student New Website</title><g id="Layer_2" data-name="Layer 2"><g id="Layer_1-2" data-name="Layer 1"><path class="cls-1" d="M47,69q0,7.56,0,15.12a.75.75,0,0,0,.49.82,4.69,4.69,0,0,1-2.23,8.92,4.72,4.72,0,0,1-4.47-4A4.65,4.65,0,0,1,43.41,85a.8.8,0,0,0,.54-.9q0-11.08,0-22.16c0-2.73,0-5.46,0-8.19,0-.15,0-.31,0-.46,0-.53-.22-.72-.76-.72H38.62c-.59,0-.75.16-.75.76,0,1.17,0,2.35,0,3.52,0,3.15,0,6.31,0,9.46a.74.74,0,0,0,.52.85,4.68,4.68,0,0,1,2.76,4.81,4.71,4.71,0,1,1-6.56-4.85A.91.91,0,0,1,34.8,67c.3,0,.35-.22.34-.49,0-.9,0-1.81,0-2.71,0-.54,0-1.08,0-1.61s-.15-.86-.84-.86l-5.08,0c-.71,0-1.42,0-2.13,0-.33,0-.45.11-.57.4a4.54,4.54,0,0,1-3.8,3,4.7,4.7,0,1,1-.44-9.35,4.5,4.5,0,0,1,4.15,2.81.66.66,0,0,0,.72.47c2.35-.06,4.69,0,7,0h.17c.65,0,.8-.17.77-.85-.07-1.48-.06-3,0-4.44,0-.63-.12-.77-.77-.77a3.92,3.92,0,0,1-1.26-.12,1.22,1.22,0,0,1-.89-1.26,1.27,1.27,0,0,1,.89-1.27,2.07,2.07,0,0,1,.91-.06c.91.12,1.2-.11,1.15-1-.06-1.23-.07-2.46,0-3.69a2.49,2.49,0,0,0-1.42-2.5,2.85,2.85,0,0,1-1.43-2.12,5.91,5.91,0,0,1-.12-1.2q0-8.57,0-17.14a5.53,5.53,0,0,1,.16-1.37,4.23,4.23,0,0,1,4-3.22H53.58a6.29,6.29,0,0,1,1.6.17,4.17,4.17,0,0,1,3.2,4c0,1,0,2,0,2.94q0,7.18,0,14.37a6,6,0,0,1-.16,1.54,3.85,3.85,0,0,1-2,2.53,1.22,1.22,0,0,0-.75,1.27c0,1.5,0,3,0,4.5,0,.15,0,.31,0,.46a.4.4,0,0,0,.41.4l.52,0,16.67,0c2,0,4.08,0,6.11-.06a11.78,11.78,0,0,0,1.73-23.4c-.43-.08-.88-.1-1.32-.14l-.46,0c-1.19-.11-1.52-.42-1.72-1.61a11.75,11.75,0,0,0-14.06-9.86,5.06,5.06,0,0,1-.57.07,1,1,0,0,1-1-.43c-.22-.29-.42-.6-.61-.91A21.94,21.94,0,0,0,27,9.07a20.86,20.86,0,0,0-6,10.62c-.17.73-.28,1.47-.41,2.21a4,4,0,0,1-.26,1,1.07,1.07,0,0,1-1,.67,3.53,3.53,0,0,1-.8-.07,13.25,13.25,0,0,0-5.35,25.95,14.49,14.49,0,0,0,3.26.35H27.12a5.15,5.15,0,0,1,.8,0,1.25,1.25,0,0,1,1.17,1.44,1.32,1.32,0,0,1-1.33,1.26c-.6,0-1.19,0-1.79,0-2.31,0-4.61.08-6.92.07a35.26,35.26,0,0,1-5.29-.29,15.5,15.5,0,0,1-12.6-9.92,20.8,20.8,0,0,1-1-3.49A21.15,21.15,0,0,1,0,34.52a10,10,0,0,1,.49-2.89,15.22,15.22,0,0,1,4.64-7.16A15.77,15.77,0,0,1,16.8,20.31H17c.54,0,.74-.14.86-.66A25,25,0,0,1,35.16.86,17,17,0,0,1,38.65.16,46,46,0,0,1,45.22.07a20,20,0,0,1,7.53,2A24.87,24.87,0,0,1,63.17,11a1.24,1.24,0,0,0,1.21.61,20.6,20.6,0,0,1,2.25,0A14.74,14.74,0,0,1,80,22.29,1.37,1.37,0,0,0,81.2,23.4a14.77,14.77,0,0,1,11.4,8.9,10.55,10.55,0,0,1,.88,4.32c0,.81,0,1.62,0,2.42a11.86,11.86,0,0,1-2.34,7.33,14.68,14.68,0,0,1-10,6.25,24.62,24.62,0,0,1-3.91.26H57.07c-1.22,0-1.25,0-1.26,1.27q0,1.59,0,3.17c0,.8.2,1,1,1l5.31,0h1.44a.78.78,0,0,0,.75-.5,4.74,4.74,0,0,1,7.59-1.12,4.22,4.22,0,0,1,1.16,4.55,4.69,4.69,0,0,1-3.76,3.36,4.6,4.6,0,0,1-5-2.53.74.74,0,0,0-.61-.45,4.47,4.47,0,0,0-.58,0H56.92c-1,0-1.1.07-1.1,1.13s0,2.27,0,3.4c0,.13,0,.27,0,.4a.7.7,0,0,0,.44.66A4.74,4.74,0,0,1,57,75.11a4.71,4.71,0,1,1-5-7.92.8.8,0,0,0,.52-.84q0-6.23,0-12.46c0-.12,0-.23,0-.35,0-.45-.19-.61-.65-.64s-.69,0-1,0c-1,0-2.08,0-3.12,0-.68,0-.88.22-.85.87.2,3.48.1,7,.13,10.44C47,65.82,47,67.43,47,69Z"/><path class="cls-1" d="M25.76,84.87l-.28,0a8.56,8.56,0,0,0-2.3,0,1,1,0,0,1-.7-.17,5.68,5.68,0,0,1-2-2.5,1.15,1.15,0,0,1-.09-.72,18.21,18.21,0,0,0,.29-2.17,6.4,6.4,0,0,0-.05-.8.77.77,0,0,0-.81-.67.75.75,0,0,0-.84.68,3.19,3.19,0,0,0,0,1.09,10.2,10.2,0,0,0,.39,2,1.42,1.42,0,0,1-.1,1.1c-.52,1.13-1.09,2.24-1.69,3.34a1.63,1.63,0,0,1-.75.75,6.28,6.28,0,0,0-1.87,1.33,2,2,0,0,0-.49.77.5.5,0,0,0,.27.67,1.1,1.1,0,0,0,1.2,0,3.18,3.18,0,0,0,.77-.69A11.14,11.14,0,0,0,17.94,87a.93.93,0,0,1,.61-.47c.92-.27,1.85-.49,2.79-.71a2.38,2.38,0,0,1,2,.23,2.41,2.41,0,0,0,.48.19,6.09,6.09,0,0,0,1.68.39c.64,0,1-.2,1-.74S26.39,85,25.76,84.87ZM15.34,89a3.5,3.5,0,0,1,1.31-1.51A3.65,3.65,0,0,1,15.34,89Zm4.54-10.7A2,2,0,0,1,20,80.52,4.25,4.25,0,0,1,19.88,78.26Zm-1.32,7.68a27.36,27.36,0,0,0,1.37-2.85,7.43,7.43,0,0,0,1.72,2A26.83,26.83,0,0,0,18.55,85.95Zm7.2.07a3.22,3.22,0,0,1-1.52-.46,2.78,2.78,0,0,1,1.56,0c.14,0,.34.09.33.27S25.9,86,25.75,86Z"/><path class="cls-1" d="M29.63,78.38c-.44-.16-.44-.16-.44-.63a4.78,4.78,0,0,0-1.08-3.15c-.91-1.09-1.86-2.15-2.85-3.17a3.38,3.38,0,0,0-2.46-1.09H13.62a1.51,1.51,0,0,0-1.49,1.06,2.64,2.64,0,0,0-.13.91q0,4.47,0,8.94t0,8.82a5.76,5.76,0,0,0,0,.58,1.59,1.59,0,0,0,1.69,1.53H27.43a1.6,1.6,0,0,0,1.74-1.65c0-.19,0-.38,0-.57V84.8c0-.47,0-.47.44-.63a3.06,3.06,0,0,0,0-5.8Zm-5.39-5.93a19.94,19.94,0,0,1,3.07,3.35H26c-.46,0-.92,0-1.38,0-.28,0-.36-.1-.35-.37C24.25,74.44,24.24,73.44,24.24,72.44Zm3.68,17.72c0,.6,0,.63-.68.63H13.93c-.62,0-.65,0-.65-.65q0-4.47,0-8.94V72.55c0-.13,0-.27,0-.4,0-.37.08-.44.45-.44.6,0,1.19,0,1.79,0h7.21c.24,0,.35.08.34.33s0,.77,0,1.15c0,1.19,0,2.38,0,3.58,0,.29.07.39.38.39,1.33,0,2.65,0,4,0,.5,0,.5,0,.51.5,0,.08,0,.16,0,.23,0,.28-.06.43-.36.54a2.92,2.92,0,0,0-1.83,1.87,3,3,0,0,0,1.79,3.82.51.51,0,0,1,.4.57C27.92,86.51,27.93,88.34,27.92,90.16Z"/><path class="cls-1" d="M66.53,94.48c-.11,0-.23,0-.34-.06a7.22,7.22,0,0,0-2.07,0c-.71.06-.71.06-1.13-.24a5.83,5.83,0,0,1-1.83-2.39,1.2,1.2,0,0,1-.08-.78,19.88,19.88,0,0,0,.28-2.17,1.87,1.87,0,0,0-.12-1,.79.79,0,0,0-.9-.46.7.7,0,0,0-.68.66,4.28,4.28,0,0,0,0,.86A11.54,11.54,0,0,0,60,91.31a1.09,1.09,0,0,1-.07.77c-.52,1.18-1.11,2.32-1.72,3.45a1.77,1.77,0,0,1-.83.83,5.94,5.94,0,0,0-1.78,1.26,1.91,1.91,0,0,0-.52.81.5.5,0,0,0,.26.67,1.08,1.08,0,0,0,1.2,0,3.39,3.39,0,0,0,.81-.73,11.18,11.18,0,0,0,1.2-1.76.94.94,0,0,1,.6-.48c1.08-.32,2.19-.58,3.29-.81a1.72,1.72,0,0,1,1.2.17,6.29,6.29,0,0,0,2.58.73.75.75,0,0,0,.91-.68C67.28,94.95,67.11,94.65,66.53,94.48ZM56,98.53a3.33,3.33,0,0,1,1.21-1.43A3.16,3.16,0,0,1,56,98.53Zm4.52-10.7a2,2,0,0,1,.11,2.29A5.7,5.7,0,0,1,60.52,87.83Zm-1.34,7.71a28.78,28.78,0,0,0,1.39-2.83,8,8,0,0,0,1.7,2C61.21,94.93,60.25,95.18,59.18,95.54Zm7.47,0a.54.54,0,0,1-.22,0,3.19,3.19,0,0,1-1.62-.5,3.55,3.55,0,0,1,1.66.08.61.61,0,0,1,.25.14C66.83,95.41,66.78,95.5,66.65,95.56Z"/><path class="cls-1" d="M70.33,88c-.5-.19-.51-.19-.5-.75a4.62,4.62,0,0,0-1.06-3C67.85,83.08,66.9,82,65.91,81a3.37,3.37,0,0,0-2.47-1.09c-3.06,0-6.12,0-9.17,0a1.61,1.61,0,0,0-1.54,1.29,4.06,4.06,0,0,0-.05.75q0,4.44,0,8.89v8.83c0,.17,0,.35,0,.52a1.56,1.56,0,0,0,1.69,1.56h10c1.29,0,2.58,0,3.87,0a1.33,1.33,0,0,0,.95-.33,1.82,1.82,0,0,0,.6-1.44c0-1.85,0-3.69,0-5.54,0-.5,0-.5.47-.67a3.07,3.07,0,0,0,0-5.78Zm-5.42-6A23.76,23.76,0,0,1,68,85.37H65.2c-.18,0-.3,0-.29-.25C64.91,84.09,64.91,83.06,64.91,82Zm3.67,17.71c0,.62,0,.66-.65.66H54.6c-.63,0-.69-.06-.69-.69q0-4.44,0-8.88V82.26c0-.13,0-.27,0-.4,0-.52.08-.59.62-.59h8.65c.52,0,.52,0,.52.55,0,1.48,0,3,0,4.44,0,.46,0,.46.48.46H68c.52,0,.52,0,.54.55a1,1,0,0,0,0,.17c.05.32-.07.46-.39.58a3,3,0,0,0,0,5.66.54.54,0,0,1,.42.62C68.57,96.1,68.58,97.9,68.58,99.71Z"/><path class="cls-2" d="M55.64,30.73q0,4.21,0,8.42c0,.12,0,.23,0,.35A1.46,1.46,0,0,1,54.18,41c-.25,0-.5,0-.75,0H47.49c-.7,0-.85-.14-.84-.84a7.27,7.27,0,0,1,.05-1.44c.11-.54.28-.74.82-.81a9.52,9.52,0,0,1,1.15,0c.77,0,1.54,0,2.31,0,1.06,0,1.52-.47,1.53-1.52q0-2.8,0-5.6a1.33,1.33,0,0,0-1.16-1.42,1.29,1.29,0,0,0-1.5,1.17,12.53,12.53,0,0,0,0,1.32c0,.85,0,1.69,0,2.54,0,.67-.1.77-.77.77h-7.5c-.64,0-.75-.09-.75-.73,0-1.38,0-2.77,0-4.15,0-1,0-2,0-3a4.78,4.78,0,0,1,0-.52c0-.41.17-.58.57-.59.79,0,1.58,0,2.36,0,.33,0,.3.22.3.44q0,2,0,4c0,.17,0,.35,0,.52a1.38,1.38,0,0,0,1.4,1.38,1.36,1.36,0,0,0,1.33-1.38c0-1.19,0-2.38,0-3.58,0-.33,0-.65,0-1s0-.41.43-.42l3.46,0a4.44,4.44,0,0,0,.75,0,1.23,1.23,0,0,0,1.09-1.16,1.27,1.27,0,0,0-.91-1.37,2.31,2.31,0,0,0-.79-.12h-11a2.51,2.51,0,0,0-.74.09,1.19,1.19,0,0,0-.85.86,2.77,2.77,0,0,0-.1.8q0,5.48,0,11c0,.1,0,.19,0,.29a1.32,1.32,0,0,0,1.41,1.41c.46,0,.92,0,1.38,0h2.37c.55,0,.68.13.7.68s0,1,0,1.5a.82.82,0,0,1-.8.89,4.13,4.13,0,0,1-.75.05H36.52A1.49,1.49,0,0,1,35,39.42c0-.69,0-1.38,0-2.08q0-7.44,0-14.89a4.2,4.2,0,0,1,.07-.92,1.41,1.41,0,0,1,1.2-1.16,3,3,0,0,1,.57,0h17a2.81,2.81,0,0,1,.57.05,1.4,1.4,0,0,1,1.22,1.34,9.76,9.76,0,0,1,0,1.09q0,4,0,7.9Z"/><path class="cls-2" d="M41,43.76h2.36c.51,0,.61.1.62.6q0,2.42,0,4.84c0,.49-.13.61-.62.62H38.55c-.56,0-.69-.13-.69-.68q0-2.36,0-4.72c0-.56.11-.66.69-.66Z"/><path class="cls-2" d="M49.67,49.82H47.36c-.58,0-.72-.13-.72-.71q0-2.34,0-4.67c0-.54.14-.68.69-.68h4.73c.57,0,.67.11.68.67q0,2.34,0,4.67c0,.61-.11.71-.7.71H49.67Z"/><path class="cls-2" d="M22.15,61.83A1.79,1.79,0,0,1,20.34,60a1.81,1.81,0,1,1,3.62,0A1.79,1.79,0,0,1,22.15,61.83Z"/><path class="cls-2" d="M55.86,71.39a1.8,1.8,0,1,1-1.79-1.79A1.78,1.78,0,0,1,55.86,71.39Z"/><path class="cls-2" d="M36.48,73.21a1.8,1.8,0,1,1,1.8-1.8A1.81,1.81,0,0,1,36.48,73.21Z"/><path class="cls-2" d="M45.4,91a1.76,1.76,0,0,1-1.78-1.79,1.8,1.8,0,1,1,3.59,0A1.75,1.75,0,0,1,45.4,91Z"/><path class="cls-2" d="M70.27,60a1.8,1.8,0,0,1-3.59,0,1.8,1.8,0,1,1,3.59,0Z"/><path class="cls-3" d="M26.39,81.29A2.2,2.2,0,0,1,28.64,79a2.24,2.24,0,1,1,0,4.49A2.21,2.21,0,0,1,26.39,81.29Z"/><path class="cls-3" d="M69.28,93.08A2.21,2.21,0,0,1,67,90.87a2.25,2.25,0,1,1,4.5,0A2.22,2.22,0,0,1,69.28,93.08Z"/><path class="cls-1" d="M28.35,81c-.28,0-.35.25-.5.35a.25.25,0,0,1-.32,0,.23.23,0,0,1,0-.36c.29-.31.59-.6.89-.89a.24.24,0,0,1,.36,0l.9.89a.22.22,0,0,1,0,.35.23.23,0,0,1-.31,0c-.14-.12-.28-.25-.51-.46,0,.57,0,1,0,1.5,0,.2.07.49-.23.5s-.24-.28-.24-.47C28.35,81.94,28.35,81.48,28.35,81Z"/><path class="cls-1" d="M69.48,90.54c0,.48,0,.92,0,1.36a2.28,2.28,0,0,1,0,.34.22.22,0,0,1-.23.21.21.21,0,0,1-.22-.22c0-.19,0-.38,0-.57,0-.36,0-.72,0-1.12-.25,0-.33.22-.47.33s-.24.15-.36,0-.09-.28,0-.4L69,89.7a.29.29,0,0,1,.45,0l.81.81c.1.1.16.23.06.36s-.27.09-.4,0S69.74,90.58,69.48,90.54Z"/></g></g></svg>